<svg xmlns="http://www.w3.org/2000/svg" viewBox="0 0 240 346"><defs><style>.cls-1,.cls-11,.cls-16{fill:#fff;}.cls-2{fill:#006f49;}.cls-3{fill:#a0caec;}.cls-4{fill:#c8c9ca;}.cls-10,.cls-15,.cls-18,.cls-19,.cls-20,.cls-21,.cls-22,.cls-5,.cls-8{fill:none;}.cls-5{stroke:#9e9e9f;stroke-width:1.34px;}.cls-10,.cls-11,.cls-18,.cls-19,.cls-20,.cls-21,.cls-22,.cls-5{stroke-miterlimit:10;}.cls-6{fill:#a5be83;}.cls-7{fill:#3e3a39;}.cls-15,.cls-8{stroke:#fff;}.cls-15,.cls-16,.cls-8{stroke-linejoin:round;}.cls-8{stroke-width:1.77px;}.cls-9{fill:#231815;}.cls-10{stroke:#3e3a39;}.cls-10,.cls-11{stroke-width:0.5px;}.cls-11{stroke:#656261;}.cls-12{fill:#fff000;}.cls-13{fill:#d7092f;}.cls-14{fill:#81c0e9;}.cls-15{stroke-width:0.76px;}.cls-16{stroke:#00a26a;}.cls-16,.cls-18,.cls-19,.cls-20,.cls-21,.cls-22{stroke-width:0.75px;}.cls-17{fill:#7a7777;}.cls-18,.cls-19,.cls-20,.cls-21,.cls-22{stroke:#c8c9ca;}.cls-19{stroke-dasharray:1 1;}.cls-20{stroke-dasharray:0.96 0.96;}.cls-21{stroke-dasharray:1 1;}.cls-22{stroke-dasharray:1.01 1.01;}</style></defs><g id="レイヤー_2" data-name="レイヤー 2"><g id="写真"><rect class="cls-1" width="240" height="346"/></g><g id="文字"><path class="cls-2" d="M139.49,123.07h3.58v0l-2.9,2.1,1.14,3.47h0l-2.94-2.13-2.94,2.13h0l1.13-3.47-2.9-2.1v0h3.59l1.13-3.44h0Z"/><rect class="cls-3" x="84.81" y="11.26" width="7.27" height="199.46"/><rect class="cls-4" x="80.29" y="49.21" width="17.05" height="14.94"/><rect class="cls-4" x="80.29" y="105.98" width="17.05" height="14.94"/><rect class="cls-4" x="80.29" y="179.58" width="17.05" height="14.94"/><polyline class="cls-5" points="77.59 103.28 80.29 105.98 96.38 105.98 99.29 103.07"/><polyline class="cls-5" points="77.59 123.61 80.29 120.91 96.38 120.91 99.29 123.82"/><polyline class="cls-5" points="77.59 46.51 80.29 49.21 96.38 49.21 99.29 46.3"/><polyline class="cls-5" points="77.59 66.84 80.29 64.14 96.38 64.14 99.29 67.05"/><polyline class="cls-5" points="77.59 176.88 80.29 179.58 96.38 179.58 99.29 176.67"/><polyline class="cls-5" points="77.59 197.21 80.29 194.51 96.38 194.51 99.29 197.42"/><rect class="cls-6" x="24.79" y="11.26" width="15.1" height="199.46"/><rect class="cls-6" x="174.3" y="11.26" width="10.78" height="199.46"/><rect class="cls-6" x="9.69" y="51.28" width="224.24" height="10.78"/><rect class="cls-6" x="9.69" y="181.66" width="224.24" height="10.78"/><rect class="cls-6" x="9.69" y="108.05" width="224.24" height="10.78"/><path class="cls-7" d="M19.93,131.65h-.7v.92h.49c.54,0,1.19,0,1.73-.06v.72c-.79-.06-1.52-.06-1.73-.06H18q-.86,0-1.71.06v-.72c.66.05,1.54.06,1.71.06h.5v-.92h-.67c-.69,0-1.44,0-2.12,0V131c.84,0,1.85.06,2.12.06h.66c0-.55,0-.8,0-1l.71,0c.09,0,.16,0,.16.1s-.07.11-.14.15c0,.43,0,.47,0,.76h.7c.69,0,1.46,0,2.14-.06v.71C21.1,131.65,20.05,131.65,19.93,131.65Zm.33,4.74s0-.2,0-.3H17.52s0,.26,0,.31h-.78c.06-.75.06-.94.06-1.09v-.64c0-.11,0-.71,0-.78a1.3,1.3,0,0,1,0-.18l.44,0h2.36c.59,0,1.16,0,1.44,0,0,.29,0,.33,0,.39s0,.4,0,.47v.7c0,.31,0,.45.05,1.12Zm0-2h-2.8v1.17h2.8Z"/><path class="cls-7" d="M18.84,142.53c-.73.14-1.43.26-2.77.42,0,.07-.09.18-.18.18s-.08,0-.09-.13l-.12-.72c.53,0,.68,0,1.47-.09v-.73h-.21a9.5,9.5,0,0,0-1.07,0v-.68c.42,0,.84,0,1.07,0h.21v-.64H17c-.29,0-.45,0-1,0,0-.48,0-.61,0-1v-1c0-.4,0-.52,0-1,.42,0,.62,0,1,0h.94c.3,0,.46,0,1,0,0,.48,0,.61,0,1v1c0,.41,0,.52,0,1-.41,0-.62,0-1,0h-.17v.64c.13,0,.57,0,1,0v.68a8.71,8.71,0,0,0-1,0v.68L19,142Zm-1.69-4.73h-.6v.7h.6Zm0,1.21h-.6v.71h.6Zm1.2-1.21h-.61v.7h.61Zm0,1.21h-.61v.71h.61Zm3.27,1.53c-.16.24-.38.59-.47.71l-.49-.37a9.11,9.11,0,0,0,.59-.88h-.61v2.83c0,.52-.32.52-.83.52l-.32,0-.29-.69c.06,0,.52.09.64.09s.18-.06.18-.29V140c-.33,0-.65,0-1,0v-.57c.26,0,.59,0,1,0h.4a3.49,3.49,0,0,0-1-1l.45-.39a3.65,3.65,0,0,1,.51.37l.66-.67h-.77c-.34,0-.89,0-1.23.05v-.62c.25,0,.47,0,.9,0h.94a6.89,6.89,0,0,0,.8,0l.33.43a5.42,5.42,0,0,0-.61.58l-.64.63a3.85,3.85,0,0,1,.29.38l-.22.23a7.61,7.61,0,0,0,1-.08l.28.38A5,5,0,0,0,21.62,140.54Z"/><path class="cls-7" d="M21.55,150a3.67,3.67,0,0,1-1.72-2.11,6.79,6.79,0,0,1-.35-1.76h-.4a2.4,2.4,0,0,1-.36.41,3.35,3.35,0,0,1,1.1,2.26c0,.63-.35,1.57-1.06,1.57H18.3l-.35-.81a2.11,2.11,0,0,0,.66.15c.35,0,.59-.49.59-1a1.7,1.7,0,0,0,0-.28,7.11,7.11,0,0,1-1.45,1.11,4.52,4.52,0,0,1-1.47.49l-.46-.57a3.83,3.83,0,0,0,2.13-.69,6.12,6.12,0,0,0,1.08-.9c-.08-.17-.13-.25-.17-.33A5.81,5.81,0,0,1,16.52,149l-.52-.59a4,4,0,0,0,2.52-1.24,1.83,1.83,0,0,0-.23-.24,6.15,6.15,0,0,1-2,.91l-.49-.55a4,4,0,0,0,2.52-1.11h-.63l-.72,0v-.54c.24,0,.51,0,.72,0h2.45c.23,0,.58,0,.73,0v.54c-.28,0-.54,0-.8,0a4.57,4.57,0,0,0,.19,1.3,4.08,4.08,0,0,0,.84-.79l.4.31c.07.06.2.15.2.21s-.15.1-.28.1a11.34,11.34,0,0,1-.93.74A2.76,2.76,0,0,0,22,149.44Zm-.31-3.88c0-.15,0-.32,0-.46v-.47H16.57v.49c0,.17,0,.33,0,.48h-.67a5.43,5.43,0,0,0,0-.57v-.41a4.26,4.26,0,0,0,0-.51c.17,0,.37,0,.78,0h1.88c0-.13,0-.39,0-.65l.52,0c.32,0,.36,0,.36.1s-.06.13-.21.2,0,.2,0,.31h2c.23,0,.52,0,.69,0,0,.2,0,.39,0,.56v.36c0,.11,0,.34,0,.53Z"/><path class="cls-7" d="M110.85,159.21h-2.5c-.21,0-1.31,0-1.83,0v-.69c.37,0,.54,0,1.43,0l.64-2.08h-.2c-.13,0-.81,0-1,0v-.63c.23,0,.88,0,1,0h.37l.45-1.47h-.61c-.37,0-1.08,0-1.55,0v-.66c.49,0,1.22,0,1.55,0h2c.37,0,1.08,0,1.55,0v.66c-.49,0-1.23,0-1.55,0h-.68l-.45,1.47h1c.14,0,.81,0,1,0,0,.24-.13,1-.14,1l-.17,1.64c1,0,1.14,0,1.5,0v.69C112.12,159.21,110.9,159.21,110.85,159.21Zm-1.53-2.71-.64,2.08h1.8l.22-2.08Z"/><path class="cls-7" d="M115.49,157.13h-.86a4.07,4.07,0,0,1-.73,2.42l-.68-.28a3.26,3.26,0,0,0,.81-2.35v-1.26c0-.11,0-.6,0-.7l.21,0,.63,0h.69l.82,0c0,.28,0,.6,0,.81v.65c0,.22,0,.33,0,.74C115.93,157.14,115.79,157.13,115.49,157.13Zm.13-2.76h-1c-.16,0-.7,0-1,0v-.68c.34,0,.82,0,1,0h1a7.94,7.94,0,0,0,1,0v.68A9.61,9.61,0,0,0,115.62,154.37Zm.1,1.18h-1.07v1h1.07Zm3.18.64V158c0,.28,0,1,.07,1.76h-.72c0-.55,0-1,0-1.78v-1.78h-.86a4.32,4.32,0,0,1-1.23,3.37l-.7-.41a3.47,3.47,0,0,0,1.31-3.12v-1.31c0-.12,0-.6,0-.73a4,4,0,0,0,1.26-.12,3.42,3.42,0,0,0,1-.39l.5.47c.06.05.07.08.07.12s0,.07-.09.07l-.21,0a5.81,5.81,0,0,1-1.89.47v1.06h1.14c.46,0,1,0,1.21-.06v.64Z"/><path class="cls-7" d="M121.92,153.91c0,.14,0,.42,0,.62v1.71a4.93,4.93,0,0,1-.33,2.22,3.36,3.36,0,0,1-.76,1.15l-.56-.55a3.34,3.34,0,0,0,1-2.88c0-.87,0-1.76-.08-2.63l.78.08c.1,0,.13.05.13.13S122.05,153.81,121.92,153.91Zm2.07.1c0,.44,0,.85,0,1.29v1.61c0,.1,0,1.81.09,2.25h-.84c0-.3,0-.68,0-1.12,0-.68,0-.77,0-1.11v-1.6c0-.4,0-1.35-.05-1.7l.82.06s.12,0,.12.1S124.16,153.86,124,154Zm2.12-.11a.81.81,0,0,0,0,.15c0,.3,0,.41,0,1.38v1.79c0,.76.07,1.59.13,2.39h-.87c0-.37,0-.63,0-2.05V155.4c0-.61,0-1.29,0-1.89l.82.09a.12.12,0,0,1,.11.1C126.28,153.78,126.21,153.83,126.11,153.9Z"/><path class="cls-7" d="M132.56,154.21l-.68,0h-.25a3.65,3.65,0,0,1-.29.71h.48s.86,0,1.28,0c0,.3,0,.72,0,1v.58c0,.4,0,.93,0,1.11-.09,0-.13,0-.46,0h-1.08v1.36c0,.06,0,.34,0,.4s0,.42-.66.42a2.53,2.53,0,0,1-.35,0l-.26-.7a2.81,2.81,0,0,0,.5.09c.11,0,.11-.08.11-.24v-1.3h-.44c-.15,0-.93,0-1.15,0,0-.17,0-.89,0-1v-.64c0-.3,0-.77,0-1.07.23,0,.76,0,1,0h.33a2.19,2.19,0,0,0,.24-.71h-2c0,.26,0,1.39,0,1.62a6.59,6.59,0,0,1-.83,3.81l-.68-.37a5.33,5.33,0,0,0,.79-3.4,21.06,21.06,0,0,0-.08-2.26c.5,0,1.37,0,1.88,0h2l1.76,0v.65Zm-2.34,4.28a3.36,3.36,0,0,1-.89,1.06l-.55-.4a2.2,2.2,0,0,0,1-1.23l.65.3s.12.05.12.12S130.31,158.48,130.22,158.49Zm2.19-3.07H130V156h2.45Zm0,1.05H130v.59h2.45Zm.68,3a5.6,5.6,0,0,0-1-1.13l.44-.39a5.07,5.07,0,0,1,1.13,1.1Z"/><path class="cls-7" d="M111.22,162.9l-.39.85c.54,0,1.18,0,1.63,0v2.62c0,.13,0,.73,0,.85,0,.48,0,.71-.77.71l-.31,0-.31-.7a4.19,4.19,0,0,0,.52.05c.08,0,.18,0,.21,0a.5.5,0,0,0,0-.16v-1.94a.79.79,0,0,1-.77.32h-.59c-.64,0-.67-.23-.67-.58v-.54h-1.08l.53.19s.12.05.12.11-.08.12-.25.16a2.8,2.8,0,0,1-1.26,1l-.53-.47v1.79c0,.61,0,.68,0,.81h-.71c0-.37.07-1,.07-1.41V165c0-.24,0-1.14-.06-1.34.26,0,1.43,0,1.67.06l-.32-.85-.73,0c-.58,0-.65,0-.77,0v-.66c.8,0,1.61,0,2.18,0h.58c0-.26,0-.64,0-.76l.8.07c.09,0,.13,0,.13.11s0,.12-.21.15c0,0,0,.41,0,.43h1.16l1.62,0V163C112.06,162.91,111.74,162.9,111.22,162.9Zm-3.89,1.39v1a2.38,2.38,0,0,0,1.32-1Zm2.64,3.09h-1.11a.8.8,0,0,0,0,.27h-.7a3,3,0,0,0,.07-.76v-.54c0-.54,0-.6,0-.71l.9,0H110l.91,0c0,.11,0,.47,0,.71v.37c0,.17,0,.25,0,.69C110.55,167.4,110.29,167.38,110,167.38Zm-1.29-4.48.33.85h1.14l.4-.85Zm1.58,3.28h-1.4v.69h1.4Zm1.57-1.89h-1.37v.3c0,.2.09.24.28.24h.34c.08,0,.25,0,.26-.32l.49.24Z"/><path class="cls-7" d="M117.78,166.14h-.35a3.52,3.52,0,0,0,2.22,1.09l-.37.59a4.42,4.42,0,0,1-1.53-.66,3.8,3.8,0,0,1-.83-.77,11.41,11.41,0,0,0,.07,1.52h-.74a7.83,7.83,0,0,0,0-.92v-.51a5.94,5.94,0,0,1-2.18,1.38l-.46-.55a4.37,4.37,0,0,0,2.16-1.17h-.44c-.43,0-1.42,0-1.8,0v-.58c.29,0,1.48.05,1.81.05h.92v-.36H116l-1.64.05v-.58l1.27,0h.67v-.39H116l-2,0v-.62l.83,0,.43,0c-.06-.11-.19-.36-.31-.56-.22,0-.51,0-1.41,0v-.61l1,0h.29a2.79,2.79,0,0,0-.67-.72l.49-.37a2,2,0,0,1,.7.75l-.39.35h.68V161.6l.73.07s.12,0,.12.11,0,.09-.2.13c0,.16,0,.85,0,.91h.56c0-1,0-1.1,0-1.24l.73.09a.1.1,0,0,1,.09.1c0,.09-.09.11-.19.14s0,.11,0,.47v.44h.56l-.34-.21a3.54,3.54,0,0,0,.71-.91l.61.36a.17.17,0,0,1,.06.1c0,.09-.1.09-.26.09s-.4.48-.47.56c.29,0,1,0,1.27,0v.6l-1.35,0a4.68,4.68,0,0,1-.33.56l1.21,0v.58c-.26,0-.33,0-.87,0l-.76,0h-.64v.39h.45c.31,0,1.26,0,1.58,0v.57l-.85,0h-1.18v.36h.87l1.89,0v.57C119.41,166.14,118.07,166.14,117.78,166.14Zm-2.13-2.81a5.6,5.6,0,0,1,.27.58h1.37a6.46,6.46,0,0,0,.31-.58Z"/><path class="cls-7" d="M125,162.76h-3.24a6.13,6.13,0,0,0-1.15,0v-.66c.37,0,1.7.06,2.1.06h.64c0-.1,0-.57,0-.66l.78.05s.11,0,.11.11-.11.14-.2.18a2.82,2.82,0,0,1,0,.32h1.46a9.89,9.89,0,0,0,1.27-.05v.66C126.34,162.77,125.35,162.76,125,162.76Zm.86,5.16h-.43l-.27-.69a4.72,4.72,0,0,0,.54.07c.14,0,.14,0,.14-.2v-1.54h-4.42c0,.64,0,1.8,0,2.38h-.71a9.47,9.47,0,0,0,0-1v-.85c0-.17,0-.94,0-1.09.32,0,1.65.06,2,.06h1.67l1.53,0,.5,0v1.85c0,.09,0,.51,0,.59C126.44,167.87,126.19,167.92,125.81,167.92Zm-1.75-3.23H122.3l-.53,0c0-.2,0-.43,0-.53v-.57c0-.07,0-.47,0-.54.4,0,1,0,1.37,0h1c.23,0,1,0,1.24,0a5.66,5.66,0,0,0,0,.57v.5a2.76,2.76,0,0,0,.06.57Zm0,2.76h-1.27v.23h-.66c0-.17,0-.52,0-.7v-.47c0-.16,0-.52,0-.62h1.93l1,0c0,.12,0,.52,0,.62v.36c0,.25,0,.45,0,.61Zm.73-3.81h-2.35v.54h2.35Zm-.34,2.75h-1.67v.55h1.67Z"/><path class="cls-7" d="M129.79,165.69a2.41,2.41,0,0,1-.68-.79V166c0,.53,0,.83,0,2h-.7c0-.59,0-1.26,0-2v-.69a4.24,4.24,0,0,1-.74,1.17l-.52-.4a5,5,0,0,0,1.18-2.52h-.1a4.08,4.08,0,0,0-.73.07v-.7a4.71,4.71,0,0,0,.73.07h.17c0-.75,0-.82,0-1.39l.76.06s.13,0,.13.11-.12.13-.24.19,0,.78,0,.89V163a5.76,5.76,0,0,0,.68-.07v.7c-.27-.05-.6-.06-.68-.07v.24a3.59,3.59,0,0,0,1.08,1.42Zm3.7,2.21a3.78,3.78,0,0,1-1.79-.93,4.05,4.05,0,0,1-1.91.92l-.39-.58a3.42,3.42,0,0,0,1.87-.8,4,4,0,0,1-.84-1.78l.61-.23a3.85,3.85,0,0,0,.66,1.48,5.28,5.28,0,0,0,.53-1.5l.61.22s.17.06.17.15-.17.12-.26.14a5.11,5.11,0,0,1-.62,1.47,3.26,3.26,0,0,0,1.69.81Zm-2.23-4.15a3.08,3.08,0,0,1-.95,1l-.59-.4a2.49,2.49,0,0,0,1.1-1.09l.57.32a.15.15,0,0,1,.07.12C131.46,163.75,131.36,163.75,131.26,163.75Zm1.18-.69h-1.15a9.08,9.08,0,0,0-1.17.06v-.69a11.6,11.6,0,0,0,1.17.06h.22c0-.11,0-.88,0-.94l.72.06c.08,0,.15,0,.15.11s-.06.09-.08.11l-.12.08c0,.11,0,.43,0,.58h.28a9.17,9.17,0,0,0,1.17-.06v.69A11.49,11.49,0,0,0,132.44,163.06Zm.66,1.65a5.42,5.42,0,0,0-1.13-1.05l.43-.44a5,5,0,0,1,1.21,1Z"/><path class="cls-7" d="M192.71,127.82a2.83,2.83,0,0,0,0-.42h-3.41c0,.1,0,.29,0,.41h-.79a8.2,8.2,0,0,0,.05-.91c0-.68,0-.76,0-.84v-1.45c0-.22,0-1.29,0-1.48.42.05,1.29.06,1.73.06h1.5c.5,0,1.24,0,1.73,0,0,.36-.05,1.19-.05,1.58v1.39c0,.14,0,.74,0,.86a4.34,4.34,0,0,0,.07.83Zm.08-4h-3.45v3h3.45Z"/><path class="cls-7" d="M198.84,125.8h-1.61a17.66,17.66,0,0,0-1.84.09v-.77a12.94,12.94,0,0,0,1.84.09h1.61a14.17,14.17,0,0,0,1.84-.09v.77A16,16,0,0,0,198.84,125.8Z"/><path class="cls-7" d="M203.45,125.14a4.09,4.09,0,0,0-1-1.35l.56-.46a5.45,5.45,0,0,1,1,1.39Zm3.92-1.5a5.51,5.51,0,0,1-1.64,3.31,5.71,5.71,0,0,1-1.93,1.17l-.54-.54a4.45,4.45,0,0,0,2.36-1.5,5.08,5.08,0,0,0,1-3.09l.81.35c.12,0,.15.08.15.12S207.6,123.55,207.37,123.64Z"/><path class="cls-7" d="M210.25,128s-.05.14-.07.16a.07.07,0,0,1-.07,0c-.05,0-.07,0-.15-.16l-.38-.73a9.19,9.19,0,0,0,4.93-3l.28.67A12.41,12.41,0,0,1,210.25,128Zm1-3.61a5.85,5.85,0,0,0-1.53-1l.39-.63a5.35,5.35,0,0,1,1.54,1Z"/><path class="cls-7" d="M190.54,89.71c0,.15,0,.55,0,.86V92.3c0,.23,0,1.21,0,1.4,0,1.12,0,1.36.05,1.84h-.8c0-.36,0-.5,0-.62s0-1,0-1.13l-.83.39-.58.25c-.05.15-.08.22-.15.22s-.05,0-.09-.15l-.2-.66a10.85,10.85,0,0,0,1.85-.72c0-.26,0-.31,0-.81v-.76h-1.2a3.5,3.5,0,0,0-.65.07v-.7a3.7,3.7,0,0,0,.65.07h1.2v-.86c0-.3,0-.57,0-.73l.73,0c.12,0,.22,0,.22.12S190.68,89.67,190.54,89.71Zm2.75,5.52h-1c-.94,0-1-.42-1-1.25V91c0-.17,0-1.27,0-1.54l.71.06c.11,0,.21,0,.21.1s-.05.1-.19.17c0,.51,0,.59,0,.83v1.05a5.85,5.85,0,0,0,1.38-1.16l.55.5a.16.16,0,0,1,.06.12c0,.06-.06.08-.1.08l-.14,0A7.22,7.22,0,0,1,192,92.36V94c0,.46.05.65.44.65H193c.33,0,.41-.11.52-1.09l.64.44C194,94.91,193.78,95.23,193.29,95.23Z"/><path class="cls-7" d="M199.36,95.35c0-.22,0-.29,0-.49h-2.66c0,.08,0,.43,0,.5H196c0-.44.06-1.31.06-2V91.57c0-.58,0-1.26,0-1.84.3,0,.72,0,1.36,0h1.52c.7,0,.77,0,1.25,0,0,.49,0,1.14,0,1.64v1.92c0,.53,0,1.56.07,2.06Zm0-4.92h-2.66V92h2.66Zm0,2.2h-2.66v1.6h2.66Z"/><path class="cls-7" d="M207.86,94.52a5.67,5.67,0,0,1-1.22-.82,6.73,6.73,0,0,1-1.23-1.45v1c0,.13,0,.17,0,.58h.13a6.63,6.63,0,0,0,1-.07v.7a8.26,8.26,0,0,0-1-.07h-.12c0,.24,0,.48,0,1.22h-.79c0-.73,0-1,0-1.22h-.13a6.5,6.5,0,0,0-1,.07v-.7a6.5,6.5,0,0,0,1,.07h.13c0-.38,0-.42,0-.55V92.16a5.93,5.93,0,0,1-2.45,2.41l-.55-.65a5.07,5.07,0,0,0,2.76-2.72H204c-.66,0-1.42,0-2.08.06v-.69c.7.05,1.39.06,2.08.06h.69c0-.73,0-.81,0-1.39l.73.05c.13,0,.18,0,.18.11s0,.07-.16.18c0,.21,0,.8,0,1h.67c.66,0,1.44,0,2.1-.06v.69q-1.05-.06-2.1-.06h-.49a6.41,6.41,0,0,0,1.07,1.51,4.56,4.56,0,0,0,1.71,1.16Z"/><path class="cls-7" d="M189.05,100a4.48,4.48,0,0,0-.74-1.41l.65-.25a4.54,4.54,0,0,1,.75,1.43Zm4.53-1.27a8.12,8.12,0,0,1-1.22,2.62,6.4,6.4,0,0,1-2.46,1.88l-.62-.58a3.65,3.65,0,0,0,1.45-.7,4.75,4.75,0,0,0,1.75-2.24,4,4,0,0,0,.39-1.64l.79.31c.14.06.2.1.2.16S193.83,98.63,193.58,98.74Zm-2.81.93a3.68,3.68,0,0,0-.71-1.46l.68-.22a4,4,0,0,1,.72,1.47Z"/><path class="cls-7" d="M198.84,100.91h-1.61c-.09,0-1.14,0-1.84.08v-.76a14.75,14.75,0,0,0,1.84.08h1.61a16.18,16.18,0,0,0,1.84-.08V101A15.78,15.78,0,0,0,198.84,100.91Z"/><path class="cls-7" d="M203.89,98.24c0,.21,0,.66,0,.87v1c0,.21,0,1,.05,1.17h-.79a9.23,9.23,0,0,0,.06-1.18V99c0-.27,0-.85,0-1.11l.7,0c.15,0,.21,0,.21.13S204,98.18,203.89,98.24Zm3.15-.19c-.08,0-.09,0-.13.1,0,.34,0,1.82,0,2.11a3.29,3.29,0,0,1-.93,2.34,5.38,5.38,0,0,1-1.43,1l-.59-.62a2.92,2.92,0,0,0,1.45-.73c.84-.72.84-1.6.84-3.29,0-.8,0-.84,0-1.17l.72,0c.08,0,.19,0,.19.14A.12.12,0,0,1,207,98.05Z"/><path class="cls-7" d="M214.23,103.14a7.21,7.21,0,0,0-1.79-1.92,7.24,7.24,0,0,1-2.59,1.93l-.53-.62a5.76,5.76,0,0,0,1.82-1,6.26,6.26,0,0,0,1.9-2.69H211.8a16,16,0,0,0-1.7.08v-.7c.22,0,1.09.06,1.37.06h1a3.33,3.33,0,0,0,.84,0,.71.71,0,0,0,.35-.16l.51.58-.33.24a14.1,14.1,0,0,1-1,1.8,8.51,8.51,0,0,1,2,1.93Z"/><path class="cls-7" d="M220.87,101.75a6.12,6.12,0,0,0-2.07-1.45v1.16c0,.41,0,1.64.07,2H218c0-.35.05-.89.05-1s0-.87,0-1V99.58c0-.27,0-1,0-1.28s0-.31-.07-.46l.93.06s.13,0,.13.11-.07.12-.23.21c0,.43,0,.87,0,1.29v.78l.33-.62a7.37,7.37,0,0,1,2.2,1.52Z"/><path class="cls-7" d="M50.47,67.71a2.87,2.87,0,1,1-2.87-2.87A2.87,2.87,0,0,1,50.47,67.71Z"/><path class="cls-7" d="M122,147.66a2.87,2.87,0,1,1-2.87-2.87A2.88,2.88,0,0,1,122,147.66Z"/><path class="cls-7" d="M116.86,67.05A2.87,2.87,0,1,1,114,64.18,2.88,2.88,0,0,1,116.86,67.05Z"/><path class="cls-7" d="M192.94,170.15a2.88,2.88,0,1,1-2.88-2.87A2.88,2.88,0,0,1,192.94,170.15Z"/><path class="cls-7" d="M22.1,125.27a2.87,2.87,0,1,1-2.87-2.87A2.87,2.87,0,0,1,22.1,125.27Z"/><path class="cls-7" d="M170.88,125.26a2.87,2.87,0,1,1-2.87-2.87A2.87,2.87,0,0,1,170.88,125.26Z"/><path class="cls-7" d="M170.88,101.65A2.87,2.87,0,1,1,168,98.78,2.86,2.86,0,0,1,170.88,101.65Z"/><path class="cls-7" d="M50.47,45.64a2.87,2.87,0,1,1-2.87-2.87A2.86,2.86,0,0,1,50.47,45.64Z"/><path class="cls-8" d="M48.38,76.25c-.2.23-1.06,1.29-1.25,1.5.28.32.45.53.67.83l-.61.45a6.92,6.92,0,0,0-2-2.1l.49-.51a10.65,10.65,0,0,1,1,.88,14,14,0,0,0,1.33-1.82H45.83c-.42,0-1.25,0-1.94.07v-.73c.61.06,1.29.07,1.91.07h1.67c1.12,0,1.26,0,1.54-.18l.55.53A4.27,4.27,0,0,0,48.38,76.25Z"/><path class="cls-8" d="M52.11,77.13A5,5,0,0,0,51.49,76l.52-.17a5,5,0,0,1,.62,1.08ZM55.8,76a.26.26,0,0,0-.13.08s-.22.72-.27.85a4.64,4.64,0,0,1-2.54,2.77l-.46-.42a4.13,4.13,0,0,0,1.91-1.45,5.32,5.32,0,0,0,.82-2.27l.54.2c.14,0,.22.1.22.15S55.85,76,55.8,76Zm-2.32.84a3.55,3.55,0,0,0-.6-1.12l.53-.18A4.41,4.41,0,0,1,54,76.66Z"/><path class="cls-8" d="M62.92,75.39a7.16,7.16,0,0,1-3.36,4.39l-.62-.51a5,5,0,0,0,2.18-1.69,5.48,5.48,0,0,0,1.06-2.3H60a7.31,7.31,0,0,1-1.38,1.65l-.58-.4A6,6,0,0,0,60,73.82l.76.33c.05,0,.1,0,.1.1s-.09.11-.11.12a.37.37,0,0,0-.21.1,2.25,2.25,0,0,0-.18.29h1.11c.84,0,1,0,1.14-.14l.52.55Z"/><path class="cls-8" d="M69.85,79.29a6.89,6.89,0,0,0-1.79-1.92,7.37,7.37,0,0,1-2.59,1.93L65,78.68a5.86,5.86,0,0,0,1.82-1A6.32,6.32,0,0,0,68.66,75H67.42a13.73,13.73,0,0,0-1.7.08v-.7c.23,0,1.09.05,1.38.05h1a5.36,5.36,0,0,0,.84,0,.83.83,0,0,0,.34-.16l.52.57c-.14.09-.18.13-.34.25a14.84,14.84,0,0,1-1,1.8,8.54,8.54,0,0,1,2,1.92Z"/><path class="cls-8" d="M73.83,75.22l-.24,1A7.77,7.77,0,0,1,72.16,79l-.7-.35A6,6,0,0,0,72.58,77a8.17,8.17,0,0,0,.56-2.32l.81.23c.11,0,.15.07.15.12S74,75.18,73.83,75.22Zm3,3.6a7.77,7.77,0,0,0-1.66-3.73l.58-.38a9.8,9.8,0,0,1,1.85,3.83ZM76.72,75a3.58,3.58,0,0,0-.31-.31c-.09-.09-.23-.21-.4-.35l.35-.37a3.2,3.2,0,0,1,.73.67Zm.69-.45a3.35,3.35,0,0,0-.69-.65l.35-.35a2.76,2.76,0,0,1,.69.67Z"/><path class="cls-8" d="M80.54,74.38c0,.21,0,.66,0,.88v1c0,.21,0,1,0,1.17h-.79a9,9,0,0,0,0-1.17V75.13c0-.28,0-.85,0-1.11l.7,0c.16,0,.21,0,.21.13S80.64,74.33,80.54,74.38Zm3.14-.19a.44.44,0,0,0-.12.11c0,.34,0,1.81,0,2.11a3.3,3.3,0,0,1-.94,2.34,5.73,5.73,0,0,1-1.42,1l-.6-.63A2.85,2.85,0,0,0,82,78.35c.83-.72.83-1.59.83-3.29,0-.8,0-.84,0-1.17l.72,0c.08,0,.19,0,.19.14A.12.12,0,0,1,83.68,74.19Z"/><path class="cls-8" d="M90.31,79.1H87.92c-.51,0-1,0-1.6.05v-.54l1.09,0h1.74l.31-2.25H88.34a8.66,8.66,0,0,0-1.1,0v-.56c.51,0,.88,0,1,0h1.88l-.39,2.71c.58,0,.91,0,1.41-.06v.52Z"/><path class="cls-9" d="M48.38,76.25c-.2.23-1.06,1.29-1.25,1.5.28.32.45.53.67.83l-.61.45a6.92,6.92,0,0,0-2-2.1l.49-.51a10.65,10.65,0,0,1,1,.88,14,14,0,0,0,1.33-1.82H45.83c-.42,0-1.25,0-1.94.07v-.73c.61.06,1.29.07,1.91.07h1.67c1.12,0,1.26,0,1.54-.18l.55.53A4.27,4.27,0,0,0,48.38,76.25Z"/><path class="cls-9" d="M52.11,77.13A5,5,0,0,0,51.49,76l.52-.17a5,5,0,0,1,.62,1.08ZM55.8,76a.26.26,0,0,0-.13.08s-.22.72-.27.85a4.64,4.64,0,0,1-2.54,2.77l-.46-.42a4.13,4.13,0,0,0,1.91-1.45,5.32,5.32,0,0,0,.82-2.27l.54.2c.14,0,.22.1.22.15S55.85,76,55.8,76Zm-2.32.84a3.55,3.55,0,0,0-.6-1.12l.53-.18A4.41,4.41,0,0,1,54,76.66Z"/><path class="cls-9" d="M62.92,75.39a7.16,7.16,0,0,1-3.36,4.39l-.62-.51a5,5,0,0,0,2.18-1.69,5.48,5.48,0,0,0,1.06-2.3H60a7.31,7.31,0,0,1-1.38,1.65l-.58-.4A6,6,0,0,0,60,73.82l.76.33c.05,0,.1,0,.1.1s-.09.11-.11.12a.37.37,0,0,0-.21.1,2.25,2.25,0,0,0-.18.29h1.11c.84,0,1,0,1.14-.14l.52.55Z"/><path class="cls-9" d="M69.85,79.29a6.89,6.89,0,0,0-1.79-1.92,7.37,7.37,0,0,1-2.59,1.93L65,78.68a5.86,5.86,0,0,0,1.82-1A6.32,6.32,0,0,0,68.66,75H67.42a13.73,13.73,0,0,0-1.7.08v-.7c.23,0,1.09.05,1.38.05h1a5.36,5.36,0,0,0,.84,0,.83.83,0,0,0,.34-.16l.52.57c-.14.09-.18.13-.34.25a14.84,14.84,0,0,1-1,1.8,8.54,8.54,0,0,1,2,1.92Z"/><path class="cls-9" d="M73.83,75.22l-.24,1A7.77,7.77,0,0,1,72.16,79l-.7-.35A6,6,0,0,0,72.58,77a8.17,8.17,0,0,0,.56-2.32l.81.23c.11,0,.15.07.15.12S74,75.18,73.83,75.22Zm3,3.6a7.77,7.77,0,0,0-1.66-3.73l.58-.38a9.8,9.8,0,0,1,1.85,3.83ZM76.72,75a3.58,3.58,0,0,0-.31-.31c-.09-.09-.23-.21-.4-.35l.35-.37a3.2,3.2,0,0,1,.73.67Zm.69-.45a3.35,3.35,0,0,0-.69-.65l.35-.35a2.76,2.76,0,0,1,.69.67Z"/><path class="cls-9" d="M80.54,74.38c0,.21,0,.66,0,.88v1c0,.21,0,1,0,1.17h-.79a9,9,0,0,0,0-1.17V75.13c0-.28,0-.85,0-1.11l.7,0c.16,0,.21,0,.21.13S80.64,74.33,80.54,74.38Zm3.14-.19a.44.44,0,0,0-.12.11c0,.34,0,1.81,0,2.11a3.3,3.3,0,0,1-.94,2.34,5.73,5.73,0,0,1-1.42,1l-.6-.63A2.85,2.85,0,0,0,82,78.35c.83-.72.83-1.59.83-3.29,0-.8,0-.84,0-1.17l.72,0c.08,0,.19,0,.19.14A.12.12,0,0,1,83.68,74.19Z"/><path class="cls-9" d="M90.31,79.1H87.92c-.51,0-1,0-1.6.05v-.54l1.09,0h1.74l.31-2.25H88.34a8.66,8.66,0,0,0-1.1,0v-.56c.51,0,.88,0,1,0h1.88l-.39,2.71c.58,0,.91,0,1.41-.06v.52Z"/><path class="cls-7" d="M48.38,76.25c-.2.23-1.06,1.29-1.25,1.5.28.32.45.53.67.83l-.61.45a6.92,6.92,0,0,0-2-2.1l.49-.51a10.65,10.65,0,0,1,1,.88,14,14,0,0,0,1.33-1.82H45.83c-.42,0-1.25,0-1.94.07v-.73c.61.06,1.29.07,1.91.07h1.67c1.12,0,1.26,0,1.54-.18l.55.53A4.27,4.27,0,0,0,48.38,76.25Z"/><path class="cls-7" d="M52.11,77.13A5,5,0,0,0,51.49,76l.52-.17a5,5,0,0,1,.62,1.08ZM55.8,76a.26.26,0,0,0-.13.08s-.22.72-.27.85a4.64,4.64,0,0,1-2.54,2.77l-.46-.42a4.13,4.13,0,0,0,1.91-1.45,5.32,5.32,0,0,0,.82-2.27l.54.2c.14,0,.22.1.22.15S55.85,76,55.8,76Zm-2.32.84a3.55,3.55,0,0,0-.6-1.12l.53-.18A4.41,4.41,0,0,1,54,76.66Z"/><path class="cls-7" d="M62.92,75.39a7.16,7.16,0,0,1-3.36,4.39l-.62-.51a5,5,0,0,0,2.18-1.69,5.48,5.48,0,0,0,1.06-2.3H60a7.31,7.31,0,0,1-1.38,1.65l-.58-.4A6,6,0,0,0,60,73.82l.76.33c.05,0,.1,0,.1.1s-.09.11-.11.12a.37.37,0,0,0-.21.1,2.25,2.25,0,0,0-.18.29h1.11c.84,0,1,0,1.14-.14l.52.55Z"/><path class="cls-7" d="M69.85,79.29a6.89,6.89,0,0,0-1.79-1.92,7.37,7.37,0,0,1-2.59,1.93L65,78.68a5.86,5.86,0,0,0,1.82-1A6.32,6.32,0,0,0,68.66,75H67.42a13.73,13.73,0,0,0-1.7.08v-.7c.23,0,1.09.05,1.38.05h1a5.36,5.36,0,0,0,.84,0,.83.83,0,0,0,.34-.16l.52.57c-.14.09-.18.13-.34.25a14.84,14.84,0,0,1-1,1.8,8.54,8.54,0,0,1,2,1.92Z"/><path class="cls-7" d="M73.83,75.22l-.24,1A7.77,7.77,0,0,1,72.16,79l-.7-.35A6,6,0,0,0,72.58,77a8.17,8.17,0,0,0,.56-2.32l.81.23c.11,0,.15.07.15.12S74,75.18,73.83,75.22Zm3,3.6a7.77,7.77,0,0,0-1.66-3.73l.58-.38a9.8,9.8,0,0,1,1.85,3.83ZM76.72,75a3.58,3.58,0,0,0-.31-.31c-.09-.09-.23-.21-.4-.35l.35-.37a3.2,3.2,0,0,1,.73.67Zm.69-.45a3.35,3.35,0,0,0-.69-.65l.35-.35a2.76,2.76,0,0,1,.69.67Z"/><path class="cls-7" d="M80.54,74.38c0,.21,0,.66,0,.88v1c0,.21,0,1,0,1.17h-.79a9,9,0,0,0,0-1.17V75.13c0-.28,0-.85,0-1.11l.7,0c.16,0,.21,0,.21.13S80.64,74.33,80.54,74.38Zm3.14-.19a.44.44,0,0,0-.12.11c0,.34,0,1.81,0,2.11a3.3,3.3,0,0,1-.94,2.34,5.73,5.73,0,0,1-1.42,1l-.6-.63A2.85,2.85,0,0,0,82,78.35c.83-.72.83-1.59.83-3.29,0-.8,0-.84,0-1.17l.72,0c.08,0,.19,0,.19.14A.12.12,0,0,1,83.68,74.19Z"/><path class="cls-7" d="M90.31,79.1H87.92c-.51,0-1,0-1.6.05v-.54l1.09,0h1.74l.31-2.25H88.34a8.66,8.66,0,0,0-1.1,0v-.56c.51,0,.88,0,1,0h1.88l-.39,2.71c.58,0,.91,0,1.41-.06v.52Z"/><path class="cls-7" d="M107.33,39h-2.5c-.21,0-1.31,0-1.84,0v-.7c.37,0,.55,0,1.44,0l.63-2.08h-.2c-.13,0-.81,0-1,0V35.7c.22,0,.87,0,1,0h.37l.46-1.47h-.62c-.36,0-1.08,0-1.55,0v-.66c.49,0,1.22,0,1.55,0h2c.37,0,1.08,0,1.55,0v.66c-.49,0-1.22,0-1.55,0h-.67L106,35.72h1c.14,0,.81,0,1,0,0,.23-.13,1-.14,1l-.17,1.65c1,0,1.14,0,1.5,0V39C108.6,39,107.37,39,107.33,39Zm-1.54-2.71-.63,2.09H107l.21-2.09Z"/><path class="cls-7" d="M112,36.93h-.86a4,4,0,0,1-.74,2.41l-.67-.28a3.27,3.27,0,0,0,.8-2.34V35.46c0-.11,0-.6,0-.7h.21l.62,0H112l.82,0c0,.28,0,.59,0,.8v.65c0,.22,0,.33,0,.75C112.4,36.94,112.26,36.93,112,36.93Zm.12-2.77h-1a9.44,9.44,0,0,0-1,.06v-.69c.33,0,.82.06,1,.06h1a7.93,7.93,0,0,0,1-.06v.69A7.93,7.93,0,0,0,112.09,34.16Zm.11,1.19h-1.08v1h1.08Zm3.17.64v1.8c0,.28,0,1,.08,1.76h-.72c0-.56,0-1,0-1.79V36h-.86a4.32,4.32,0,0,1-1.23,3.37L112,39a3.48,3.48,0,0,0,1.3-3.13V34.51c0-.12,0-.59,0-.73a3.52,3.52,0,0,0,1.26-.12,3.21,3.21,0,0,0,1-.38l.51.46a.19.19,0,0,1,.07.13.08.08,0,0,1-.09.07l-.21,0a6.08,6.08,0,0,1-1.9.47v1.05h1.14c.46,0,1,0,1.22-.05V36Z"/><path class="cls-7" d="M118.39,33.71c0,.14,0,.42,0,.61V36a4.92,4.92,0,0,1-.32,2.21,3.49,3.49,0,0,1-.77,1.15l-.56-.55a3.31,3.31,0,0,0,1-2.87c0-.88,0-1.76-.08-2.64l.79.09a.11.11,0,0,1,.12.12S118.53,33.6,118.39,33.71Zm2.08.1c0,.44,0,.84,0,1.28V36.7c0,.1,0,1.82.08,2.26h-.84c0-.3,0-.69.06-1.12,0-.68,0-.77,0-1.11V35.12c0-.4,0-1.34-.06-1.69l.82.06s.13,0,.13.1S120.64,33.66,120.47,33.81Zm2.11-.12v.16c0,.29,0,.4,0,1.38V37c0,.76.07,1.59.13,2.38h-.86c0-.36,0-.62,0-2V35.2c0-.61,0-1.3,0-1.9l.82.09s.11,0,.11.11S122.69,33.62,122.58,33.69Z"/><path class="cls-7" d="M129,34l-.67,0h-.25a4.43,4.43,0,0,1-.3.7h.48c.05,0,.86,0,1.28,0,0,.3,0,.72,0,1v.59c0,.4,0,.92,0,1.11H128v1.36c0,.06,0,.34,0,.4s0,.43-.66.43a1.44,1.44,0,0,1-.34,0l-.27-.7a3,3,0,0,0,.5.09c.11,0,.11-.07.11-.23V37.36h-.44l-1.14,0c0-.17,0-.88,0-1v-.64c0-.29,0-.77,0-1.06l1,0h.34a2.4,2.4,0,0,0,.23-.7h-2c0,.25,0,1.39,0,1.62a6.57,6.57,0,0,1-.82,3.8l-.69-.36a5.34,5.34,0,0,0,.8-3.4,18.65,18.65,0,0,0-.09-2.26c.5,0,1.37,0,1.88,0h2l1.76,0V34Zm-2.33,4.29a3.29,3.29,0,0,1-.89,1.05l-.55-.39a2.3,2.3,0,0,0,1-1.23l.64.29s.12.05.12.13S126.78,38.28,126.7,38.29Zm2.18-3.08h-2.45v.56h2.45Zm0,1.06h-2.45v.59h2.45Zm.68,3a5.25,5.25,0,0,0-1-1.13l.44-.4a4.89,4.89,0,0,1,1.12,1.11Z"/><path class="cls-7" d="M105.23,42.44h-.13a5.93,5.93,0,0,1,.29.55l-.68.15a6.83,6.83,0,0,0-.23-.7h-.34a4.34,4.34,0,0,1-.71.61l-.51-.38a2.85,2.85,0,0,0,.69-.54,3,3,0,0,0,.52-.84l.58.18c.1,0,.13.05.13.12s-.07.12-.22.15l-.14.22h1.12l.4,0v.55C105.74,42.46,105.49,42.44,105.23,42.44ZM109,46.87c-.09.22-.24.53-1.18.57l-.37-.72.61.05c.28,0,.4-.1.42-1h-1.94v.45c0,.16,0,1.34.07,1.52h-.78c0-.28.08-1.29.08-1.54a3.27,3.27,0,0,1-.78.83,4.94,4.94,0,0,1-1.44.7l-.5-.6a4,4,0,0,0,2.3-1.36h-1.53s-.15.43-.17.52l-.7-.18a4,4,0,0,0,.49-1.91h2.33v-.47h-.7c-.09,0-1.14,0-1.75.1v-.68a16,16,0,0,0,1.72.06h1.77c.28,0,1.35-.05,1.56-.06,0,.12,0,.47,0,.58v.47a4.93,4.93,0,0,0,0,.54c-.23,0-1.4,0-1.43,0h-.56v.5h1.22c.4,0,.9,0,1.42-.05A6.77,6.77,0,0,1,109,46.87Zm-3.09-2.17h-1.71c0,.22,0,.29-.1.5h1.81ZM108,42.44h-.1c.13.16.25.32.37.49l-.71.14a5.66,5.66,0,0,0-.33-.63h-.49a5.61,5.61,0,0,1-.53.7l-.57-.34a2.46,2.46,0,0,0,.92-1.5l.67.18c.06,0,.11,0,.11.1s-.1.12-.24.15A1.45,1.45,0,0,1,107,42h1a10.75,10.75,0,0,0,1.14-.05v.58Zm-.17,1.28h-1.34v.47h1.34Z"/><path class="cls-7" d="M114.34,44.85h-2.51c-.2,0-1.3,0-1.82,0v-.69c.56,0,1.78,0,1.82,0h2.51c.2,0,1.3,0,1.82,0v.69C115.61,44.85,114.38,44.85,114.34,44.85Z"/><path class="cls-7" d="M122.13,45.86a2.64,2.64,0,0,0,0-.36h-1.7v1c0,.78,0,.91,0,1.23h-.84c.06-.74.09-1.48.08-2.22H118c0,.09,0,.22,0,.36h-.76c0-.3,0-.8,0-1.12V43.66c0-.09,0-.58,0-.88.34,0,1.17,0,1.52,0h.91c0-1,0-1.12,0-1.48l.8.07c.07,0,.18,0,.18.12s-.1.14-.23.21,0,.83,0,1v.11h.7c.58,0,1.18,0,1.77-.07,0,.33,0,.67,0,1v1c0,.52,0,.83,0,1.14Zm-2.39-2.44H118v1.49h1.71Zm2.41,0h-1.7v1.49h1.7Z"/><path class="cls-7" d="M128.17,46h-.65v.24c0,.13,0,.72,0,.86a.46.46,0,0,1-.4.53,5,5,0,0,1-.88,0l-.31-.74.68.1c.21,0,.23-.15.23-.46V46H126c-.26,0-1.33,0-2.08,0v-.67c.83.06,2,.06,2.08.06h.84a3.19,3.19,0,0,0-.08-.75l.46.12a7.14,7.14,0,0,0,.58-.5h-1.53c-.31,0-.63,0-.94,0V43.7l1.31,0h.78c.32,0,1,0,1.29-.07L129,44l-.65.61-.29.29-.48.49h.62c.31,0,1.4,0,2.09-.06V46C129.61,46,128.83,46,128.17,46Zm1.19-1.87c0-.42,0-.47,0-.92h-4.55c0,.06,0,.55,0,.92h-.79a3.93,3.93,0,0,0,.08-.93c0-.28,0-.44,0-.6.2,0,1,0,1.26,0a2.78,2.78,0,0,0-.62-.86l.59-.35a2.49,2.49,0,0,1,.63.91l-.52.31.87,0h1.31l.93,0-.43-.2a3,3,0,0,0,.56-1l.62.26c.05,0,.14.06.14.1s-.16.15-.23.17a6.27,6.27,0,0,1-.45.7c.36,0,.87,0,1.29-.06,0,.16,0,.37,0,.72a3.34,3.34,0,0,0,.06.82ZM127,42.56a2.27,2.27,0,0,0-.58-1l.55-.31a1.83,1.83,0,0,1,.61,1Z"/><path class="cls-7" d="M133.27,45.49a2.54,2.54,0,0,1-.68-.79v1.07c0,.52,0,.83,0,1.95h-.7c0-.58.05-1.25.05-2v-.69a4.24,4.24,0,0,1-.74,1.17l-.51-.41a5.05,5.05,0,0,0,1.17-2.51h-.1a4.75,4.75,0,0,0-.73.06v-.69a4.57,4.57,0,0,0,.73.06H132c0-.74,0-.81,0-1.39l.76.07c.05,0,.13,0,.13.1s-.12.14-.24.19,0,.79,0,.9v.13a5.35,5.35,0,0,0,.68-.06v.69a6.21,6.21,0,0,0-.68-.06v.24A3.5,3.5,0,0,0,133.67,45ZM137,47.7a3.87,3.87,0,0,1-1.79-.94,4,4,0,0,1-1.91.93l-.39-.59a3.38,3.38,0,0,0,1.87-.79,4,4,0,0,1-.84-1.78l.61-.24a4,4,0,0,0,.66,1.49,5.6,5.6,0,0,0,.53-1.5l.61.22s.17.06.17.14-.17.13-.26.14a4.89,4.89,0,0,1-.62,1.47,3.4,3.4,0,0,0,1.69.82Zm-2.23-4.15a3,3,0,0,1-.94,1l-.6-.39A2.44,2.44,0,0,0,134.3,43l.57.32a.14.14,0,0,1,.07.11C134.94,43.54,134.84,43.55,134.74,43.55Zm1.18-.69h-1.15a11.45,11.45,0,0,0-1.17,0v-.68c.41,0,1,.05,1.17.05H135c0-.1,0-.87,0-.94l.72.07c.09,0,.15,0,.15.1a.14.14,0,0,1-.08.11l-.12.08c0,.11,0,.43,0,.58h.28a11.77,11.77,0,0,0,1.18-.05v.68C136.59,42.86,136,42.86,135.92,42.86Zm.66,1.64a5.88,5.88,0,0,0-1.12-1l.42-.43a5,5,0,0,1,1.22,1Z"/><path class="cls-8" d="M49.17,29.45a4.55,4.55,0,0,0-.73-.56,4.6,4.6,0,0,1-1.56,1.87l-.55-.54a3.09,3.09,0,0,0,1.57-1.65A3.46,3.46,0,0,0,46.27,28a13.54,13.54,0,0,1-1,1.7.83.83,0,0,1-.69.38.85.85,0,0,1-.83-.91,2,2,0,0,1,2.11-1.78c.1-.23.33-.78.48-1.15,0-.07.15-.4.18-.46a7.78,7.78,0,0,1-1.33.15L45,25.34A4.54,4.54,0,0,0,47.2,25l.34.43a7.39,7.39,0,0,0-.73,1.35c0,.05-.26.61-.3.73a5.7,5.7,0,0,1,1.58.5,6.32,6.32,0,0,0,.16-1.23,2.16,2.16,0,0,0,0-.31l.84.19c.07,0,.11,0,.11.09s-.06.13-.25.24c-.19,1-.21,1.07-.28,1.31a8.14,8.14,0,0,1,.92.61ZM44.73,28.4a1.09,1.09,0,0,0-.33.74c0,.22.12.31.25.31a.31.31,0,0,0,.24-.13,7.33,7.33,0,0,0,.74-1.3A1.39,1.39,0,0,0,44.73,28.4Z"/><path class="cls-8" d="M55.41,30.37a5.76,5.76,0,0,1-2.81.5l-.26-.7a7.6,7.6,0,0,0,.82,0c.89,0,2.35-.15,2.35-1.21a.9.9,0,0,0-1-.87,2.23,2.23,0,0,0-1.27.45,4.36,4.36,0,0,0-.65.65l-.66-.3a11.46,11.46,0,0,0,.64-2.1L52,26.9l-.71,0-.1-.65a2.89,2.89,0,0,0,.5,0q.45,0,1-.06a11.07,11.07,0,0,0,.2-1.51l.81.12c.11,0,.18,0,.18.12s0,.09-.27.21c-.15.53-.19.68-.25,1a5.78,5.78,0,0,0,1.94-.56v.69a20.92,20.92,0,0,1-2,.46c0,.09-.31,1.19-.38,1.46a2.89,2.89,0,0,1,1.7-.64,1.45,1.45,0,0,1,1.61,1.35A1.63,1.63,0,0,1,55.41,30.37Z"/><path class="cls-8" d="M61.45,30.54,60.92,30a2.92,2.92,0,0,0,1.55-.81A2.47,2.47,0,0,0,63,27.58,1.8,1.8,0,0,0,61.92,26a1.85,1.85,0,0,0-1-.21,11.76,11.76,0,0,1-.87,3.4c-.14.29-.49,1-.89,1a.94.94,0,0,1-.59-.23,2.43,2.43,0,0,1-.86-1.89,2.79,2.79,0,0,1,.77-1.93,3,3,0,0,1,2.29-1A2.81,2.81,0,0,1,63,26a2.47,2.47,0,0,1,.63,1.68A2.87,2.87,0,0,1,61.45,30.54Zm-1.31-4.72a2.31,2.31,0,0,0-1.76,2.24c0,.62.38,1.28.68,1.28s.42-.42.51-.61a9.88,9.88,0,0,0,.75-2.93Z"/><path class="cls-8" d="M68.49,31.12a8.76,8.76,0,0,0-1.33-1.76c-.33-.31-.91-.84-1.18-1s-.36-.29-.36-.55.11-.33.4-.63l.84-.84a10.67,10.67,0,0,0,1.47-1.75L69,25a.19.19,0,0,1,.12.16.12.12,0,0,1,0,.1l-.3.09-1.52,1.5c-.16.17-.45.45-.58.58s-.18.22-.18.3a.47.47,0,0,0,.19.33,11.89,11.89,0,0,1,1.71,1.65c.28.32.6.72.79.95Z"/><path class="cls-8" d="M77.44,31a4.21,4.21,0,0,1-1-1.14l-.12.55c-.72.28-1.2.42-1.68.56,0,.11,0,.17-.1.17s-.07,0-.09-.09l-.23-.62c-.71.15-1.06.22-2.2.41,0,.09-.06.14-.11.14s-.09-.06-.1-.1l-.21-.69a11.19,11.19,0,0,0,1.26-.09V28.24h-.24a5.5,5.5,0,0,0-.92.05v-.64a7.56,7.56,0,0,0,.92.07h.24v-.66h-.09l-.7,0v-.28l-.16.13-.57-.47A3.58,3.58,0,0,0,73,24.64l.61.16s.11,0,.11.1-.06.09-.2.14a3.72,3.72,0,0,0,1.14,1l-.44.51a5,5,0,0,1-1-1,6.93,6.93,0,0,1-.85,1h1.2l.7,0v.56c-.21,0-.44,0-.66,0h-.18v.66a6.86,6.86,0,0,0,1-.07v.64a6,6,0,0,0-1-.05V30a6.47,6.47,0,0,0,1-.15l-.13.48.41-.08v-4c0-.2,0-1.09-.06-1.27h2l.92,0c0,.19,0,.76,0,1v.91c0,.2,0,.36,0,.91l-1,0h-.29a4.55,4.55,0,0,0,.3,1.08,2.41,2.41,0,0,0,.73-.92l.66.33a.09.09,0,0,1,0,.08c0,.07-.07.07-.19.08l-.35.41a4.8,4.8,0,0,1-.63.56,3.83,3.83,0,0,0,1.28,1.22ZM72.06,29.8a2.75,2.75,0,0,0-.34-1.08l.53-.24a3.26,3.26,0,0,1,.36,1.09Zm2.31-1a3.93,3.93,0,0,1-.25.94l-.56-.11a4.46,4.46,0,0,0,.26-1.15l.58.11s.1,0,.1.1S74.45,28.8,74.37,28.82ZM77,25.44H75.29V26H77Zm0,1.09H75.29v.6H77Zm-1.27,1.12h-.39v2.43a8.74,8.74,0,0,0,1.07-.34A5.23,5.23,0,0,1,75.68,27.65Z"/><path class="cls-8" d="M80.66,26.67a2.2,2.2,0,0,1-.31.54c.1.07.12.09.12.14s0,0-.13.16,0,.7,0,1v.82c0,.41,0,1.27.05,1.69h-.75c0-.58,0-1.34,0-1.93v-1a5.46,5.46,0,0,1-.74.67l-.52-.52a4.44,4.44,0,0,0,1.85-2.12l.6.38a.11.11,0,0,1,0,.09C80.9,26.64,80.89,26.64,80.66,26.67Zm-.2-1.4a4,4,0,0,1-1.4,1.14l-.53-.52a3.53,3.53,0,0,0,1.57-1.25l.58.44a.15.15,0,0,1,0,.1C80.73,25.27,80.63,25.27,80.46,25.27Zm3.17,2.25v1.62c0,.34,0,.9,0,1.24a.52.52,0,0,1-.29.55,3.12,3.12,0,0,1-.9.05L82,30.14a4.41,4.41,0,0,0,.72.08c.19,0,.19-.07.19-.43V27.52h-.76c-.34,0-.89,0-1.23.06v-.7a10.45,10.45,0,0,0,1.27.05h1.55a10.31,10.31,0,0,0,1.11-.05v.7A11.19,11.19,0,0,0,83.63,27.52Zm0-1.78H82.46c-.29,0-.72,0-1,.05V25a9.47,9.47,0,0,0,1.07,0h1a8.21,8.21,0,0,0,1,0v.76A6.05,6.05,0,0,0,83.58,25.74Z"/><path class="cls-8" d="M47.39,34.42a7,7,0,0,1-1.22,2.22l-.56-.32a3.88,3.88,0,0,0,.53.71l-.44.49a5.29,5.29,0,0,1-.52-.72v.77c0,.54,0,.92,0,2.07h-.74c.07-1.09.07-1.31.07-2.08v-.77a6.16,6.16,0,0,1-.68,1.33l-.66-.34a4.43,4.43,0,0,0,.9-1.41,5.82,5.82,0,0,0,.31-1.21c-.26,0-.64,0-.89,0v-.59c.28,0,.67,0,.85,0h.17c0-.46,0-.92,0-1.39l.7.07s.13,0,.13.08,0,.08-.16.14c0,.33,0,.92,0,1.1.31,0,.69,0,.89,0v.59c-.23,0-.63,0-.91,0v.18a3.84,3.84,0,0,0,.4.93,4.71,4.71,0,0,0,1.22-2.38l.67.33c.06,0,.09.06.09.1S47.48,34.41,47.39,34.42ZM49,39.57a4.74,4.74,0,0,0-.25-.64,24.53,24.53,0,0,1-2.56.47c0,.08-.05.17-.11.17a.11.11,0,0,1-.1-.09l-.26-.75c.18,0,.27,0,.66,0a10.3,10.3,0,0,0,1-2.83l.74.18s.11,0,.11.09-.08.1-.2.12a13.74,13.74,0,0,1-.93,2.37c.65-.07.73-.09,1.43-.19a4,4,0,0,0-.61-.84l.54-.33a6.18,6.18,0,0,1,1.23,1.91Zm.37-2.9A4.07,4.07,0,0,1,48,34.11a3.5,3.5,0,0,0-.57,0v-.63l.48,0h.25a3.26,3.26,0,0,0,.45,0,3.53,3.53,0,0,0,.33,1.54,3.26,3.26,0,0,0,1,1.16Z"/><path class="cls-8" d="M54.77,36.79H52.1v.36h2.54c.86,0,1.53,0,2-.06a8.38,8.38,0,0,1-.24,1.84,1,1,0,0,1-.65.65,1.65,1.65,0,0,1-.53.07h-.23l-.24-.7.44,0c.4,0,.47-.07.52-.14a3.42,3.42,0,0,0,.23-1.22h-3v.86h1c0-.18,0-.29,0-.67l.66.06c.1,0,.16,0,.16.09s0,.07-.16.14a6.46,6.46,0,0,0,0,.88l-1.32,0H51.34v.4h-.66c0-.23,0-.47,0-.8s0-.45,0-.73l.65,0c.1,0,.16,0,.16.06s0,.09-.15.16a2.69,2.69,0,0,0,0,.39h.95V37.6H52l-.63,0c0-.21.07-.94.07-1.14V35.37c0-.68,0-1.06,0-1.5l1.36,0c.08-.21.2-.56.22-.64l.66.12s.18,0,.18.13-.19.12-.23.12l-.12.27h.36c.2,0,1.27,0,1.72,0a7.35,7.35,0,0,0,0,.89v.52a5.8,5.8,0,0,0,0,.77l-1.5,0h-2v.32h2.65c.4,0,1.34,0,2-.07v.55C56.22,36.79,55.35,36.79,54.77,36.79Zm.16-2.39H52.1v.36h2.83Zm0,.77H52.1v.38h2.83Z"/><path class="cls-8" d="M63.47,39.68a6.66,6.66,0,0,1-1.53-.32,4.75,4.75,0,0,1-1.35-.68,5.27,5.27,0,0,1-1.07.57,10.2,10.2,0,0,1-1.64.47L57.44,39a5.67,5.67,0,0,0,2.67-.79,4.88,4.88,0,0,1-.93-1.5l.61-.25a3,3,0,0,0,.83,1.33,6.17,6.17,0,0,0,1.12-1.35h-2c-.52,0-1,0-1.56.08v-.68c.58,0,1.11,0,1.59,0h.61V35h-.74c-.68,0-1.44,0-2.12.06v-.68c.68,0,1.76.06,2.12.06h.74c0-.31,0-.45,0-1.18l.88.08a.1.1,0,0,1,.09.1c0,.09,0,.11-.19.18,0,.49,0,.56,0,.82h.66c.17,0,1.33,0,2.14-.06v.67c-.95-.05-2-.05-2.14-.05h-.66v.89a8.62,8.62,0,0,0,1.39-.07l.32.38a8.87,8.87,0,0,1-1.69,2,4.94,4.94,0,0,0,2.78.74Z"/><path class="cls-8" d="M69.07,34.69H65.78v1.05c0,2.19-.36,2.92-.84,3.62L64.26,39c.45-.53.87-1.22.87-3.27a10.52,10.52,0,0,0-.1-1.65c.33,0,1.32,0,1.37,0h1.11c0-.23,0-.59,0-.82l.75.06c.17,0,.24,0,.24.1a.09.09,0,0,1-.07.1l-.16.08c0,.06,0,.4,0,.48h.84c.23,0,1.51,0,1.76-.08v.72Zm.1,1.48h-.94v.74h.56l1.4,0c0,.11,0,.77,0,.87v.93c0,.25,0,.74,0,1h-.74a2.24,2.24,0,0,0,0-.39H66.7a2.48,2.48,0,0,0,0,.39H66c0-.19,0-.86,0-1.07v-.91c0-.21,0-.32,0-.8.35,0,1.08,0,1.53,0V36.2c0-.25,0-1.06,0-1.3l.78.07c.06,0,.18,0,.18.1s-.07.11-.26.18v.37h.93c.15,0,.75,0,1.1,0v.64Zm.31,1.29H66.7v1.25h2.78Z"/><path class="cls-9" d="M49.17,29.45a4.55,4.55,0,0,0-.73-.56,4.6,4.6,0,0,1-1.56,1.87l-.55-.54a3.09,3.09,0,0,0,1.57-1.65A3.46,3.46,0,0,0,46.27,28a13.54,13.54,0,0,1-1,1.7.83.83,0,0,1-.69.38.85.85,0,0,1-.83-.91,2,2,0,0,1,2.11-1.78c.1-.23.33-.78.48-1.15,0-.07.15-.4.18-.46a7.78,7.78,0,0,1-1.33.15L45,25.34A4.54,4.54,0,0,0,47.2,25l.34.43a7.39,7.39,0,0,0-.73,1.35c0,.05-.26.61-.3.73a5.7,5.7,0,0,1,1.58.5,6.32,6.32,0,0,0,.16-1.23,2.16,2.16,0,0,0,0-.31l.84.19c.07,0,.11,0,.11.09s-.06.13-.25.24c-.19,1-.21,1.07-.28,1.31a8.14,8.14,0,0,1,.92.61ZM44.73,28.4a1.09,1.09,0,0,0-.33.74c0,.22.12.31.25.31a.31.31,0,0,0,.24-.13,7.33,7.33,0,0,0,.74-1.3A1.39,1.39,0,0,0,44.73,28.4Z"/><path class="cls-9" d="M55.41,30.37a5.76,5.76,0,0,1-2.81.5l-.26-.7a7.6,7.6,0,0,0,.82,0c.89,0,2.35-.15,2.35-1.21a.9.9,0,0,0-1-.87,2.23,2.23,0,0,0-1.27.45,4.36,4.36,0,0,0-.65.65l-.66-.3a11.46,11.46,0,0,0,.64-2.1L52,26.9l-.71,0-.1-.65a2.89,2.89,0,0,0,.5,0q.45,0,1-.06a11.07,11.07,0,0,0,.2-1.51l.81.12c.11,0,.18,0,.18.12s0,.09-.27.21c-.15.53-.19.68-.25,1a5.78,5.78,0,0,0,1.94-.56v.69a20.92,20.92,0,0,1-2,.46c0,.09-.31,1.19-.38,1.46a2.89,2.89,0,0,1,1.7-.64,1.45,1.45,0,0,1,1.61,1.35A1.63,1.63,0,0,1,55.41,30.37Z"/><path class="cls-9" d="M61.45,30.54,60.92,30a2.92,2.92,0,0,0,1.55-.81A2.47,2.47,0,0,0,63,27.58,1.8,1.8,0,0,0,61.92,26a1.85,1.85,0,0,0-1-.21,11.76,11.76,0,0,1-.87,3.4c-.14.29-.49,1-.89,1a.94.94,0,0,1-.59-.23,2.43,2.43,0,0,1-.86-1.89,2.79,2.79,0,0,1,.77-1.93,3,3,0,0,1,2.29-1A2.81,2.81,0,0,1,63,26a2.47,2.47,0,0,1,.63,1.68A2.87,2.87,0,0,1,61.45,30.54Zm-1.31-4.72a2.31,2.31,0,0,0-1.76,2.24c0,.62.38,1.28.68,1.28s.42-.42.51-.61a9.88,9.88,0,0,0,.75-2.93Z"/><path class="cls-9" d="M68.49,31.12a8.76,8.76,0,0,0-1.33-1.76c-.33-.31-.91-.84-1.18-1s-.36-.29-.36-.55.11-.33.4-.63l.84-.84a10.67,10.67,0,0,0,1.47-1.75L69,25a.19.19,0,0,1,.12.16.12.12,0,0,1,0,.1l-.3.09-1.52,1.5c-.16.17-.45.45-.58.58s-.18.22-.18.3a.47.47,0,0,0,.19.33,11.89,11.89,0,0,1,1.71,1.65c.28.32.6.72.79.95Z"/><path class="cls-9" d="M77.44,31a4.21,4.21,0,0,1-1-1.14l-.12.55c-.72.28-1.2.42-1.68.56,0,.11,0,.17-.1.17s-.07,0-.09-.09l-.23-.62c-.71.15-1.06.22-2.2.41,0,.09-.06.14-.11.14s-.09-.06-.1-.1l-.21-.69a11.19,11.19,0,0,0,1.26-.09V28.24h-.24a5.5,5.5,0,0,0-.92.05v-.64a7.56,7.56,0,0,0,.92.07h.24v-.66h-.09l-.7,0v-.28l-.16.13-.57-.47A3.58,3.58,0,0,0,73,24.64l.61.16s.11,0,.11.1-.06.09-.2.14a3.72,3.72,0,0,0,1.14,1l-.44.51a5,5,0,0,1-1-1,6.93,6.93,0,0,1-.85,1h1.2l.7,0v.56c-.21,0-.44,0-.66,0h-.18v.66a6.86,6.86,0,0,0,1-.07v.64a6,6,0,0,0-1-.05V30a6.47,6.47,0,0,0,1-.15l-.13.48.41-.08v-4c0-.2,0-1.09-.06-1.27h2l.92,0c0,.19,0,.76,0,1v.91c0,.2,0,.36,0,.91l-1,0h-.29a4.55,4.55,0,0,0,.3,1.08,2.41,2.41,0,0,0,.73-.92l.66.33a.09.09,0,0,1,0,.08c0,.07-.07.07-.19.08l-.35.41a4.8,4.8,0,0,1-.63.56,3.83,3.83,0,0,0,1.28,1.22ZM72.06,29.8a2.75,2.75,0,0,0-.34-1.08l.53-.24a3.26,3.26,0,0,1,.36,1.09Zm2.31-1a3.93,3.93,0,0,1-.25.94l-.56-.11a4.46,4.46,0,0,0,.26-1.15l.58.11s.1,0,.1.1S74.45,28.8,74.37,28.82ZM77,25.44H75.29V26H77Zm0,1.09H75.29v.6H77Zm-1.27,1.12h-.39v2.43a8.74,8.74,0,0,0,1.07-.34A5.23,5.23,0,0,1,75.68,27.65Z"/><path class="cls-9" d="M80.66,26.67a2.2,2.2,0,0,1-.31.54c.1.07.12.09.12.14s0,0-.13.16,0,.7,0,1v.82c0,.41,0,1.27.05,1.69h-.75c0-.58,0-1.34,0-1.93v-1a5.46,5.46,0,0,1-.74.67l-.52-.52a4.44,4.44,0,0,0,1.85-2.12l.6.38a.11.11,0,0,1,0,.09C80.9,26.64,80.89,26.64,80.66,26.67Zm-.2-1.4a4,4,0,0,1-1.4,1.14l-.53-.52a3.53,3.53,0,0,0,1.57-1.25l.58.44a.15.15,0,0,1,0,.1C80.73,25.27,80.63,25.27,80.46,25.27Zm3.17,2.25v1.62c0,.34,0,.9,0,1.24a.52.52,0,0,1-.29.55,3.12,3.12,0,0,1-.9.05L82,30.14a4.41,4.41,0,0,0,.72.08c.19,0,.19-.07.19-.43V27.52h-.76c-.34,0-.89,0-1.23.06v-.7a10.45,10.45,0,0,0,1.27.05h1.55a10.31,10.31,0,0,0,1.11-.05v.7A11.19,11.19,0,0,0,83.63,27.52Zm0-1.78H82.46c-.29,0-.72,0-1,.05V25a9.47,9.47,0,0,0,1.07,0h1a8.21,8.21,0,0,0,1,0v.76A6.05,6.05,0,0,0,83.58,25.74Z"/><path class="cls-9" d="M47.39,34.42a7,7,0,0,1-1.22,2.22l-.56-.32a3.88,3.88,0,0,0,.53.71l-.44.49a5.29,5.29,0,0,1-.52-.72v.77c0,.54,0,.92,0,2.07h-.74c.07-1.09.07-1.31.07-2.08v-.77a6.16,6.16,0,0,1-.68,1.33l-.66-.34a4.43,4.43,0,0,0,.9-1.41,5.82,5.82,0,0,0,.31-1.21c-.26,0-.64,0-.89,0v-.59c.28,0,.67,0,.85,0h.17c0-.46,0-.92,0-1.39l.7.07s.13,0,.13.08,0,.08-.16.14c0,.33,0,.92,0,1.1.31,0,.69,0,.89,0v.59c-.23,0-.63,0-.91,0v.18a3.84,3.84,0,0,0,.4.93,4.71,4.71,0,0,0,1.22-2.38l.67.33c.06,0,.09.06.09.1S47.48,34.41,47.39,34.42ZM49,39.57a4.74,4.74,0,0,0-.25-.64,24.53,24.53,0,0,1-2.56.47c0,.08-.05.17-.11.17a.11.11,0,0,1-.1-.09l-.26-.75c.18,0,.27,0,.66,0a10.3,10.3,0,0,0,1-2.83l.74.18s.11,0,.11.09-.08.1-.2.12a13.74,13.74,0,0,1-.93,2.37c.65-.07.73-.09,1.43-.19a4,4,0,0,0-.61-.84l.54-.33a6.18,6.18,0,0,1,1.23,1.91Zm.37-2.9A4.07,4.07,0,0,1,48,34.11a3.5,3.5,0,0,0-.57,0v-.63l.48,0h.25a3.26,3.26,0,0,0,.45,0,3.53,3.53,0,0,0,.33,1.54,3.26,3.26,0,0,0,1,1.16Z"/><path class="cls-9" d="M54.77,36.79H52.1v.36h2.54c.86,0,1.53,0,2-.06a8.38,8.38,0,0,1-.24,1.84,1,1,0,0,1-.65.65,1.65,1.65,0,0,1-.53.07h-.23l-.24-.7.44,0c.4,0,.47-.07.52-.14a3.42,3.42,0,0,0,.23-1.22h-3v.86h1c0-.18,0-.29,0-.67l.66.06c.1,0,.16,0,.16.09s0,.07-.16.14a6.46,6.46,0,0,0,0,.88l-1.32,0H51.34v.4h-.66c0-.23,0-.47,0-.8s0-.45,0-.73l.65,0c.1,0,.16,0,.16.06s0,.09-.15.16a2.69,2.69,0,0,0,0,.39h.95V37.6H52l-.63,0c0-.21.07-.94.07-1.14V35.37c0-.68,0-1.06,0-1.5l1.36,0c.08-.21.2-.56.22-.64l.66.12s.18,0,.18.13-.19.12-.23.12l-.12.27h.36c.2,0,1.27,0,1.72,0a7.35,7.35,0,0,0,0,.89v.52a5.8,5.8,0,0,0,0,.77l-1.5,0h-2v.32h2.65c.4,0,1.34,0,2-.07v.55C56.22,36.79,55.35,36.79,54.77,36.79Zm.16-2.39H52.1v.36h2.83Zm0,.77H52.1v.38h2.83Z"/><path class="cls-9" d="M63.47,39.68a6.66,6.66,0,0,1-1.53-.32,4.75,4.75,0,0,1-1.35-.68,5.27,5.27,0,0,1-1.07.57,10.2,10.2,0,0,1-1.64.47L57.44,39a5.67,5.67,0,0,0,2.67-.79,4.88,4.88,0,0,1-.93-1.5l.61-.25a3,3,0,0,0,.83,1.33,6.17,6.17,0,0,0,1.12-1.35h-2c-.52,0-1,0-1.56.08v-.68c.58,0,1.11,0,1.59,0h.61V35h-.74c-.68,0-1.44,0-2.12.06v-.68c.68,0,1.76.06,2.12.06h.74c0-.31,0-.45,0-1.18l.88.08a.1.1,0,0,1,.09.1c0,.09,0,.11-.19.18,0,.49,0,.56,0,.82h.66c.17,0,1.33,0,2.14-.06v.67c-.95-.05-2-.05-2.14-.05h-.66v.89a8.62,8.62,0,0,0,1.39-.07l.32.38a8.87,8.87,0,0,1-1.69,2,4.94,4.94,0,0,0,2.78.74Z"/><path class="cls-9" d="M69.07,34.69H65.78v1.05c0,2.19-.36,2.92-.84,3.62L64.26,39c.45-.53.87-1.22.87-3.27a10.52,10.52,0,0,0-.1-1.65c.33,0,1.32,0,1.37,0h1.11c0-.23,0-.59,0-.82l.75.06c.17,0,.24,0,.24.1a.09.09,0,0,1-.07.1l-.16.08c0,.06,0,.4,0,.48h.84c.23,0,1.51,0,1.76-.08v.72Zm.1,1.48h-.94v.74h.56l1.4,0c0,.11,0,.77,0,.87v.93c0,.25,0,.74,0,1h-.74a2.24,2.24,0,0,0,0-.39H66.7a2.48,2.48,0,0,0,0,.39H66c0-.19,0-.86,0-1.07v-.91c0-.21,0-.32,0-.8.35,0,1.08,0,1.53,0V36.2c0-.25,0-1.06,0-1.3l.78.07c.06,0,.18,0,.18.1s-.07.11-.26.18v.37h.93c.15,0,.75,0,1.1,0v.64Zm.31,1.29H66.7v1.25h2.78Z"/><path class="cls-7" d="M49.17,29.45a4.55,4.55,0,0,0-.73-.56,4.6,4.6,0,0,1-1.56,1.87l-.55-.54a3.09,3.09,0,0,0,1.57-1.65A3.46,3.46,0,0,0,46.27,28a13.54,13.54,0,0,1-1,1.7.83.83,0,0,1-.69.38.85.85,0,0,1-.83-.91,2,2,0,0,1,2.11-1.78c.1-.23.33-.78.48-1.15,0-.07.15-.4.18-.46a7.78,7.78,0,0,1-1.33.15L45,25.34A4.54,4.54,0,0,0,47.2,25l.34.43a7.39,7.39,0,0,0-.73,1.35c0,.05-.26.61-.3.73a5.7,5.7,0,0,1,1.58.5,6.32,6.32,0,0,0,.16-1.23,2.16,2.16,0,0,0,0-.31l.84.19c.07,0,.11,0,.11.09s-.06.13-.25.24c-.19,1-.21,1.07-.28,1.31a8.14,8.14,0,0,1,.92.61ZM44.73,28.4a1.09,1.09,0,0,0-.33.74c0,.22.12.31.25.31a.31.31,0,0,0,.24-.13,7.33,7.33,0,0,0,.74-1.3A1.39,1.39,0,0,0,44.73,28.4Z"/><path class="cls-7" d="M55.41,30.37a5.76,5.76,0,0,1-2.81.5l-.26-.7a7.6,7.6,0,0,0,.82,0c.89,0,2.35-.15,2.35-1.21a.9.9,0,0,0-1-.87,2.23,2.23,0,0,0-1.27.45,4.36,4.36,0,0,0-.65.65l-.66-.3a11.46,11.46,0,0,0,.64-2.1L52,26.9l-.71,0-.1-.65a2.89,2.89,0,0,0,.5,0q.45,0,1-.06a11.07,11.07,0,0,0,.2-1.51l.81.12c.11,0,.18,0,.18.12s0,.09-.27.21c-.15.53-.19.68-.25,1a5.78,5.78,0,0,0,1.94-.56v.69a20.92,20.92,0,0,1-2,.46c0,.09-.31,1.19-.38,1.46a2.89,2.89,0,0,1,1.7-.64,1.45,1.45,0,0,1,1.61,1.35A1.63,1.63,0,0,1,55.41,30.37Z"/><path class="cls-7" d="M61.45,30.54,60.92,30a2.92,2.92,0,0,0,1.55-.81A2.47,2.47,0,0,0,63,27.58,1.8,1.8,0,0,0,61.92,26a1.85,1.85,0,0,0-1-.21,11.76,11.76,0,0,1-.87,3.4c-.14.29-.49,1-.89,1a.94.94,0,0,1-.59-.23,2.43,2.43,0,0,1-.86-1.89,2.79,2.79,0,0,1,.77-1.93,3,3,0,0,1,2.29-1A2.81,2.81,0,0,1,63,26a2.47,2.47,0,0,1,.63,1.68A2.87,2.87,0,0,1,61.45,30.54Zm-1.31-4.72a2.31,2.31,0,0,0-1.76,2.24c0,.62.38,1.28.68,1.28s.42-.42.51-.61a9.88,9.88,0,0,0,.75-2.93Z"/><path class="cls-7" d="M68.49,31.12a8.76,8.76,0,0,0-1.33-1.76c-.33-.31-.91-.84-1.18-1s-.36-.29-.36-.55.11-.33.4-.63l.84-.84a10.67,10.67,0,0,0,1.47-1.75L69,25a.19.19,0,0,1,.12.16.12.12,0,0,1,0,.1l-.3.09-1.52,1.5c-.16.17-.45.45-.58.58s-.18.22-.18.3a.47.47,0,0,0,.19.33,11.89,11.89,0,0,1,1.71,1.65c.28.32.6.72.79.95Z"/><path class="cls-7" d="M77.44,31a4.21,4.21,0,0,1-1-1.14l-.12.55c-.72.28-1.2.42-1.68.56,0,.11,0,.17-.1.17s-.07,0-.09-.09l-.23-.62c-.71.15-1.06.22-2.2.41,0,.09-.06.14-.11.14s-.09-.06-.1-.1l-.21-.69a11.19,11.19,0,0,0,1.26-.09V28.24h-.24a5.5,5.5,0,0,0-.92.05v-.64a7.56,7.56,0,0,0,.92.07h.24v-.66h-.09l-.7,0v-.28l-.16.13-.57-.47A3.58,3.58,0,0,0,73,24.64l.61.16s.11,0,.11.1-.06.09-.2.14a3.72,3.72,0,0,0,1.14,1l-.44.51a5,5,0,0,1-1-1,6.93,6.93,0,0,1-.85,1h1.2l.7,0v.56c-.21,0-.44,0-.66,0h-.18v.66a6.86,6.86,0,0,0,1-.07v.64a6,6,0,0,0-1-.05V30a6.47,6.47,0,0,0,1-.15l-.13.48.41-.08v-4c0-.2,0-1.09-.06-1.27h2l.92,0c0,.19,0,.76,0,1v.91c0,.2,0,.36,0,.91l-1,0h-.29a4.55,4.55,0,0,0,.3,1.08,2.41,2.41,0,0,0,.73-.92l.66.33a.09.09,0,0,1,0,.08c0,.07-.07.07-.19.08l-.35.41a4.8,4.8,0,0,1-.63.56,3.83,3.83,0,0,0,1.28,1.22ZM72.06,29.8a2.75,2.75,0,0,0-.34-1.08l.53-.24a3.26,3.26,0,0,1,.36,1.09Zm2.31-1a3.93,3.93,0,0,1-.25.94l-.56-.11a4.46,4.46,0,0,0,.26-1.15l.58.11s.1,0,.1.1S74.45,28.8,74.37,28.82ZM77,25.44H75.29V26H77Zm0,1.09H75.29v.6H77Zm-1.27,1.12h-.39v2.43a8.74,8.74,0,0,0,1.07-.34A5.23,5.23,0,0,1,75.68,27.65Z"/><path class="cls-7" d="M80.66,26.67a2.2,2.2,0,0,1-.31.54c.1.07.12.09.12.14s0,0-.13.16,0,.7,0,1v.82c0,.41,0,1.27.05,1.69h-.75c0-.58,0-1.34,0-1.93v-1a5.46,5.46,0,0,1-.74.67l-.52-.52a4.44,4.44,0,0,0,1.85-2.12l.6.38a.11.11,0,0,1,0,.09C80.9,26.64,80.89,26.64,80.66,26.67Zm-.2-1.4a4,4,0,0,1-1.4,1.14l-.53-.52a3.53,3.53,0,0,0,1.57-1.25l.58.44a.15.15,0,0,1,0,.1C80.73,25.27,80.63,25.27,80.46,25.27Zm3.17,2.25v1.62c0,.34,0,.9,0,1.24a.52.52,0,0,1-.29.55,3.12,3.12,0,0,1-.9.05L82,30.14a4.41,4.41,0,0,0,.72.08c.19,0,.19-.07.19-.43V27.52h-.76c-.34,0-.89,0-1.23.06v-.7a10.45,10.45,0,0,0,1.27.05h1.55a10.31,10.31,0,0,0,1.11-.05v.7A11.19,11.19,0,0,0,83.63,27.52Zm0-1.78H82.46c-.29,0-.72,0-1,.05V25a9.47,9.47,0,0,0,1.07,0h1a8.21,8.21,0,0,0,1,0v.76A6.05,6.05,0,0,0,83.58,25.74Z"/><path class="cls-7" d="M47.39,34.42a7,7,0,0,1-1.22,2.22l-.56-.32a3.88,3.88,0,0,0,.53.71l-.44.49a5.29,5.29,0,0,1-.52-.72v.77c0,.54,0,.92,0,2.07h-.74c.07-1.09.07-1.31.07-2.08v-.77a6.16,6.16,0,0,1-.68,1.33l-.66-.34a4.43,4.43,0,0,0,.9-1.41,5.82,5.82,0,0,0,.31-1.21c-.26,0-.64,0-.89,0v-.59c.28,0,.67,0,.85,0h.17c0-.46,0-.92,0-1.39l.7.07s.13,0,.13.08,0,.08-.16.14c0,.33,0,.92,0,1.1.31,0,.69,0,.89,0v.59c-.23,0-.63,0-.91,0v.18a3.84,3.84,0,0,0,.4.93,4.71,4.71,0,0,0,1.22-2.38l.67.33c.06,0,.09.06.09.1S47.48,34.41,47.39,34.42ZM49,39.57a4.74,4.74,0,0,0-.25-.64,24.53,24.53,0,0,1-2.56.47c0,.08-.05.17-.11.17a.11.11,0,0,1-.1-.09l-.26-.75c.18,0,.27,0,.66,0a10.3,10.3,0,0,0,1-2.83l.74.18s.11,0,.11.09-.08.1-.2.12a13.74,13.74,0,0,1-.93,2.37c.65-.07.73-.09,1.43-.19a4,4,0,0,0-.61-.84l.54-.33a6.18,6.18,0,0,1,1.23,1.91Zm.37-2.9A4.07,4.07,0,0,1,48,34.11a3.5,3.5,0,0,0-.57,0v-.63l.48,0h.25a3.26,3.26,0,0,0,.45,0,3.53,3.53,0,0,0,.33,1.54,3.26,3.26,0,0,0,1,1.16Z"/><path class="cls-7" d="M54.77,36.79H52.1v.36h2.54c.86,0,1.53,0,2-.06a8.38,8.38,0,0,1-.24,1.84,1,1,0,0,1-.65.65,1.65,1.65,0,0,1-.53.07h-.23l-.24-.7.44,0c.4,0,.47-.07.52-.14a3.42,3.42,0,0,0,.23-1.22h-3v.86h1c0-.18,0-.29,0-.67l.66.06c.1,0,.16,0,.16.09s0,.07-.16.14a6.46,6.46,0,0,0,0,.88l-1.32,0H51.34v.4h-.66c0-.23,0-.47,0-.8s0-.45,0-.73l.65,0c.1,0,.16,0,.16.06s0,.09-.15.16a2.69,2.69,0,0,0,0,.39h.95V37.6H52l-.63,0c0-.21.07-.94.07-1.14V35.37c0-.68,0-1.06,0-1.5l1.36,0c.08-.21.2-.56.22-.64l.66.12s.18,0,.18.13-.19.12-.23.12l-.12.27h.36c.2,0,1.27,0,1.72,0a7.35,7.35,0,0,0,0,.89v.52a5.8,5.8,0,0,0,0,.77l-1.5,0h-2v.32h2.65c.4,0,1.34,0,2-.07v.55C56.22,36.79,55.35,36.79,54.77,36.79Zm.16-2.39H52.1v.36h2.83Zm0,.77H52.1v.38h2.83Z"/><path class="cls-7" d="M63.47,39.68a6.66,6.66,0,0,1-1.53-.32,4.75,4.75,0,0,1-1.35-.68,5.27,5.27,0,0,1-1.07.57,10.2,10.2,0,0,1-1.64.47L57.44,39a5.67,5.67,0,0,0,2.67-.79,4.88,4.88,0,0,1-.93-1.5l.61-.25a3,3,0,0,0,.83,1.33,6.17,6.17,0,0,0,1.12-1.35h-2c-.52,0-1,0-1.56.08v-.68c.58,0,1.11,0,1.59,0h.61V35h-.74c-.68,0-1.44,0-2.12.06v-.68c.68,0,1.76.06,2.12.06h.74c0-.31,0-.45,0-1.18l.88.08a.1.1,0,0,1,.09.1c0,.09,0,.11-.19.18,0,.49,0,.56,0,.82h.66c.17,0,1.33,0,2.14-.06v.67c-.95-.05-2-.05-2.14-.05h-.66v.89a8.62,8.62,0,0,0,1.39-.07l.32.38a8.87,8.87,0,0,1-1.69,2,4.94,4.94,0,0,0,2.78.74Z"/><path class="cls-7" d="M69.07,34.69H65.78v1.05c0,2.19-.36,2.92-.84,3.62L64.26,39c.45-.53.87-1.22.87-3.27a10.52,10.52,0,0,0-.1-1.65c.33,0,1.32,0,1.37,0h1.11c0-.23,0-.59,0-.82l.75.06c.17,0,.24,0,.24.1a.09.09,0,0,1-.07.1l-.16.08c0,.06,0,.4,0,.48h.84c.23,0,1.51,0,1.76-.08v.72Zm.1,1.48h-.94v.74h.56l1.4,0c0,.11,0,.77,0,.87v.93c0,.25,0,.74,0,1h-.74a2.24,2.24,0,0,0,0-.39H66.7a2.48,2.48,0,0,0,0,.39H66c0-.19,0-.86,0-1.07v-.91c0-.21,0-.32,0-.8.35,0,1.08,0,1.53,0V36.2c0-.25,0-1.06,0-1.3l.78.07c.06,0,.18,0,.18.1s-.07.11-.26.18v.37h.93c.15,0,.75,0,1.1,0v.64Zm.31,1.29H66.7v1.25h2.78Z"/><line class="cls-10" x1="169" y1="125.26" x2="186.78" y2="125.26"/><line class="cls-10" x1="113.99" y1="66.05" x2="113.99" y2="48.27"/><path class="cls-7" d="M192.31,179l-1.08,0H189.3l-1.48,0-.59,0v-.72c.42.06,1.58.08,2.05.08h1.49a10.67,10.67,0,0,0,.24-1.33c0-.24.16-1.29.19-1.51H190c-.83,0-1.48,0-1.58.05v-.69c.17,0,1.18.07,1.31.07h1.14l1.2,0c-.05.3-.28,1.65-.32,1.93l-.24,1.52c1,0,1.12,0,1.8-.07V179C193.09,179,192.76,179,192.31,179Z"/><path class="cls-7" d="M198.16,179h-1.82c-.62,0-1.23,0-1.84.07v-.79c.62,0,1.54.07,1.84.07h1.82s1.08,0,1.86-.07V179C199.26,179,198.36,179,198.16,179ZM198,175.6h-1.33a12.09,12.09,0,0,0-1.35.06v-.74c.46.05,1.13.06,1.35.06H198a12.45,12.45,0,0,0,1.37-.06v.74C198.76,175.6,198,175.6,198,175.6Z"/><path class="cls-7" d="M203.43,175.39l-.24,1a7.8,7.8,0,0,1-1.43,2.85l-.7-.35a6.19,6.19,0,0,0,1.12-1.68,7.84,7.84,0,0,0,.56-2.32l.81.23c.11,0,.15.07.15.12S203.64,175.34,203.43,175.39Zm3,3.59a7.79,7.79,0,0,0-1.65-3.73l.58-.38a9.8,9.8,0,0,1,1.84,3.83Zm-.09-3.78-.31-.31c-.09-.09-.23-.21-.4-.35l.35-.37a3.22,3.22,0,0,1,.73.68Zm.69-.44a2.92,2.92,0,0,0-.69-.66l.35-.35a2.61,2.61,0,0,1,.69.68Z"/><path class="cls-7" d="M212.09,177.21h-1.6a17.66,17.66,0,0,0-1.84.09v-.77a12.78,12.78,0,0,0,1.84.09h1.6a14.09,14.09,0,0,0,1.84-.09v.77A15.93,15.93,0,0,0,212.09,177.21Z"/><path class="cls-7" d="M220.48,179.45a7.38,7.38,0,0,0-1.79-1.92,7.55,7.55,0,0,1-2.59,1.93l-.53-.62a5.86,5.86,0,0,0,1.82-1,6.34,6.34,0,0,0,1.9-2.69H218a15.93,15.93,0,0,0-1.69.08v-.7c.22,0,1.08.05,1.37.05h1a5.23,5.23,0,0,0,.84,0,.77.77,0,0,0,.34-.16l.52.57-.33.25a16.31,16.31,0,0,1-1,1.8,8.76,8.76,0,0,1,2,1.92Z"/><line class="cls-10" x1="169" y1="101.65" x2="186.78" y2="97.52"/><path class="cls-8" d="M26.36,21.87H24.25c-.7,0-1.4,0-2.11.06v-.69c.85,0,1.78.06,2.11.06H25V20.22h-.5c-.52,0-1.12,0-1.64.06v-.69c.61.05,1.39.06,1.64.06H25c0-.44,0-.61,0-1.06l.66.06c.13,0,.17,0,.17.1s0,.1-.15.2,0,.52,0,.7h.47c.56,0,1.11,0,1.66-.06v.69c-.72-.05-1.45-.06-1.66-.06h-.47V21.3h.73c.13,0,1.06,0,2.15-.06v.69C27.79,21.89,27.08,21.87,26.36,21.87Zm-.06-5.2h-1a5.46,5.46,0,0,1-.62,1.2c1.07-.07,1.56-.13,1.89-.17a2.27,2.27,0,0,0-.28-.33L26,17.12l.56-.4a4.91,4.91,0,0,1,1.34,1.85l-.64.38a3.45,3.45,0,0,0-.34-.72c-.2,0-1.31.18-1.6.21l-2.15.21c0,.06-.09.17-.18.17s-.1-.12-.11-.17L22.73,18a7.65,7.65,0,0,0,1.17-.06,4.35,4.35,0,0,0,.55-1.23h-.11c-.92,0-1.43,0-2,0v-.62c.87.06,1.83.06,2,.06h2c.66,0,1.32,0,2-.06v.62C27.69,16.68,27.13,16.67,26.3,16.67Z"/><path class="cls-8" d="M35.16,19.09A6,6,0,0,1,34,18.41v.36a9.29,9.29,0,0,0-1.09-.06h-.23v.74h.4a14.53,14.53,0,0,0,1.48-.06v.69C33.93,20,33.15,20,33.09,20h-.4V21.4h.79l-.43-.22a2.51,2.51,0,0,0,.62-1l.61.28s.08,0,.08.1-.07.09-.21.11a3.16,3.16,0,0,1-.46.77c.49,0,1.14,0,1.61-.09V22c-.66,0-1.31,0-2,0h-2c-.76,0-1.4,0-1.85.07v-.69c.53,0,1.34,0,1.53,0a2.39,2.39,0,0,0-.54-.91l.55-.31a2,2,0,0,1,.59,1l-.51.26H32V20h-.38a14.26,14.26,0,0,0-1.46.06v-.69c.5.05,1.24.06,1.46.06H32v-.74h-.35l-.95,0v-.33a4.31,4.31,0,0,1-1.2.68l-.5-.52A4.93,4.93,0,0,0,32,15.81l.75.24c.1,0,.14,0,.14.1s-.07.1-.13.13a4.45,4.45,0,0,0,1.09,1.24,5.31,5.31,0,0,0,1.73.93Zm-2.85-2.4A5.83,5.83,0,0,1,31,18.14h1.91a3,3,0,0,0,.63,0A5.08,5.08,0,0,1,32.31,16.69Z"/><path class="cls-8" d="M42,21.15a5.94,5.94,0,0,1-2.26-2.21v1.15c0,.8.06,1.45.11,2.08h-.88c0-.17.06-1,.07-1.09s0-.83,0-1V18.93a5.85,5.85,0,0,1-2.31,2.29l-.63-.59a5.24,5.24,0,0,0,2.77-2.83h-.53c-.3,0-1.32,0-2.07.06v-.69c.69,0,1.38.06,2.07.06H39c0-.3,0-.58,0-1.45l.77.06c.06,0,.19,0,.19.13s0,.08-.23.19c0,.47,0,.53,0,1.07h.67c.34,0,1.38,0,2.1-.06v.69c-.67,0-1.44-.06-2.1-.06H39.8a5.91,5.91,0,0,0,1.05,1.57,4.83,4.83,0,0,0,1.74,1.23Z"/><path class="cls-9" d="M26.36,21.87H24.25c-.7,0-1.4,0-2.11.06v-.69c.85,0,1.78.06,2.11.06H25V20.22h-.5c-.52,0-1.12,0-1.64.06v-.69c.61.05,1.39.06,1.64.06H25c0-.44,0-.61,0-1.06l.66.06c.13,0,.17,0,.17.1s0,.1-.15.2,0,.52,0,.7h.47c.56,0,1.11,0,1.66-.06v.69c-.72-.05-1.45-.06-1.66-.06h-.47V21.3h.73c.13,0,1.06,0,2.15-.06v.69C27.79,21.89,27.08,21.87,26.36,21.87Zm-.06-5.2h-1a5.46,5.46,0,0,1-.62,1.2c1.07-.07,1.56-.13,1.89-.17a2.27,2.27,0,0,0-.28-.33L26,17.12l.56-.4a4.91,4.91,0,0,1,1.34,1.85l-.64.38a3.45,3.45,0,0,0-.34-.72c-.2,0-1.31.18-1.6.21l-2.15.21c0,.06-.09.17-.18.17s-.1-.12-.11-.17L22.73,18a7.65,7.65,0,0,0,1.17-.06,4.35,4.35,0,0,0,.55-1.23h-.11c-.92,0-1.43,0-2,0v-.62c.87.06,1.83.06,2,.06h2c.66,0,1.32,0,2-.06v.62C27.69,16.68,27.13,16.67,26.3,16.67Z"/><path class="cls-9" d="M35.16,19.09A6,6,0,0,1,34,18.41v.36a9.29,9.29,0,0,0-1.09-.06h-.23v.74h.4a14.53,14.53,0,0,0,1.48-.06v.69C33.93,20,33.15,20,33.09,20h-.4V21.4h.79l-.43-.22a2.51,2.51,0,0,0,.62-1l.61.28s.08,0,.08.1-.07.09-.21.11a3.16,3.16,0,0,1-.46.77c.49,0,1.14,0,1.61-.09V22c-.66,0-1.31,0-2,0h-2c-.76,0-1.4,0-1.85.07v-.69c.53,0,1.34,0,1.53,0a2.39,2.39,0,0,0-.54-.91l.55-.31a2,2,0,0,1,.59,1l-.51.26H32V20h-.38a14.26,14.26,0,0,0-1.46.06v-.69c.5.05,1.24.06,1.46.06H32v-.74h-.35l-.95,0v-.33a4.31,4.31,0,0,1-1.2.68l-.5-.52A4.93,4.93,0,0,0,32,15.81l.75.24c.1,0,.14,0,.14.1s-.07.1-.13.13a4.45,4.45,0,0,0,1.09,1.24,5.31,5.31,0,0,0,1.73.93Zm-2.85-2.4A5.83,5.83,0,0,1,31,18.14h1.91a3,3,0,0,0,.63,0A5.08,5.08,0,0,1,32.31,16.69Z"/><path class="cls-9" d="M42,21.15a5.94,5.94,0,0,1-2.26-2.21v1.15c0,.8.06,1.45.11,2.08h-.88c0-.17.06-1,.07-1.09s0-.83,0-1V18.93a5.85,5.85,0,0,1-2.31,2.29l-.63-.59a5.24,5.24,0,0,0,2.77-2.83h-.53c-.3,0-1.32,0-2.07.06v-.69c.69,0,1.38.06,2.07.06H39c0-.3,0-.58,0-1.45l.77.06c.06,0,.19,0,.19.13s0,.08-.23.19c0,.47,0,.53,0,1.07h.67c.34,0,1.38,0,2.1-.06v.69c-.67,0-1.44-.06-2.1-.06H39.8a5.91,5.91,0,0,0,1.05,1.57,4.83,4.83,0,0,0,1.74,1.23Z"/><rect class="cls-11" x="24.12" y="110.6" width="16.43" height="5.78" rx="2.89"/><circle class="cls-12" cx="32.33" cy="113.46" r="2.21"/><circle class="cls-13" cx="37.26" cy="113.46" r="2.21"/><circle class="cls-14" cx="27.4" cy="113.46" r="2.21"/><rect class="cls-11" x="24.12" y="53.58" width="16.43" height="5.78" rx="2.89"/><circle class="cls-12" cx="32.33" cy="56.43" r="2.21"/><circle class="cls-13" cx="37.26" cy="56.43" r="2.21"/><circle class="cls-14" cx="27.4" cy="56.43" r="2.21"/><rect class="cls-11" x="24.12" y="184.15" width="16.43" height="5.78" rx="2.89"/><circle class="cls-12" cx="32.33" cy="187" r="2.21"/><circle class="cls-13" cx="37.26" cy="187" r="2.21"/><circle class="cls-14" cx="27.4" cy="187" r="2.21"/><rect class="cls-11" x="171.54" y="110.6" width="16.43" height="5.78" rx="2.89"/><circle class="cls-12" cx="179.75" cy="113.46" r="2.21"/><circle class="cls-13" cx="184.69" cy="113.46" r="2.21"/><circle class="cls-14" cx="174.82" cy="113.46" r="2.21"/><rect class="cls-11" x="171.54" y="53.58" width="16.43" height="5.78" rx="2.89"/><circle class="cls-12" cx="179.75" cy="56.43" r="2.21"/><circle class="cls-13" cx="184.69" cy="56.43" r="2.21"/><circle class="cls-14" cx="174.82" cy="56.43" r="2.21"/><rect class="cls-11" x="171.54" y="184.15" width="16.43" height="5.78" rx="2.89"/><circle class="cls-12" cx="179.75" cy="187" r="2.21"/><circle class="cls-13" cx="184.69" cy="187" r="2.21"/><circle class="cls-14" cx="174.82" cy="187" r="2.21"/><rect class="cls-15" x="106.1" y="75.66" width="64.47" height="17.88"/><polygon class="cls-15" points="141.47 92.69 138.34 118.59 135.21 92.69 141.47 92.69"/><rect class="cls-2" x="106.1" y="75.66" width="64.47" height="17.88"/><polygon class="cls-2" points="141.47 92.69 138.34 118.59 135.21 92.69 141.47 92.69"/><path class="cls-1" d="M112.7,78.55c-.34.83-.51,1.24-.65,1.56a5.11,5.11,0,0,1-.34.6,6,6,0,0,1,1.14,1.2l-.59.58a7.62,7.62,0,0,0-1-1.16,11.48,11.48,0,0,1-2.52,2.17l-.79-.6a4,4,0,0,0,1.43-.78,7.51,7.51,0,0,0,1.32-1.29,11,11,0,0,0-1.37-.93l.43-.64a10.91,10.91,0,0,1,1.37.94,5.71,5.71,0,0,0,.82-2.3l.83.34c.15.06.17.11.17.14S112.79,78.54,112.7,78.55Z"/><path class="cls-1" d="M120.87,80.76l-1.07,0H119V81.8c0,.7,0,.74.14.84a2.16,2.16,0,0,0,.93.13,4.09,4.09,0,0,0,1.4-.19v.79a6.93,6.93,0,0,1-1.6.12,2.23,2.23,0,0,1-1.37-.29c-.27-.22-.27-.46-.27-1.38,0-.15,0-.84,0-1v-.11h-.38a15.33,15.33,0,0,0-2.15.1v-.79a4.65,4.65,0,0,0,1.1.09l1,0h.43v-1.6a9.16,9.16,0,0,0-1.75.09v-.78c.36,0,1.39.08,1.76.08h1.54c.4,0,1.13,0,1.5-.06v.76a3.2,3.2,0,0,0-.68-.07l-.8,0H119v1.6h.82l1.09,0a5.69,5.69,0,0,0,.91-.08v.77A4.85,4.85,0,0,0,120.87,80.76Z"/><path class="cls-1" d="M125.31,78.14c0,.23,0,.71,0,1v1.09c0,.23,0,1,.06,1.26h-.88a10.6,10.6,0,0,0,.06-1.27V78.94c0-.29,0-.91,0-1.19l.79,0c.17,0,.23.06.23.15S125.42,78.08,125.31,78.14Zm3.51-.2a.61.61,0,0,0-.14.11c0,.36,0,2-.06,2.28a3.5,3.5,0,0,1-1,2.52,6.25,6.25,0,0,1-1.6,1l-.66-.67a3.26,3.26,0,0,0,1.62-.78c.93-.78.93-1.73.93-3.56,0-.86,0-.9,0-1.26l.8.06c.09,0,.21,0,.21.15A.14.14,0,0,1,128.82,77.94Z"/><path class="cls-1" d="M137.23,79.2a8.94,8.94,0,0,1-1.72,1.93l-.62-.53a5.29,5.29,0,0,0,1.81-1.91h-3.11c-.6,0-1.53,0-2.3,0v-.69c.62,0,1.56,0,2.26,0h1.87a13.73,13.73,0,0,0,1.79-.14l.58.69C137.62,78.72,137.56,78.75,137.23,79.2Zm-2.45.31a5,5,0,0,1-2.08,4.12l-.77-.47a4.39,4.39,0,0,0,1.45-1.33,3.7,3.7,0,0,0,.57-2.21c0-.17,0-.29,0-.55l.85.08c.17,0,.21.12.21.17S135,79.4,134.78,79.51Z"/><path class="cls-1" d="M141.48,78.5s-.19.12-.21.14c0,2.33-.31,3.88-1.93,4.75l-.62-.63a2.45,2.45,0,0,0,1.39-1.34,3.08,3.08,0,0,0,.29-1.09,8.23,8.23,0,0,0,0-.88,7.67,7.67,0,0,0-.09-1.34l.92.12c.2,0,.26,0,.26.16A.14.14,0,0,1,141.48,78.5Zm1.44,4.8-.56-.4a5.66,5.66,0,0,0,0-.84c0-.25,0-.65,0-.9V79.62c0-.12,0-1.4-.06-1.64l.88.09c.1,0,.21.05.21.16s0,.09-.09.13l-.13.11c-.05.33-.06,1.3-.06,1.66v2.1a4.69,4.69,0,0,0,1.32-1,4.75,4.75,0,0,0,.79-1.13l.52.6A7.88,7.88,0,0,1,142.92,83.3Z"/><path class="cls-1" d="M147.41,82.79l-.71-.49a5.91,5.91,0,0,0,1.64-1.76l.62.39A7.86,7.86,0,0,1,147.41,82.79Zm3.78-3h-.72v1.85c0,.19,0,1,0,1.16,0,.35-.15.61-.75.73a3,3,0,0,1-.92,0l-.3-.86a2.64,2.64,0,0,0,.6.08c.26,0,.53,0,.58-.24a6.61,6.61,0,0,0,0-.89V79.84h-.58c-.07,0-1.49,0-2,.08v-.8a17.88,17.88,0,0,0,1.94.13h.64a13.33,13.33,0,0,0-.1-1.56l.93.13c.09,0,.24,0,.24.11s-.14.18-.28.27c0,.32,0,.73,0,1h.7c.22,0,1.28,0,1.7-.07V80A10.86,10.86,0,0,0,151.19,79.84Zm1.25,2.93A6.06,6.06,0,0,0,151,81l.61-.4a8.24,8.24,0,0,1,1.57,1.79Z"/><path class="cls-1" d="M158.75,81H157c-.1,0-1.27,0-2.05.09v-.82a16,16,0,0,0,2.05.09h1.79a17.65,17.65,0,0,0,2.06-.09v.82A20,20,0,0,0,158.75,81Z"/><path class="cls-1" d="M164.93,78.5s-.19.12-.21.14c0,2.33-.32,3.88-1.93,4.75l-.62-.63a2.47,2.47,0,0,0,1.39-1.34,3.09,3.09,0,0,0,.28-1.09,6.6,6.6,0,0,0,0-.88,8.88,8.88,0,0,0-.09-1.34l.92.12c.19,0,.25,0,.25.16A.14.14,0,0,1,164.93,78.5Zm1.44,4.8-.56-.4a7.44,7.44,0,0,0,.05-.84c0-.25,0-.65,0-.9V79.62c0-.12,0-1.4-.05-1.64l.87.09c.11,0,.21.05.21.16s0,.09-.08.13l-.13.11c-.05.33-.06,1.3-.06,1.66v2.1a4.85,4.85,0,0,0,1.31-1,4.75,4.75,0,0,0,.79-1.13l.53.6A7.88,7.88,0,0,1,166.37,83.3Z"/><path class="cls-1" d="M131.38,90.9a1,1,0,0,1-1.08.67,2.09,2.09,0,0,1-.7-.11l-.12-.78a1.82,1.82,0,0,0,.75.2c.19,0,.42,0,.63-.6a5.25,5.25,0,0,0,.36-1.74c0-.5-.13-.74-.49-.74a5,5,0,0,0-.79.1,11,11,0,0,1-1.7,3.62l-.77-.33a6.46,6.46,0,0,0,1.68-3.13c-.31.06-1,.24-1.32.33l-.27-.72a11,11,0,0,0,1.73-.26,6.26,6.26,0,0,0,.18-1.66l.76.06c.06,0,.33,0,.33.17s-.06.11-.25.27-.1.41-.23,1a5.9,5.9,0,0,1,.87-.07c.8,0,1,.66,1,1.29A6.11,6.11,0,0,1,131.38,90.9Zm1.46-1.48-.53-.68c.65,0,.75-.09.75-.31a.71.71,0,0,0-.17-.42A8.89,8.89,0,0,0,132,87l.56-.34a11,11,0,0,1,.86.92,1.49,1.49,0,0,1,.46,1C133.84,89.21,133.14,89.36,132.84,89.42Z"/><path class="cls-1" d="M140.25,90.05a3.61,3.61,0,0,0-2-.69c-.89,0-1.24.52-1.24.9,0,1,1.28,1,1.54,1a4.74,4.74,0,0,0,1.3-.18l.15.71a11.33,11.33,0,0,1-1.43.11,2.27,2.27,0,0,1-1.83-.58,1.5,1.5,0,0,1-.41-1,1.61,1.61,0,0,1,1.81-1.53,4.36,4.36,0,0,1,1.43.29,10.14,10.14,0,0,1-1-1.49,9.77,9.77,0,0,1-2.3.42l-.38-.67a3.13,3.13,0,0,0,.47,0,6.71,6.71,0,0,0,1.93-.31c-.12-.22-.6-1.25-.7-1.46l.78-.11h.21a.1.1,0,0,1,.1.11.14.14,0,0,1,0,.1,1.57,1.57,0,0,0-.1.13,4.72,4.72,0,0,0,.38,1,3.85,3.85,0,0,0,1.28-.7l.35.61a8.33,8.33,0,0,1-1.35.6,7.77,7.77,0,0,0,1.57,2.07Z"/><path class="cls-1" d="M144.76,91.3a1.36,1.36,0,0,1-.91-.53,3.63,3.63,0,0,1-.84-2.64,13.59,13.59,0,0,1,.15-1.65s0-.17,0-.2l.71.24c.15.06.24.09.24.16s-.09.11-.2.16a5,5,0,0,0-.18,1.34c0,1.24.54,2.17.91,2.17s.61-.85.7-1.26l.45.46C145.66,90.23,145.35,91.3,144.76,91.3Zm3.82-1.57a4.75,4.75,0,0,0-.48-1.88,5.83,5.83,0,0,0-.73-1.21l.71-.32a6.66,6.66,0,0,1,1.36,3.15Z"/><rect class="cls-6" x="125.28" y="115.49" width="4.84" height="35.04" rx="2.42"/><path class="cls-7" d="M102.6,208.21h-1.77c-.6,0-1.2,0-1.79.07v-.7c.61,0,1.52.06,1.79.06h.56v-3.16c-.09,0-1.14,0-1.83,0v-.66l.51,0,1,0h1.59c.41,0,.89,0,1.3-.06v.66c-.75,0-.88,0-1.84,0v3.18h.48c.6,0,1.21,0,1.81-.06v.7C103.63,208.21,102.67,208.21,102.6,208.21Z"/><path class="cls-7" d="M108.11,204l-.19.13c0,2.17-.28,3.59-1.73,4.41l-.55-.59a2.22,2.22,0,0,0,1.24-1.24,3.23,3.23,0,0,0,.26-1,7.1,7.1,0,0,0,0-.82,6.61,6.61,0,0,0-.09-1.24l.83.11c.18,0,.23,0,.23.15A.11.11,0,0,1,108.11,204Zm1.29,4.45-.5-.37a6.46,6.46,0,0,0,0-.78c0-.23,0-.61,0-.83V205c0-.11,0-1.3,0-1.52l.78.09c.09,0,.19,0,.19.14a.15.15,0,0,1-.07.12l-.12.1c0,.31,0,1.2,0,1.54v2a4.32,4.32,0,0,0,1.17-1,4.14,4.14,0,0,0,.71-1l.47.56A7.15,7.15,0,0,1,109.4,208.42Z"/><path class="cls-7" d="M118.05,208.68a5.32,5.32,0,0,0-.33-.92l-3,.37a8.54,8.54,0,0,0-1.23.2c-.19.09-.21.09-.26.09s0,0-.1-.19l-.16-.68a6.83,6.83,0,0,0,1.08,0,31.34,31.34,0,0,0,1.48-4.28l.77.24c.13,0,.19.06.19.14s-.09.13-.2.15c-.12.28-.45,1-.82,1.9s-.37.94-.75,1.8c1.34-.11,1.49-.12,2.77-.27a5.9,5.9,0,0,0-.89-1.18l.62-.35a7.32,7.32,0,0,1,1.54,2.67Z"/><path class="cls-7" d="M123.58,208.71l-.53-.58a2.92,2.92,0,0,0,1.55-.81,2.47,2.47,0,0,0,.54-1.57,1.8,1.8,0,0,0-1.09-1.63,1.85,1.85,0,0,0-1-.21,11.76,11.76,0,0,1-.87,3.4c-.14.29-.49,1-.89,1a.89.89,0,0,1-.59-.24,2.38,2.38,0,0,1-.86-1.88,2.77,2.77,0,0,1,.77-1.93,3,3,0,0,1,2.29-1,2.81,2.81,0,0,1,2.2.87,2.47,2.47,0,0,1,.63,1.68A2.87,2.87,0,0,1,123.58,208.71ZM122.27,204a2.31,2.31,0,0,0-1.76,2.24c0,.62.38,1.28.68,1.28s.42-.42.51-.61a9.88,9.88,0,0,0,.75-2.93Z"/><path class="cls-7" d="M128.29,204.82a5.65,5.65,0,0,1-.41.71c.05.06.13.15.13.19s-.14.13-.19.14v1.35c0,1.18,0,1.59,0,1.95h-.67c0-.34,0-.72,0-1.94v-.9l-.31.3-.54-.35a4,4,0,0,0,.91-.92,4.52,4.52,0,0,0,.61-1.12l.61.38c.07,0,.07.06.07.09S128.46,204.82,128.29,204.82Zm0-1.38-.18,0a3.89,3.89,0,0,1-1.18,1.22l-.5-.43a2.75,2.75,0,0,0,1.29-1.39l.61.4c.06,0,.09.07.09.12S128.35,203.44,128.25,203.44Zm1.7,2.28h-.89a6.56,6.56,0,0,0-.89.06v-.64a6.55,6.55,0,0,0,.89.05h.23v-.8h-.11a5.41,5.41,0,0,0-.79.05v-.68a4.88,4.88,0,0,0,.79.05h.11c0-.44,0-.53,0-1l.73.07s.15,0,.15.1-.14.14-.23.16c0,.21,0,.43,0,.63a5.22,5.22,0,0,0,.87-.05v.68a6.17,6.17,0,0,0-.87-.05v.8a6.37,6.37,0,0,0,1-.05v.64A6.12,6.12,0,0,0,130,205.72Zm.91,2.48a20.74,20.74,0,0,1-2.31.32s-.06.18-.15.18-.07,0-.11-.18l-.12-.57a6.77,6.77,0,0,0,1.11-.07v-.8h-.13a4.37,4.37,0,0,0-.8.06v-.69a3.65,3.65,0,0,0,.8.06h.13v-.71l.65.09c.11,0,.17,0,.17.11s0,.08-.24.17v.34a4.21,4.21,0,0,0,.9-.06v.69a6.17,6.17,0,0,0-.9-.06v.74c.21,0,.7-.1,1.07-.17Zm1.48-2.77v1.88c0,.15,0,.83,0,1,0,.36,0,.85-.86.85a1.39,1.39,0,0,1-.32,0l-.31-.72a2.72,2.72,0,0,0,.58.1c.28,0,.28-.13.28-.32v-2.72h-.11a3.85,3.85,0,0,0-.69.06v-.69a3.71,3.71,0,0,0,.69.06h.7a3.91,3.91,0,0,0,.7-.06v.69A3.91,3.91,0,0,0,132.34,205.43Zm-.06-1.65h-.6a2.43,2.43,0,0,0-.61.06v-.69a3.9,3.9,0,0,0,.61.06h.6a3.15,3.15,0,0,0,.61-.06v.69A3.9,3.9,0,0,0,132.28,203.78Z"/><polygon class="cls-16" points="25.75 221.68 146.75 221.68 138.29 129.26 159.83 221.68 222.01 221.68 222.01 334.51 25.75 334.51 25.75 221.68"/><polygon class="cls-6" points="217.41 228.26 31.47 228.26 31.47 241.3 64.29 241.3 64.29 328.22 77.33 328.22 77.33 241.3 217.41 241.3 217.41 228.26"/><rect class="cls-2" x="124.77" y="273.81" width="80.58" height="25.27"/><rect class="cls-2" x="82.85" y="244.55" width="24.05" height="15.39"/><rect class="cls-17" x="37.7" y="244.55" width="15.3" height="12.66"/><rect class="cls-2" x="33.84" y="274.5" width="24.05" height="15.99"/><path class="cls-7" d="M116.59,252.92a4.35,4.35,0,0,1-2-2.47,7.75,7.75,0,0,1-.41-2.06h-.46a2.58,2.58,0,0,1-.42.49,3.91,3.91,0,0,1,1.28,2.63c0,.74-.4,1.83-1.23,1.83h-.54l-.42-1a2.3,2.3,0,0,0,.78.18c.41,0,.69-.57.69-1.14a1.94,1.94,0,0,0,0-.33,8,8,0,0,1-1.69,1.29,4.9,4.9,0,0,1-1.72.58l-.53-.67a4.49,4.49,0,0,0,2.49-.8,7.52,7.52,0,0,0,1.26-1.05,4.21,4.21,0,0,0-.2-.39,6.87,6.87,0,0,1-2.71,1.63l-.61-.69a4.61,4.61,0,0,0,2.94-1.45,1.84,1.84,0,0,0-.27-.28,7.13,7.13,0,0,1-2.33,1.06l-.57-.64a4.68,4.68,0,0,0,2.94-1.3h-.73c-.39,0-.59,0-.85,0v-.63c.28,0,.6,0,.85,0h2.85c.27,0,.68,0,.85,0v.63c-.32,0-.62,0-.93,0a5.35,5.35,0,0,0,.23,1.53,5.24,5.24,0,0,0,1-.93l.46.36c.08.07.24.18.24.25s-.17.11-.33.11a12.79,12.79,0,0,1-1.09.87,3.27,3.27,0,0,0,1.81,1.68Zm-.36-4.53c0-.18,0-.38,0-.55v-.54h-5.47v.57a5,5,0,0,0,0,.56H110c0-.21,0-.46,0-.67v-.48a5.72,5.72,0,0,0,0-.59c.2,0,.43,0,.91,0h2.19c0-.16,0-.45,0-.76l.61.05c.37,0,.42.05.42.12s-.07.15-.25.23c0,.11,0,.24,0,.36h2.33c.27,0,.61,0,.81,0,0,.23,0,.45,0,.66v.41c0,.14,0,.4,0,.63Z"/><path class="cls-7" d="M125,253.45a3.81,3.81,0,0,1-1.87-1.75,3.67,3.67,0,0,1-.49.73,3,3,0,0,1-1.85,1l-.47-.77c-.21.52-.47.72-1.3.68l-.34-.76a4.55,4.55,0,0,1-.39.59l-.6-.59a6,6,0,0,0,1.24-3.54c0-.17,0-1,.06-1.1a8.12,8.12,0,0,0-1,.06v-.8a9.27,9.27,0,0,0,1,.07h.15a8.61,8.61,0,0,0,0-1.34l1,.1c.09,0,.13.06.13.13s-.08.13-.27.21c0,.25,0,.65,0,.9a7.62,7.62,0,0,0,1.1-.07v.8a8.73,8.73,0,0,0-1-.06h-.32c0,.24,0,.54-.07,1h.49a3.28,3.28,0,0,0,.64,0c0,.28-.1,1.52-.11,1.77a9.45,9.45,0,0,1-.32,2,2.23,2.23,0,0,0,2.26-1.59h-.17a12.38,12.38,0,0,0-1.41.05v-.74a13.14,13.14,0,0,0,1.41.07h.32a2.55,2.55,0,0,0,0-.38v-.56h-.3a3.25,3.25,0,0,1-.72.81l-.63-.47a2.47,2.47,0,0,0,.78-.78,2.93,2.93,0,0,0,.43-1.14l.82.29c.07,0,.13,0,.13.12s-.06.11-.26.18l-.23.42h.94a8.52,8.52,0,0,0,1.24-.08v.69c-.32,0-1,0-1.28,0h-.18c0,.29,0,.65,0,.94h.29a14.46,14.46,0,0,0,1.47-.07v.74c-.43,0-.8-.05-1.47-.05h-.17a3.43,3.43,0,0,0,.72,1,2.74,2.74,0,0,0,1.23.63Zm-5.42-3.84a8.43,8.43,0,0,1-.86,2.93,1.73,1.73,0,0,0,.54.08c.19,0,.38,0,.46-.25a11.78,11.78,0,0,0,.35-2.76Zm4.22-1.82h-1.75a4.78,4.78,0,0,1-.72,1.21l-.74-.34a3.29,3.29,0,0,0,.86-1.29,6.5,6.5,0,0,0,.34-1.49l.89.22s.16,0,.16.14-.11.13-.34.18c-.09.35-.13.45-.24.8h1.57a14.83,14.83,0,0,0,1.5-.08v.72A13.16,13.16,0,0,0,123.81,247.79Z"/><path class="cls-7" d="M131.42,247.18c0,.19,0,.29,0,.46h-.78c0-.32,0-.35,0-.46H129c0,.14,0,.34,0,.46h-.77a3.85,3.85,0,0,0,0-.46c-.74,0-1.35,0-2.16,0v-.69c.82,0,1.93.05,2.16.05a3.81,3.81,0,0,0,0-.64l.75.08c.08,0,.16,0,.16.1s-.11.13-.2.16v.3h1.74a4.21,4.21,0,0,0,0-.62l.78.06c.06,0,.17,0,.17.11s0,.06-.18.15,0,.17,0,.3c.6,0,.86,0,2.15-.05v.69Zm1.89,3.28c-.17.25-.43.25-.8.25h-1.44c-.72,0-.74-.41-.74-.85v-1.45h-1.57a2.34,2.34,0,0,1-.16.34H129a4.4,4.4,0,0,0,.73-.07l.22.33a4.47,4.47,0,0,1-1.2,1.53,5.81,5.81,0,0,1-1.45.79l1.28,0a4.7,4.7,0,0,0,0-.65l.89.11c.06,0,.14,0,.14.11s-.13.16-.2.18,0,.13,0,.25h1.46c0-.1,0-.51,0-.59l.82.08c.07,0,.17,0,.17.1s-.11.14-.17.17v.23c.64,0,1.41,0,1.92-.07V252c-.53,0-.92,0-1.92-.05v.4c0,.32,0,.51,0,1h-.86c0-.49,0-.68,0-1V252h-1.58a1.53,1.53,0,0,1-.9,1.14,4.36,4.36,0,0,1-1.46.37l-.49-.73c1,0,1.74-.15,2-.78-.58,0-1.5,0-2.23.05v-.74a4.37,4.37,0,0,0,.6,0l-.38-.47a3.3,3.3,0,0,0,1.56-.53,3.93,3.93,0,0,0-.36-.39,2.91,2.91,0,0,1-.65.4l-.65-.49a2.51,2.51,0,0,0,1.11-.66,3.39,3.39,0,0,0,.55-.75l-1.75,0v-.66c.59,0,1,0,2.38,0h2.45c1,0,1.84,0,2.41,0v.66c-.77,0-1.55,0-2.39-.05v.66a3.21,3.21,0,0,0,1.39-.6l.63.49a.1.1,0,0,1,.07.1c0,.09-.11.09-.14.09l-.14,0a4.7,4.7,0,0,1-1.81.57c0,.32,0,.4.4.4h.82c.27,0,.43,0,.55-.21a1.67,1.67,0,0,0,.21-.61l.58.45A1.85,1.85,0,0,1,133.31,250.46Zm-5.07-1.19-.18.21c.13.13.32.31.4.41a1.9,1.9,0,0,0,.53-.62Z"/><path class="cls-7" d="M135.26,251.94l-.75-.54a6.24,6.24,0,0,0,1.72-1.89l.65.41A8.91,8.91,0,0,1,135.26,251.94Zm4-3.19h-.75v2c0,.2,0,1.08,0,1.25,0,.39-.15.66-.77.8a3.41,3.41,0,0,1-1,0l-.32-.93a3,3,0,0,0,.63.08c.27,0,.56,0,.61-.26a7.75,7.75,0,0,0,0-1v-2h-.61c-.07,0-1.55,0-2.09.08V248a17.18,17.18,0,0,0,2,.15h.66a13.33,13.33,0,0,0-.11-1.69l1,.13c.09,0,.25,0,.25.13s-.15.19-.29.28c0,.36,0,.8,0,1.15h.74c.23,0,1.34,0,1.78-.08v.86A10.86,10.86,0,0,0,139.21,248.75Zm1.31,3.17a6.77,6.77,0,0,0-1.53-2l.64-.43a8.24,8.24,0,0,1,1.64,1.93Z"/><path class="cls-7" d="M147.12,250h-1.87c-.11,0-1.33,0-2.15.1v-.89a15.59,15.59,0,0,0,2.15.1h1.87a17.1,17.1,0,0,0,2.15-.1v.89A19.28,19.28,0,0,0,147.12,250Z"/><path class="cls-7" d="M153.58,247.3l-.22.15c0,2.52-.33,4.19-2,5.14l-.65-.69a2.57,2.57,0,0,0,1.46-1.44,3.64,3.64,0,0,0,.29-1.18,7.85,7.85,0,0,0,.05-1,7.74,7.74,0,0,0-.1-1.45l1,.13c.2,0,.27.05.27.18A.17.17,0,0,1,153.58,247.3Zm1.51,5.19-.58-.43a8.71,8.71,0,0,0,0-.91c0-.27,0-.71,0-1v-1.67c0-.13,0-1.52-.06-1.78l.92.1c.11,0,.22,0,.22.17a.16.16,0,0,1-.09.14l-.14.12c0,.36-.06,1.4-.06,1.8v2.27a4.79,4.79,0,0,0,1.38-1.1,4.62,4.62,0,0,0,.82-1.23l.55.65A8.27,8.27,0,0,1,155.09,252.49Z"/><path class="cls-7" d="M110.67,262.92c0,.11-.06.3-.18.3s-.07,0-.11-.08l-.46-.86a18.9,18.9,0,0,0,2.19-1.5l.12.82C112,261.73,111,262.64,110.67,262.92Zm2.75.84a5,5,0,0,1-1.06-.13l-.21-.92a6.83,6.83,0,0,0,.73.22,2.55,2.55,0,0,0,.62.09c.13,0,.68,0,.68-.56a2.36,2.36,0,0,0-.81-1.41c-.4-.44-.73-.79-.73-1.27a1.38,1.38,0,0,1,.42-.9l.66.47a1,1,0,0,0-.3.61c0,.25.12.38.75,1a2.43,2.43,0,0,1,.86,1.61C115,263.5,114.12,263.76,113.42,263.76Zm.94-5.13a6.85,6.85,0,0,0-2.16-.68l.4-.63a7.7,7.7,0,0,1,2.16.66Zm2,4a7.68,7.68,0,0,0-1.5-2.25l.72-.27a8.79,8.79,0,0,1,1.48,2Z"/><path class="cls-7" d="M122.22,263.23a3.06,3.06,0,0,1-1.77.59,1.9,1.9,0,0,1-1.21-.45,1.71,1.71,0,0,1-.59-1.41c0-.52.09-2.94.09-3.34a9.93,9.93,0,0,0-.09-1.46l1,.15c.06,0,.19,0,.19.14s0,.09-.25.22c0,.32-.08.77-.1,1.45-.06,1.56-.09,2.27-.09,2.51s0,1.45,1.19,1.45c.9,0,1.8-.78,2.39-2.27l.61.63A4.56,4.56,0,0,1,122.22,263.23Zm.39-3.91a6.47,6.47,0,0,0-1-.8l.43-.4a3.87,3.87,0,0,1,.93.78Zm.79-.82a5,5,0,0,0-.87-.76l.39-.39a4.58,4.58,0,0,1,.93.78Z"/><path class="cls-7" d="M130.59,263.73a5.42,5.42,0,0,0-1.94-1.06,1.59,1.59,0,0,1,0,.25c0,1-.94,1.08-1.32,1.08-1,0-1.8-.54-1.8-1.15s1-1.07,1.71-1.07a5.19,5.19,0,0,1,.69.05c0-.12,0-.17,0-.25s0-.69,0-.81c-.4,0-1.2,0-1.6,0-.13,0-.62-.08-.62-.47s.29-.56.94-1l.41.38c-.22.13-.43.24-.43.34s.08.13.13.15a4.17,4.17,0,0,0,.59,0l.57,0c0-.34,0-.43,0-1.25a19.71,19.71,0,0,0-2.44.14v-.74h2.43c0-.48,0-.89,0-1.15l1,.07s.14,0,.14.11-.08.14-.25.23c0,.26,0,.45,0,.74h2.3v.73a14.33,14.33,0,0,0-2.33-.13c0,.44,0,.76,0,1.21a9,9,0,0,0,2-.37v.69a10.13,10.13,0,0,1-2,.28c0,.19,0,1,.05,1.2a5.81,5.81,0,0,1,2.3,1Zm-3.38-1.32c-.27,0-.86.13-.86.5s.43.44.79.44c.16,0,.69-.05.78-.43a1.23,1.23,0,0,0,0-.42A4.32,4.32,0,0,0,127.21,262.41Z"/><path class="cls-7" d="M136.72,260a10.84,10.84,0,0,0,1.27,1.75l-.42.56a5.1,5.1,0,0,0-2.06-.52c-.57,0-1.3.28-1.3.82s.83.72,1.18.72a8.21,8.21,0,0,0,2-.25V264c-.27,0-1.47.1-1.71.1a3.42,3.42,0,0,1-1.63-.32,1.34,1.34,0,0,1-.59-1.1,1.27,1.27,0,0,1,.39-.92,2.72,2.72,0,0,1,1.71-.53,4.2,4.2,0,0,1,1.21.2c-.24-.37-.57-.88-.71-1.11a9.67,9.67,0,0,1-3,.54l-.28-.72.49,0a7.75,7.75,0,0,0,1.71-.21,6.7,6.7,0,0,0,.7-.22c-.07-.13-.34-.69-.4-.8a10.16,10.16,0,0,1-2.19.41l-.31-.67a1.94,1.94,0,0,0,.33,0,5.89,5.89,0,0,0,1.91-.32c-.19-.38-.38-.77-.56-1.15l.8-.09.17,0c.13,0,.16.05.16.13a.17.17,0,0,1,0,.1l-.12.12a7.24,7.24,0,0,0,.26.71,5.45,5.45,0,0,0,1.58-.78l.22.69a11.26,11.26,0,0,1-1.58.64c.07.13.35.69.4.8a8.46,8.46,0,0,0,1.8-.88l.18.75A14.11,14.11,0,0,1,136.72,260Z"/><path class="cls-7" d="M40.78,300.59a4.27,4.27,0,0,1-2-2.47,7.37,7.37,0,0,1-.41-2.05H37.9a3,3,0,0,1-.42.48,3.93,3.93,0,0,1,1.28,2.64c0,.73-.4,1.83-1.23,1.83H37l-.41-.95a2.47,2.47,0,0,0,.77.18c.41,0,.69-.57.69-1.15a1.8,1.8,0,0,0,0-.32,8,8,0,0,1-1.69,1.29,5.37,5.37,0,0,1-1.72.58l-.53-.67a4.56,4.56,0,0,0,2.49-.8,7.5,7.5,0,0,0,1.26-1.06c-.09-.19-.15-.29-.2-.38a7,7,0,0,1-2.71,1.63l-.61-.7a4.57,4.57,0,0,0,3-1.45c-.13-.15-.21-.22-.27-.28A7.16,7.16,0,0,1,34.65,298l-.58-.65a4.66,4.66,0,0,0,3-1.29h-.74l-.85,0v-.63l.85,0h2.86a7.23,7.23,0,0,0,.85,0v.63c-.33,0-.63,0-.94,0a5.65,5.65,0,0,0,.23,1.52,5.51,5.51,0,0,0,1-.92l.46.36c.08.06.24.18.24.24s-.17.12-.33.12a12.4,12.4,0,0,1-1.09.86,3.32,3.32,0,0,0,1.81,1.69Zm-.36-4.53a5.15,5.15,0,0,0,0-.55V295H35v.58a4.93,4.93,0,0,0,0,.55h-.79a5,5,0,0,0,0-.67V295a4,4,0,0,0,0-.6c.2,0,.44,0,.91,0h2.19c0-.15,0-.45,0-.76l.61.05c.38,0,.43.05.43.13s-.08.14-.26.22c0,.12,0,.24,0,.36h2.33c.27,0,.6,0,.81,0,0,.24,0,.46,0,.66v.41c0,.14,0,.4,0,.63Z"/><path class="cls-7" d="M49.2,301.12a3.76,3.76,0,0,1-1.87-1.75,3.34,3.34,0,0,1-.48.73,3,3,0,0,1-1.85,1l-.48-.77c-.21.52-.46.73-1.3.69l-.33-.77a4.65,4.65,0,0,1-.4.6l-.59-.59a6,6,0,0,0,1.23-3.54c0-.18,0-.95.06-1.11a7.65,7.65,0,0,0-1,.07v-.8a8.51,8.51,0,0,0,1,.06h.16a12.62,12.62,0,0,0,0-1.33l1,.1a.11.11,0,0,1,.13.12c0,.11-.08.14-.27.21,0,.26,0,.66,0,.9a9.11,9.11,0,0,0,1.09-.06v.8a7.5,7.5,0,0,0-1-.07H43.9c0,.24,0,.54-.06,1h.49a4.29,4.29,0,0,0,.63,0c0,.28-.09,1.52-.11,1.76a8.75,8.75,0,0,1-.32,2,2.24,2.24,0,0,0,2.27-1.58h-.18a12.38,12.38,0,0,0-1.41.05v-.74a13.14,13.14,0,0,0,1.41.07h.32a2.62,2.62,0,0,0,0-.38v-.57h-.29A3.74,3.74,0,0,1,46,298l-.64-.47a2.37,2.37,0,0,0,.78-.78,3.06,3.06,0,0,0,.44-1.13l.81.28c.08,0,.13,0,.13.12s0,.11-.26.18-.08.15-.23.42h1a8.38,8.38,0,0,0,1.23-.07v.69c-.32,0-1-.05-1.28-.05H47.7c0,.29,0,.65,0,1H48a14.46,14.46,0,0,0,1.47-.07v.74a12.23,12.23,0,0,0-1.47-.05h-.16a3.56,3.56,0,0,0,.71,1,2.84,2.84,0,0,0,1.23.63Zm-5.42-3.83a8.22,8.22,0,0,1-.86,2.93,2,2,0,0,0,.55.07c.19,0,.37,0,.46-.25a12.3,12.3,0,0,0,.34-2.75ZM48,295.46H46.25a4.62,4.62,0,0,1-.72,1.21l-.74-.33a3.44,3.44,0,0,0,.86-1.29,5.69,5.69,0,0,0,.34-1.49l.89.21s.16,0,.16.15-.11.13-.34.17a8.1,8.1,0,0,1-.24.8H48a14.64,14.64,0,0,0,1.5-.08v.72A13.06,13.06,0,0,0,48,295.46Z"/><path class="cls-7" d="M55.61,294.86c0,.19,0,.29,0,.46h-.78c0-.32,0-.35,0-.47H53.16c0,.14,0,.34.05.47h-.77c0-.25,0-.34.05-.46l-2.17,0v-.69c.82,0,1.93.05,2.17.05a3.57,3.57,0,0,0-.05-.64l.75.09c.08,0,.16,0,.16.09s-.1.13-.19.17v.29h1.73a4.08,4.08,0,0,0,0-.61l.78.06c.06,0,.17,0,.17.1s0,.07-.18.16c0,.14,0,.17,0,.29l2.15-.05v.69Zm1.9,3.28c-.17.24-.44.24-.81.24H55.27c-.73,0-.75-.41-.75-.85v-1.44H53a2.33,2.33,0,0,1-.16.33h.36a4.4,4.4,0,0,0,.73-.06l.22.32a4.36,4.36,0,0,1-1.2,1.53,6.32,6.32,0,0,1-1.44.8l1.27,0a4.69,4.69,0,0,0,0-.65l.89.12c.06,0,.14,0,.14.1s-.13.16-.2.18a1,1,0,0,1,0,.25H55c0-.1,0-.51,0-.59l.82.08c.07,0,.17,0,.17.1s-.1.14-.17.17V299c.64,0,1.42,0,1.92-.06v.73c-.53,0-.92,0-1.92-.05v.4c0,.32,0,.51,0,1H55c0-.49,0-.67,0-1v-.4H53.43a1.54,1.54,0,0,1-.91,1.14,4.57,4.57,0,0,1-1.46.38l-.49-.74c1,0,1.74-.15,2-.78-.57,0-1.5,0-2.23.05V299l.6,0-.38-.48a3.23,3.23,0,0,0,1.57-.53,5.27,5.27,0,0,0-.37-.38,2.79,2.79,0,0,1-.65.39l-.65-.48a2.51,2.51,0,0,0,1.11-.66,3.47,3.47,0,0,0,.55-.76l-1.75,0v-.66c.59,0,1,0,2.39,0h2.44c1,0,1.84,0,2.41,0v.66c-.76,0-1.55,0-2.38,0v.66a3.4,3.4,0,0,0,1.39-.61l.63.49a.12.12,0,0,1,.06.1c0,.09-.11.09-.14.09l-.14,0a4.9,4.9,0,0,1-1.8.56c0,.33,0,.4.39.4h.82c.28,0,.43,0,.55-.21a1.62,1.62,0,0,0,.21-.61l.59.45A2.21,2.21,0,0,1,57.51,298.14Zm-5.08-1.2-.17.22c.13.13.31.31.39.41a1.93,1.93,0,0,0,.53-.63Z"/><path class="cls-7" d="M34.92,309l-.75-.53a6.41,6.41,0,0,0,1.73-1.89l.64.41A8.14,8.14,0,0,1,34.92,309Zm3.95-3.19h-.75v2c0,.2,0,1.08,0,1.25,0,.38-.16.66-.78.79a3,3,0,0,1-1,.06l-.32-.93a2.92,2.92,0,0,0,.63.08c.27,0,.55,0,.6-.26a6.24,6.24,0,0,0,0-1v-2h-.6c-.07,0-1.56,0-2.09.09V305a17,17,0,0,0,2,.15h.66a11.86,11.86,0,0,0-.1-1.7l1,.14c.09,0,.25,0,.25.13s-.15.19-.29.28c0,.35,0,.8,0,1.15h.74a17.72,17.72,0,0,0,1.78-.09v.86A12.24,12.24,0,0,0,38.87,305.76Zm1.31,3.18a6.45,6.45,0,0,0-1.53-2l.65-.44a8.6,8.6,0,0,1,1.63,1.94Z"/><path class="cls-7" d="M46.79,307H44.92c-.11,0-1.34,0-2.16.1v-.89a15.75,15.75,0,0,0,2.16.1h1.87a17.1,17.1,0,0,0,2.15-.1v.89A19.38,19.38,0,0,0,46.79,307Z"/><path class="cls-7" d="M53.25,304.32l-.22.14c0,2.53-.33,4.2-2,5.15l-.65-.69a2.59,2.59,0,0,0,1.45-1.45,3.5,3.5,0,0,0,.3-1.17,7.85,7.85,0,0,0,0-1,8.56,8.56,0,0,0-.1-1.45l1,.13c.2,0,.27,0,.27.17A.19.19,0,0,1,53.25,304.32Zm1.5,5.19-.58-.43a8.76,8.76,0,0,0,0-.91c0-.27,0-.71,0-1v-1.67c0-.13-.05-1.52-.06-1.78l.92.1c.1,0,.22,0,.22.16a.19.19,0,0,1-.09.15l-.14.12c-.05.36-.06,1.4-.06,1.8v2.27a5.16,5.16,0,0,0,1.37-1.1,4.93,4.93,0,0,0,.83-1.23l.55.65A8.45,8.45,0,0,1,54.75,309.51Z"/><path class="cls-7" d="M40.74,315.21h-.45a7,7,0,0,1-.07.81h1.7a11,11,0,0,1-.43,2.94c-.18.47-.43.65-1.14.65a1.54,1.54,0,0,1-.36,0l-.3-.9.31.08a1.64,1.64,0,0,0,.35.05.45.45,0,0,0,.46-.3,5.27,5.27,0,0,0,.31-1.82h-1a4.7,4.7,0,0,1-1.64,2.87l-.61-.62a4.29,4.29,0,0,0,1.68-3.73l-1.25,0c0-.24,0-.62,0-1v-.8c0-.1,0-.58,0-.81a10.33,10.33,0,0,0,1.13,0h1.25a12.59,12.59,0,0,0,1.27,0c0,.29,0,.67,0,.84v.76c0,.46,0,.55,0,1A11.15,11.15,0,0,0,40.74,315.21Zm.38-1.87H39v1.25h2.09Zm2.37.24V316a14.05,14.05,0,0,0,.08,1.72h-1c0-.35.11-1.39.11-1.72v-2.11c0-.16,0-.4,0-.73l.81.06s.2,0,.2.12S43.61,313.48,43.49,313.58Zm1.7-.84c0,.5,0,.88,0,1.3v2.79c0,.12,0,.22,0,1.1l0,.81c0,.65-.14,1-1,1H43.8l-.46-.9a7.47,7.47,0,0,0,.86.06c.21,0,.21-.05.21-.41v-4.32c0-.59,0-1.17,0-1.76l.79.08c.14,0,.19,0,.19.1S45.28,312.66,45.19,312.74Z"/><path class="cls-7" d="M52.9,315.08c0-.3,0-.89,0-1.2H50.05c0,.32,0,.89,0,1.2h-.69a5.2,5.2,0,0,0,0-.73v-.54l-.27.36a4.83,4.83,0,0,1-1.06-1,5.66,5.66,0,0,1-1.23,1.44l.67,0h.18a6.2,6.2,0,0,0,0-.72l.79.08c.14,0,.21,0,.21.13s-.07.13-.21.18v.33h.18c.18,0,.45,0,.63,0,0,.12,0,.69,0,.83v1c0,.09,0,.54,0,.63s0,.2,0,.32c-.18,0-.53,0-.93,0h-.91v1.43c.52-.11,1-.28,1.09-.29a2.22,2.22,0,0,0-.45-.52l.57-.39a3.93,3.93,0,0,1,1,1.61l-.67.43a1.86,1.86,0,0,0-.18-.63c-.76.28-1.69.55-2,.64-.08.19-.09.21-.16.21s-.07,0-.11-.15l-.23-.72.5-.06v-4.06a.86.86,0,0,1,0-.15l-.19.13-.6-.51a3.77,3.77,0,0,0,1.76-2l1,.31s.09.05.09.11-.05.09-.09.12a4.27,4.27,0,0,0,.72.62,1.5,1.5,0,0,1,0-.24c.37,0,1.11.05,1.24.05h.45c0-.1,0-.54,0-1l.81.06c.05,0,.19,0,.19.14s-.17.16-.22.18,0,.35,0,.57h.68c.14,0,.62,0,1.12-.05,0,.32,0,.67,0,1a6.24,6.24,0,0,0,0,.85Zm-4.27.13H47.42v.55h1.21Zm0,1.07H47.42v.57h1.21Zm4,3.47c0-.18,0-.2,0-.31H50.93c0,.16,0,.17,0,.31h-.84c0-.66.08-1.5.08-2.16v-1.44c0-.09,0-1.25,0-1.6a7.37,7.37,0,0,0,.84,0h1c.21,0,.63,0,.82,0,0,.2,0,.56,0,.77v.6c0,.24,0,.64,0,.88l-.92,0h-1v.53h1.32c.23,0,.56,0,1.12,0,0,.08,0,.66,0,.84v.68c0,.44,0,.73,0,1Zm-.49-4.54H50.92v1H52.1Zm.51,2.71H50.92v.94h1.69Z"/><line class="cls-18" x1="77.33" y1="291.36" x2="77.83" y2="291.36"/><line class="cls-19" x1="78.83" y1="291.36" x2="120.32" y2="291.36"/><polyline class="cls-18" points="120.82 291.36 121.32 291.36 121.32 291.86"/><line class="cls-20" x1="121.32" y1="292.83" x2="121.32" y2="301.99"/><polyline class="cls-18" points="121.32 302.47 121.32 302.97 121.82 302.97"/><line class="cls-21" x1="122.82" y1="302.97" x2="208.62" y2="302.97"/><polyline class="cls-18" points="209.12 302.97 209.62 302.97 209.62 302.47"/><line class="cls-22" x1="209.62" y1="301.46" x2="209.62" y2="243.23"/><line class="cls-18" x1="209.62" y1="242.73" x2="209.62" y2="242.23"/><path class="cls-1" d="M136.82,278.65c-.4,1-.6,1.53-.77,1.93a5.91,5.91,0,0,1-.4.74,7.31,7.31,0,0,1,1.35,1.49l-.7.72a10.14,10.14,0,0,0-1.2-1.44,13.84,13.84,0,0,1-3,2.68l-.94-.74a5,5,0,0,0,1.71-1,8.45,8.45,0,0,0,1.57-1.59,12,12,0,0,0-1.63-1.14l.51-.8a13.37,13.37,0,0,1,1.64,1.17,7.16,7.16,0,0,0,1-2.85l1,.42c.17.08.2.13.2.18S136.93,278.64,136.82,278.65Z"/><path class="cls-1" d="M145.16,281.39l-1.28,0h-.95v1.31c0,.87,0,.91.16,1.05a2.64,2.64,0,0,0,1.11.15,4.48,4.48,0,0,0,1.68-.24v1a8,8,0,0,1-1.91.15,2.57,2.57,0,0,1-1.64-.36c-.32-.27-.32-.56-.32-1.7,0-.19,0-1,0-1.21v-.13h-.45a18.43,18.43,0,0,0-2.58.12v-1a6.27,6.27,0,0,0,1.33.11l1.18,0H142v-2a10.29,10.29,0,0,0-2.09.12v-1a20.94,20.94,0,0,0,2.1.1h1.84a17.67,17.67,0,0,0,1.8-.08v.95a3.66,3.66,0,0,0-.82-.09l-1,0h-1v2h1l1.31,0a5.65,5.65,0,0,0,1.08-.11v1A5.71,5.71,0,0,0,145.16,281.39Z"/><path class="cls-1" d="M149.53,278.15v2.52c0,.28,0,1.28.06,1.56h-1.05a13.54,13.54,0,0,0,.07-1.57v-1.52c0-.36,0-1.13,0-1.48l.94.06c.2,0,.28.07.28.18S149.67,278.07,149.53,278.15Zm4.2-.25a.63.63,0,0,0-.17.14c0,.45-.05,2.42-.07,2.81a4.37,4.37,0,0,1-1.24,3.12,7.46,7.46,0,0,1-1.9,1.28l-.8-.83a3.88,3.88,0,0,0,1.95-1c1.11-1,1.11-2.12,1.11-4.38,0-1.07,0-1.13,0-1.56l1,.06c.1,0,.25,0,.25.19A.19.19,0,0,1,153.73,277.9Z"/><path class="cls-1" d="M163,279.46a10.84,10.84,0,0,1-2.06,2.39l-.73-.67a6.42,6.42,0,0,0,2.15-2.36h-3.71c-.72,0-1.83,0-2.75.07V278c.74,0,1.87.06,2.7.06h2.23a16.32,16.32,0,0,0,2.15-.17l.69.85C163.43,278.87,163.37,278.9,163,279.46Zm-2.93.38a6.25,6.25,0,0,1-2.49,5.1l-.91-.59a5.12,5.12,0,0,0,1.72-1.64,4.62,4.62,0,0,0,.69-2.74c0-.2,0-.35,0-.67l1,.1c.2,0,.25.14.25.21S160.26,279.71,160,279.84Z"/><path class="cls-1" d="M167.16,278.6l-.25.17c0,2.88-.37,4.79-2.3,5.87l-.74-.78a3,3,0,0,0,1.66-1.66,4.15,4.15,0,0,0,.34-1.34,10.2,10.2,0,0,0,0-1.09,9.58,9.58,0,0,0-.11-1.66l1.1.15c.24,0,.31.05.31.2A.18.18,0,0,1,167.16,278.6Zm1.72,5.93-.66-.5a8.4,8.4,0,0,0,.06-1c0-.31,0-.82,0-1.12V280c0-.15,0-1.74-.06-2l1,.12c.13,0,.26.05.26.18s0,.12-.11.17l-.15.13c-.06.41-.07,1.61-.07,2.06v2.59a5.75,5.75,0,0,0,1.57-1.26,5.45,5.45,0,0,0,.94-1.4l.63.75A9.7,9.7,0,0,1,168.88,284.53Z"/><path class="cls-1" d="M173.79,283.89l-.86-.6a7.3,7.3,0,0,0,2-2.17l.74.48A10.16,10.16,0,0,1,173.79,283.89Zm4.51-3.64h-.86v2.29c0,.23,0,1.23,0,1.43,0,.44-.18.75-.89.9a3.56,3.56,0,0,1-1.1.07l-.36-1.07a3,3,0,0,0,.72.1c.3,0,.63,0,.69-.3a10,10,0,0,0,0-1.1v-2.32h-.69c-.08,0-1.77,0-2.39.09v-1a18,18,0,0,0,2.33.17h.75a15.39,15.39,0,0,0-.12-1.93l1.12.16c.1,0,.28,0,.28.14s-.17.22-.32.32c0,.41,0,.91-.06,1.31h.84c.26,0,1.53,0,2-.09v1A13.41,13.41,0,0,0,178.3,280.25Zm1.49,3.62a7.66,7.66,0,0,0-1.74-2.25l.73-.49a9.49,9.49,0,0,1,1.87,2.21Z"/><path class="cls-1" d="M186.64,281.71H184.5c-.12,0-1.52,0-2.46.11v-1a18.53,18.53,0,0,0,2.46.11h2.14a20.25,20.25,0,0,0,2.46-.11v1A22.87,22.87,0,0,0,186.64,281.71Z"/><path class="cls-1" d="M193.12,278.6s-.23.14-.26.17c0,2.88-.37,4.79-2.3,5.87l-.74-.78a3,3,0,0,0,1.66-1.66,4.15,4.15,0,0,0,.34-1.34,10.2,10.2,0,0,0,.05-1.09,9.58,9.58,0,0,0-.11-1.66l1.1.15c.24,0,.31.05.31.2A.22.22,0,0,1,193.12,278.6Zm1.71,5.93-.66-.5a8.4,8.4,0,0,0,.06-1c0-.31,0-.82,0-1.12V280c0-.15-.05-1.74-.07-2l1,.12c.12,0,.25.05.25.18a.21.21,0,0,1-.1.17l-.16.13c-.06.41-.07,1.61-.07,2.06v2.59a5.75,5.75,0,0,0,1.57-1.26,5.45,5.45,0,0,0,.94-1.4l.63.75A9.7,9.7,0,0,1,194.83,284.53Z"/><path class="cls-1" d="M156.87,294.06a1.22,1.22,0,0,1-1.3.82,2.25,2.25,0,0,1-.83-.13l-.14-1a2.05,2.05,0,0,0,.88.25c.24,0,.51,0,.76-.74a6.69,6.69,0,0,0,.43-2.15c0-.62-.15-.92-.59-.92a6.13,6.13,0,0,0-.94.12,14,14,0,0,1-2,4.49l-.92-.42a8,8,0,0,0,2-3.86,15.87,15.87,0,0,0-1.58.4l-.32-.89a14.29,14.29,0,0,0,2.06-.31,8.1,8.1,0,0,0,.22-2.07l.9.09c.08,0,.4,0,.4.2s-.07.14-.3.34c-.09.37-.11.5-.27,1.26a6.58,6.58,0,0,1,1-.09c1,0,1.19.82,1.19,1.59A8,8,0,0,1,156.87,294.06Zm1.74-1.84-.63-.83c.77,0,.88-.11.88-.39a.94.94,0,0,0-.19-.52,11.39,11.39,0,0,0-1.11-1.3l.66-.42a14.29,14.29,0,0,1,1,1.14,1.91,1.91,0,0,1,.55,1.22C159.81,292,159,292.15,158.61,292.22Z"/><path class="cls-1" d="M166.66,293a4.2,4.2,0,0,0-2.44-.85c-1.05,0-1.47.64-1.47,1.12,0,1.2,1.52,1.2,1.84,1.2a5.43,5.43,0,0,0,1.55-.22l.19.87a11,11,0,0,1-1.71.14,2.69,2.69,0,0,1-2.2-.71,1.91,1.91,0,0,1,1.67-3.16,5,5,0,0,1,1.71.35,12.89,12.89,0,0,1-1.19-1.85,10.9,10.9,0,0,1-2.75.53l-.46-.82.57,0a7.86,7.86,0,0,0,2.3-.38c-.14-.28-.71-1.55-.83-1.81l.93-.13h.26a.13.13,0,0,1,.12.14c0,.05,0,.08-.07.12l-.12.17A5.85,5.85,0,0,0,165,289a4.66,4.66,0,0,0,1.53-.87l.41.76a10.66,10.66,0,0,1-1.61.74,9.82,9.82,0,0,0,1.88,2.56Z"/><path class="cls-1" d="M171.3,294.55a1.63,1.63,0,0,1-1.09-.66,4.6,4.6,0,0,1-1-3.26,18.33,18.33,0,0,1,.19-2s0-.21,0-.25l.85.3c.19.07.29.11.29.2s-.1.13-.24.2a6.6,6.6,0,0,0-.21,1.66c0,1.53.63,2.68,1.08,2.68s.73-1.06.83-1.56l.55.57C172.38,293.23,172,294.55,171.3,294.55Zm4.56-1.95a5.82,5.82,0,0,0-.57-2.31,6,6,0,0,0-.88-1.5l.85-.4a8.42,8.42,0,0,1,1.64,3.9Z"/><path class="cls-7" d="M137.11,238.51H134.3c-.94,0-1.88,0-2.82.08v-.92c1.14.06,2.37.08,2.82.08h1v-1.44h-.66c-.7,0-1.5,0-2.19.09v-.93c.82.07,1.85.08,2.19.08h.66c0-.58,0-.81,0-1.41l.88.08c.17,0,.22,0,.22.13s0,.13-.19.26c0,.22,0,.7,0,.94h.63c.73,0,1.47,0,2.21-.08v.93c-1-.08-1.94-.09-2.21-.09h-.63v1.44h1c.17,0,1.41,0,2.87-.08v.92C139,238.53,138.06,238.51,137.11,238.51Zm-.08-6.93h-1.37a7.33,7.33,0,0,1-.84,1.59c1.44-.08,2.09-.16,2.53-.22a2.9,2.9,0,0,0-.37-.44c0-.06-.33-.29-.37-.34l.74-.53a6.65,6.65,0,0,1,1.79,2.48l-.86.5a4.77,4.77,0,0,0-.45-1c-.27.06-1.74.23-2.14.28l-2.86.28c-.05.07-.12.22-.25.22s-.13-.16-.14-.22l-.17-.93a9.18,9.18,0,0,0,1.56-.07,5.54,5.54,0,0,0,.73-1.64h-.15c-1.22,0-1.9,0-2.65,0v-.83c1.17.08,2.44.08,2.65.08H137c.88,0,1.76,0,2.65-.08v.83C138.88,231.59,138.14,231.58,137,231.58Z"/><path class="cls-7" d="M147.51,231c0,.19,0,.72,0,1.13v2.32c0,.3,0,1.61,0,1.87,0,1.48,0,1.8.07,2.44H146.5c0-.47,0-.66,0-.82s0-1.3,0-1.51c-.31.17-.82.4-1.1.52l-.77.34c-.07.2-.11.29-.2.29s-.07,0-.12-.21l-.26-.87a13.89,13.89,0,0,0,2.46-1c0-.34,0-.42,0-1.08v-1h-1.61a4.26,4.26,0,0,0-.86.09v-.93a4.51,4.51,0,0,0,.86.08h1.61c0-.39,0-.46,0-1.14,0-.4,0-.76,0-1l1,.07c.15,0,.28,0,.28.16S147.7,231,147.51,231Zm3.67,7.35H149.8c-1.25,0-1.28-.56-1.28-1.66v-4c0-.23,0-1.7,0-2.06l1,.08c.14,0,.27,0,.27.14s-.06.13-.25.22c0,.68,0,.79,0,1.1v1.41a7.93,7.93,0,0,0,1.84-1.55l.72.67a.19.19,0,0,1,.09.16c0,.08-.09.11-.14.11a.77.77,0,0,1-.19,0,9.36,9.36,0,0,1-2.32,1.63v2.17c0,.61.05.86.57.86h.77c.44,0,.54-.14.69-1.45l.86.59C152.09,238,151.84,238.39,151.18,238.39Z"/><path class="cls-7" d="M158.7,238.55c0-.3,0-.38,0-.65h-3.55c0,.11,0,.58,0,.67h-1.05c0-.59.09-1.75.09-2.71v-2.35c0-.78,0-1.67,0-2.45.39,0,.95.06,1.81.06h2c.92,0,1,0,1.66-.07,0,.67-.06,1.53-.06,2.2v2.56c0,.7,0,2.07.1,2.74Zm0-6.56h-3.55v2.08h3.55Zm0,2.93h-3.55v2.14h3.55Z"/><path class="cls-7" d="M169.6,237.45a7.76,7.76,0,0,1-1.63-1.1,8.9,8.9,0,0,1-1.63-1.93v1.35c0,.17,0,.22,0,.77h.18a8.49,8.49,0,0,0,1.33-.09v.93a9.8,9.8,0,0,0-1.33-.09h-.17c0,.31,0,.64,0,1.63h-1.05c0-1,0-1.28,0-1.63h-.17a8.41,8.41,0,0,0-1.33.09v-.93a8.41,8.41,0,0,0,1.33.09h.18c0-.51,0-.57,0-.73V234.3a7.9,7.9,0,0,1-3.27,3.21l-.73-.86a6.75,6.75,0,0,0,3.67-3.63h-.59c-.89,0-1.89,0-2.77.08v-.92c.92.06,1.85.08,2.77.08h.92c0-1,0-1.08,0-1.85l1,.06c.17,0,.24,0,.24.14s0,.1-.21.25c0,.28,0,1.06,0,1.4h.89c.88,0,1.92,0,2.8-.08v.92c-.94-.06-1.87-.08-2.8-.08h-.66a9.17,9.17,0,0,0,1.44,2,6.15,6.15,0,0,0,2.27,1.55Z"/><path class="cls-7" d="M172.43,233.86a6.1,6.1,0,0,0-1-1.88l.87-.33a5.87,5.87,0,0,1,1,1.91Zm6-1.7a11,11,0,0,1-1.63,3.51,8.58,8.58,0,0,1-3.28,2.5l-.83-.77a4.78,4.78,0,0,0,1.94-.94,6.44,6.44,0,0,0,2.33-3,5.43,5.43,0,0,0,.51-2.19l1.06.42c.19.07.27.13.27.2S178.8,232,178.47,232.16Zm-3.75,1.26a5,5,0,0,0-.95-2l.91-.28a5.22,5.22,0,0,1,1,1.95Z"/><path class="cls-7" d="M184.6,235.06h-2.14c-.12,0-1.52,0-2.45.11v-1a16.65,16.65,0,0,0,2.45.12h2.14a18.42,18.42,0,0,0,2.46-.12v1A22.87,22.87,0,0,0,184.6,235.06Z"/><path class="cls-7" d="M190.46,231.5c0,.28,0,.88,0,1.17V234c0,.28.05,1.28.07,1.56h-1.06a11.63,11.63,0,0,0,.08-1.57v-1.52c0-.36,0-1.13,0-1.47l.93,0c.21,0,.28.07.28.18S190.59,231.43,190.46,231.5Zm4.19-.25c-.1.07-.11.07-.16.14,0,.45-.05,2.42-.07,2.81a4.4,4.4,0,0,1-1.24,3.12,7.38,7.38,0,0,1-1.91,1.28l-.79-.83a3.91,3.91,0,0,0,1.94-1c1.11-1,1.11-2.13,1.11-4.39,0-1.07,0-1.12,0-1.56l1,.06c.1,0,.25,0,.25.19A.16.16,0,0,1,194.65,231.25Z"/><path class="cls-7" d="M202.85,238a9.72,9.72,0,0,0-2.39-2.56,9.91,9.91,0,0,1-3.45,2.58l-.7-.83a7.92,7.92,0,0,0,2.42-1.32,8.39,8.39,0,0,0,2.53-3.59H199.6a19,19,0,0,0-2.26.11v-.94c.3,0,1.45.08,1.83.08h1.38a5.4,5.4,0,0,0,1.12,0,1,1,0,0,0,.45-.21l.7.76c-.18.12-.24.17-.45.33a21.86,21.86,0,0,1-1.38,2.4,11.43,11.43,0,0,1,2.62,2.57Z"/><path class="cls-7" d="M210.22,236.18a8.27,8.27,0,0,0-2.76-1.93v1.55c0,.55,0,2.18.1,2.66h-1.13a13.43,13.43,0,0,0,.07-1.37c0-.22,0-1.16,0-1.36v-2.44c0-.36,0-1.36-.06-1.7a2.89,2.89,0,0,0-.09-.62l1.24.08c.06,0,.18,0,.18.14s-.1.16-.31.28c0,.58,0,1.16,0,1.73v1l.43-.83a9.88,9.88,0,0,1,3,2Z"/><path class="cls-7" d="M88.16,315.32H85.69c-.82,0-1.64,0-2.47.08v-.8c1,0,2.08.06,2.47.06h.86V313.4H86c-.61,0-1.31,0-1.91.07v-.81c.71.06,1.62.08,1.91.08h.58c0-.52,0-.71,0-1.24l.77.07c.14,0,.19,0,.19.11s0,.12-.17.23,0,.62,0,.83h.54c.65,0,1.3,0,1.94-.08v.81c-.84-.06-1.7-.07-1.94-.07h-.54v1.26h.85c.14,0,1.23,0,2.51-.06v.8C89.83,315.35,89,315.32,88.16,315.32Zm-.08-6.07h-1.2a6,6,0,0,1-.73,1.4c1.26-.07,1.83-.14,2.21-.19a1.87,1.87,0,0,0-.32-.39l-.32-.29.64-.47a5.73,5.73,0,0,1,1.57,2.17l-.75.44a5.09,5.09,0,0,0-.39-.84c-.24.05-1.53.2-1.88.24-.2,0-2.16.22-2.51.25,0,.06-.1.2-.21.2s-.11-.14-.12-.2l-.15-.81a7,7,0,0,0,1.36-.07,4.56,4.56,0,0,0,.64-1.44h-.13c-1.07,0-1.67,0-2.32.05v-.73c1,.06,2.13.06,2.32.06h2.29c.77,0,1.55,0,2.33-.06v.73C89.7,309.26,89.06,309.25,88.08,309.25Z"/><path class="cls-7" d="M99.3,315H96.38c-.24,0-1.53,0-2.14,0v-.81c.43,0,.64,0,1.67,0l.75-2.43h-.24c-.15,0-1,0-1.22,0v-.73c.26,0,1,0,1.22,0h.43l.54-1.72h-.72c-.43,0-1.26,0-1.81,0v-.76c.57,0,1.42,0,1.81,0H99c.44,0,1.27,0,1.82,0v.76c-.58,0-1.43,0-1.82,0h-.78l-.53,1.72h1.12c.16,0,.94,0,1.21,0-.05.27-.15,1.16-.16,1.21l-.2,1.92c1.15,0,1.33,0,1.75,0v.81C100.78,315.05,99.35,315,99.3,315Zm-1.79-3.17-.75,2.44h2.11l.25-2.44Z"/><path class="cls-7" d="M105,312.62h-1a4.67,4.67,0,0,1-.86,2.82l-.78-.33a3.83,3.83,0,0,0,.94-2.74V310.9c0-.13,0-.7,0-.82l.24,0,.73,0H105l1,0c0,.33,0,.7,0,.94v.76c0,.26,0,.39,0,.87C105.5,312.62,105.33,312.62,105,312.62Zm.15-3.23H104c-.18,0-.81,0-1.13.06v-.8a10.79,10.79,0,0,0,1.13.06h1.12a8.62,8.62,0,0,0,1.14-.06v.8A10.93,10.93,0,0,0,105.14,309.39Zm.12,1.38H104V312h1.26Zm3.7.75v2.1c0,.33,0,1.16.09,2.05h-.84c0-.64.05-1.17.05-2.08v-2.07h-1a5,5,0,0,1-1.44,3.93L105,315a4,4,0,0,0,1.52-3.65v-1.53c0-.13,0-.69,0-.85a4.24,4.24,0,0,0,1.47-.14,3.71,3.71,0,0,0,1.17-.45l.59.54a.17.17,0,0,1,.08.15s0,.08-.1.08l-.25-.05a6.65,6.65,0,0,1-2.21.55v1.24h1.33c.54,0,1.12,0,1.42-.07v.75Z"/><path class="cls-7" d="M112.33,308.85c0,.17,0,.49,0,.72v2a5.69,5.69,0,0,1-.38,2.58,3.87,3.87,0,0,1-.89,1.34l-.65-.63c1-.9,1.14-2,1.14-3.37,0-1,0-2.05-.1-3.07l.92.1c.11,0,.15.05.15.14S112.49,308.73,112.33,308.85Zm2.42.12c0,.51,0,1,0,1.5v1.88c0,.12,0,2.12.1,2.64h-1a12,12,0,0,0,.06-1.31c0-.79,0-.9,0-1.3v-1.87c0-.47,0-1.57-.07-2l1,.07s.15,0,.15.11S115,308.8,114.75,309Zm2.47-.13V309c0,.34,0,.47,0,1.61v2.09c0,.89.08,1.86.16,2.78h-1c0-.42,0-.72,0-2.38V310.6c0-.72,0-1.52,0-2.22l1,.11s.13.05.13.12S117.35,308.76,117.22,308.84Z"/><path class="cls-7" d="M124.68,309.2l-.78,0h-.3a4.6,4.6,0,0,1-.34.82h.56c.05,0,1,0,1.49,0,0,.35,0,.84,0,1.2v.69c0,.46,0,1.08,0,1.29-.11,0-.15,0-.54,0h-1.26v1.59c0,.07,0,.4,0,.47s0,.49-.76.49a2.09,2.09,0,0,1-.41,0l-.31-.81a3,3,0,0,0,.59.1c.13,0,.13-.09.13-.28v-1.52h-.52c-.17,0-1.08,0-1.33,0,0-.2,0-1,0-1.21v-.74c0-.34,0-.9,0-1.24l1.17,0h.39a2.72,2.72,0,0,0,.27-.82h-2.37c0,.3,0,1.62,0,1.89a7.67,7.67,0,0,1-1,4.44l-.81-.42c.52-.78.94-1.64.94-4a23,23,0,0,0-.1-2.64c.58,0,1.59,0,2.19,0H124l2.06,0v.75Zm-2.72,5a4,4,0,0,1-1,1.24l-.65-.47a2.59,2.59,0,0,0,1.14-1.43l.75.34c.06,0,.14.06.14.15S122.06,314.19,122,314.2Zm2.55-3.59h-2.86v.66h2.86Zm0,1.24h-2.86v.68h2.86Zm.8,3.47a6.54,6.54,0,0,0-1.19-1.33l.51-.46a5.5,5.5,0,0,1,1.31,1.29Z"/><path class="cls-7" d="M132.61,309.8l-.46,1c.64,0,1.39,0,1.91-.05v3.06c0,.16,0,.85,0,1,0,.56-.06.83-.9.83l-.36,0-.37-.82c.3,0,.55.06.61.06a.52.52,0,0,0,.24,0,.45.45,0,0,0,0-.19v-2.27a.92.92,0,0,1-.9.37h-.68c-.75,0-.79-.27-.79-.68v-.62H129.7l.61.22c.05,0,.14.06.14.13s-.09.13-.29.18a3.29,3.29,0,0,1-1.47,1.16l-.62-.55v2.09c0,.71,0,.79,0,.95h-.83c0-.43.07-1.2.07-1.65v-1.67c0-.28,0-1.33-.06-1.56l1.95.06-.38-1-.84,0c-.69,0-.77,0-.91,0v-.77c.94,0,1.89.06,2.55.06h.68c0-.3,0-.75,0-.89l.93.08c.1,0,.14,0,.14.14s0,.13-.24.17c0,0,0,.47,0,.5h1.35c.26,0,1.7,0,1.9-.06v.77C133.6,309.82,133.22,309.8,132.61,309.8Zm-4.54,1.63v1.12a2.82,2.82,0,0,0,1.54-1.12Zm3.09,3.61h-1.31a.73.73,0,0,0,0,.31h-.81a4.15,4.15,0,0,0,.07-.89V313l1.05,0h1l1.06,0c0,.12,0,.55,0,.82v.43c0,.2,0,.29,0,.81Zm-1.51-5.24.39,1h1.32l.47-1Zm1.84,3.83h-1.64v.81h1.64Zm1.83-2.2h-1.59v.35c0,.23.1.27.33.27h.4c.09,0,.28,0,.3-.37l.56.28Z"/><path class="cls-7" d="M140.37,313.59H140a4.2,4.2,0,0,0,2.59,1.28l-.43.67a4.94,4.94,0,0,1-1.79-.76,4.61,4.61,0,0,1-1-.9,13.77,13.77,0,0,0,.08,1.77h-.86a7.74,7.74,0,0,0,0-1.07V314a6.84,6.84,0,0,1-2.54,1.61l-.54-.64a5,5,0,0,0,2.51-1.36h-.51c-.5,0-1.66,0-2.1,0V313c.34,0,1.73.06,2.12.06h1.07v-.42h-.36l-1.91,0V312l1.49,0,.32,0h.46v-.46h-.37c-.36,0-1.92,0-2.28.05v-.73l1,0,.51,0c-.07-.13-.23-.42-.37-.65-.25,0-.59,0-1.63.05v-.71l1.21,0H137a3.47,3.47,0,0,0-.78-.85l.57-.43a2.45,2.45,0,0,1,.82.88l-.45.4H138v-1.43l.85.09c.06,0,.14,0,.14.12s-.06.11-.23.16c0,.19,0,1,0,1.06h.65c0-1.15,0-1.28,0-1.44l.85.1a.12.12,0,0,1,.11.12c0,.1-.11.13-.23.15s0,.14,0,.56v.51h.66l-.41-.24a4,4,0,0,0,.84-1.06l.7.42a.16.16,0,0,1,.08.12c0,.1-.12.1-.31.1s-.46.57-.54.66c.34,0,1.19,0,1.48-.05v.7l-1.58,0a6.51,6.51,0,0,1-.38.65l1.42,0v.68c-.31,0-.4,0-1,0l-.89,0h-.74V312h.52l1.85,0v.66l-1,0c-.68,0-.75,0-.88,0h-.5V313h1l2.21,0v.66C142.28,313.59,140.72,313.59,140.37,313.59Zm-2.48-3.28a5.41,5.41,0,0,1,.31.67h1.61a6.66,6.66,0,0,0,.35-.67Z"/><path class="cls-7" d="M148.82,309.64h-2.75l-1,0a10.44,10.44,0,0,0-1.35,0v-.76c.43,0,2,.07,2.46.07h.74c0-.12,0-.66,0-.78l.91.07s.13,0,.13.12-.13.16-.23.21a3.47,3.47,0,0,1,0,.38h1.7a13.28,13.28,0,0,0,1.49-.06v.76C150.44,309.66,149.28,309.64,148.82,309.64Zm1,6h-.51l-.31-.81c.21,0,.5.08.63.08s.16,0,.16-.24V312.9h-5.16c0,.75,0,2.1.06,2.77h-.83c0-.26,0-.7,0-1.17v-1c0-.21,0-1.1,0-1.28.37,0,1.92.07,2.34.07h2l1.78,0c.22,0,.35,0,.59,0v2.16c0,.11,0,.6,0,.7C150.56,315.61,150.26,315.67,149.83,315.67Zm-2.05-3.78h-2.06l-.61,0c0-.23,0-.5,0-.61v-.66c0-.09,0-.56,0-.63.47,0,1.12,0,1.59,0h1.21c.27,0,1.21,0,1.45,0,0,.1,0,.55,0,.65v.59a3.7,3.7,0,0,0,.07.66C149.13,311.92,148,311.89,147.78,311.89Zm0,3.23h-1.48l0,.27h-.78c0-.21,0-.61,0-.82V314c0-.18,0-.6,0-.72a2.36,2.36,0,0,0,.36,0h1.89l1.18,0c0,.14,0,.61,0,.72v.43c0,.29,0,.52,0,.71Zm.86-4.46h-2.75v.64h2.75Zm-.4,3.22h-2v.64h2Z"/><path class="cls-7" d="M154.59,313.07a3,3,0,0,1-.8-.93v1.25c0,.62,0,1,.06,2.28H153c0-.68.06-1.46.06-2.29v-.8a4.77,4.77,0,0,1-.86,1.36l-.6-.47a5.85,5.85,0,0,0,1.37-2.94h-.11a5.51,5.51,0,0,0-.86.07v-.81a5.33,5.33,0,0,0,.86.08h.19c0-.87,0-.95,0-1.62l.88.07c.07,0,.16,0,.16.13s-.14.15-.28.22,0,.91,0,1v.16a6.23,6.23,0,0,0,.8-.08v.81c-.32-.05-.7-.06-.8-.07v.28a4.15,4.15,0,0,0,1.26,1.65Zm4.32,2.57a4.33,4.33,0,0,1-2.09-1.09,4.62,4.62,0,0,1-2.23,1.08l-.46-.68a3.93,3.93,0,0,0,2.18-.93,4.67,4.67,0,0,1-1-2.07l.71-.28a4.57,4.57,0,0,0,.78,1.73,6.48,6.48,0,0,0,.61-1.75l.72.25s.2.08.2.18-.2.14-.3.16a6,6,0,0,1-.73,1.72,3.87,3.87,0,0,0,2,1Zm-2.6-4.84a3.55,3.55,0,0,1-1.11,1.11l-.69-.46a2.83,2.83,0,0,0,1.28-1.27l.66.38a.15.15,0,0,1,.09.13C156.54,310.79,156.42,310.8,156.31,310.8Zm1.37-.81h-1.34a12.44,12.44,0,0,0-1.37.07v-.81a13.3,13.3,0,0,0,1.37.07h.25c0-.12,0-1,0-1.1l.85.08c.09,0,.17,0,.17.12a.17.17,0,0,1-.09.13.85.85,0,0,0-.14.09c0,.13,0,.51,0,.68h.33a10.39,10.39,0,0,0,1.37-.07v.81A13.52,13.52,0,0,0,157.68,310Zm.77,1.92a6.41,6.41,0,0,0-1.31-1.22l.5-.51a5.62,5.62,0,0,1,1.41,1.15Z"/></g></g></svg>