<svg xmlns="http://www.w3.org/2000/svg" xmlns:xlink="http://www.w3.org/1999/xlink" viewBox="0 0 150 38"><defs><style>.cls-1{fill:url(#名称未設定グラデーション_23);}.cls-2{fill:#6a3906;}</style><linearGradient id="名称未設定グラデーション_23" x1="75" x2="75" y2="38" gradientUnits="userSpaceOnUse"><stop offset="0" stop-color="#fff"/><stop offset="1" stop-color="#faf0eb"/></linearGradient></defs><g id="レイヤー_2" data-name="レイヤー 2"><g id="文字"><rect class="cls-1" width="150" height="38" rx="3"/><path class="cls-2" d="M30.7,20.94a41.61,41.61,0,0,1,3.75-2.29l0-1.94a14.74,14.74,0,0,1-2.28.08l-.22-1.7a11,11,0,0,0,1.47.08c.37,0,.6,0,1-.05,0-1.69,0-1.83,0-2.8l1.67.22c.42.06.42.17.42.24s-.23.24-.26.29-.1,1.56-.12,1.84a9.52,9.52,0,0,0,2.31-.78v1.71a13.46,13.46,0,0,1-2.34.65V18a8.28,8.28,0,0,1,2.31-.34A3.33,3.33,0,0,1,42,21.05a3,3,0,0,1-2.8,3.3c-1.65,0-1.86-1-2.07-2.13l1.39-.56c.18.62.3,1,.77,1s1.15-.54,1.15-1.59a2,2,0,0,0-2.08-2,6.54,6.54,0,0,0-2.28.53c0,2.38,0,2.65,0,4.48l-1.59.63c-.65-.69-1-1.09-2.39-2.53a6,6,0,0,0-.45.43Zm3.75-.52a15.09,15.09,0,0,0-1.37.91,12.56,12.56,0,0,0,1.37,1.41Zm7.71-2.69a9,9,0,0,0-3-1.71l1-1.32a10.92,10.92,0,0,1,3,1.7Z"/><path class="cls-2" d="M55.56,17.06V15.29H51.72v2.55H50.1V15.29H46.23v1.86H44.67V14.21H50.1v-.66H45.57V12.3H56.28v1.25H51.72v.66h5.46v2.85ZM55.47,25h-4a1.21,1.21,0,0,1-1.35-1.38v-.69H47.79v.77H46.1V18.33h9.69v4.56H51.72v.3c0,.3.08.45.44.45h3.25c.5,0,.77-.18.86-1.36l1.3.6C57.15,24.75,56.81,25,55.47,25Zm-8.59-8.41v-.77h2.61v.77Zm0,1.21V17h2.58v.72Zm3.16,1.62H47.79v.71h2.28Zm0,1.7H47.79v.75h2.28Zm4.07-1.7H51.72v.71h2.42Zm0,1.7H51.72v.75h2.42ZM52.35,16.5v-.72H55v.72Zm0,1.22V17H55v.71Z"/><path class="cls-2" d="M58.68,15.65V14.27h5.49v1.38Zm3.52,9v-.41H60.46v.65H59v-4.7h4.75v4.46Zm-2.77-7V16.25h4.06v1.32Zm0,1.95V18.21h4v1.31Zm.1-5.84V12.32H63.3v1.36ZM62.2,21.6H60.46v1.22H62.2Zm6.47-4.17v1.88h2.4v5.32H69.42v-.36H66.28v.48H64.71V19.31h2.22V17.43H64.14V16h2.79V14.22a20.49,20.49,0,0,1-2.1.14L64.24,13a16,16,0,0,0,6.05-1l1.11,1.32a.2.2,0,0,1,0,.14.09.09,0,0,1-.07.09H71a2.53,2.53,0,0,0-.62.12c-.15,0-.73.18-1.66.33v2h2.92v1.45Zm.75,3.35H66.28v2h3.14Z"/><path class="cls-2" d="M79.77,16.5a5.57,5.57,0,0,0-1.83,3.6A2.37,2.37,0,0,0,79,22.05a4.72,4.72,0,0,0,2.64.77l-.59,1.83A6.77,6.77,0,0,1,77.38,23a3.75,3.75,0,0,1-1.11-2.7,5.48,5.48,0,0,1,1-3,11.36,11.36,0,0,1,2-2.28c-2,.16-4.21.34-5.71.55l-.26-1.68A41.55,41.55,0,0,0,84,12.69v1.74A6.12,6.12,0,0,0,79.77,16.5Zm3.13,2.57a6.35,6.35,0,0,0-1.23-1.16l.62-.72a6.53,6.53,0,0,1,1.24,1.16Zm1.22-1.37a6.81,6.81,0,0,0-1.25-1.14l.63-.72A7.37,7.37,0,0,1,84.75,17Z"/><path class="cls-2" d="M97.55,21.68a7.3,7.3,0,0,1-3.5,2.64l-1.11-1.55a5,5,0,0,0,2.7-1.6,4.68,4.68,0,0,0,1.08-3,3.53,3.53,0,0,0-1.08-2.62,3.86,3.86,0,0,0-2.55-1,21.25,21.25,0,0,1-1.86,6.68c-.45.93-1.13,2.19-1.92,2.19a4.26,4.26,0,0,1-3-4A6.47,6.47,0,0,1,92.93,13a5.3,5.3,0,0,1,5.58,5.46A5.67,5.67,0,0,1,97.55,21.68ZM89.48,15.9A4.9,4.9,0,0,0,88,19.23c0,1.22.69,1.85,1,1.85.78,0,2.07-3.92,2.37-6.26A4.46,4.46,0,0,0,89.48,15.9Z"/><path class="cls-2" d="M105.42,23.82c-3.39,0-4.83-.63-4.83-2.14A3.71,3.71,0,0,1,102.05,19l1.3,1.07c-.24.19-.84.72-.84,1.26s.11.84,2.66.84a20.93,20.93,0,0,0,4.63-.48l.11,1.8A38,38,0,0,1,105.42,23.82Zm.23-6.39-1-1.08c.35-.3,1-.84,1.52-1.36-.65,0-1.17.07-2.31.07-.9,0-1.34,0-2-.06l-.45-1.65a26.49,26.49,0,0,0,3.78.27,23.14,23.14,0,0,0,3.42-.24l.67,1.22C108,15.41,106.88,16.38,105.65,17.43Zm5.22-2a6.11,6.11,0,0,0-1.25-1.34l.65-.67a6.5,6.5,0,0,1,1.24,1.33Zm.79-1.67a6,6,0,0,0-1.23-1.27l.65-.68a7.27,7.27,0,0,1,1.27,1.23Z"/><path class="cls-2" d="M117.8,20.06a12.72,12.72,0,0,1-.93-1.23v6h-1.53V19.62a12.5,12.5,0,0,1-1.44,2.16L112.5,21a12.67,12.67,0,0,0,2.7-5.27h-2.07V14.27h2.21V12l1.36.13c.09,0,.41,0,.41.2s0,.07-.09.13-.15.12-.15.17v1.62h2v1.42h-2v.17a10.44,10.44,0,0,0,2,3.09ZM124,24.74v-.8h-3.08v.9h-1.65V12.41h6.41V24.74Zm0-10.88h-3.08v1.79H124Zm0,3.24h-3.08v1.79H124Zm0,3.24h-3.08v2.07H124Z"/><path class="cls-2" d="M127.48,15.54V14.28H132v1.26ZM139,25a6.68,6.68,0,0,1-2.88-2.54,5.2,5.2,0,0,1-3,2.66l-1.22-1.31v.95h-1.5v-.47h-1.24v.6h-1.49V20.16h4.23v3.47c.93-.2,3.23-.75,3.23-4.35,0-.38,0-.74,0-1l1.61,0c.46,0,.58.06.58.19s-.07.2-.25.36a.35.35,0,0,0-.17.36c0,1.65.42,3.32,3.42,4.35Zm-11-7.55V16.16h3.6v1.27Zm0,2V18.18h3.6v1.26Zm.06-5.77V12.38h3.53v1.29Zm2.34,7.8h-1.24V23h1.24ZM139.16,19A6.84,6.84,0,0,1,136,16.5a6.14,6.14,0,0,1-3,2.43l-1.15-1.33c2.79-.84,3.18-2.12,3.18-4.22,0-.51,0-1-.06-1.33l1.5,0c.4,0,.57,0,.57.18s0,.1-.08.16a1.22,1.22,0,0,1-.16.18,6.37,6.37,0,0,0-.09,1.46,2.41,2.41,0,0,0,.81,2,7.89,7.89,0,0,0,2.86,1.53Zm-4.78,1.19a8.28,8.28,0,0,1-.63,2l-1.5-.49a6.9,6.9,0,0,0,.61-2.27l1.5.32c.23,0,.33.09.33.18S134.5,20.12,134.38,20.18ZM134.14,14a13.82,13.82,0,0,1-.27,2l-1.47-.27a10.17,10.17,0,0,0,.33-2.39l1.38.26c.21,0,.33.07.33.16S134.26,14,134.14,14Zm5.79,0c-.23,0-.26,0-.33.11a6.74,6.74,0,0,1-1.34,1.5l-1.2-.95a8.89,8.89,0,0,0,1.49-1.81l1.41.76c.06,0,.18.12.18.23S140,14,139.93,14Zm-.15,6.08a2.56,2.56,0,0,0-.27.07,7.34,7.34,0,0,1-.93,1.44l-1.29-.84a8.1,8.1,0,0,0,1.08-1.66l1.39.58c.08,0,.24.15.24.26S139.93,20,139.78,20.06Z"/></g><g id="_1" data-name="1"><path class="cls-2" d="M28.28,10.48C25.44,8.85,21.67,8.7,18.93,8.7s-6.51.15-9.35,1.78a4.47,4.47,0,0,0-2.08,5c0,.31.61,1.37,1.57,1.27a17.26,17.26,0,0,0,4-1.22,1.34,1.34,0,0,0,.25-1.77c-.35-.61,0-.82,0-.82H24.62s.3.21-.06.82a1.36,1.36,0,0,0,.26,1.77,17.1,17.1,0,0,0,4,1.22c1,.1,1.52-1,1.57-1.27A4.5,4.5,0,0,0,28.28,10.48Z"/><path class="cls-2" d="M23.29,13.91a.44.44,0,0,0-.39-.24H21.59a.3.3,0,0,0-.3.3v.9a.29.29,0,0,1-.3.29H16.86a.29.29,0,0,1-.29-.29V14a.3.3,0,0,0-.3-.3H15a.44.44,0,0,0-.39.24L11.33,20.1a7.59,7.59,0,0,0-.85,3.49V25A1.48,1.48,0,0,0,12,26.52h.37v.84h1.5v-.84H24v.84h1.51v-.84h.37A1.48,1.48,0,0,0,27.38,25V23.59a7.48,7.48,0,0,0-.86-3.49Zm-.68,8.5v1.66H21V22.41Zm0-2.63v1.66H21V19.78Zm-1.66-1V17.15h1.66v1.66Zm-1.19,3.6v1.66H18.1V22.41Zm0-2.63v1.66H18.1V19.78Zm0-2.63v1.66H18.1V17.15Zm-2.85,5.26v1.66H15.25V22.41Zm0-2.63v1.66H15.25V19.78Zm-1.66-1V17.15h1.66v1.66Z"/></g></g></svg>