<svg xmlns="http://www.w3.org/2000/svg" viewBox="0 0 60 60"><defs><style>.cls-1{fill:#b28247;}.cls-2{fill:#fff;}.cls-3{fill:none;stroke:#fff;stroke-linecap:round;stroke-miterlimit:10;}</style></defs><g id="レイヤー_2" data-name="レイヤー 2"><g id="文字"><circle class="cls-1" cx="30" cy="30" r="30"/><path class="cls-2" d="M15.75,34.24a15.37,15.37,0,0,0-4.41-3v6.48H9.57V25.84l1.8.32c.05,0,.36.06.36.24s-.39.33-.39.4v3.95l.71-1.11A13.45,13.45,0,0,1,14.6,31a19.23,19.23,0,0,1,2.34,1.8Z"/><path class="cls-2" d="M20.25,32.61a9.07,9.07,0,0,0-1.14-2.42l1.38-.52a9.7,9.7,0,0,1,1.16,2.41Zm7.8-2.69c-.13.08-.15.14-.3.72a10.76,10.76,0,0,1-5.59,7.2L21,36.78A9.16,9.16,0,0,0,26.48,29l1.47.45c.19.06.3.16.3.27S28.22,29.86,28.05,29.92Zm-5,1.95A9.63,9.63,0,0,0,22,29.44l1.33-.51a8.82,8.82,0,0,1,1,2.43Z"/><path class="cls-2" d="M40.75,29a17.94,17.94,0,0,1-2.64,5.07,13.36,13.36,0,0,1-4.44,3.66L32,36.39a12.16,12.16,0,0,0,5-3.93,12.63,12.63,0,0,0,1.87-3.68h-8V27h8.49a.84.84,0,0,0,.49-.24l1.49,1.35A2,2,0,0,0,40.75,29Zm1-1.71a1.44,1.44,0,1,1,1.41-1.44A1.43,1.43,0,0,1,41.76,27.27Zm0-2.28a.84.84,0,0,0-.83.84.85.85,0,0,0,.83.85.85.85,0,0,0,0-1.69Z"/><path class="cls-2" d="M53.85,36.19a36.31,36.31,0,0,1-5.26-5.68c-.5-.62-.68-.86-1.05-.86s-.74.42-.87.62c-.5.67-2.12,2.85-2.91,3.72l-1.68-1.08a27.46,27.46,0,0,0,3.73-4.43,2.13,2.13,0,0,1,1.61-1c.7,0,1,.34,1.74,1.18,2.68,3.08,4.18,4.67,6,5.94Z"/><polyline class="cls-3" points="21.97 16.95 30 10.45 38.03 16.95"/></g></g></svg>