<svg xmlns="http://www.w3.org/2000/svg" viewBox="0 0 158.59 15.21"><defs><style>.cls-1{fill:#231815;}.cls-2{fill:#3e3a39;}</style></defs><g id="レイヤー_2" data-name="レイヤー 2"><g id="文字"><path class="cls-1" d="M18.56,10.65v3a.47.47,0,0,1-.52.42c-.19,0-.36-.09-.36-.32v-.07A38.11,38.11,0,0,0,17.91,9c0-.69,0-1.33,0-1.87-2.33,4.19-4.76,5.46-4.82,5.46a.5.5,0,0,1-.43-.38.12.12,0,0,1,.06-.11A17.48,17.48,0,0,0,18.2,4.79,21,21,0,0,0,14.94,5c-.28,0-.94-.68-.94-.92A.07.07,0,0,1,14.08,4h0c1.64.13,3.25.17,4.33.17a6.55,6.55,0,0,0,.71-2.65c0-.1,0-.18.12-.18s1.36.28,1.36.64c0,.13-.15.23-.49.29-.18,0-.23.1-.32.37-.15.44-.34,1-.57,1.53h4a.46.46,0,0,0,.43-.2c.13-.17.63-.76.84-.76s1.29.84,1.29,1.3c0,.15-.12.26-.4.26H19c-.17.4-.37.82-.57,1.25.19.08.4.19.65.31h2.54c.32,0,.29-.12.47-.28s.15-.16.26-.16,1,.44,1,.73c0,.11-.11.23-.39.35-.12,0-.21,0-.21.49v.66c0,1.33,0,3.54.07,4.25v0a1.39,1.39,0,0,1-1.36,1.41.26.26,0,0,1-.24-.14c-.23-.27-.71-.31-1.38-.46-.09,0-.12-.12-.12-.23s.06-.3.17-.3h0a8.62,8.62,0,0,0,1.32.16c.69,0,.82-.26.84-.7s0-.93,0-1.53Zm0-1.87c0,.43,0,.86,0,1.29h3.52c0-.43,0-.87,0-1.29Zm.25-1.89h0c-.23.12-.23.13-.23,1.31h3.49c0-.47,0-.89,0-1.09s0-.21-.27-.21Z"/><path class="cls-1" d="M31.66,2.46A.44.44,0,0,0,32,2.29c.09-.09.18-.2.32-.2s1,.43,1,.77c0,.12-.12.23-.37.34a.49.49,0,0,0-.27.24,10.09,10.09,0,0,0-.92,2,.6.6,0,0,0,.27.46,2.7,2.7,0,0,1,1,2A1.79,1.79,0,0,1,31.4,9.61a.34.34,0,0,1-.23-.11c-.15-.14-.3-.15-.75-.27,0,1.51,0,3,0,4.17,0,.27-.28.42-.52.42s-.4-.11-.4-.34v0c.12-1.5.17-3.85.17-5.94,0-1.55,0-4-.16-5.42,0,0,0-.06,0-.08s0-.06.06-.06l.12,0c.16.08.6.25,1,.49ZM30.45,8.65a2.51,2.51,0,0,0,.75.13,1,1,0,0,0,1-1A2.62,2.62,0,0,0,31.43,6a.72.72,0,0,1-.24-.56A1.65,1.65,0,0,1,31.28,5c0-.12.55-1.76.55-1.88S31.77,3,31.66,3h-.95a.57.57,0,0,1-.12.11.36.36,0,0,0-.18.34c0,1.16,0,3.16,0,5.22Zm7.1,1.3a5.9,5.9,0,0,0,4.5,2.64c.05,0,.06.05.06.11s-.07.35-.15.35a8.72,8.72,0,0,0-2.05.46.26.26,0,0,1-.14,0A9.15,9.15,0,0,1,36,7.45H34.91V11.9c.9-.24,1.8-.52,2.31-.7h.06c.12,0,.2.16.2.32a.2.2,0,0,1-.09.18,50.79,50.79,0,0,1-4.92,1.65c-.12,0-.17.39-.32.39s-.72-1-.72-1.08.05-.06.11-.06a11.45,11.45,0,0,0,2.66-.49c0-.49,0-1.31,0-2.26,0-1.81,0-6.95-.16-7.67,0,0,0-.06,0-.08s0,0,0,0a3.7,3.7,0,0,1,1.06.52h2.48c.23,0,.25,0,.4-.22s.12-.16.23-.16,1,.41,1,.7c0,.11-.1.23-.36.35s-.23.14-.23,1.15.06,2.54.12,3.32c0,.23-.2.41-.49.41a.31.31,0,0,1-.35-.32v0c0-.09,0-.2,0-.32H36.54a6.51,6.51,0,0,0,.75,2.08A7.52,7.52,0,0,0,39.38,8a.07.07,0,0,1,.07,0c.09,0,.87.66.87,1a.17.17,0,0,1-.19.18.81.81,0,0,1-.28-.08A.79.79,0,0,0,39.62,9a.36.36,0,0,0-.15.06ZM38,3.32a.21.21,0,0,0-.23-.22H35.06a.29.29,0,0,0-.15.25V4.7H38ZM34.91,5.23V6.89H38c0-.49,0-1.08,0-1.66Z"/><path class="cls-1" d="M42.34,9.75A.41.41,0,0,1,42,9.4a.16.16,0,0,1,.07-.14A18,18,0,0,0,48.52,2.6a3.38,3.38,0,0,0,.23-.73c0-.1,0-.13.08-.13s1.34.43,1.34.78c0,.13-.13.22-.44.22h-.18C50.83,4.62,53.4,7.5,56.71,8c.06,0,.08.08.08.15s0,.3-.11.3A8.43,8.43,0,0,0,54.54,9a.29.29,0,0,1-.19.07C54,9,50.85,6,49.21,3.15,46.26,8,42.52,9.75,42.34,9.75Zm6.84-.06c.06.06.09.1.09.15s-.1.17-.3.18a.35.35,0,0,0-.33.26c-.18.49-.56,1.49-.82,2.11,1.15-.1,2.43-.29,3.59-.5a6.9,6.9,0,0,0-1.31-1.15.08.08,0,0,1-.05-.07.43.43,0,0,1,.34-.34c.06,0,2.8,1.56,2.8,2.77,0,.34-.2.58-.44.58s-.37-.14-.52-.47a8.33,8.33,0,0,0-.46-.85c-1.67.4-3.94.69-5.83,1-.13,0-.22.36-.39.36s-.65-1-.67-1.14,0,0,0-.06,0,0,.07,0h0a5.32,5.32,0,0,0,.77,0c.39,0,.88,0,1.44-.06a14.13,14.13,0,0,0,.7-2.74c-.75,0-1.64.11-2.36.2-.36,0-.89-.69-.89-.87s0-.08.1-.08h0c1.33.14,2.82.22,3.78.22h2.89a.47.47,0,0,0,.45-.2c.18-.29.52-.69.7-.69s1.2.81,1.2,1.19c0,.12-.11.22-.36.22Zm.08-2.09a12.61,12.61,0,0,0-1.86.17c-.27,0-.71-.53-.71-.76,0-.06,0-.09.07-.09h0a16.11,16.11,0,0,0,2.28.19h.28a.47.47,0,0,0,.43-.21c.55-.63.56-.63.7-.63.31,0,1.07.81,1.07,1.12,0,.12-.1.21-.36.21Z"/><path class="cls-1" d="M60.81,5.09c-.49,0-1.41.13-1.89.19-.26,0-.73-.66-.73-.83s0-.06.05-.06h0a18.6,18.6,0,0,0,2.24.17h.16a11.23,11.23,0,0,0-.16-2.88s0-.06,0-.09,0-.09.12-.09,1.4.1,1.4.41c0,.14-.19.29-.43.4s-.2.18-.2,2.25l.27,0a.37.37,0,0,0,.31-.16.28.28,0,0,1,.24-.14,1.79,1.79,0,0,1,.83.49.38.38,0,0,1,.17.27c0,.14-.12.26-.43.35a.52.52,0,0,0-.31.26,9.94,9.94,0,0,1-1.2,1.7,2.48,2.48,0,0,1,.3.13.18.18,0,0,1,.11.15s0,.09-.11.15c1.24.42,2.19.87,2.19,1.55a.36.36,0,0,1-.32.4A.62.62,0,0,1,63,9.38a4.47,4.47,0,0,0-1.71-1.33c0,.64,0,1.54,0,2.49s0,2,0,2.8a.47.47,0,0,1-.52.46.36.36,0,0,1-.39-.38v-.05c.08-1.07.22-2.63.22-4.08,0-.35,0-.69,0-1,0-.08,0-.14,0-.2A9.46,9.46,0,0,1,57,10.33c-.17,0-.31-.23-.31-.37a.09.09,0,0,1,.05-.09,10.32,10.32,0,0,0,5.08-4.65c0-.08-.08-.13-.2-.13Zm4,7.72a22,22,0,0,0-2.28.17c-.32,0-.83-.68-.83-.86,0,0,0-.06.08-.06h0a23.29,23.29,0,0,0,2.86.18h1c0-1.51.06-3.2.07-4.79h-.07a14.43,14.43,0,0,0-1.87.18c-.3,0-.78-.67-.78-.84s0-.07.08-.07h0a20.23,20.23,0,0,0,2.41.17h.22c0-1.57,0-3,0-4A3.64,3.64,0,0,0,65.55,2c0-.09,0-.15,0-.2s0-.09.17-.09c.32,0,1.38.12,1.38.4,0,.12-.16.26-.4.35s-.15.22-.15.4c-.07,1.12-.1,2.53-.1,4H67a.44.44,0,0,0,.44-.22C68,6,68,6,68.17,6a1.87,1.87,0,0,1,1.16,1.25c0,.14-.11.23-.35.23H66.42V8.86c0,1.15,0,2.29,0,3.38h1.84a.47.47,0,0,0,.47-.23c.14-.15.43-.52.54-.61a.3.3,0,0,1,.21-.09,2,2,0,0,1,1.22,1.27c0,.14-.1.23-.36.23Z"/><path class="cls-1" d="M80.72,9.62l-.36.32.27.05c.25.06.35.11.35.18s-.17.22-.33.31a.31.31,0,0,0-.16.32c0,.09,0,.27,0,.47A11.26,11.26,0,0,0,83.75,10s.07,0,.11,0a2.21,2.21,0,0,1,.68,1.15.16.16,0,0,1-.18.18,1.26,1.26,0,0,1-.49-.16.2.2,0,0,0-.14,0,1.11,1.11,0,0,0-.23,0c-.56.12-2.29.54-3,.7v.3c0,.27.07.62,1.91.62s2.11-.22,2.22-.63c0-.17.09-.51.18-1,0-.14.16-.19.3-.19s.31.07.31.21v0c0,.14,0,.43,0,.56v.14a.36.36,0,0,0,.2.36c.2.11.31.16.31.34,0,.36-.53.83-3.64.83-1.26,0-2.58-.12-2.58-1.11v0c0-.38.06-.81.06-1.21a2.75,2.75,0,0,0,0-.41.62.62,0,0,0,0-.18,16.29,16.29,0,0,1-4,2.23c-.2,0-.36-.27-.36-.47s0-.14.09-.16c3.66-1.44,5.87-4,6.07-4.54h-1v.51c0,.41-.51.41-.54.41-.22,0-.4-.11-.4-.34v0c.09-.92.15-1.64.15-2.38a14.17,14.17,0,0,0-.18-2.34V3.3s0-.06,0-.06a5.11,5.11,0,0,1,1.19.54h4.57c.29,0,.29-.11.45-.29s.17-.18.27-.18S87,3.84,87,4.14c0,.13-.12.27-.41.42-.11.05-.25,0-.25.52v.29c0,.68,0,1.62.12,2.59,0,.2-.14.45-.54.45a.34.34,0,0,1-.37-.34v0c0-.16,0-.34,0-.51h-3c.1.06.16.13.16.18s-.11.18-.33.24a.36.36,0,0,0-.3.2,7.23,7.23,0,0,1-.71.79h6.09a.41.41,0,0,0,.34-.15s.25-.3.44-.3,1.22.58,1.22.95c0,.17-.16.29-.5.44s-.38.16-.45.55a12.5,12.5,0,0,1-1,3,3.28,3.28,0,0,1-2.74,1.73h0a.35.35,0,0,1-.29-.16c-.2-.31-.88-.4-1.65-.51-.11,0-.15-.12-.15-.25s.09-.36.22-.36h0a17.18,17.18,0,0,0,2,.25,1.88,1.88,0,0,0,1.78-1.06,9.16,9.16,0,0,0,1-3.26c0-.12-.07-.19-.28-.19Zm4.14-7.1.06.54c0,.2-.15.4-.47.4a.36.36,0,0,1-.4-.36v0c0-.14,0-.34,0-.56h-2l0,.54c0,.29-.3.42-.49.42a.31.31,0,0,1-.35-.33v0c0-.15,0-.36,0-.58a20.54,20.54,0,0,0-3.67.22c-.4.07-1-.81-1-1s0-.11.12-.11h0c1.95.15,3.33.22,4.52.22V1.28a3.48,3.48,0,0,0-.14-.83c0-.11-.06-.18-.06-.22s.06-.1.22-.1c.38,0,1.35.12,1.35.41,0,.13-.18.27-.38.36a.33.33,0,0,0-.2.34c0,.15,0,.38,0,.65h2c0-.25,0-.49,0-.65A4.85,4.85,0,0,0,84,.45a.77.77,0,0,1-.06-.23c0-.08.06-.09.22-.09s1.37.07,1.37.39c0,.13-.2.27-.42.38s-.21.32-.21.77v.22h1.71a.6.6,0,0,0,.5-.25c.43-.6.65-.88.88-.88a2.34,2.34,0,0,1,1.53,1.47c0,.18-.12.29-.45.29ZM80.58,4.41l0,0c-.12.07-.2.16-.2.25v.65h5.28c0-.25,0-.51,0-.74s0-.2-.25-.2ZM80.34,6l0,.95H85.6c0-.32,0-.63,0-.95Z"/><path class="cls-1" d="M105,14.06c0-.52,0-1,0-1.49H95.81c0,.43,0,.86,0,1.28s-.41.54-.63.54-.39-.09-.39-.33v0c.12-1.83.18-3.22.18-4.59a23.13,23.13,0,0,0-.24-4.28V5.1c0-.11,0-.15.11-.15a5.23,5.23,0,0,1,1.3.63h2.37V3.94c0-.41,0-.39-.05-.64a.12.12,0,0,1,0-.08,31.41,31.41,0,0,0-4.21.31c-.4.07-1.06-.9-1.06-1.12s0-.11.1-.11h0c2.11.18,4.2.26,5.38.26h6a.61.61,0,0,0,.5-.24c.52-.66.72-.9.94-.9a2.25,2.25,0,0,1,1.49,1.52c0,.16-.1.28-.41.28h-5.11a.21.21,0,0,1,.05.13.25.25,0,0,1-.18.2c-.13.05-.22.29-.22,2h2.83c.23,0,.31-.11.43-.27s.2-.25.36-.25,1.19.56,1.19.94c0,.14-.11.3-.47.5s-.27.31-.27,2.45c0,1.37.06,3,.15,5v0c0,.28-.36.46-.65.46s-.4-.09-.4-.32Zm-.65-6.64c0,.14,0,.79,0,.9v.14a.35.35,0,0,0,.13.33c.12.11.21.19.21.36s-.12.79-2,.79c-1,0-1.53-.11-1.53-1.33,0-.42,0-1.35,0-2.34H99.28a4.71,4.71,0,0,1-3.15,4.32.1.1,0,0,1-.07,0,.34.34,0,0,1-.29-.22c0,.49,0,1,0,1.48H105c0-1,0-2,0-2.9,0-2.6,0-2.7-.34-2.7h-2.9c0,.75,0,1.53,0,2.12,0,.81.22.85.92.85s.86-.07,1-1.88c0-.1.12-.14.23-.14s.32.07.32.18Zm-8.44,2.65a4.09,4.09,0,0,0,2.63-3.8H96.13c-.36.19-.36.32-.36,3.85ZM101.06,4a4.77,4.77,0,0,0,0-.72.07.07,0,0,1,0,0H99.53c.15,0,.22.11.22.2s-.07.18-.23.24-.17.07-.17.19c0,.9,0,1.32,0,1.73h1.73Z"/><path class="cls-1" d="M112.58,8.62a8.62,8.62,0,0,0-1.4.17c-.31.07-.88-.83-.88-1,0,0,0,0,0,0h0a17,17,0,0,0,2.21.25H113c.31,0,.31-.11.49-.27s.22-.2.32-.2c.29,0,1.16.67,1.16.95s-.13.27-.47.4-.31.49-.31,3.08c.22,1.64,3.53,1.85,4.92,1.85a27.49,27.49,0,0,0,6.61-.9h0c.09,0,.16.15.16.29a.23.23,0,0,1-.09.2,4.39,4.39,0,0,0-1.31,1c-.2.38-3.69.39-4.32.39-1.89,0-5.53-.1-6.47-2.12-.84.52-2.14,1.4-2.73,1.84-.13.09-.15.57-.38.57s-1-1.11-1-1.15,0-.07.09-.09c1.15-.49,2.34-1.08,3.6-1.67,0-.63,0-2,0-2.81V9c0-.2-.07-.38-.3-.38Zm1-4.28a6.34,6.34,0,0,0-2-1.93.16.16,0,0,1-.07-.14.47.47,0,0,1,.38-.38.1.1,0,0,1,.07,0c2.63,1.39,2.77,2,2.77,2.39s-.2.63-.48.63S113.79,4.77,113.55,4.34Zm4.56,2.5a17.4,17.4,0,0,0-2.38.18c-.27,0-1-.74-1-1,0,0,0,0,.07,0h0a19.2,19.2,0,0,0,3.19.23h1.08c0-.61,0-1.29,0-2h-1.92c-.13.22-.9,1.66-1.23,1.66s-.41-.17-.41-.31a.1.1,0,0,1,0-.07,8.24,8.24,0,0,0,1.62-3.93c0-.12,0-.16.11-.16s1.44.34,1.44.72c0,.14-.22.25-.49.25s-.25.09-.41.49c-.09.22-.2.47-.33.72h1.6c0-.68,0-1.32,0-1.71a4.63,4.63,0,0,0-.13-1,2.08,2.08,0,0,1,0-.24c0-.07,0-.09.2-.09s1.54.09,1.54.49c0,.14-.18.3-.48.41a.25.25,0,0,0-.2.29c0,.49,0,1.14,0,1.82h.59c.36,0,.38-.09.56-.29s.43-.48.57-.59a.42.42,0,0,1,.26-.11A2.07,2.07,0,0,1,123.22,4c0,.16-.1.27-.43.27H120c0,.68,0,1.37,0,2h2c.32,0,.34-.09.5-.27.63-.7.65-.7.81-.7a2,2,0,0,1,1.3,1.31c0,.18-.13.29-.47.29Zm-.32,4.85c0,.23,0,.46,0,.72s-.32.46-.59.46-.45-.12-.45-.37v-.06a27.17,27.17,0,0,0,.14-2.77A15.52,15.52,0,0,0,116.8,8V7.89c0-.08,0-.13.09-.13a6.56,6.56,0,0,1,1.24.56H121c.34,0,.36-.16.54-.36a.34.34,0,0,1,.25-.13c.29,0,1.17.49,1.17.79,0,.13-.14.26-.47.47s-.23.33-.23,1.14c0,.56,0,1.19.09,2,0,.27-.34.44-.59.44s-.4-.09-.4-.33v0c0-.22,0-.44,0-.63ZM118,9a.31.31,0,0,0-.2.3c0,.73,0,1.25,0,1.79h3.62c0-.74,0-1.35,0-1.87,0-.22-.1-.22-.28-.22Z"/><path class="cls-1" d="M132.71,14.64c0,.29-.35.48-.63.48a.36.36,0,0,1-.4-.39v-.11A44,44,0,0,0,132,9.25V9a2.68,2.68,0,0,0,0-.41,17.12,17.12,0,0,1-4.59,3.29.4.4,0,0,1-.34-.38.19.19,0,0,1,.11-.19c2.43-1.44,5.42-4.31,6-5.59,0-.09,0-.12.11-.12s1.31.57,1.31,1c0,.15-.14.25-.41.25h-.31c-.14,0-.23.1-.34.23s-.52.58-.85.9c.63.13.67.32.67.4s-.09.18-.34.27-.16.14-.18.25C132.8,10,132.76,12.55,132.71,14.64Zm4.07-10.93.07,1.21s0,.45-.51.45A.35.35,0,0,1,136,5V5c0-.3,0-.77,0-1.24h-2.23l.06,1.13c0,.11,0,.45-.51.45-.22,0-.4-.1-.4-.36v0c0-.31,0-.72,0-1.17a23.25,23.25,0,0,0-3.29.23c-.29.06-1-.72-1-1,0-.06,0-.09.11-.09h0c1.54.14,3.06.19,4.21.21a9.15,9.15,0,0,0-.16-2.3.84.84,0,0,1-.06-.26c0-.07.06-.1.24-.1.39,0,1.4.16,1.4.46s-.2.33-.41.42-.2.18-.2.36,0,.5,0,.79,0,.42,0,.63H136a9.28,9.28,0,0,0-.16-2.3,1.48,1.48,0,0,1-.07-.26c0-.07.07-.1.25-.1s1.42.09,1.42.46c0,.15-.19.31-.43.42s-.25.14-.25,1.17c0,.2,0,.4,0,.61h1.67a.59.59,0,0,0,.51-.25c.52-.72.68-.88.88-.88a2.32,2.32,0,0,1,1.51,1.49c0,.18-.12.29-.45.29ZM142,12.23a.82.82,0,0,0,0,.21.4.4,0,0,0,.24.42c.23.12.39.16.39.36,0,.9-2.44,1.18-4.23,1.18-2.63,0-3.35-.39-3.35-1.89v-.07c0-1,.08-3,.08-4.55V7.18a5.1,5.1,0,0,0-.13-1.08,1.81,1.81,0,0,1-.05-.25c0-.07.05-.11.19-.11s1.57.06,1.57.47c0,.16-.22.33-.5.42s-.18.25-.18.48c0,.79-.06,1.68-.08,2.54a18.69,18.69,0,0,0,2.87-1.71,6.2,6.2,0,0,0,.72-.74c.05-.07.09-.09.12-.09s1,.87,1,1.26c0,.16-.11.24-.29.24a.82.82,0,0,1-.34-.08h-.16a.6.6,0,0,0-.29.09,33.53,33.53,0,0,1-3.67,1.67l0,2.14v.08c0,.91.54,1,2.45,1a8.16,8.16,0,0,0,1.67-.13c1.08-.23,1.1-.37,1.66-3.33a.23.23,0,0,1,.25-.18c.18,0,.4.11.4.31v0Z"/><path class="cls-1" d="M148.6,3.69a.38.38,0,0,0-.16.36c0,.63.07,1.28.07,1.91,0,3.31-.76,6.48-4.23,8.84a.25.25,0,0,1-.16,0,.46.46,0,0,1-.45-.39.27.27,0,0,1,.1-.22c3-2.14,3.82-5,3.82-8a17.61,17.61,0,0,0-.34-3.65.22.22,0,0,1,0-.11.08.08,0,0,1,.09-.09,5.45,5.45,0,0,1,1.48.63H152c0-.23,0-.54,0-.86a7.4,7.4,0,0,0-.19-2s0-.09,0-.13,0-.09.12-.09,1.66.07,1.66.47c0,.14-.22.32-.52.47-.13.05-.16.09-.18.45s0,1.15,0,1.67h3a.6.6,0,0,0,.52-.25c.42-.56.64-.79.87-.79a2.33,2.33,0,0,1,1.4,1.38c0,.18-.14.29-.46.29Zm6.9,9.92h-5.23c0,.34,0,.7,0,1.14,0,.28-.32.46-.61.46s-.41-.1-.41-.36v0a28.24,28.24,0,0,0,.14-2.86,22,22,0,0,0-.16-2.79.16.16,0,0,1,0-.09A.07.07,0,0,1,149.3,9a.46.46,0,0,1,.13,0,9.24,9.24,0,0,1,1.24.7h1.62c0-.52,0-1.13,0-1.76a14.9,14.9,0,0,0-.16-3.39,1,1,0,0,1-.06-.27c0-.09,0-.1.18-.1.35,0,1.53.18,1.53.5,0,.14-.19.31-.43.41s-.25.2-.25,1.66h2.5c.2,0,.29-.16.43-.31.56-.68.67-.73.78-.73.36,0,1.37.93,1.37,1.4,0,.18-.13.29-.47.29h-4.61c0,.79,0,1.6,0,2.3h1.91c.34,0,.37-.2.57-.41s.15-.14.22-.14c.31,0,1.17.7,1.17,1s-.13.29-.43.45-.27.2-.27,1.44c0,.86.07,1.53.14,2.55,0,.35-.36.53-.59.53a.37.37,0,0,1-.4-.42v0Zm-5-3.18s-.05.07-.07.07a.37.37,0,0,0-.18.3c0,.87,0,1.48,0,2.11h5.24V10.66c0-.11,0-.23-.27-.23Z"/><rect class="cls-2" y="3.96" width="10" height="10"/></g></g></svg>