<?xml version="1.0" encoding="utf-8"?>
<!-- Generator: Adobe Illustrator 24.1.2, SVG Export Plug-In . SVG Version: 6.00 Build 0)  -->
<svg version="1.1" id="レイヤー_1" xmlns="http://www.w3.org/2000/svg" xmlns:xlink="http://www.w3.org/1999/xlink" x="0px"
	 y="0px" viewBox="0 0 158.6 15.2" style="enable-background:new 0 0 158.6 15.2;" xml:space="preserve">
<style type="text/css">
	.st0{fill:#FFFFFF;}
</style>
<g id="レイヤー_2_1_">
	<g id="文字">
		<path class="st0" d="M18.6,10.6v3c0,0.3-0.3,0.4-0.5,0.4c0,0,0,0,0,0c-0.2,0-0.4-0.1-0.4-0.3v-0.1c0.2-1.6,0.2-3.1,0.2-4.7
			c0-0.7,0-1.3,0-1.9c-2.3,4.2-4.8,5.5-4.8,5.5c-0.2,0-0.4-0.2-0.4-0.4c0,0,0-0.1,0.1-0.1c2.4-1.9,4.3-4.4,5.5-7.3
			c-1.1,0-2.2,0.1-3.3,0.2C14.7,5,14,4.3,14,4.1C14,4,14,4,14.1,4c0,0,0,0,0,0l0,0c1.6,0.1,3.2,0.2,4.3,0.2c0.4-0.8,0.7-1.7,0.7-2.7
			c0-0.1,0-0.2,0.1-0.2s1.4,0.3,1.4,0.6c0,0.1-0.1,0.2-0.5,0.3c-0.2,0-0.2,0.1-0.3,0.4c-0.1,0.4-0.3,1-0.6,1.5h4
			c0.2,0,0.3-0.1,0.4-0.2c0.1-0.2,0.6-0.8,0.8-0.8s1.3,0.8,1.3,1.3c0,0.2-0.1,0.3-0.4,0.3H19c-0.2,0.4-0.4,0.8-0.6,1.2
			c0.2,0.1,0.4,0.2,0.6,0.3h2.5c0.3,0,0.3-0.1,0.5-0.3s0.1-0.2,0.3-0.2s1,0.4,1,0.7c0,0.1-0.1,0.2-0.4,0.3c-0.1,0-0.2,0-0.2,0.5v0.7
			c0,1.3,0,3.5,0.1,4.2l0,0c0,0.8-0.6,1.4-1.4,1.4c-0.1,0-0.2-0.1-0.2-0.1c-0.2-0.3-0.7-0.3-1.4-0.5c-0.1,0-0.1-0.1-0.1-0.2
			s0.1-0.3,0.2-0.3l0,0c0.4,0.1,0.9,0.1,1.3,0.2c0.7,0,0.8-0.3,0.8-0.7s0-0.9,0-1.5L18.6,10.6z M18.6,8.8c0,0.4,0,0.9,0,1.3h3.5
			c0-0.4,0-0.9,0-1.3H18.6z M18.8,6.9L18.8,6.9C18.6,7,18.6,7,18.6,8.2h3.5c0-0.5,0-0.9,0-1.1s0-0.2-0.3-0.2L18.8,6.9z"/>
		<path class="st0" d="M31.7,2.5c0.1,0,0.3-0.1,0.3-0.2c0.1-0.1,0.2-0.2,0.3-0.2s1,0.4,1,0.8c0,0.1-0.1,0.2-0.4,0.3
			c-0.1,0-0.2,0.1-0.3,0.2c-0.4,0.6-0.7,1.3-0.9,2c0,0.2,0.1,0.4,0.3,0.5c0.6,0.5,1,1.2,1,2c0,0.9-0.7,1.6-1.6,1.7
			c-0.1,0-0.2,0-0.2-0.1c-0.1-0.1-0.3-0.1-0.8-0.3c0,1.5,0,3,0,4.2c0,0.3-0.3,0.4-0.5,0.4s-0.4-0.1-0.4-0.3l0,0
			c0.1-1.5,0.2-3.9,0.2-5.9c0-1.5,0-4-0.2-5.4c0,0,0-0.1,0-0.1s0-0.1,0.1-0.1h0.1c0.2,0.1,0.6,0.2,1,0.5L31.7,2.5z M30.5,8.6
			c0.2,0.1,0.5,0.1,0.8,0.1c0.6,0,1-0.4,1-1c0-0.7-0.3-1.3-0.8-1.8c-0.2-0.1-0.2-0.3-0.2-0.6c0-0.2,0-0.3,0.1-0.4
			c0-0.1,0.5-1.8,0.5-1.9S31.8,3,31.7,3h-1c0,0-0.1,0.1-0.1,0.1c-0.1,0.1-0.2,0.2-0.2,0.3C30.4,4.6,30.4,6.6,30.5,8.6L30.5,8.6z
			 M37.5,9.9c1,1.5,2.7,2.5,4.5,2.6c0,0,0.1,0.1,0.1,0.1S42,13.1,42,13.1c-0.7,0.1-1.4,0.2-2,0.5c0,0-0.1,0-0.1,0
			c-2-1.4-3.4-3.6-3.8-6.1h-1.1v4.4c0.9-0.2,1.8-0.5,2.3-0.7h0.1c0.1,0,0.2,0.2,0.2,0.3c0,0.1,0,0.1-0.1,0.2
			c-1.6,0.6-3.3,1.2-4.9,1.6c-0.1,0-0.2,0.4-0.3,0.4s-0.7-1-0.7-1.1s0-0.1,0.1-0.1c0.9-0.1,1.8-0.2,2.7-0.5c0-0.5,0-1.3,0-2.3
			c0-1.8,0-6.9-0.2-7.7c0,0,0-0.1,0-0.1s0,0,0,0c0.4,0.1,0.7,0.3,1.1,0.5h2.5c0.2,0,0.2,0,0.4-0.2s0.1-0.2,0.2-0.2s1,0.4,1,0.7
			c0,0.1-0.1,0.2-0.4,0.3s-0.2,0.1-0.2,1.1s0.1,2.5,0.1,3.3c0,0.2-0.2,0.4-0.5,0.4c-0.2,0-0.3-0.1-0.3-0.3c0,0,0,0,0-0.1l0,0
			c0-0.1,0-0.2,0-0.3h-1.4c0.1,0.7,0.4,1.4,0.8,2.1c0.8-0.4,1.5-1,2.1-1.6c0,0,0,0,0.1,0c0.1,0,0.9,0.7,0.9,1c0,0.1-0.1,0.2-0.2,0.2
			c0,0,0,0,0,0c-0.1,0-0.2,0-0.3-0.1c-0.1,0-0.1-0.1-0.2-0.1c-0.1,0-0.1,0-0.2,0.1L37.5,9.9z M38,3.3c0-0.1-0.1-0.2-0.2-0.2
			c0,0,0,0,0,0h-2.7c-0.1,0.1-0.1,0.1-0.2,0.2v1.3H38V3.3z M34.9,5.2v1.7H38c0-0.5,0-1.1,0-1.7H34.9z"/>
		<path class="st0" d="M42.3,9.8c-0.2,0-0.3-0.2-0.3-0.4c0-0.1,0-0.1,0.1-0.1c2.7-1.6,4.9-3.9,6.5-6.7c0.1-0.2,0.2-0.5,0.2-0.7
			c0-0.1,0-0.1,0.1-0.1s1.3,0.4,1.3,0.8c0,0.1-0.1,0.2-0.4,0.2h-0.2c1.3,1.9,3.8,4.8,7.2,5.3c0.1,0,0.1,0.1,0.1,0.1s0,0.3-0.1,0.3
			c-0.7,0.1-1.5,0.3-2.1,0.6c-0.1,0-0.1,0.1-0.2,0.1C54,9,50.8,6,49.2,3.2C46.3,8,42.5,9.8,42.3,9.8z M49.2,9.7
			c0.1,0.1,0.1,0.1,0.1,0.1S49.2,10,49,10c-0.2,0-0.3,0.1-0.3,0.3c-0.2,0.5-0.6,1.5-0.8,2.1c1.2-0.1,2.4-0.3,3.6-0.5
			c-0.4-0.4-0.8-0.8-1.3-1.1c0,0,0,0,0-0.1c0-0.2,0.2-0.3,0.3-0.3c0.1,0,2.8,1.6,2.8,2.8c0,0.3-0.2,0.6-0.4,0.6s-0.4-0.1-0.5-0.5
			c-0.1-0.3-0.3-0.6-0.5-0.9c-1.7,0.4-3.9,0.7-5.8,1c-0.1,0-0.2,0.4-0.4,0.4s-0.7-1-0.7-1.1s0,0,0-0.1s0,0,0.1,0l0,0
			c0.3,0,0.5,0,0.8,0c0.4,0,0.9,0,1.4-0.1c0.3-0.9,0.6-1.8,0.7-2.7c-0.8,0-1.6,0.1-2.4,0.2c-0.4,0-0.9-0.7-0.9-0.9s0-0.1,0.1-0.1
			l0,0c1.3,0.1,2.8,0.2,3.8,0.2h2.9c0.2,0,0.3-0.1,0.5-0.2c0.2-0.3,0.5-0.7,0.7-0.7s1.2,0.8,1.2,1.2c0,0.1-0.1,0.2-0.4,0.2L49.2,9.7
			z M49.3,7.6c-0.6,0-1.2,0.1-1.9,0.2c-0.3,0-0.7-0.5-0.7-0.8c0-0.1,0-0.1,0.1-0.1l0,0C47.5,7,48.3,7.1,49,7.1h0.3
			c0.2,0,0.3-0.1,0.4-0.2c0.5-0.6,0.6-0.6,0.7-0.6c0.3,0,1.1,0.8,1.1,1.1c0,0.1-0.1,0.2-0.4,0.2L49.3,7.6z"/>
		<path class="st0" d="M60.8,5.1c-0.5,0-1.4,0.1-1.9,0.2c-0.3,0-0.7-0.7-0.7-0.8s0-0.1,0-0.1l0,0c0.7,0.1,1.5,0.2,2.2,0.2h0.2
			c0.1-1,0-1.9-0.2-2.9c0,0,0-0.1,0-0.1s0-0.1,0.1-0.1S62,1.6,62,1.9c0,0.1-0.2,0.3-0.4,0.4s-0.2,0.2-0.2,2.3h0.3
			c0.1,0,0.2-0.1,0.3-0.2c0-0.1,0.1-0.1,0.2-0.1c0.3,0.1,0.6,0.3,0.8,0.5c0.1,0.1,0.2,0.2,0.2,0.3c0,0.1-0.1,0.3-0.4,0.3
			c-0.1,0-0.2,0.1-0.3,0.3c-0.3,0.6-0.7,1.2-1.2,1.7c0.1,0,0.2,0.1,0.3,0.1c0.1,0,0.1,0.1,0.1,0.2c0,0,0,0.1-0.1,0.2
			c1.2,0.4,2.2,0.9,2.2,1.6c0,0.2-0.1,0.4-0.3,0.4c0,0,0,0,0,0c-0.2,0-0.3-0.2-0.4-0.3c-0.5-0.6-1-1-1.7-1.3c0,0.6,0,1.5,0,2.5
			s0,2,0,2.8c0,0.3-0.2,0.5-0.5,0.5c0,0,0,0,0,0c-0.2,0-0.4-0.1-0.4-0.3c0,0,0,0,0-0.1v-0.1c0.1-1.1,0.2-2.6,0.2-4.1
			c0-0.4,0-0.7,0-1c0-0.1,0-0.1,0-0.2c-1,1-2.2,1.8-3.6,2.2c-0.2,0-0.3-0.2-0.3-0.4c0,0,0-0.1,0-0.1c2.2-0.9,4-2.6,5.1-4.7
			c0-0.1-0.1-0.1-0.2-0.1L60.8,5.1z M64.8,12.8c-0.8,0-1.5,0.1-2.3,0.2c-0.3,0-0.8-0.7-0.8-0.9c0,0,0-0.1,0.1-0.1l0,0
			c0.9,0.1,1.9,0.2,2.9,0.2h1c0-1.5,0.1-3.2,0.1-4.8h-0.1c-0.6,0-1.3,0.1-1.9,0.2C63.5,7.6,63,7,63,6.8s0-0.1,0.1-0.1l0,0
			c0.8,0.1,1.6,0.2,2.4,0.2h0.2c0-1.6,0-3,0-4c0-0.3-0.1-0.6-0.2-0.9c0-0.1,0-0.1,0-0.2s0-0.1,0.2-0.1c0.3,0,1.4,0.1,1.4,0.4
			c0,0.1-0.2,0.3-0.4,0.3s-0.2,0.2-0.2,0.4c-0.1,1.1-0.1,2.5-0.1,4H67c0.2,0,0.4-0.1,0.4-0.2C68,6,68,6,68.2,6
			c0.6,0.2,1,0.7,1.2,1.2c0,0.1-0.1,0.2-0.3,0.2h-2.6v1.4c0,1.1,0,2.3,0,3.4h1.8c0.2,0,0.4-0.1,0.5-0.2c0.1-0.1,0.4-0.5,0.5-0.6
			c0.1-0.1,0.1-0.1,0.2-0.1c0.6,0.2,1,0.7,1.2,1.3c0,0.1-0.1,0.2-0.4,0.2H64.8z"/>
		<path class="st0" d="M80.7,9.6l-0.4,0.3l0.3,0.1c0.2,0.1,0.3,0.1,0.3,0.2s-0.2,0.2-0.3,0.3c-0.1,0.1-0.2,0.2-0.2,0.3
			c0,0.1,0,0.3,0,0.5c1.1-0.3,2.2-0.7,3.3-1.3c0,0,0.1,0,0.1,0c0.3,0.3,0.6,0.7,0.7,1.1c0,0.1,0,0.2-0.1,0.2c0,0,0,0,0,0
			c-0.2,0-0.3-0.1-0.5-0.2c0,0-0.1,0-0.1,0c-0.1,0-0.2,0-0.2,0c-0.6,0.1-2.3,0.5-3,0.7v0.3c0,0.3,0.1,0.6,1.9,0.6s2.1-0.2,2.2-0.6
			c0-0.2,0.1-0.5,0.2-1c0-0.1,0.2-0.2,0.3-0.2s0.3,0.1,0.3,0.2l0,0c0,0.1,0,0.4,0,0.6v0.1c0,0.2,0.1,0.3,0.2,0.4
			c0.2,0.1,0.3,0.2,0.3,0.3c0,0.4-0.5,0.8-3.6,0.8c-1.3,0-2.6-0.1-2.6-1.1l0,0c0-0.4,0.1-0.8,0.1-1.2c0-0.1,0-0.3,0-0.4
			c0-0.1,0-0.1,0-0.2c-1.2,0.9-2.6,1.7-4,2.2c-0.2,0-0.4-0.3-0.4-0.5s0-0.1,0.1-0.2c3.7-1.4,5.9-4,6.1-4.5h-1v0.5
			c0,0.4-0.5,0.4-0.5,0.4c-0.2,0-0.4-0.1-0.4-0.3l0,0c0.1-0.9,0.2-1.6,0.2-2.4c0-0.8-0.1-1.6-0.2-2.3V3.3V3.2
			c0.4,0.1,0.8,0.3,1.2,0.5h4.6c0.3,0,0.3-0.1,0.4-0.3s0.2-0.2,0.3-0.2S87,3.8,87,4.1c0,0.1-0.1,0.3-0.4,0.4c-0.1,0.1-0.2,0-0.2,0.5
			v0.3c0,0.7,0,1.6,0.1,2.6c0,0.2-0.1,0.4-0.5,0.4c-0.2,0-0.4-0.1-0.4-0.3c0,0,0,0,0,0l0,0c0-0.2,0-0.3,0-0.5h-3
			c0.1,0.1,0.2,0.1,0.2,0.2S82.6,7.9,82.4,8c-0.1,0-0.2,0.1-0.3,0.2c-0.2,0.3-0.5,0.5-0.7,0.8h6.1c0.1,0,0.3,0,0.3-0.1
			c0,0,0.2-0.3,0.4-0.3s1.2,0.6,1.2,0.9c0,0.2-0.2,0.3-0.5,0.4s-0.4,0.2-0.4,0.6c-0.2,1-0.5,2-1,3c-0.5,1-1.6,1.7-2.7,1.7l0,0
			c-0.1,0-0.2-0.1-0.3-0.2c-0.2-0.3-0.9-0.4-1.7-0.5c-0.1,0-0.2-0.1-0.2-0.2s0.1-0.4,0.2-0.4l0,0c0.7,0.1,1.3,0.2,2,0.2
			c0.8,0,1.5-0.4,1.8-1.1c0.5-1,0.9-2.1,1-3.3c0-0.1-0.1-0.2-0.3-0.2L80.7,9.6z M84.9,2.5l0.1,0.5c0,0.2-0.2,0.4-0.5,0.4
			c-0.2,0-0.4-0.1-0.4-0.3c0,0,0,0,0,0l0,0c0-0.1,0-0.3,0-0.6h-2v0.5c0,0.3-0.3,0.4-0.5,0.4c-0.2,0-0.3-0.1-0.3-0.3c0,0,0,0,0-0.1
			l0,0c0-0.2,0-0.4,0-0.6c-1.2,0-2.5,0-3.7,0.2c-0.4,0.1-1-0.8-1-1s0-0.1,0.1-0.1l0,0c1.9,0.1,3.3,0.2,4.5,0.2V1.3
			c0-0.3-0.1-0.6-0.1-0.8C81,0.3,81,0.3,81,0.2s0.1-0.1,0.2-0.1c0.4,0,1.3,0.1,1.3,0.4c0,0.1-0.2,0.3-0.4,0.4C82,1,82,1.1,82,1.2
			c0,0.1,0,0.4,0,0.6h2c0-0.2,0-0.5,0-0.6c0-0.3,0-0.5,0-0.8c0-0.1-0.1-0.2-0.1-0.2c0-0.1,0.1-0.1,0.2-0.1s1.4,0.1,1.4,0.4
			c0,0.1-0.2,0.3-0.4,0.4s-0.2,0.3-0.2,0.8v0.2h1.7c0.2,0,0.4-0.1,0.5-0.2C87.5,1,87.8,0.8,88,0.8c0.7,0.2,1.3,0.8,1.5,1.5
			c0,0.2-0.1,0.3-0.4,0.3H84.9z M80.6,4.4L80.6,4.4c-0.1,0.1-0.2,0.2-0.2,0.2v0.7h5.3c0-0.2,0-0.5,0-0.7s0-0.2-0.2-0.2L80.6,4.4z
			 M80.3,6v0.9h5.3c0-0.3,0-0.6,0-0.9H80.3z"/>
		<path class="st0" d="M105,14.1c0-0.5,0-1,0-1.5h-9.2c0,0.4,0,0.9,0,1.3s-0.4,0.5-0.6,0.5s-0.4-0.1-0.4-0.3l0,0
			c0.1-1.8,0.2-3.2,0.2-4.6c0.1-1.4,0-2.9-0.2-4.3V5.1c0-0.1,0-0.2,0.1-0.2c0.5,0.1,0.9,0.4,1.3,0.6h2.4V3.9c0-0.4,0-0.4-0.1-0.6
			c0,0,0-0.1,0-0.1c-1.4,0-2.8,0.1-4.2,0.3c-0.4,0.1-1.1-0.9-1.1-1.1s0-0.1,0.1-0.1l0,0c2.1,0.2,4.2,0.3,5.4,0.3h6
			c0.2,0,0.4-0.1,0.5-0.2c0.5-0.7,0.7-0.9,0.9-0.9c0.7,0.2,1.3,0.8,1.5,1.5c0,0.2-0.1,0.3-0.4,0.3h-5.1c0,0,0,0.1,0.1,0.1
			c0,0.1-0.1,0.2-0.2,0.2c-0.1,0-0.2,0.3-0.2,2h2.8c0.2,0,0.3-0.1,0.4-0.3s0.2-0.2,0.4-0.2s1.2,0.6,1.2,0.9c0,0.1-0.1,0.3-0.5,0.5
			s-0.3,0.3-0.3,2.4c0,1.4,0.1,3,0.2,5l0,0c0,0.3-0.4,0.5-0.7,0.5S104.9,14.3,105,14.1L105,14.1z M104.3,7.4c0,0.1,0,0.8,0,0.9v0.1
			c0,0.1,0,0.3,0.1,0.3c0.1,0.1,0.2,0.2,0.2,0.4s-0.1,0.8-2,0.8c-1,0-1.5-0.1-1.5-1.3c0-0.4,0-1.3,0-2.3h-1.9
			c-0.1,2-1.3,3.7-3.2,4.3c0,0,0,0-0.1,0c-0.1,0-0.2-0.1-0.3-0.2c0,0.5,0,1,0,1.5h9.2c0-1,0-2,0-2.9c0-2.6,0-2.7-0.3-2.7h-2.9
			c0,0.8,0,1.5,0,2.1c0,0.8,0.2,0.9,0.9,0.9s0.9-0.1,1-1.9c0-0.1,0.1-0.1,0.2-0.1s0.3,0.1,0.3,0.2L104.3,7.4z M95.9,10.1
			c1.6-0.6,2.6-2.1,2.6-3.8h-2.4c-0.4,0.2-0.4,0.3-0.4,3.9L95.9,10.1z M101.1,4c0-0.2,0-0.5,0-0.7l0,0h-1.5c0.2,0,0.2,0.1,0.2,0.2
			s-0.1,0.2-0.2,0.2s-0.2,0.1-0.2,0.2c0,0.9,0,1.3,0,1.7h1.7L101.1,4z"/>
		<path class="st0" d="M112.6,8.6c-0.5,0-0.9,0.1-1.4,0.2c-0.3,0.1-0.9-0.8-0.9-1l0,0l0,0c0.7,0.1,1.5,0.2,2.2,0.2h0.5
			c0.3,0,0.3-0.1,0.5-0.3s0.2-0.2,0.3-0.2c0.3,0,1.2,0.7,1.2,1s-0.1,0.3-0.5,0.4s-0.3,0.5-0.3,3.1c0.2,1.6,3.5,1.9,4.9,1.9
			c2.2,0,4.5-0.3,6.6-0.9l0,0c0.1,0,0.2,0.1,0.2,0.3c0,0.1,0,0.2-0.1,0.2c-0.5,0.2-0.9,0.6-1.3,1c-0.2,0.4-3.7,0.4-4.3,0.4
			c-1.9,0-5.5-0.1-6.5-2.1c-0.8,0.5-2.1,1.4-2.7,1.8c-0.1,0.1-0.2,0.6-0.4,0.6s-1-1.1-1-1.1s0-0.1,0.1-0.1c1.2-0.5,2.3-1.1,3.6-1.7
			c0-0.6,0-2,0-2.8V9c0-0.2-0.1-0.4-0.3-0.4H112.6z M113.6,4.3c-0.5-0.8-1.2-1.4-2-1.9c0,0-0.1-0.1-0.1-0.1c0-0.2,0.2-0.3,0.4-0.4
			c0,0,0,0,0.1,0c2.6,1.4,2.8,2,2.8,2.4s-0.2,0.6-0.5,0.6S113.8,4.8,113.6,4.3L113.6,4.3z M118.1,6.8c-0.8,0-1.6,0.1-2.4,0.2
			c-0.3,0-1-0.7-1-1c0,0,0,0,0.1,0l0,0c1.1,0.2,2.1,0.2,3.2,0.2h1.1c0-0.6,0-1.3,0-2h-1.9c-0.1,0.2-0.9,1.7-1.2,1.7
			s-0.4-0.2-0.4-0.3c0,0,0,0,0-0.1c0.9-1.1,1.4-2.5,1.6-3.9c0-0.1,0-0.2,0.1-0.2s1.4,0.3,1.4,0.7c0,0.1-0.2,0.2-0.5,0.2
			s-0.2,0.1-0.4,0.5c-0.1,0.2-0.2,0.5-0.3,0.7h1.6c0-0.7,0-1.3,0-1.7c0-0.3-0.1-0.7-0.1-1c0-0.1,0-0.2,0-0.2c0-0.1,0-0.1,0.2-0.1
			s1.5,0.1,1.5,0.5c0,0.1-0.2,0.3-0.5,0.4c-0.1,0-0.2,0.2-0.2,0.3c0,0.5,0,1.1,0,1.8h0.6c0.4,0,0.4-0.1,0.6-0.3s0.4-0.5,0.6-0.6
			c0.1-0.1,0.2-0.1,0.3-0.1c0.6,0.2,1.1,0.8,1.2,1.4c0,0.2-0.1,0.3-0.4,0.3H120c0,0.7,0,1.4,0,2h2c0.3,0,0.3-0.1,0.5-0.3
			c0.6-0.7,0.7-0.7,0.8-0.7c0.6,0.2,1.1,0.7,1.3,1.3c0,0.2-0.1,0.3-0.5,0.3L118.1,6.8z M117.8,11.7c0,0.2,0,0.5,0,0.7
			s-0.3,0.5-0.6,0.5s-0.4-0.1-0.4-0.4v-0.1c0.1-0.9,0.1-1.8,0.1-2.8c0-0.6,0-1.1-0.1-1.7V7.9c0-0.1,0-0.1,0.1-0.1
			c0.4,0.1,0.8,0.3,1.2,0.6h2.9c0.3,0,0.4-0.2,0.5-0.4c0.1-0.1,0.2-0.1,0.2-0.1c0.3,0,1.2,0.5,1.2,0.8c0,0.1-0.1,0.3-0.5,0.5
			s-0.2,0.3-0.2,1.1c0,0.6,0,1.2,0.1,2c0,0.3-0.3,0.4-0.6,0.4s-0.4-0.1-0.4-0.3l0,0c0-0.2,0-0.4,0-0.6L117.8,11.7z M118,9
			c-0.1,0-0.2,0.2-0.2,0.3c0,0.7,0,1.2,0,1.8h3.6c0-0.7,0-1.4,0-1.9c0-0.2-0.1-0.2-0.3-0.2H118z"/>
		<path class="st0" d="M132.7,14.6c0,0.3-0.4,0.5-0.6,0.5c-0.2,0-0.4-0.1-0.4-0.3c0,0,0,0,0-0.1v-0.1c0.2-1.8,0.3-3.6,0.3-5.4V9
			c0-0.1,0-0.3,0-0.4c-1.3,1.3-2.9,2.5-4.6,3.3c-0.2,0-0.3-0.2-0.3-0.4c0-0.1,0-0.2,0.1-0.2c2.4-1.4,5.4-4.3,6-5.6
			c0-0.1,0-0.1,0.1-0.1s1.3,0.6,1.3,1c0,0.2-0.1,0.2-0.4,0.2h-0.3c-0.1,0-0.2,0.1-0.3,0.2S133,7.7,132.7,8c0.6,0.1,0.7,0.3,0.7,0.4
			s-0.1,0.2-0.3,0.3s-0.2,0.1-0.2,0.2C132.8,10,132.8,12.6,132.7,14.6z M136.8,3.7l0.1,1.2c0,0,0,0.4-0.5,0.4
			c-0.2,0-0.3-0.2-0.3-0.4c0,0,0,0,0,0l0,0c0-0.3,0-0.8,0-1.2h-2.2l0.1,1.1c0,0.1,0,0.4-0.5,0.4c-0.2,0-0.4-0.1-0.4-0.4l0,0
			c0-0.3,0-0.7,0-1.2c-1.1,0-2.2,0.1-3.3,0.2c-0.3,0.1-1-0.7-1-1c0-0.1,0-0.1,0.1-0.1l0,0c1.5,0.1,3.1,0.2,4.2,0.2
			c0-0.8,0-1.5-0.2-2.3c0-0.1-0.1-0.2-0.1-0.3c0-0.1,0.1-0.1,0.2-0.1c0.4,0,1.4,0.2,1.4,0.5s-0.2,0.3-0.4,0.4s-0.2,0.2-0.2,0.4
			s0,0.5,0,0.8s0,0.4,0,0.6h2.2c0-0.8,0-1.5-0.2-2.3c0-0.1-0.1-0.2-0.1-0.3c0-0.1,0.1-0.1,0.2-0.1s1.4,0.1,1.4,0.5
			c0,0.1-0.2,0.3-0.4,0.4s-0.2,0.1-0.2,1.2c0,0.2,0,0.4,0,0.6h1.7c0.2,0,0.4-0.1,0.5-0.2c0.5-0.7,0.7-0.9,0.9-0.9
			c0.7,0.2,1.3,0.8,1.5,1.5c0,0.2-0.1,0.3-0.4,0.3L136.8,3.7z M142,12.2c0,0.1,0,0.1,0,0.2c0,0.2,0.1,0.3,0.2,0.4
			c0.2,0.1,0.4,0.2,0.4,0.4c0,0.9-2.4,1.2-4.2,1.2c-2.6,0-3.4-0.4-3.4-1.9v-0.1c0-1,0.1-3,0.1-4.6V7.2c0-0.4,0-0.7-0.1-1.1
			c0-0.1,0-0.2-0.1-0.2c0-0.1,0.1-0.1,0.2-0.1s1.6,0.1,1.6,0.5c0,0.2-0.2,0.3-0.5,0.4S136,6.9,136,7.1c0,0.8-0.1,1.7-0.1,2.5
			c1-0.5,2-1.1,2.9-1.7c0.3-0.2,0.5-0.5,0.7-0.7c0.1-0.1,0.1-0.1,0.1-0.1s1,0.9,1,1.3c0,0.2-0.1,0.2-0.3,0.2c-0.1,0-0.2,0-0.3-0.1
			h-0.2c-0.1,0-0.2,0-0.3,0.1c-1.2,0.6-2.4,1.2-3.7,1.7v2.1v0.1c0,0.9,0.5,1,2.4,1c0.6,0,1.1,0,1.7-0.1c1.1-0.2,1.1-0.4,1.7-3.3
			c0-0.1,0.1-0.2,0.2-0.2c0.2,0,0.4,0.1,0.4,0.3l0,0L142,12.2z"/>
		<path class="st0" d="M148.6,3.7c-0.1,0.1-0.2,0.2-0.2,0.4c0,0.6,0.1,1.3,0.1,1.9c0,3.3-0.8,6.5-4.2,8.8c-0.1,0-0.1,0-0.2,0
			c-0.2,0-0.4-0.2-0.4-0.4c0-0.1,0-0.2,0.1-0.2c3-2.1,3.8-5,3.8-8c0-1.2-0.1-2.4-0.3-3.7c0,0,0-0.1,0-0.1c0,0,0-0.1,0.1-0.1
			c0,0,0,0,0,0c0.5,0.1,1,0.3,1.5,0.6h3.2c0-0.2,0-0.5,0-0.9c0-0.7,0-1.3-0.2-2c0,0,0-0.1,0-0.1s0-0.1,0.1-0.1s1.7,0.1,1.7,0.5
			c0,0.1-0.2,0.3-0.5,0.5c-0.1,0.1-0.2,0.1-0.2,0.5s0,1.2,0,1.7h3c0.2,0,0.4-0.1,0.5-0.2c0.4-0.6,0.6-0.8,0.9-0.8
			c0.6,0.2,1.2,0.7,1.4,1.4c0,0.2-0.1,0.3-0.5,0.3L148.6,3.7z M155.5,13.6h-5.2c0,0.3,0,0.7,0,1.1c0,0.3-0.3,0.5-0.6,0.5
			s-0.4-0.1-0.4-0.4l0,0c0.1-1,0.1-1.9,0.1-2.9c0-0.9,0-1.9-0.2-2.8c0,0,0-0.1,0-0.1c0,0,0-0.1,0-0.1c0,0,0,0,0.1,0c0,0,0.1,0,0.1,0
			c0.4,0.2,0.8,0.4,1.2,0.7h1.6c0-0.5,0-1.1,0-1.8c0.1-1.1,0-2.3-0.2-3.4c0-0.1-0.1-0.2-0.1-0.3c0-0.1,0-0.1,0.2-0.1
			c0.4,0,1.5,0.2,1.5,0.5c0,0.1-0.2,0.3-0.4,0.4s-0.2,0.2-0.2,1.7h2.5c0.2,0,0.3-0.2,0.4-0.3c0.6-0.7,0.7-0.7,0.8-0.7
			c0.4,0,1.4,0.9,1.4,1.4c0,0.2-0.1,0.3-0.5,0.3h-4.6c0,0.8,0,1.6,0,2.3h1.9c0.3,0,0.4-0.2,0.6-0.4s0.1-0.1,0.2-0.1
			c0.3,0,1.2,0.7,1.2,1s-0.1,0.3-0.4,0.4s-0.3,0.2-0.3,1.4c0,0.9,0.1,1.5,0.1,2.6c0,0.4-0.4,0.5-0.6,0.5c-0.2,0-0.4-0.1-0.4-0.3
			c0,0,0-0.1,0-0.1l0,0L155.5,13.6z M150.5,10.4C150.5,10.4,150.4,10.5,150.5,10.4c-0.2,0.1-0.2,0.2-0.2,0.4c0,0.9,0,1.5,0,2.1h5.2
			v-2.2c0-0.1,0-0.2-0.3-0.2H150.5z"/>
		<rect y="4" class="st0" width="10" height="10"/>
	</g>
</g>
</svg>
