<svg xmlns="http://www.w3.org/2000/svg" viewBox="0 0 640 50"><defs><style>.cls-1{fill:#006f49;}.cls-2{fill:#fff;}</style></defs><g id="レイヤー_2" data-name="レイヤー 2"><g id="レイヤー_1-2" data-name="レイヤー 1"><rect class="cls-1" width="640" height="50" rx="25"/><path class="cls-2" d="M79.86,36.25c-6.9,0-11.16-1.41-11.16-5.46,0-1.8,1.08-4,4.62-6.93l1.89,1.56c-.6.48-3.9,3.09-3.9,5.22a2,2,0,0,0,1,1.86c2.13,1.23,6.27,1.26,7.23,1.26a39.22,39.22,0,0,0,11.19-1.38c.27,1.26.45,2,.66,2.7A59.4,59.4,0,0,1,79.86,36.25Zm-.69-15.09c-.21-.24-1.14-1.11-1.71-1.68,3.24-2.64,3.84-3.09,5-3.93a68.3,68.3,0,0,1-7.29.33c-2.4,0-3.33-.06-4.5-.12L70.44,13a42.91,42.91,0,0,0,7.11.45,56.36,56.36,0,0,0,8.58-.6l1.41,2.31A43.41,43.41,0,0,0,79.17,21.16Zm11.61-4.53a22.73,22.73,0,0,0-2.91-3.24l1.35-1.2a24.24,24.24,0,0,1,2.88,3.15A5.4,5.4,0,0,0,90.78,16.63Zm2.1-2.25a16.68,16.68,0,0,0-2.79-3.27L91.38,10a25.51,25.51,0,0,1,2.94,3.12A5.29,5.29,0,0,0,92.88,14.38Z"/><path class="cls-2" d="M101.46,23.77a40.47,40.47,0,0,0-5.67-3.12L97,18.4a35.71,35.71,0,0,1,5.7,3.15A17.49,17.49,0,0,0,101.46,23.77ZM99,36.64a2.81,2.81,0,0,1,.24.72.33.33,0,0,1-.36.3c-.18,0-.36-.15-.6-.3l-2-1.38a50.25,50.25,0,0,0,5.94-10,7.57,7.57,0,0,0,1.8,1.74A62.87,62.87,0,0,1,99,36.64Zm4.53-21.12a34.24,34.24,0,0,0-4.89-3.33l1.32-2a36.37,36.37,0,0,1,4.92,3.21A9.84,9.84,0,0,0,103.53,15.52ZM104,36.88V34.57h8.7V26.89H106V24.58h6.69V17.74h-7.92V15.52h9.15a23.34,23.34,0,0,0-4-3.93L112,10a30.54,30.54,0,0,1,4.44,4.29,11.79,11.79,0,0,0-1.71,1.23h8.67v2.22H115.2v6.84h6.51v2.31H115.2v7.68h8.61v2.31Z"/><path class="cls-2" d="M127.9,17.05V14.74h12.44V10.3l2.61.15c.15,0,.66.06.66.39s-.2.3-.68.48v3.42h12.35v2.31h-4.95c-2.43,7.92-5.42,11.16-6.75,12.54a30,30,0,0,0,12.18,5.85,7.07,7.07,0,0,0-1.71,2.43,35.29,35.29,0,0,1-12.23-6.54,34.7,34.7,0,0,1-12.57,6.84A6.61,6.61,0,0,0,127.42,36,31.64,31.64,0,0,0,140,29.62a35.1,35.1,0,0,1-7.37-12.57Zm7.46,0a32.61,32.61,0,0,0,6.42,10.83,28.71,28.71,0,0,0,5.79-10.83Z"/><path class="cls-2" d="M163.6,36.34l-2.28.45a40,40,0,0,1-1.44-11.22,63.38,63.38,0,0,1,1.65-14.07l2.73,1c.27.09.48.15.48.45s-.27.42-.81.45a49,49,0,0,0-1.62,12.51c0,2.22.18,3.75.27,4.86.36-.75,1.71-4.11,2-4.77a10.48,10.48,0,0,0,1.47,1.74C165,29.65,163.51,33,163.6,36.34ZM184,34.15A16.9,16.9,0,0,0,179.08,31c.3,4.92-4.59,5.31-5.49,5.31-2.94,0-5.25-2-5.25-4.38,0-2.76,2.73-4.29,5.64-4.29a11.55,11.55,0,0,1,2.28.24c-.18-1.95-.21-2.55-.33-7.95a38,38,0,0,1-5.19.33c-1.05,0-1.74-.06-2.46-.09V17.59a30.77,30.77,0,0,0,3.42.18c.75,0,2,0,4.17-.18,0-1.53,0-4,.06-6.15l3,.45c.21,0,.48.12.48.36s-.48.45-.69.48c-.18,1.44-.24,3.18-.3,4.53a34.59,34.59,0,0,0,5.25-1.2v2.52c-.72.18-2.13.54-5.28,1.05a74.53,74.53,0,0,0,.42,8.76,21.56,21.56,0,0,1,6.48,3.54A21.69,21.69,0,0,0,184,34.15Zm-7.5-4a6.71,6.71,0,0,0-2.55-.45c-1.95,0-3.39.72-3.39,2.25s1.62,2.22,3.15,2.22a2.65,2.65,0,0,0,2.94-2.82A6.84,6.84,0,0,0,176.53,30.19Z"/><path class="cls-2" d="M212.56,21V16.81h-9.48v6.12h-2.46V16.81h-9.57V21h-2.43V15h12V13.12H190.24V11.29h23.22v1.83H203.08V15H215v6Zm-2.22,16.44h-5.55c-2.49,0-4.17-.18-4.17-3.48V32.89h-7v2.16h-2.31V23.8h21v9.09H203v1c0,1.41.54,1.56,2.28,1.56h5c2,0,3,0,3.54-3.63A6.75,6.75,0,0,0,216,33C215,37.48,213.19,37.48,210.34,37.48ZM193.06,19.63v-1.5h5.58v1.5Zm0,2.73V20.89h5.58v1.47Zm7.56,3.27h-7v1.8h7Zm0,3.54h-7V31h7ZM210,25.63h-7v1.8h7Zm0,3.54h-7V31h7Zm-4.95-9.54v-1.5h5.49v1.5Zm0,2.73V20.89h5.49v1.47Z"/><path class="cls-2" d="M230.76,15.73v2H219.09v-2Zm-1.08,12.09v9.69h-2.22V36h-5v1.89h-2.37V27.82Zm-.36-8v2h-8.88v-2Zm0,4v2h-8.88v-2Zm0-12v2h-8.82v-2Zm-6.84,18.06v4.11h5V29.83ZM239.79,19h7.05V21.1h-7.05v4.83h5.34v12H242.7v-2h-8.19v2h-2.43v-12h5.31V21.1h-7.08V19h7.08V14.53a44,44,0,0,1-5.94.45,5.56,5.56,0,0,0-.84-2.19,33.25,33.25,0,0,0,13.56-2.34l1.65,1.89a.65.65,0,0,1,.18.42.27.27,0,0,1-.3.27,1.22,1.22,0,0,1-.69-.33,37.89,37.89,0,0,1-5.22,1.41Zm2.91,14.79V28h-8.19v5.73Z"/><path class="cls-2" d="M272.66,35.32a19.93,19.93,0,0,0-8-4.32c0,.33,0,.78,0,1.11,0,1.74-.33,4.77-5.67,4.77-4.14,0-6.81-2-6.81-4.35,0-3.15,3.93-4.38,7.05-4.38a24.11,24.11,0,0,1,2.67.21c0-1-.06-1.26-.09-3.63-1.47.06-2.07.09-2.88.09-1.65,0-6.12,0-6.12-2.34,0-1.05.69-1.95,2.13-3.21l2,.72c-.93.75-1.44,1.14-1.44,1.68,0,.78,2.46.81,3.69.81s2.22,0,2.52,0c0-1.5-.06-3.72-.06-5.22-5.31.21-8.49.57-10.23.78V15.4c1.62-.12,8.76-.42,10.23-.51,0-2.19,0-2.94-.15-4.17l3.15.54c.24,0,.48.18.48.39s-.42.42-.66.45c-.06.66-.15,1.71-.15,2.73,1.47,0,7.95-.15,9.27-.09l0,2.52c-1.44-.09-3.6-.24-9.27-.12,0,1,0,1.44,0,5.16A42.81,42.81,0,0,0,272.84,21v2.61a57.54,57.54,0,0,1-8.49,1c0,.81.09,3.51.12,4.2a26,26,0,0,1,9.93,4.35A24.26,24.26,0,0,0,272.66,35.32Zm-10.74-4.86a8.2,8.2,0,0,0-2.52-.3c-2.76,0-4.68.81-4.68,2.34,0,2.07,3.39,2.19,3.87,2.19,3.39,0,3.39-2,3.39-3C262,31.18,262,30.82,261.92,30.46Z"/><path class="cls-2" d="M289.25,18.88a66.51,66.51,0,0,1-8.07,18.45c-.72-.45-1.89-1-2.55-1.32,3.18-4,6.51-11.4,7.86-16.77a63.17,63.17,0,0,1-6.63.33l-.21-2.73c.69,0,1.41.09,2.49.09,2,0,3.81-.12,4.95-.21a39.5,39.5,0,0,0,.9-6.15l2.91.75c.45.12.6.27.6.42,0,.33-.45.42-.6.42-.18.66-.84,3.63-1,4.23a25,25,0,0,0,6.51-1.65l.48,2.55A48.18,48.18,0,0,1,289.25,18.88Zm9,17.82c-1.89,0-8.43,0-8.43-4.5A7.07,7.07,0,0,1,291.44,28l2.22,1a5.12,5.12,0,0,0-1.47,3c0,1.92,3.06,2.28,6,2.28a22.19,22.19,0,0,0,6.39-1c0,.36-.06.72-.06,1.26a6.16,6.16,0,0,0,.15,1.53A36.08,36.08,0,0,1,298.22,36.7Zm5.49-12.63a24.26,24.26,0,0,0-4.47-.39,49.5,49.5,0,0,0-6.6.51V21.76a45.82,45.82,0,0,1,6.93-.51,27.25,27.25,0,0,1,4.41.3A14,14,0,0,0,303.71,24.07Z"/><path class="cls-2" d="M313.24,36.34l-2.28.45a40,40,0,0,1-1.44-11.22,63.38,63.38,0,0,1,1.65-14.07l2.73,1c.27.09.48.15.48.45s-.27.42-.81.45A49,49,0,0,0,312,25.87c0,2.22.18,3.75.27,4.86.36-.75,1.71-4.11,2-4.77a10.48,10.48,0,0,0,1.47,1.74C314.68,29.65,313.15,33,313.24,36.34Zm20.43-2.19A16.9,16.9,0,0,0,328.72,31c.3,4.92-4.59,5.31-5.49,5.31-2.94,0-5.25-2-5.25-4.38,0-2.76,2.73-4.29,5.64-4.29a11.55,11.55,0,0,1,2.28.24c-.18-1.95-.21-2.55-.33-7.95a38,38,0,0,1-5.19.33c-1.05,0-1.74-.06-2.46-.09V17.59a30.77,30.77,0,0,0,3.42.18c.75,0,2,0,4.17-.18,0-1.53,0-4,.06-6.15l3,.45c.21,0,.48.12.48.36s-.48.45-.69.48c-.18,1.44-.24,3.18-.3,4.53a34.59,34.59,0,0,0,5.25-1.2v2.52c-.72.18-2.13.54-5.28,1.05a74.53,74.53,0,0,0,.42,8.76A21.56,21.56,0,0,1,335,31.93,21.69,21.69,0,0,0,333.67,34.15Zm-7.5-4a6.71,6.71,0,0,0-2.55-.45c-1.95,0-3.39.72-3.39,2.25s1.62,2.22,3.15,2.22a2.65,2.65,0,0,0,2.94-2.82A6.84,6.84,0,0,0,326.17,30.19Z"/><path class="cls-2" d="M354.41,12v2.58H342.47v8h10.26v2.58H342.47V35.62h-3V12Z"/><path class="cls-2" d="M367.67,12l8.73,23.64h-3.09l-1.92-5.34H360.32l-1.89,5.34h-3.12L364,12Zm-1.8,2.79-4.68,13.11h9.36Z"/><path class="cls-2" d="M384,12l6.42,9.18L396.78,12h3.69L392.22,23.5l8.7,12.12h-3.69l-6.84-9.78-6.87,9.78h-3.69l8.7-12.12L380.28,12Z"/><path class="cls-2" d="M421.51,17.5c-1.59,1.08-6.36,4.68-6.36,9.69,0,3.84,2.91,6.93,9.3,7.59a15,15,0,0,0-1.14,2.82c-5.49-1.11-10.8-4.11-10.8-10.38,0-3.93,2.31-8.13,8.19-11.64-.75,0-13.77,1.44-16.2,2l-.42-3.24c.57,0,1,.06,1.53.06,1.74,0,15.54-.87,23.64-2.64l.6,3A13.65,13.65,0,0,0,421.51,17.5Zm4.56,7.26a24.34,24.34,0,0,0-2.7-3.36l1.44-1.11a25.71,25.71,0,0,1,2.73,3.27A6.54,6.54,0,0,0,426.07,24.76Zm3-2.19a18.86,18.86,0,0,0-2.7-3.42l1.44-1a24,24,0,0,1,2.79,3.27A5.22,5.22,0,0,0,429,22.57Z"/><path class="cls-2" d="M449.36,22.57v2.34H453V27h-3.66v2.58H454v2h-4.59v3.45c0,2.28-1.23,3-4.95,3a5.88,5.88,0,0,0-.9-2.58,8.66,8.66,0,0,0,2.1.18c.75,0,1.5,0,1.5-1v-3H442.4v-2h4.71V27h-4V24.91h4V22.57h-4.05A29.58,29.58,0,0,1,436,36a8.7,8.7,0,0,0-2.13-1.41A23.92,23.92,0,0,0,441,21.07H434.6V18.82h7.95l1,.93c-.06.42-.09.54-.12.78h3.69V16.48l1.59.18a16.47,16.47,0,0,0,3.75-2.73H437V11.74h19L457.22,13a50.34,50.34,0,0,1-7.86,5.64v1.89h3a28.88,28.88,0,0,1-.42-2.94l2.28-.36a25.31,25.31,0,0,0,.6,4.77,27.41,27.41,0,0,0,4.26-4.41l2.07,1.47c.18.12.3.24.3.42s-.24.36-.51.36a2,2,0,0,1-.48-.12,38.16,38.16,0,0,1-4.95,4.59,24.86,24.86,0,0,0,6.9,9.48,6,6,0,0,0-1.8,1.86,25.63,25.63,0,0,1-7.83-13.08Z"/><path class="cls-2" d="M471.8,29.77l-2.31.27a28.41,28.41,0,0,1-1.8-10,38.09,38.09,0,0,1,.93-7.8c.12-.66.15-.78.21-1.17l2.46.6c.42.09.75.18.75.51s-.24.36-.63.48a27.79,27.79,0,0,0-1.2,8,18.77,18.77,0,0,0,.45,4.44,24.89,24.89,0,0,1,2.52-5.16A7.86,7.86,0,0,0,475,21.31,18.45,18.45,0,0,0,471.8,29.77Zm13.83-18.06c0,.87.3,4.71.33,5.49.06,1.08.15,2.52.15,4.14,0,4.77-.63,12.09-9.81,16.71a9,9,0,0,0-2-2c8.82-3.63,9.12-11.49,9.12-14.79a44.53,44.53,0,0,0-1.05-10.59l3.06.15c.36,0,.78.06.78.39S485.84,11.68,485.63,11.71Z"/><path class="cls-2" d="M514.48,35.32a19.93,19.93,0,0,0-8-4.32c0,.33,0,.78,0,1.11,0,1.74-.33,4.77-5.67,4.77-4.14,0-6.81-2-6.81-4.35,0-3.15,3.93-4.38,7.05-4.38a24.11,24.11,0,0,1,2.67.21c0-1-.06-1.26-.09-3.63-1.47.06-2.07.09-2.88.09-1.65,0-6.12,0-6.12-2.34,0-1.05.69-1.95,2.13-3.21l2,.72c-.93.75-1.44,1.14-1.44,1.68,0,.78,2.46.81,3.69.81s2.22,0,2.52,0c0-1.5-.06-3.72-.06-5.22-5.31.21-8.49.57-10.23.78V15.4c1.62-.12,8.76-.42,10.23-.51,0-2.19,0-2.94-.15-4.17l3.15.54c.24,0,.48.18.48.39s-.42.42-.66.45c-.06.66-.15,1.71-.15,2.73,1.47,0,7.95-.15,9.27-.09l0,2.52c-1.44-.09-3.6-.24-9.27-.12,0,1,0,1.44,0,5.16A42.81,42.81,0,0,0,514.66,21v2.61a57.54,57.54,0,0,1-8.49,1c0,.81.09,3.51.12,4.2a26,26,0,0,1,9.93,4.35A24.26,24.26,0,0,0,514.48,35.32Zm-10.74-4.86a8.2,8.2,0,0,0-2.52-.3c-2.76,0-4.68.81-4.68,2.34,0,2.07,3.39,2.19,3.87,2.19,3.39,0,3.39-2,3.39-3C503.8,31.18,503.77,30.82,503.74,30.46Z"/><path class="cls-2" d="M541.91,16.93c-1.77,0-3.51,0-5.28.09,0,2.07-.06,3.87,0,5.07A10.6,10.6,0,0,1,537.83,27a12.84,12.84,0,0,1-2.7,7.62,14.45,14.45,0,0,1-5,3.81c-.48-.48-1.62-1.38-2.25-1.86,3.42-1.35,5.85-3.06,6.93-6.72a4.62,4.62,0,0,1-3.54,1.68c-2.64,0-4.2-2.28-4.2-5.55,0-3.42,2-5.76,4.77-5.76a4.11,4.11,0,0,1,2.22.6c0-.57-.06-2.79-.06-3.66-3.42.15-9.51.66-12.84,1.2l-.24-2.82c2.07,0,11.16-.54,13-.63a34.12,34.12,0,0,0-.42-4.35l3,.3c.42,0,.72.06.72.39s-.36.36-.54.45a27.85,27.85,0,0,0-.12,3.09c8.76-.39,9.75-.42,10.53-.48a21.69,21.69,0,0,0,.06,2.73C546.08,17,544.28,16.93,541.91,16.93ZM532,22.33c-2,0-2.67,2-2.67,3.69,0,.69,0,3.39,2.46,3.39,1.74,0,3-1.65,3-3.84C534.8,24.52,534.26,22.33,532,22.33Z"/><path class="cls-2" d="M550.27,37.09a3.86,3.86,0,1,1,3.87-3.84A3.85,3.85,0,0,1,550.27,37.09Zm0-6.27a2.42,2.42,0,1,0,2.43,2.43A2.42,2.42,0,0,0,550.27,30.82Z"/></g></g></svg>