<?xml version="1.0" encoding="utf-8"?>
<!-- Generator: Adobe Illustrator 24.1.2, SVG Export Plug-In . SVG Version: 6.00 Build 0)  -->
<svg version="1.1" id="レイヤー_1" xmlns="http://www.w3.org/2000/svg" xmlns:xlink="http://www.w3.org/1999/xlink" x="0px"
	 y="0px" viewBox="0 0 25.5 19" style="enable-background:new 0 0 25.5 19;" xml:space="preserve">
<style type="text/css">
	.st0{fill:#231815;}
</style>
<g id="レイヤー_2_1_">
	<g id="文字">
		<path class="st0" d="M3.2,19c-0.8,0.1-1.5-0.4-1.6-1.2c0-0.1,0-0.3,0-0.4c0-0.5,0-0.5,0.5-1.6c0-0.1,0.2-0.8,0.3-1
			c0.3-1.7,1.3-3.2,2.7-4.3c1.2-1,2.1-2.3,2.5-3.9c0.2-0.7,0.4-1.5,0.4-2.3c0-0.2-0.1-0.8-0.3-0.8c-0.1,0-1,0.3-1,1
			c0,0.2,0,0.4,0.1,0.6c0.1,0.3,0.2,0.7,0.2,1c0,2.1-4.2,2.8-5.5,2.8S0,8.2,0,7.1c-0.1-1.9,0.8-3.7,2.5-4.7C5.6,0.6,10.3,0,12.7,0
			c2.3,0,7,0.6,10.3,2.5c1.6,1,2.6,2.7,2.5,4.6c0,1.1-0.2,1.9-1.5,1.9s-5.5-0.7-5.5-2.8c0-0.3,0.3-1.3,0.3-1.6c0-0.7-0.8-1-1-1
			s-0.3,0.6-0.3,0.8c0.1,2,0.8,3.9,2,5.4c0.3,0.3,1.9,1.7,2.2,2c0.8,1.2,1.4,2.5,1.6,3.9c0,0.1,0.3,0.8,0.4,0.9
			c0.1,0.3,0.1,0.5,0.1,0.8c0.1,0.8-0.4,1.5-1.2,1.6c-0.1,0-0.2,0-0.4,0H3.2z M7.8,12c0,2.7,2.2,4.9,4.9,4.9s4.9-2.2,4.9-4.9
			s-2.2-4.9-4.9-4.9c0,0,0,0,0,0C10,7.1,7.8,9.3,7.8,12z M11.8,3.6c-0.1,0-0.8-0.1-0.9-0.1c-0.5,0-0.6,0.5-0.6,0.8
			c0,0.7,0.2,0.8,2.4,0.8s2.4-0.2,2.4-0.9c0-0.3-0.1-0.7-0.6-0.7L14,3.5c-0.4,0.1-0.8,0.1-1.2,0.1C12.5,3.6,12.1,3.6,11.8,3.6
			L11.8,3.6z"/>
	</g>
</g>
</svg>
