<svg xmlns="http://www.w3.org/2000/svg" xmlns:xlink="http://www.w3.org/1999/xlink" viewBox="0 0 320 35"><defs><style>.cls-1{fill:url(#名称未設定グラデーション_12);}</style><linearGradient id="名称未設定グラデーション_12" y1="1810.66" x2="320" y2="1810.66" gradientTransform="translate(0 -1793.16)" gradientUnits="userSpaceOnUse"><stop offset="0" stop-color="#fff" stop-opacity="0"/><stop offset="1" stop-color="#c9a063"/></linearGradient></defs><g id="レイヤー_2" data-name="レイヤー 2"><g id="文字"><rect class="cls-1" width="320" height="35" transform="translate(320 35) rotate(180)"/></g><g id="レイヤー_1-2" data-name="レイヤー 1"><path d="M27,16.23v1.71H10.36V16.23Z"/><path d="M33.77,22.3H32.66V17.92c-.27,0-.83.11-1.08.13,0,4.7-1.08,6.66-1.55,7.49L29,24.35a12,12,0,0,0,1.35-6.18l-1.08.09-.13-1.36c.83,0,.92,0,1.21-.08V10.76h1.83a14,14,0,0,0,.55-1.82l1.49.18c-.22.63-.36,1-.63,1.64h2.7v5.4c.14,0,.2,0,.67-.11v1.24c-.35.07-.51.11-.67.13v6.71c0,1.19-.56,1.5-1.51,1.5H33.07l-.29-1.51h1.68c.41,0,.5-.07.5-.45V17.62c-.18,0-1,.14-1.19.16Zm-2.19-5.57c.82-.07,1.42-.14,3.38-.38V12H31.58Zm1.56-.86a12.43,12.43,0,0,0-1-2.79l1.12-.38a14.53,14.53,0,0,1,1.06,2.75ZM45.3,25.63a13.36,13.36,0,0,1-4-2.34,13.81,13.81,0,0,1-3.8,2.34l-.81-1.28a13.33,13.33,0,0,0,3.58-2.11,12.43,12.43,0,0,1-2.16-3.94l1.07-.4h-1.9V16.55h7.58v1.32a12,12,0,0,1-2.53,4.41A11.54,11.54,0,0,0,46,24.22ZM43.39,9.5v3.92c0,.2,0,.43.43.43h.45a.51.51,0,0,0,.43-.16A8.16,8.16,0,0,0,45,11.93l1.19.36c-.09,2.21-.45,2.89-1.67,2.89H43.33c-.52,0-1.27-.09-1.27-1.38v-3H39.48c-.2,3.22-.9,4.27-1.78,5.15l-.87-1.13c.54-.67,1.34-1.62,1.34-4.65V9.5Zm-4,8.4a10.7,10.7,0,0,0,1.91,3.37,9.05,9.05,0,0,0,1.92-3.37Z"/><path d="M60.44,20.93h4.32v1.29H60.44v3.41H59V22.22H54.12c-.83,2.31-3.35,3.16-5.37,3.41l-.48-1.33c1.29-.17,3.42-.51,4.32-2.08H48.12V20.93H53a4.55,4.55,0,0,0,.11-1.19h1.36a5.29,5.29,0,0,1-.07,1.19H59V19.52a1.94,1.94,0,0,1-1-.23,1.63,1.63,0,0,1-.56-1.19V13.92H53.85a5,5,0,0,1-.69.89h3.32V15.9c-1.48,2.49-4.68,4-7.89,4.54l-.52-1.29a14.89,14.89,0,0,0,3.85-1,12.15,12.15,0,0,0-1.35-1.08l1.14-.73a18.05,18.05,0,0,1,1.45,1.18A6,6,0,0,0,55,15.9H51.89a11.94,11.94,0,0,1-3.26,1.7L48,16.41a8.86,8.86,0,0,0,4.31-2.49h-4V12.75H64.65v1.17H58.84v1.86a17.18,17.18,0,0,0,4.68-1.44l.63,1.17A20,20,0,0,1,58.84,17v.77c0,.43.1.6.57.6h3.44c.56,0,.65-.22.7-1.88l1.32.47c-.18,1.73-.25,2.59-1.51,2.59H60.44ZM52.64,10V9H54.1V10h4.75V9h1.46V10h4.45v1.31H60.31v1H58.85v-1H54.1v1H52.64v-1H48.12V10Z"/><path d="M74.44,23.38c2.82-.26,4.32-.71,5.33-1.71a6.5,6.5,0,0,0,1.56-4.54c0-2.11-1-5.33-5.47-5.46,0,3.62-1.39,11.78-5.37,11.78-2.1,0-3.36-2.52-3.36-5.17,0-4.46,3.13-8.06,8.48-8.06,5,0,7.49,3.06,7.49,7,0,6.84-5.77,7.47-8.14,7.65ZM71.25,12.93a6.87,6.87,0,0,0-2.58,5.5c0,1.35.45,3.4,1.86,3.4,1,0,1.55-1,1.91-1.64a21.76,21.76,0,0,0,1.82-8.43A6.54,6.54,0,0,0,71.25,12.93Z"/><path d="M88.1,17a11.66,11.66,0,0,0-2.83-1.86L86.05,14A11.36,11.36,0,0,1,89,15.78Zm-2.77,7.35a23,23,0,0,0,3.22-5.91l1.2.88a21.38,21.38,0,0,1-3.36,6.25Zm3.67-12a11.23,11.23,0,0,0-2.9-1.94l.83-1.14a10.18,10.18,0,0,1,2.95,1.82ZM88.91,24.6c2.45-1.82,2.81-3.64,2.86-7.27h1.41c-.08,4.26-.69,6.37-3.17,8.35Zm10-12.24a21.64,21.64,0,0,1,3.35,3.94l-1.23.85a14,14,0,0,0-1-1.48c-2.36.29-6.81.52-9.65.6l-.11-1.39,2,0a15.52,15.52,0,0,0,1.51-3.06H90.33V10.43h5.06V9h1.5v1.46h5.18v1.35H95.41a32.45,32.45,0,0,1-1.51,3c2.55-.07,3.74-.11,5.27-.25a13.86,13.86,0,0,0-1.31-1.43ZM96.4,25.2H95V17.42H96.4Zm3.24-1.5c0,.11,0,.42.34.42h.47c.36,0,.38-.22.41-.62.08-.66.08-1.11.11-1.94l1.33.39a18.58,18.58,0,0,1-.28,2.87,1,1,0,0,1-1,.72H99.33a1,1,0,0,1-1.06-1V17.26h1.37Z"/><path d="M109.63,9.53c-.11,2-.13,2.45-.16,4.18.14-.15,3.08-3.08,5.69-3.08,3.11,0,3,3.06,2.93,4.12l-.16,3.66c0,.56-.07,1.46-.07,2,0,1.17.13,1.74.81,2a8,8,0,0,0,1.93.27l-.4,1.51c-2.57-.21-4-.39-4-4,0-.41,0-1.33.05-1.8l.18-3.66c.06-1.11.09-2.61-1.6-2.61-2.36,0-5.31,3.41-5.44,3.57,0,2.41-.05,3.37-.05,5.6,0,2,0,2.83,0,3.62h-1.62c0-1.7.06-2.18.09-6.41a16.32,16.32,0,0,1-2.68,3.87l-1-1.48a13.32,13.32,0,0,0,3.74-5.27V13.89l-3.11,0V12.39h3.13c0-.3,0-2.77,0-2.86Z"/></g></g></svg>