<svg xmlns="http://www.w3.org/2000/svg" xmlns:xlink="http://www.w3.org/1999/xlink" viewBox="0 0 320 35"><defs><style>.cls-1{fill:url(#名称未設定グラデーション_12);}</style><linearGradient id="名称未設定グラデーション_12" y1="-1295.75" x2="320" y2="-1295.75" gradientTransform="translate(0 1313.25)" gradientUnits="userSpaceOnUse"><stop offset="0" stop-color="#fff" stop-opacity="0"/><stop offset="1" stop-color="#c9a063"/></linearGradient></defs><g id="レイヤー_2" data-name="レイヤー 2"><g id="文字"><rect class="cls-1" width="320" height="35" transform="translate(320 35) rotate(180)"/></g><g id="レイヤー_1-2" data-name="レイヤー 1"><path d="M26.52,16.35a19.53,19.53,0,0,1-3.69,2.7A14.19,14.19,0,0,0,27.15,24l-1.1,1.25a18.21,18.21,0,0,1-6-10.39h-.6A6.53,6.53,0,0,1,18.31,16a8.4,8.4,0,0,1,2.59,6.59c0,1-.12,3.53-2.29,3.53H16.09l-.28-1.48,2.35,0c.51,0,1.35,0,1.35-2.16a12,12,0,0,0-.12-1.42A19.81,19.81,0,0,1,11,25.15l-.59-1.38a18.82,18.82,0,0,0,8.76-4,6.73,6.73,0,0,0-.46-1.22A17,17,0,0,1,11.57,22l-.63-1.33a16.75,16.75,0,0,0,7.15-3,9.49,9.49,0,0,0-.83-.9A16.08,16.08,0,0,1,11.47,19l-.6-1.35a13.81,13.81,0,0,0,6.9-2.81H13V13.65H24.59v1.19H21.28a15.56,15.56,0,0,0,1,3,15.72,15.72,0,0,0,3.1-2.43ZM18.07,11V9.51h1.52V11h7.07v3.74H25.24V12.26H12.44v2.45H11V11Z"/><path d="M33.33,9.49v2.38H36v1.4H32.27v2.34h3.22a55.06,55.06,0,0,1-.41,9.15c-.16.65-.49,1.35-2,1.35H31.71l-.23-1.46,1.33,0c.4,0,.7-.06.85-.33.34-.7.41-4.05.43-7.34H32.27v.41c0,5.67-1.59,7.82-2.2,8.64L29,24.85c.61-.9,1.85-2.78,1.85-7.44V13.27h-1.6v-1.4h2.61V9.49Zm2,5.28a10.54,10.54,0,0,0,2.74-5.28l1.48.22a12.22,12.22,0,0,1-.6,2h7v1.4H38.32a10.33,10.33,0,0,1-1.8,2.58Zm10.14.5v1.38H41.81a17.53,17.53,0,0,1-.16,2.67h4.23v1.39H42.21A7.11,7.11,0,0,0,46,24.85l-.9,1.33a9.59,9.59,0,0,1-4-4.57,7.71,7.71,0,0,1-4.9,4.5l-.65-1.32A6.27,6.27,0,0,0,40,20.71H36.21V19.32h4a20.11,20.11,0,0,0,.14-2.67H39a8.15,8.15,0,0,1-1.51,2.24L36.39,18a9.73,9.73,0,0,0,2.27-4.25l1.35.31a10.34,10.34,0,0,1-.36,1.19Z"/><path d="M60.41,21.44h4.32v1.3H60.41v3.4H59v-3.4H54.09c-.83,2.31-3.35,3.15-5.37,3.4l-.48-1.33c1.29-.16,3.42-.5,4.32-2.07H48.09v-1.3H53a4.51,4.51,0,0,0,.11-1.18h1.37a5.21,5.21,0,0,1-.08,1.18H59V20a1.94,1.94,0,0,1-1-.23,1.63,1.63,0,0,1-.56-1.19V14.44H53.82a5,5,0,0,1-.68.88h3.31v1.1c-1.48,2.49-4.68,4-7.89,4.54L48,19.66a14.11,14.11,0,0,0,3.85-1,12.15,12.15,0,0,0-1.35-1.08l1.14-.72C52.52,17.48,53,18,53.14,18A5.91,5.91,0,0,0,55,16.42H51.86a11.69,11.69,0,0,1-3.26,1.69L48,16.93a8.87,8.87,0,0,0,4.3-2.49h-4V13.27H64.62v1.17H58.81V16.3a17,17,0,0,0,4.68-1.45L64.12,16a19.5,19.5,0,0,1-5.31,1.46v.78c0,.43.11.59.57.59h3.44c.56,0,.65-.21.7-1.87l1.32.47c-.18,1.73-.25,2.59-1.51,2.59H60.41Zm-7.8-10.89V9.49h1.46v1.06h4.76V9.49h1.45v1.06h4.45v1.32H60.28v1H58.83v-1H54.07v1H52.61v-1H48.09V10.55Z"/><path d="M74.41,23.89c2.82-.25,4.32-.7,5.33-1.71a6.47,6.47,0,0,0,1.56-4.53c0-2.11-1-5.33-5.47-5.46,0,3.62-1.39,11.78-5.37,11.78-2.1,0-3.36-2.53-3.36-5.17,0-4.47,3.13-8.07,8.48-8.07,5,0,7.49,3.06,7.49,7,0,6.85-5.76,7.48-8.14,7.66ZM71.22,13.45a6.87,6.87,0,0,0-2.57,5.49c0,1.35.45,3.41,1.85,3.41,1,0,1.55-1,1.91-1.64a21.87,21.87,0,0,0,1.82-8.43A6.54,6.54,0,0,0,71.22,13.45Z"/><path d="M88.07,17.56a11.66,11.66,0,0,0-2.83-1.86L86,14.48a11.19,11.19,0,0,1,2.91,1.82ZM85.3,24.9A22.77,22.77,0,0,0,88.52,19l1.21.88a21.79,21.79,0,0,1-3.37,6.25Zm3.67-12a11.54,11.54,0,0,0-2.9-1.95l.83-1.13a10,10,0,0,1,2.95,1.82Zm-.09,12.26c2.45-1.82,2.81-3.64,2.86-7.28h1.41c-.08,4.27-.69,6.38-3.17,8.36Zm10-12.25a21.59,21.59,0,0,1,3.35,4l-1.23.84a15.16,15.16,0,0,0-1-1.47c-2.36.28-6.8.52-9.65.59l-.11-1.39,2,0a15.52,15.52,0,0,0,1.51-3.06H90.3V11h5.06V9.49h1.5V11H102V12.3H95.38a31.23,31.23,0,0,1-1.51,3c2.55-.08,3.74-.11,5.27-.26a13.53,13.53,0,0,0-1.31-1.42ZM96.37,25.71H95V17.93h1.39Zm3.24-1.49c0,.11,0,.41.34.41h.47c.36,0,.38-.21.42-.61.07-.67.07-1.12.1-1.95l1.34.4a17,17,0,0,1-.29,2.86.93.93,0,0,1-1,.72H99.3a1,1,0,0,1-1.06-1V17.77h1.37Z"/><path d="M109.6,10.05c-.11,1.94-.12,2.45-.16,4.17.14-.14,3.08-3.07,5.69-3.07,3.11,0,3,3.06,2.93,4.12l-.16,3.65c0,.56-.07,1.46-.07,2,0,1.17.13,1.75.81,2a8,8,0,0,0,1.93.26l-.4,1.52c-2.57-.22-4-.4-4-4,0-.42,0-1.34.05-1.8l.18-3.66c.06-1.12.09-2.61-1.6-2.61-2.36,0-5.31,3.4-5.44,3.57,0,2.41-.05,3.36-.05,5.6,0,2,0,2.82,0,3.61h-1.62c0-1.69,0-2.17.09-6.41a16.52,16.52,0,0,1-2.69,3.88l-1-1.48a13.35,13.35,0,0,0,3.74-5.28V14.4l-3.11,0V12.91h3.13c0-.31,0-2.77,0-2.86Z"/></g></g></svg>