<svg xmlns="http://www.w3.org/2000/svg" viewBox="0 0 190.73 26.43"><defs><style>.cls-1{fill:#231815;}</style></defs><g id="レイヤー_2" data-name="レイヤー 2"><g id="レイヤー_1-2" data-name="レイヤー 1"><path class="cls-1" d="M16.86,22.29C12.57,19.77,3.78,15,.27,13.59A.72.72,0,0,1,0,12.93c0-.3.09-.6.27-.66,3.51-1.44,12.3-6.18,16.59-8.7a.22.22,0,0,1,.15,0c.54,0,.87,1,.87,1.14A.39.39,0,0,1,17.7,5C13.56,7,5.34,11.31,2.49,12.75a.19.19,0,0,0-.12.18.22.22,0,0,0,.12.18c2.85,1.44,11.07,5.73,15.21,7.71a.39.39,0,0,1,.18.36c0,.15-.36,1.14-.87,1.14A.22.22,0,0,1,16.86,22.29Z"/><path class="cls-1" d="M31.77,24.18c1.86,0,3.18-1.68,3.18-6,0-3.33-1.8-4.86-3.39-4.86a2.27,2.27,0,0,0-1.92,1,.43.43,0,0,1-.36.18.49.49,0,0,1-.51-.45,4.75,4.75,0,0,1,4.35-2.67c2.88,0,5.79,2.4,5.79,6.66a7.14,7.14,0,0,1-7.44,7.11c-4.74,0-7.29-3.81-7.29-8.1C24.18,5.49,36.42.6,36.87.6a.62.62,0,0,1,.6.6.39.39,0,0,1-.24.36c-5.67,2.22-9.06,10-9.06,15.6,0,3.78,1.38,7,3.57,7Z"/><path class="cls-1" d="M42.57,13.86c0-5.64,2.37-11.49,7.26-11.49,5.31,0,7.44,5.76,7.44,11.34S55,25.23,50,25.23C44.49,25.23,42.57,19.47,42.57,13.86Zm10.5-.06c0-5.49-.21-10.59-3.27-10.59-2.58,0-3.06,5.16-3.06,10.62,0,5.25.21,10.5,3.3,10.5C52.68,24.33,53.07,19.05,53.07,13.8Z"/><path class="cls-1" d="M74.74,4.32c0,.24-.27.48-.66.6s-.54.15-.66,1.26a34.15,34.15,0,0,1-.54,3.51h4.77a.63.63,0,0,0,.57-.3c.78-1,.93-1.14,1.14-1.14.36,0,3.39,1.44,3.39,2.31,0,.24-.21.51-.63.75-.63.36-.87.42-.93,1.17a37.19,37.19,0,0,1-1.62,9A6.64,6.64,0,0,1,73,26.07h-.09a1.26,1.26,0,0,1-1-.81c-.63-1.65-3.48-3.06-3.48-3.24s0,0,0,0a.84.84,0,0,1,.24,0,20.58,20.58,0,0,0,4.44.84,3.44,3.44,0,0,0,3.48-2.4c1-2.46,1.53-7.23,1.56-9.51,0-.39,0-.51-.42-.51h-5c-3.27,14.34-14.4,16-14.55,16s-.15,0-.15-.06.33-.36.78-.57C68.08,21.09,70,9.36,70,5.25c0-.51,0-.93-.06-1.32-2.1,0-6.39.09-8.73.33h0c-.54,0-1.38-1.2-1.38-1.59,3,.36,9.3.48,11,.48h8.91a.61.61,0,0,0,.48-.27C80.47,2.4,81.79.42,82.36.42l.21,0c.9.33,3.18,2.25,3.18,3.09,0,.18-.15.39-.66.39H74.32C74.62,4.05,74.74,4.17,74.74,4.32Z"/><path class="cls-1" d="M105.38,8a.36.36,0,0,0-.39-.36c-.06,0-1.47,0-6.36,1.56a9.59,9.59,0,0,1-2.85.75C94,9.93,91.52,8.4,91.52,7.2c0-.27.15-1.29.57-1.29s.63.36.9.78,1,.39,1.92.39a77.39,77.39,0,0,0,9.6-1.2c.57-.3.93-.87,1.62-.87,1,0,4.2,1.29,4.2,2.43,0,.54-.72.93-1.32,1.38a3.84,3.84,0,0,0-.78,1.14c-3.9,6.93-8.79,11.79-16.08,14a8.86,8.86,0,0,1-1.5.36c-.09,0-.12,0-.12-.06a5.29,5.29,0,0,1,1.38-.87C100.28,19,105.38,8.25,105.38,8Zm5-2.64A2.67,2.67,0,1,1,113,2.67,2.66,2.66,0,0,1,110.33,5.34Zm1.83-2.7a1.78,1.78,0,0,0-1.8-1.77,1.81,1.81,0,0,0-1.83,1.77,1.86,1.86,0,0,0,1.83,1.83A1.83,1.83,0,0,0,112.16,2.64Z"/><path class="cls-1" d="M119.61,24.66a6.35,6.35,0,0,1-1.56.3c-.15,0-.24,0-.24-.09s.42-.39,1.32-.78c7.41-3.18,13.08-13.29,13.08-13.86,0-.15-.15-.24-.36-.24a29.63,29.63,0,0,0-7.29,1.77,3.87,3.87,0,0,1-1.44.3c-1.41,0-4.41-1.47-4.41-2.67,0-.42.39-1,.69-1a1,1,0,0,1,.63.36,3.29,3.29,0,0,0,2.16.51,79.83,79.83,0,0,0,9.12-1c.54-.27.93-.78,1.59-.78.48,0,4.11,1,4.11,2.25,0,.48-.6.84-1.17,1.17a3.66,3.66,0,0,0-.9,1.11C130.53,19.59,125.4,23,119.61,24.66Zm12.6-19.11a48.18,48.18,0,0,0-6.84,1,4.25,4.25,0,0,1-.87.06c-1.71,0-3.33-.81-3.33-2.07,0-.21.09-1.2.48-1.2.21,0,.45.24.78.51a3.05,3.05,0,0,0,1.86.45,21.12,21.12,0,0,0,4.23-.66c1.62-.39,1.68-1,2.73-1,.54,0,2.79.27,2.79,1.62C134,4.92,133.41,5.52,132.21,5.55Z"/><path class="cls-1" d="M149.4,11.46A17.91,17.91,0,0,0,145,8c-.48-.24-.72-.39-.72-.48a8.16,8.16,0,0,1,2.7-.3c5.76,0,5.76,2.91,5.76,3.09a1.9,1.9,0,0,1-1.8,2A2.17,2.17,0,0,1,149.4,11.46Zm1.47,11.79a1.44,1.44,0,0,1-1,.36c-1.26,0-3.93-1.41-3.93-3.24,0,0,.18-1.53.57-1.53.15,0,.36.27.75.72a1.19,1.19,0,0,0,1,.36c3.84,0,14-9.12,17.27-12.93.52-.57.85-.87,1-.87s.06,0,.06.09c0,.9-5.25,10.5-14.64,16.14A7.55,7.55,0,0,0,150.87,23.25Z"/><path class="cls-1" d="M173.87,22.29a.22.22,0,0,1-.15,0c-.54,0-.87-1.05-.87-1.14a.39.39,0,0,1,.18-.36c4.14-2,12.36-6.27,15.21-7.71.09-.06.15-.12.15-.18a.22.22,0,0,0-.15-.18C185.39,11.31,177.17,7,173,5a.39.39,0,0,1-.18-.36c0-.15.36-1.14.87-1.14a.22.22,0,0,1,.15,0c4.29,2.52,13.08,7.26,16.59,8.7.18.06.27.36.27.66a.72.72,0,0,1-.27.66C187,15,178.16,19.77,173.87,22.29Z"/></g></g></svg>