<svg xmlns="http://www.w3.org/2000/svg" xmlns:xlink="http://www.w3.org/1999/xlink" viewBox="0 0 644.02 36.35"><defs><style>.cls-1{fill:#006f49;}.cls-2{fill:url(#名称未設定グラデーション_4);}.cls-3{fill:url(#名称未設定グラデーション_4-2);}</style><linearGradient id="名称未設定グラデーション_4" x1="415.59" y1="-6492.47" x2="658.11" y2="-6492.47" gradientTransform="translate(-14.09 6513.98)" gradientUnits="userSpaceOnUse"><stop offset="0" stop-color="#fff"/><stop offset="1" stop-color="#006f49"/></linearGradient><linearGradient id="名称未設定グラデーション_4-2" x1="1136.52" y1="-4831.46" x2="1379.04" y2="-4831.46" gradientTransform="translate(-1136.52 4852.97)" xlink:href="#名称未設定グラデーション_4"/></defs><g id="レイヤー_2" data-name="レイヤー 2"><g id="文字"><path class="cls-1" d="M296.28,20a.86.86,0,0,1-.68.76c-.84.32-1.08.4-1.12,1.2a41.47,41.47,0,0,1-1.32,8.48c-1,3.23-3.4,5.19-6.28,5.27-.72,0-1.16-.2-1.36-.76-.48-1.44-3.2-3.44-3.2-3.79a.09.09,0,0,1,.08-.08,1.8,1.8,0,0,1,.32.08,14.31,14.31,0,0,0,3.68.76c1.48,0,2.24-.72,2.88-2.32,1.16-2.8,1.36-6.92,1.4-9.12,0-.44-.12-.52-.52-.52h-3c-1.32,6.4-4.32,12.43-10.36,15.71a3.66,3.66,0,0,1-1.2.52s-.08,0-.08,0,.28-.44.8-1c6.24-6,7.6-17.39,7.6-20.79a13.45,13.45,0,0,0-.08-1.44h-.68v.68c0,1.08-1.2,1.72-2.32,1.72-.92,0-1.76-.44-1.76-1.52v-.16c.24-3,.28-4.2.28-5.56a35.6,35.6,0,0,0-.48-6.52c0-.08,0-.12,0-.16a.15.15,0,0,1,.16-.16,23.73,23.73,0,0,1,4.8,2.08l.12.12h5.84a.61.61,0,0,0,.48-.28c1.28-1.64,1.36-1.68,1.52-1.68.48,0,3.92,1.88,3.92,2.84,0,.28-.2.6-.76,1-.76.56-.8.64-.8,1.92,0,1.48.12,3.6.28,6v.08c0,1-1.24,1.64-2.36,1.64-.84,0-1.6-.4-1.6-1.28v-.76H288.2l.48.16c.32.16.48.32.48.44s-.2.4-.64.56c-.68.28-.64.48-.68,1.08-.12,1.24-.28,2.52-.52,3.76H290a.82.82,0,0,0,.72-.32c.84-.92,1.28-1.4,1.6-1.4S296.28,18.88,296.28,20Zm-5.76-12.4c0-1,0-1.76,0-2.48,0-.4-.2-.6-.56-.6h-6.2l-.32.28c-.24.16-.24.4-.24.68,0,1.32-.08,2.56-.08,3.8,0,.88,0,1.76,0,2.64h7.36C290.52,10.28,290.52,8.8,290.52,7.56ZM304,5.2c0,.36-.52.72-1,1-.8.48-.8.88-.8,8.08,0,5.24.13,11.4.17,12.2v.08c0,1.64-2.2,1.84-2.32,1.84a1.61,1.61,0,0,1-1.8-1.68v-.08c.12-4.24.28-8.76.28-13.16a55.82,55.82,0,0,0-.52-9.76c0-.12,0-.2,0-.28s.08-.2.2-.2C298.92,3.24,304,4.2,304,5.2Zm7.8-2.36c0,.4-.44.8-1,1.12s-.76.6-.76,9.48c0,6.64.16,15,.32,17.52v.43c0,3.44-3.44,4.68-5.28,4.68a1.43,1.43,0,0,1-1.32-.76c-.88-1.56-5.23-3.31-5.23-3.6,0,0,0,0,.12,0a.9.9,0,0,1,.28,0,27.26,27.26,0,0,0,4.43.44c2.36,0,2.8-.68,2.84-1.72.08-1.39.12-6.87.12-12.47,0-12.52,0-12.64-.6-16.4a1.73,1.73,0,0,0,0-.2c0-.2.08-.24.24-.24a30.64,30.64,0,0,1,5.24,1.12C311.63,2.4,311.83,2.6,311.83,2.84Z"/><path class="cls-1" d="M349.68,31.08a2.14,2.14,0,0,1-1.92,2.23,2.06,2.06,0,0,1-1.8-1.39,19.56,19.56,0,0,0-1.12-2,42.33,42.33,0,0,1-7.44,4.19,12.48,12.48,0,0,0-1.8.92c-.24.28-.36,1-.76,1-.68,0-3.08-3.76-3.08-4.28,0-.12.12-.12.28-.12h.36a31.85,31.85,0,0,0,3.6-.43c0-4.32.08-13,.08-15.32,0-.6,0-1.76-.12-2.88-.52.52-3.48,3.48-4.28,3.48a.11.11,0,0,1-.12-.12,1.46,1.46,0,0,1,.44-.72c3.28-3.72,7-11.64,7.36-14.92,0-.4,0-.56.2-.56s5.12,1.68,5.12,2.68c0,.32-.4.56-1.2.76a2,2,0,0,0-.52.12c1.8.24,5.48.8,5.48,3.4a2,2,0,0,1-1.84,2,2.06,2.06,0,0,1-1.72-1.32,13.34,13.34,0,0,0-2.28-3.56c-.64,1.12-1.36,2.32-2.2,3.52,3.28.6,4.8.88,4.8,1.48,0,.24-.24.44-.64.64-1,.52-1,.52-1,3.12a.56.56,0,0,0,.48-.32s.84-1.28,1.32-1.28c.28,0,3.4,1.48,3.4,2.48,0,.28-.28.44-.56.64-.68.44-.72.64-.72,1.2,0,1.12.2,6.92.32,8.32V24c0,1-1.2,1.48-1.92,1.48s-1.6-.4-1.6-1.28v-.76h-4.84c0,2.44,0,5,0,6.88,1.72-.44,3.52-.92,4.88-1.32a10,10,0,0,0-1.92-2.16q-.36-.3-.36-.36s0,0,.16,0C343.64,26.48,349.68,27.8,349.68,31.08ZM339.92,8.32a38.55,38.55,0,0,1-2.64,3.2,24.28,24.28,0,0,1,2.72,1.4h.24v-1.6A18.13,18.13,0,0,0,339.92,8.32Zm-.48,10.24v3.88h4.84c0-1.12,0-2.52,0-3.88Zm4.88-1c0-1.48,0-2.72,0-3.12a.52.52,0,0,0-.52-.44h-3.4l-.48.24c-.44.16-.36.32-.4,1.72v1.6Zm21.31-4.24c0,.28-.2.6-.72,1-.76.52-.76.56-.76,1.84,0,1.12.12,3,.24,4v.12A2,2,0,0,1,362.23,22a1.45,1.45,0,0,1-1.64-1.4v-.08h-5.84v4.4h6.52a.51.51,0,0,0,.44-.28s1.12-1.68,1.6-1.68c.24,0,3.64,1.64,3.64,2.68,0,.28-.16.6-.68,1-.76.56-.8.56-.8,1.84,0,1.56.12,4.11.28,5.87v.12c0,1.08-1.16,1.68-2.16,1.68s-1.68-.44-1.68-1.44v0l0-1.08h-7.16v1.12c0,1.08-1.12,1.72-2.19,1.72a1.51,1.51,0,0,1-1.68-1.52v-.12c.28-5.08.32-10.91.32-14.91a72,72,0,0,0-.2-7.92,2.49,2.49,0,0,1-1.6.64,2,2,0,0,1-2.08-2,2.27,2.27,0,0,1,.92-1.76c1.48-1.24,2.48-2,2.6-3.72,0-.6.12-.92.24-.92s.64.6,1,2.4h3.63c0-.4,0-.92,0-1.44a19.61,19.61,0,0,0-.51-4.68.81.81,0,0,1-.05-.32c0-.12.05-.12.16-.12.32,0,6,.64,6,1.72,0,.36-.4.72-1.12,1-.32.12-.48.28-.56.92-.08.8-.08,2-.12,2.88h3.56a.88.88,0,0,0,.6-.24c1-1.24,1.36-1.44,1.64-1.44a.24.24,0,0,1,.16,0c1,.52,3.84,2.2,3.84,3.52,0,.52-.52.88-1.76,1.08a9.45,9.45,0,0,0-3.92,2C365.43,12.48,365.63,13,365.63,13.28Zm-5.72-.68a.56.56,0,0,0,.48-.28c.16-.24,1.12-1.6,1.56-1.6a5,5,0,0,1,.84.32,25.23,25.23,0,0,0,.84-3.24c0-.24-.12-.28-.28-.28h-11a7.81,7.81,0,0,1,.08.92,5.22,5.22,0,0,1-.52,2.32,23.53,23.53,0,0,1,3.44,1.68l.11.16Zm-4.55,1-.33.24a.73.73,0,0,0-.24.68c0,.92,0,2.68,0,4.92h5.84c0-1.16,0-2.64,0-3.84V14.24c0-.52-.2-.64-.64-.64Zm-.61,12.28c0,2.24,0,4.52,0,6.59H362c0-1.08,0-2.23,0-3.31,0-3.24,0-3.28-.68-3.28Z"/><rect class="cls-2" x="401.5" y="20.51" width="242.52" height="2" transform="translate(1045.52 43.02) rotate(-180)"/><rect class="cls-3" y="20.51" width="242.52" height="2"/></g></g></svg>