<svg xmlns="http://www.w3.org/2000/svg" xmlns:xlink="http://www.w3.org/1999/xlink" viewBox="0 0 685.48 34.92"><defs><style>.cls-1{fill:#006f49;}.cls-2{fill:url(#名称未設定グラデーション_4);}.cls-3{fill:url(#名称未設定グラデーション_4-2);}</style><linearGradient id="名称未設定グラデーション_4" y1="15.45" x2="200" y2="15.45" gradientUnits="userSpaceOnUse"><stop offset="0" stop-color="#fff"/><stop offset="1" stop-color="#006f49"/></linearGradient><linearGradient id="名称未設定グラデーション_4-2" x1="413.97" y1="-3065.28" x2="613.97" y2="-3065.28" gradientTransform="translate(71.51 3080.73)" xlink:href="#名称未設定グラデーション_4"/></defs><g id="レイヤー_2" data-name="レイヤー 2"><g id="文字"><path class="cls-1" d="M237,32.4c-6.72,0-12.08-2.92-12.08-7.16a6.08,6.08,0,0,1,2.52-4.56.11.11,0,0,1,.12.12,4.76,4.76,0,0,1-.52,1.4,3.59,3.59,0,0,0-.4,1.52c0,2.52,3.84,4.52,8.68,4.52A16.42,16.42,0,0,0,240,27.6a14.65,14.65,0,0,1,2.2-.84,7.77,7.77,0,0,1,1-.08c1.84,0,3,.92,3,2C246.2,31.63,239.8,32.4,237,32.4Zm3.92-22.56a14.07,14.07,0,0,0-7.16,2.4,4.68,4.68,0,0,1-1.48.92.09.09,0,0,1-.08-.08,5.37,5.37,0,0,1,1-1.48c.44-.52,1.08-1.24,1.08-1.6s-.08-.52-.48-.52c-5.12-.28-6.92-4-6.92-4.36A.11.11,0,0,1,227,5a8.74,8.74,0,0,1,1.4.36,20.77,20.77,0,0,0,5.64.68c1.16,0,2.36,0,3.64-.16.64,0,1.32-.12,1.92-.12,2.64,0,3.88,1.64,3.88,2.52S242.28,9.8,240.92,9.84Z"/><path class="cls-1" d="M271.62,10.88a39.06,39.06,0,0,0-9.47,2.48,8.69,8.69,0,0,1-3.4.76c-2.44,0-4.48-1.48-4.48-3.48,0-1.2.16-1.52.4-1.52s.52.28,1,.76a4.3,4.3,0,0,0,2.56.52,16.26,16.26,0,0,0,2.36-.16c2.8-.44,7-1.08,10.95-1.52,0-1.2,0-2.44,0-3.72s-.6-1.72-1.56-2.36c-.52-.32-.72-.52-.72-.72,0-.52,1.52-1.28,2.56-1.28a3.09,3.09,0,0,1,3.2,3,11.44,11.44,0,0,1-.24,1.92c-.2,1-.36,1.92-.48,2.84,1.28-.12,2.52-.24,3.56-.28.6,0,.88-.08.88-.2s-.08-.16-.32-.32a14,14,0,0,1-2.68-1.92c0-.08.12-.12.28-.12a2.65,2.65,0,0,1,.88.24,23.07,23.07,0,0,0,5.8,1.64,10.8,10.8,0,0,1,3.36.76,2.73,2.73,0,0,1,1.68,2.32c0,.8-.56,1.44-1.68,1.44a4.13,4.13,0,0,1-1.52-.32,23.44,23.44,0,0,0-7.84-1.16c-.84,0-1.72,0-2.6.08-.08,1.12-.08,2.2-.08,3.16,0,1.24,0,2.24.08,3a6.33,6.33,0,0,1,1.8,4.84c0,8.72-9.92,13.28-12.71,13.28-.16,0-.24,0-.24-.09s.6-.6,1.84-1.24a15.28,15.28,0,0,0,6.59-7.87,4.83,4.83,0,0,1-1.44.28c-2.76,0-3.84-5-3.84-6.24,0-2.68,1.76-4.6,4.12-4.6a5.22,5.22,0,0,1,1.52.24ZM269,17.08c-.76,0-1.4.6-1.4,1.8s.8,3.6,2.36,3.6c.84,0,1.6-.8,1.6-2.36a5.19,5.19,0,0,0-.12-1A3,3,0,0,0,269,17.08Z"/><path class="cls-1" d="M303.1,23.92c0,6.76,3,7.4,4.12,7.4,2.6,0,5.11-3.16,5.11-7a10.85,10.85,0,0,0-3.51-7.64c-1.32-1.36-1.88-2-1.88-2.24,0,0,0,0,.08,0s8.79,4.52,8.79,11.36c0,4.8-4,8.55-8,8.55-2.12,0-6.36-1.07-6.36-10.11,0-.48,0-1,0-1.48-1.84-.72-3.44-2.12-3.44-4s1.56-3.56,4.16-5.56c.28-.2.36-.36.36-.44s-.16-.2-.4-.32c-2.16-1-4.28-3.28-4.28-5.76,0-.28.08-.4.2-.4s.64.44,1.24,1.2A8.51,8.51,0,0,0,303,9.72l.16-1.2a27,27,0,0,0,.2-2.8c0-1.68-.28-3.4-1.24-4.12-.44-.32-.88-.48-.88-.72A1.46,1.46,0,0,1,302.7,0a4.36,4.36,0,0,1,3.88,4.52,18.76,18.76,0,0,1-.8,4.56l-.28,1c1.2,0,2.76.92,2.76,2,0,.56-.4,1.08-1.44,1.48-.76.28-1.52.48-2.4.84a50.89,50.89,0,0,0-1,5.48c.36,0,.76,0,1.2-.08s1-.44,1.6-.48h.24c1.76,0,2.8.88,2.8,1.8,0,1.52-2.44,2.24-4.68,2.24a8.39,8.39,0,0,1-1.44-.12ZM302.26,15c-2,.92-2.88,2-2.88,2.92s.76,1.48,2.28,1.76Q301.9,17.32,302.26,15Z"/><path class="cls-1" d="M339.61,10.88a39.26,39.26,0,0,0-9.48,2.48,8.69,8.69,0,0,1-3.4.76c-2.44,0-4.48-1.48-4.48-3.48,0-1.2.16-1.52.4-1.52s.52.28,1,.76a4.3,4.3,0,0,0,2.56.52,16.26,16.26,0,0,0,2.36-.16c2.8-.44,7-1.08,11-1.52,0-1.2,0-2.44,0-3.72s-.6-1.72-1.56-2.36c-.52-.32-.72-.52-.72-.72,0-.52,1.52-1.28,2.56-1.28a3.09,3.09,0,0,1,3.2,3,11.44,11.44,0,0,1-.24,1.92c-.2,1-.36,1.92-.48,2.84,1.28-.12,2.52-.24,3.56-.28.6,0,.88-.08.88-.2s-.08-.16-.32-.32a14,14,0,0,1-2.68-1.92c0-.08.12-.12.28-.12a2.65,2.65,0,0,1,.88.24,23.07,23.07,0,0,0,5.8,1.64,10.8,10.8,0,0,1,3.36.76,2.74,2.74,0,0,1,1.68,2.32c0,.8-.57,1.44-1.68,1.44a4.13,4.13,0,0,1-1.52-.32,23.44,23.44,0,0,0-7.84-1.16c-.84,0-1.72,0-2.6.08-.08,1.12-.08,2.2-.08,3.16,0,1.24,0,2.24.08,3a6.33,6.33,0,0,1,1.8,4.84c0,8.72-9.92,13.28-12.72,13.28-.16,0-.24,0-.24-.09s.6-.6,1.84-1.24a15.25,15.25,0,0,0,6.6-7.87,4.83,4.83,0,0,1-1.44.28c-2.76,0-3.84-5-3.84-6.24,0-2.68,1.76-4.6,4.12-4.6a5.22,5.22,0,0,1,1.52.24ZM337,17.08c-.76,0-1.4.6-1.4,1.8s.8,3.6,2.36,3.6c.84,0,1.6-.8,1.6-2.36a5.19,5.19,0,0,0-.12-1A3,3,0,0,0,337,17.08Z"/><path class="cls-1" d="M362.44,25.8a2.69,2.69,0,0,1,1.8-2.32c3.08-1.48,5.08-2.92,5.84-4.88.16-.44.4-1.08.6-1.08s.32.48.32,2c0,4.84-4.12,8.36-6.32,8.36A2.12,2.12,0,0,1,362.44,25.8Zm10.72-10.68a20.43,20.43,0,0,1-3.64.76c-.88,0-5.56-.68-5.56-3.6,0-.48.08-.64.36-.64a1.63,1.63,0,0,1,.64.16,13.79,13.79,0,0,0,5.28,1,44.94,44.94,0,0,0,5.56-.52V9.88c0-2.16-.72-3.36-1.92-3.36h-.52c-.6,0-.84-.16-.84-.44s.48-1.52,2.16-1.52c2,0,5.12,1.64,5.12,3.16,0,.76-.64,1.4-.8,2.48-.08.52-.12,1.12-.16,1.72,1-.12,1.76-.2,2.4-.32,1.68-.24,1.88-1,3.64-1,1.28,0,5.36.84,5.36,2.6,0,.72-.84,1.32-2.12,1.32a6,6,0,0,1-.84-.08,25.78,25.78,0,0,0-4.68-.4,31.74,31.74,0,0,0-3.92.24c0,.68,0,1.4,0,2.08,0,2,.08,4,.24,5.76.12,1.48.52,3,.52,4.52,0,2.32-1,4.72-2.68,4.72-.92,0-1.84-.88-2.08-2.56a10.28,10.28,0,0,0-2.12-5.24c-.88-1.12-1.24-1.64-1.24-1.88,0,0,0-.08.12-.08a6.58,6.58,0,0,1,1.68,1,21.88,21.88,0,0,0,2.52,1.64c.24,0,.28-.4.28-4.88,0-1.56,0-3.12,0-4.64Zm14.08,10A20.94,20.94,0,0,0,382.16,19c-.76-.56-1.2-.92-1.2-1s.08-.08.2-.08c.68,0,10.36,1.76,10.36,6.24a2.34,2.34,0,0,1-2.16,2.48A2.63,2.63,0,0,1,387.24,25.12Z"/><path class="cls-1" d="M423.38,18.36c-7.32,0-12.76.28-15.59.88a12.7,12.7,0,0,1-2.52.36c-1.8,0-5.6-1.72-5.6-4.44,0-.48.12-.68.36-.68a2.1,2.1,0,0,1,.92.36,4.39,4.39,0,0,1,.56.36,10.7,10.7,0,0,0,3.88.52c.6,0,13.27-.64,17.63-1a8.7,8.7,0,0,1,1,0c2.48,0,4.76.56,4.76,1.72s-3,1.92-4,2Z"/><path class="cls-1" d="M430.51,30.88s-.08,0-.08-.05.44-.43,1.2-1c6.84-5.16,10.72-13.24,10.72-16,0-1.6-1.08-1.76-1.88-1.88s-1.2-.2-1.2-.48a2.27,2.27,0,0,1,2.32-1.52c1.28,0,4.76,1.36,4.76,4.2a6.14,6.14,0,0,1-.48,2.12C441.63,27,431.71,30.88,430.51,30.88ZM466.9,9.24c0,.12-2,8-13.59,17.24C452.59,27,452,28,451.07,28c-1.16,0-3.36-2.48-3.36-3.8a14.61,14.61,0,0,1,.52-2.2,49,49,0,0,0,.72-7.56c0-3.44-.68-4.76-1.4-5s-1.32-.48-1.32-.76a2.87,2.87,0,0,1,2.48-1.08c2.28,0,4.24,2.76,4.24,4.2a4.1,4.1,0,0,1-.32,1.44c-.72,1.8-1,8.8-1,8.8,0,.2.08.28.2.28.88,0,8.88-5.6,13.59-11.64.84-1,1.28-1.56,1.44-1.56A.18.18,0,0,1,466.9,9.24Z"/><rect class="cls-2" y="14.45" width="200" height="2"/><rect class="cls-3" x="485.48" y="14.45" width="200" height="2" transform="translate(1170.96 30.9) rotate(-180)"/></g></g></svg>