<svg xmlns="http://www.w3.org/2000/svg" xmlns:xlink="http://www.w3.org/1999/xlink" viewBox="0 0 320 35"><defs><style>.cls-1{fill:url(#名称未設定グラデーション_12);}</style><linearGradient id="名称未設定グラデーション_12" y1="-7207.67" x2="320" y2="-7207.67" gradientTransform="translate(0 7225.17)" gradientUnits="userSpaceOnUse"><stop offset="0" stop-color="#fff" stop-opacity="0"/><stop offset="1" stop-color="#c9a063"/></linearGradient></defs><g id="レイヤー_2" data-name="レイヤー 2"><g id="文字"><rect class="cls-1" width="320" height="35" transform="translate(320 35) rotate(180)"/></g><g id="レイヤー_1-2" data-name="レイヤー 1"><path d="M171.4,8V9.44H179v1.33H171.4v1.3h5.91v9.32H166.54V12.07h3.39v-1.3h-7.6V9.44h7.6V8Zm-6.77,16.67h-1.47V12.19h1.47V22.66H179V24H164.63Zm11.24-11.4H168V14.8h7.91Zm0,2.65H168v1.5h7.91Zm0,2.59H168v1.68h7.91Z"/><path d="M193.5,20h4.32v1.3H193.5v3.4H192v-3.4h-4.86c-.83,2.3-3.35,3.15-5.36,3.4l-.49-1.33c1.3-.16,3.42-.51,4.32-2.07h-4.46V20h4.91a4.55,4.55,0,0,0,.11-1.19h1.37a5.29,5.29,0,0,1-.07,1.19H192v-1.4a1.87,1.87,0,0,1-1-.24,1.59,1.59,0,0,1-.55-1.18V13h-3.59a5,5,0,0,1-.68.88h3.31V15c-1.47,2.48-4.68,4-7.88,4.54l-.53-1.3a15,15,0,0,0,3.86-1,14.41,14.41,0,0,0-1.35-1.08l1.13-.72a17.81,17.81,0,0,1,1.46,1.17A5.92,5.92,0,0,0,188.1,15H185a11.55,11.55,0,0,1-3.26,1.69l-.61-1.19a8.79,8.79,0,0,0,4.3-2.48h-4V11.8h16.37V13H191.9v1.85a17.08,17.08,0,0,0,4.68-1.44l.63,1.17A19.9,19.9,0,0,1,191.9,16v.78c0,.43.11.59.58.59h3.44c.55,0,.64-.22.7-1.87l1.31.46c-.18,1.73-.25,2.6-1.51,2.6H193.5ZM185.71,9.08V8h1.46V9.08h4.75V8h1.46V9.08h4.44v1.31h-4.44v1h-1.46v-1h-4.75v1h-1.46v-1h-4.52V9.08Z"/><path d="M207.5,22.42c2.83-.25,4.32-.7,5.33-1.71a6.46,6.46,0,0,0,1.57-4.54c0-2.1-1.05-5.33-5.48-5.45,0,3.62-1.38,11.77-5.36,11.77-2.11,0-3.37-2.52-3.37-5.16,0-4.47,3.13-8.07,8.48-8.07,5,0,7.49,3.06,7.49,7,0,6.84-5.76,7.47-8.14,7.65ZM204.31,12a6.87,6.87,0,0,0-2.57,5.49c0,1.35.45,3.4,1.85,3.4,1,0,1.55-.95,1.91-1.64a21.75,21.75,0,0,0,1.82-8.42A6.54,6.54,0,0,0,204.31,12Z"/><path d="M221.16,16.08a11.28,11.28,0,0,0-2.82-1.85l.77-1.23A11.7,11.7,0,0,1,222,14.82Zm-2.77,7.35a22.66,22.66,0,0,0,3.22-5.91l1.21.89a21.62,21.62,0,0,1-3.37,6.24Zm3.67-12a11.41,11.41,0,0,0-2.9-1.94L220,8.3a10.25,10.25,0,0,1,3,1.82ZM222,23.65c2.45-1.82,2.81-3.64,2.87-7.28h1.4c-.07,4.27-.68,6.37-3.17,8.36ZM232,11.4a21.57,21.57,0,0,1,3.35,3.94l-1.22.85a15.49,15.49,0,0,0-1-1.48c-2.35.29-6.8.53-9.65.6l-.1-1.39,2,0a16.49,16.49,0,0,0,1.52-3.06H223.4V9.47h5V8H230V9.47h5.19v1.36h-6.67a29.46,29.46,0,0,1-1.51,3c2.56-.07,3.75-.11,5.28-.25a14.56,14.56,0,0,0-1.32-1.42Zm-2.54,12.84h-1.38V16.46h1.38Zm3.24-1.5c0,.11,0,.42.35.42h.46c.36,0,.38-.22.42-.61.07-.67.07-1.12.11-1.95l1.33.4a17.22,17.22,0,0,1-.29,2.86.93.93,0,0,1-1,.72H232.4a1,1,0,0,1-1.06-1V16.3h1.36Z"/><path d="M242.7,8.57c-.11,1.95-.13,2.45-.17,4.18.15-.14,3.08-3.08,5.69-3.08,3.12,0,3,3.06,2.94,4.13L251,17.45c0,.56-.08,1.46-.08,2,0,1.17.13,1.75.81,2a7.65,7.65,0,0,0,1.93.27l-.4,1.52c-2.57-.22-4-.4-4-4,0-.41,0-1.33.06-1.8l.18-3.65c.05-1.12.09-2.61-1.61-2.61-2.35,0-5.31,3.4-5.43,3.56,0,2.42-.06,3.37-.06,5.6,0,2,0,2.83,0,3.62h-1.62c0-1.69,0-2.18.09-6.41a16.22,16.22,0,0,1-2.68,3.87l-1.05-1.47A13.27,13.27,0,0,0,241,14.66V12.93l-3.12,0V11.44H241c0-.31,0-2.78,0-2.87Z"/></g></g></svg>