<svg xmlns="http://www.w3.org/2000/svg" xmlns:xlink="http://www.w3.org/1999/xlink" viewBox="0 0 644.02 35.03"><defs><style>.cls-1{fill:#006f49;}.cls-2{fill:url(#名称未設定グラデーション_4);}.cls-3{fill:url(#名称未設定グラデーション_4-2);}</style><linearGradient id="名称未設定グラデーション_4" x1="415.59" y1="-4832.66" x2="658.11" y2="-4832.66" gradientTransform="translate(-14.09 4852.97)" gradientUnits="userSpaceOnUse"><stop offset="0" stop-color="#fff"/><stop offset="1" stop-color="#006f49"/></linearGradient><linearGradient id="名称未設定グラデーション_4-2" x1="1136.52" y1="-4832.66" x2="1379.04" y2="-4832.66" gradientTransform="translate(-1136.52 4852.97)" xlink:href="#名称未設定グラデーション_4"/></defs><g id="レイヤー_2" data-name="レイヤー 2"><g id="文字"><path class="cls-1" d="M258.39,31.63a3.09,3.09,0,0,1-3.24-2.92c0-1,.64-2.43,1.36-2.43a1.28,1.28,0,0,1,.88.55,1.12,1.12,0,0,0,.84.37,3.14,3.14,0,0,0,1.24-.37c1.16-.55,2.24-1.23,3.48-1.91a61.63,61.63,0,0,1,8.76-4.36c-.56-1-1.16-1.88-1.64-2.64a5.73,5.73,0,0,1-1.08-3,5.14,5.14,0,0,1,1.32-3.16c1.24-1.52,1.88-2.56,1.88-3.16a.77.77,0,0,0-.12-.4c-.64-1.12-1.6-2.32-1.6-3.8,0-.76.28-2,.72-2,.24,0,.52.48.8,1.16.68,1.68,3.84,3,4.84,4.24a4.35,4.35,0,0,1,1.08,2.64,2,2,0,0,1-2.16,2,4.92,4.92,0,0,1-1.44-.24,2.27,2.27,0,0,0-.64-.08,3.47,3.47,0,0,0-3.56,2.8c0,1.24.68,1.84,4.2,5a12.83,12.83,0,0,1,2.52-.24c6.68,0,11.64,4.44,11.64,7.6a2.62,2.62,0,0,1-2.32,2.8c-1.64,0-2.2-2-2.6-3.64-.48-2.16-1.72-4.2-3.44-5a10.19,10.19,0,0,0-4.16-.92,7.08,7.08,0,0,0-.92,0A7.93,7.93,0,0,1,277.67,26a5.81,5.81,0,0,1-8.88,4.63,19.5,19.5,0,0,0-5-2.59C261.27,30.67,260.19,31.63,258.39,31.63Zm5.92-4.15a39.83,39.83,0,0,0,5.88.72c2,0,3.52-.92,3.52-2.8a9.22,9.22,0,0,0-1.52-4C269.43,22.52,266.83,24.84,264.31,27.48Z"/><path class="cls-1" d="M299.17,3.68a2.85,2.85,0,0,1-.6-1.16c0-.24.24-.32.84-.32,4.67,0,5.27,3.56,5.27,4.88a6.76,6.76,0,0,1-.12,1.2c-.72,4.56-2.43,9.24-2.43,13.92,0,2.4.19,7.8,6.75,7.8,3.48,0,7.8-1.68,11.56-4.32a7.12,7.12,0,0,1,1.84-1.12c.08,0,.12,0,.12.08,0,.76-6.08,9.07-14.16,9.07-3.24,0-9.07-1.44-9.07-11.63,0-4.44,1-9,1.12-13.36A8.86,8.86,0,0,0,299.17,3.68Zm13.43,8.44A12.7,12.7,0,0,0,308.76,9c-.36-.2-.52-.36-.52-.44s.56-.44,1.84-.44c3.68,0,5.24,1.68,5.24,3.08a1.58,1.58,0,0,1-1.44,1.68A1.77,1.77,0,0,1,312.6,12.12Zm5-1.92a12.72,12.72,0,0,0-3.88-3.12c-.36-.2-.56-.36-.56-.48s.64-.44,1.84-.44c2,0,5.32.8,5.32,3.12a1.54,1.54,0,0,1-1.44,1.64A1.65,1.65,0,0,1,317.64,10.2Z"/><path class="cls-1" d="M340.89,20.6a24.3,24.3,0,0,1-3.36.28c-6.48,0-7.36-3.72-7.36-4.2a.15.15,0,0,1,.16-.16c.16,0,.48.24.76.32a17.41,17.41,0,0,0,5.68.92,20.44,20.44,0,0,0,4.68-.48c0-1.56,0-3.16.12-4.76h-.36c-6.32,0-6.64-4.16-6.64-5,0-.28,0-.4.16-.4s.48.28.76.44c2.36,1.36,3.76,1.72,5,1.72.4,0,.8,0,1.24-.08v0l.08-1.08c.16-1.52.28-2.72.28-3.56a2,2,0,0,0-1.84-2.24c-.48-.12-.76-.24-.76-.44S340.65,0,342.09,0s3.56,2,3.56,3.36a9.27,9.27,0,0,1-.56,2.2c-.28,1-.56,1.92-.76,2.8a3.86,3.86,0,0,1,2.12-.76c.68,0,1.8.28,1.8,1.4,0,.16,0,2.4-4.6,3.32a32,32,0,0,0-.16,3.36v1c2.6-.88,2.76-1.48,2.76-1.76,0-.56-1-1.44-1.44-1.8s-.48-.4-.48-.44,0,0,.08,0a3.61,3.61,0,0,1,.64.2,11.72,11.72,0,0,0,3.6.72c1.44,0,2.2.68,2.2,1.52s-.64,3-7.16,4.88c.36,3.28.84,6.2.92,6.56,4.12,1.36,6.24,3.71,6.24,5.63a1.92,1.92,0,0,1-1.76,2.08,2.76,2.76,0,0,1-2.2-1.6,9.07,9.07,0,0,0-2.28-2.52,7.84,7.84,0,0,1-7,4.92c-3.12,0-5.76-2.28-5.76-4.68,0-2.76,3.56-4.67,7.76-4.67.68,0,1.4.08,2.12.15,0-.87,0-1.75-.08-2.27-.08-1-.08-2-.12-3Zm-2.64,7.28c-.24,0-5.12,0-5.12,2.35,0,1.24,1.52,2,3.24,2,4,0,5.2-2.88,5.32-3.68A10.9,10.9,0,0,0,338.25,27.88Z"/><path class="cls-1" d="M379.32,23.44a.67.67,0,0,0,.68-.76,43,43,0,0,0-1.64-4.32,24.16,24.16,0,0,1-7,1.24c-3.07,0-5.55-1.08-6.43-4.88a4,4,0,0,1-.12-.76c0-.16,0-.24.16-.24a2.82,2.82,0,0,1,1,.48c2.4,1.48,3.87,2,5.63,2a21.08,21.08,0,0,0,5.4-.92q-.6-1.44-1.32-2.88a10.16,10.16,0,0,1-2.44.28c-5.47,0-6.87-4.08-6.87-5.08,0-.12,0-.16.12-.16a4,4,0,0,1,1.12.48,11.84,11.84,0,0,0,5.15,1.64,4.68,4.68,0,0,0,1.28-.16h.08c-2.68-4.6-4.76-6.44-6.23-6.44-.8,0-1.2-.12-1.2-.48A2.45,2.45,0,0,1,369.29.56a4,4,0,0,1,3.35,2.24c1,1.72,2,3.84,3,6a3.39,3.39,0,0,0,.68-.4,5.06,5.06,0,0,1,2.44-1.08A1.52,1.52,0,0,1,380.32,9c0,.44-.16,1.88-3.24,3l1.32,2.8c1.52-.56,1.52-1,1.52-1.16,0-.44-.48-.88-1-1.24s-.6-.44-.6-.52.08-.12.2-.12a4.6,4.6,0,0,1,.8.16,14.28,14.28,0,0,0,3.44.56,1.82,1.82,0,0,1,2,1.64c0,1.76-3.36,3.2-4.88,3.76a24.9,24.9,0,0,0,2.08,3.6,5.05,5.05,0,0,1,1.2,3.12,3,3,0,0,1-2.76,3.11,1.82,1.82,0,0,1-1.36-.79c-1-1.05-3.84-2-6.4-2-3.2,0-4.63,1.52-4.63,2.79,0,1.64,2.19,3.36,5.07,3.36a7.59,7.59,0,0,0,2.76-.52,3.43,3.43,0,0,1,1.08-.2,2.32,2.32,0,0,1,2.44,2c0,2-3.32,2.52-5.44,2.52-5.07,0-8.39-3.24-8.39-6.28,0-1.51.84-5.27,9.67-5.27,1.4,0,2.8.08,4.08.12Z"/><rect class="cls-2" x="401.5" y="19.31" width="242.52" height="2" transform="translate(1045.52 40.62) rotate(-180)"/><rect class="cls-3" y="19.31" width="242.52" height="2"/></g></g></svg>