<svg xmlns="http://www.w3.org/2000/svg" xmlns:xlink="http://www.w3.org/1999/xlink" viewBox="0 0 320 35"><defs><style>.cls-1{fill:url(#名称未設定グラデーション_12);}</style><linearGradient id="名称未設定グラデーション_12" y1="-7765.87" x2="320" y2="-7765.87" gradientTransform="translate(0 7783.37)" gradientUnits="userSpaceOnUse"><stop offset="0" stop-color="#fff" stop-opacity="0"/><stop offset="1" stop-color="#c9a063"/></linearGradient></defs><g id="レイヤー_2" data-name="レイヤー 2"><g id="文字"><rect class="cls-1" width="320" height="35" transform="translate(320 35) rotate(180)"/></g><g id="レイヤー_1-2" data-name="レイヤー 1"><path d="M179,16.49V18.2H162.34V16.49Z"/><path d="M195.22,10.06V25.82h-1.53V24.9h-10v.92h-1.55V10.06Zm-11.49,6.63h10v-5.2h-10Zm0,6.77h10V18.09h-10Z"/><path d="M210.72,21.19H215v1.3h-4.32v3.4h-1.46v-3.4H204.4c-.83,2.3-3.35,3.15-5.37,3.4l-.49-1.33c1.3-.16,3.43-.51,4.33-2.07H198.4v-1.3h4.92a5,5,0,0,0,.1-1.19h1.37a5.29,5.29,0,0,1-.07,1.19h4.54v-1.4a1.87,1.87,0,0,1-1-.24,1.61,1.61,0,0,1-.56-1.19V14.19h-3.58a4.69,4.69,0,0,1-.69.88h3.32v1.1c-1.48,2.48-4.69,4-7.89,4.54l-.52-1.3a15,15,0,0,0,3.85-1,13.18,13.18,0,0,0-1.35-1.08l1.13-.72a17.81,17.81,0,0,1,1.46,1.17,5.8,5.8,0,0,0,1.87-1.62h-3.15a11.73,11.73,0,0,1-3.25,1.69l-.62-1.19a8.83,8.83,0,0,0,4.31-2.48h-4V13h16.37v1.17h-5.82V16a17.11,17.11,0,0,0,4.69-1.44l.63,1.17a19.94,19.94,0,0,1-5.32,1.46V18c0,.44.11.6.58.6h3.44c.56,0,.65-.22.7-1.87l1.32.46c-.18,1.73-.26,2.6-1.52,2.6h-2.91Zm-7.8-10.89V9.24h1.46V10.3h4.75V9.24h1.46V10.3H215v1.31h-4.45v1h-1.46v-1h-4.75v1h-1.46v-1H198.4V10.3Z"/><path d="M224.71,23.64c2.83-.25,4.32-.7,5.33-1.71a6.46,6.46,0,0,0,1.57-4.54c0-2.1-1-5.33-5.47-5.45,0,3.62-1.39,11.77-5.37,11.77-2.11,0-3.37-2.52-3.37-5.16,0-4.47,3.14-8.07,8.48-8.07,5,0,7.49,3.06,7.49,7,0,6.84-5.76,7.47-8.13,7.65ZM221.53,13.2A6.85,6.85,0,0,0,219,18.69c0,1.35.45,3.4,1.86,3.4.95,0,1.55-.95,1.91-1.64A21.61,21.61,0,0,0,224.53,12,6.44,6.44,0,0,0,221.53,13.2Z"/><path d="M238.38,17.3a11.34,11.34,0,0,0-2.83-1.85l.77-1.23A11.7,11.7,0,0,1,239.24,16Zm-2.78,7.35a22.71,22.71,0,0,0,3.23-5.91l1.2.89a21.57,21.57,0,0,1-3.36,6.24Zm3.68-12a11.5,11.5,0,0,0-2.9-1.94l.83-1.14a10.18,10.18,0,0,1,2.95,1.82Zm-.09,12.26c2.45-1.81,2.81-3.63,2.86-7.27h1.4c-.07,4.27-.68,6.37-3.17,8.35Zm10-12.24a21.87,21.87,0,0,1,3.34,3.94l-1.22.85a15.15,15.15,0,0,0-1-1.48c-2.36.29-6.81.53-9.65.6l-.11-1.39,2,0a16.11,16.11,0,0,0,1.51-3.06h-3.51V10.69h5.06V9.24h1.49v1.45h5.19v1.36h-6.66a31.05,31.05,0,0,1-1.52,3c2.56-.07,3.75-.11,5.28-.25a14.73,14.73,0,0,0-1.31-1.42Zm-2.54,12.84h-1.39V17.68h1.39Zm3.24-1.5c0,.11,0,.42.34.42h.47c.36,0,.38-.22.41-.61.07-.67.07-1.12.11-1.95l1.33.4a17.22,17.22,0,0,1-.29,2.86.92.92,0,0,1-1,.72h-1.66a1,1,0,0,1-1.06-1V17.52h1.37Z"/><path d="M259.91,9.79c-.11,2-.13,2.45-.16,4.18.14-.14,3.08-3.08,5.69-3.08,3.11,0,3,3.06,2.93,4.13l-.16,3.65c0,.56-.07,1.46-.07,2,0,1.17.12,1.75.81,2a7.5,7.5,0,0,0,1.92.27l-.39,1.51c-2.58-.21-4-.39-4-4,0-.41,0-1.33.05-1.8l.18-3.65c.05-1.12.09-2.61-1.6-2.61-2.36,0-5.31,3.4-5.44,3.56,0,2.41,0,3.37,0,5.6,0,2,0,2.83,0,3.62h-1.62c0-1.69.06-2.18.09-6.41a16.22,16.22,0,0,1-2.68,3.87l-1-1.47a13.42,13.42,0,0,0,3.74-5.28V14.15l-3.11,0V12.66h3.13c0-.31,0-2.78,0-2.87Z"/></g></g></svg>