<svg xmlns="http://www.w3.org/2000/svg" xmlns:xlink="http://www.w3.org/1999/xlink" viewBox="0 0 320 35"><defs><style>.cls-1{fill:url(#名称未設定グラデーション_12);}</style><linearGradient id="名称未設定グラデーション_12" y1="-7765.87" x2="320" y2="-7765.87" gradientTransform="translate(0 7783.37)" gradientUnits="userSpaceOnUse"><stop offset="0" stop-color="#fff" stop-opacity="0"/><stop offset="1" stop-color="#c9a063"/></linearGradient></defs><g id="レイヤー_2" data-name="レイヤー 2"><g id="文字"><rect class="cls-1" width="320" height="35" transform="translate(320 35) rotate(180)"/></g><g id="レイヤー_1-2" data-name="レイヤー 1"><path d="M27.87,16.49V18.2H11.21V16.49Z"/><path d="M44.09,10.06V25.82H42.56V24.9h-10v.92H31.05V10.06ZM32.6,16.69h10v-5.2h-10Zm0,6.77h10V18.09h-10Z"/><path d="M59.58,21.19h4.33v1.3H59.58v3.4H58.13v-3.4H53.26c-.82,2.3-3.35,3.15-5.36,3.4l-.49-1.33c1.3-.16,3.42-.51,4.32-2.07H47.27v-1.3h4.91A4.55,4.55,0,0,0,52.29,20h1.37a5.29,5.29,0,0,1-.07,1.19h4.54v-1.4a1.88,1.88,0,0,1-1-.24,1.6,1.6,0,0,1-.55-1.19V14.19H53a4.55,4.55,0,0,1-.68.88h3.31v1.1c-1.47,2.48-4.68,4-7.88,4.54l-.53-1.3a15,15,0,0,0,3.86-1,14.41,14.41,0,0,0-1.35-1.08l1.13-.72a17.81,17.81,0,0,1,1.46,1.17,5.92,5.92,0,0,0,1.87-1.62H51a11.82,11.82,0,0,1-3.26,1.69l-.61-1.19a8.79,8.79,0,0,0,4.3-2.48h-4V13H63.8v1.17H58V16a17,17,0,0,0,4.68-1.44l.63,1.17A19.81,19.81,0,0,1,58,17.23V18c0,.44.11.6.58.6H62c.55,0,.64-.22.7-1.87l1.31.46c-.18,1.73-.25,2.6-1.51,2.6H59.58ZM51.79,10.3V9.24h1.46V10.3H58V9.24h1.46V10.3h4.45v1.31H59.46v1H58v-1H53.25v1H51.79v-1H47.27V10.3Z"/><path d="M73.58,23.64c2.83-.25,4.32-.7,5.33-1.71a6.46,6.46,0,0,0,1.57-4.54c0-2.1-1-5.33-5.48-5.45,0,3.62-1.38,11.77-5.36,11.77-2.11,0-3.37-2.52-3.37-5.16,0-4.47,3.13-8.07,8.48-8.07,5,0,7.49,3.06,7.49,7,0,6.84-5.76,7.47-8.14,7.65ZM70.39,13.2a6.87,6.87,0,0,0-2.57,5.49c0,1.35.45,3.4,1.85,3.4,1,0,1.55-.95,1.91-1.64A21.75,21.75,0,0,0,73.4,12,6.43,6.43,0,0,0,70.39,13.2Z"/><path d="M87.24,17.3a11.28,11.28,0,0,0-2.82-1.85l.77-1.23A11.7,11.7,0,0,1,88.11,16Zm-2.77,7.35a22.37,22.37,0,0,0,3.22-5.91l1.21.89a21.62,21.62,0,0,1-3.37,6.24Zm3.67-12a11.15,11.15,0,0,0-2.9-1.94l.83-1.14a10.11,10.11,0,0,1,3,1.82Zm-.09,12.26c2.45-1.81,2.81-3.63,2.87-7.27h1.4c-.07,4.27-.68,6.37-3.17,8.35Zm10-12.24a21.57,21.57,0,0,1,3.35,3.94l-1.22.85a17.27,17.27,0,0,0-1-1.48c-2.36.29-6.81.53-9.66.6l-.1-1.39,2,0A17.16,17.16,0,0,0,93,12.05H89.48V10.69h5.06V9.24H96v1.45h5.19v1.36H94.55a29.46,29.46,0,0,1-1.51,3c2.56-.07,3.75-.11,5.28-.25A14.56,14.56,0,0,0,97,13.38ZM95.54,25.46H94.16V17.68h1.38ZM98.78,24c0,.11,0,.42.35.42h.46c.36,0,.38-.22.42-.61.07-.67.07-1.12.11-1.95l1.33.4a17.22,17.22,0,0,1-.29,2.86.92.92,0,0,1-1,.72H98.48a1,1,0,0,1-1.06-1V17.52h1.36Z"/><path d="M108.78,9.79c-.11,2-.13,2.45-.17,4.18.15-.14,3.08-3.08,5.69-3.08,3.12,0,3,3.06,2.94,4.13l-.16,3.65c0,.56-.08,1.46-.08,2,0,1.17.13,1.75.81,2a7.65,7.65,0,0,0,1.93.27l-.4,1.51c-2.57-.21-4-.39-4-4,0-.41,0-1.33.06-1.8l.18-3.65c0-1.12.09-2.61-1.6-2.61-2.36,0-5.32,3.4-5.44,3.56,0,2.41-.06,3.37-.06,5.6,0,2,0,2.83,0,3.62h-1.62c0-1.69,0-2.18.09-6.41a16.22,16.22,0,0,1-2.68,3.87l-1-1.47a13.34,13.34,0,0,0,3.75-5.28V14.15l-3.12,0V12.66h3.14c0-.31,0-2.78,0-2.87Z"/></g></g></svg>