<svg xmlns="http://www.w3.org/2000/svg" xmlns:xlink="http://www.w3.org/1999/xlink" viewBox="0 0 320 35"><defs><style>.cls-1{fill:url(#名称未設定グラデーション_12);}</style><linearGradient id="名称未設定グラデーション_12" y1="-1295.75" x2="320" y2="-1295.75" gradientTransform="translate(0 1313.25)" gradientUnits="userSpaceOnUse"><stop offset="0" stop-color="#fff" stop-opacity="0"/><stop offset="1" stop-color="#c9a063"/></linearGradient></defs><g id="レイヤー_2" data-name="レイヤー 2"><g id="文字"><rect class="cls-1" width="320" height="35" transform="translate(320 35) rotate(180)"/></g><g id="レイヤー_1-2" data-name="レイヤー 1"><path d="M178.37,16.35a19.53,19.53,0,0,1-3.69,2.7A14.19,14.19,0,0,0,179,24l-1.1,1.25a18.21,18.21,0,0,1-6-10.39h-.6A6.53,6.53,0,0,1,170.16,16a8.4,8.4,0,0,1,2.59,6.59c0,1-.12,3.53-2.28,3.53h-2.53l-.28-1.48,2.36,0c.5,0,1.35,0,1.35-2.16a9.86,9.86,0,0,0-.13-1.42,19.81,19.81,0,0,1-8.41,4.1l-.59-1.38a18.91,18.91,0,0,0,8.77-4,6.46,6.46,0,0,0-.47-1.22A17,17,0,0,1,163.43,22l-.63-1.33a16.75,16.75,0,0,0,7.14-3,8.33,8.33,0,0,0-.83-.9A16.08,16.08,0,0,1,163.32,19l-.6-1.35a13.81,13.81,0,0,0,6.9-2.81h-4.74V13.65h11.56v1.19h-3.31a15.56,15.56,0,0,0,1,3,15.72,15.72,0,0,0,3.1-2.43ZM169.93,11V9.51h1.51V11h7.07v3.74h-1.42V12.26h-12.8v2.45h-1.44V11Z"/><path d="M185.18,9.49v2.38h2.63v1.4h-3.69v2.34h3.22a55.06,55.06,0,0,1-.41,9.15c-.16.65-.49,1.35-2,1.35h-1.37l-.23-1.46,1.33,0c.4,0,.7-.06.85-.33.34-.7.41-4.05.43-7.34h-1.82v.41c0,5.67-1.58,7.82-2.2,8.64l-1.06-1.2c.61-.9,1.86-2.78,1.86-7.44V13.27h-1.61v-1.4h2.61V9.49Zm2,5.28a10.54,10.54,0,0,0,2.74-5.28l1.48.22a12.22,12.22,0,0,1-.6,2h6.95v1.4h-7.56a10.05,10.05,0,0,1-1.8,2.58Zm10.14.5v1.38h-3.64a16.34,16.34,0,0,1-.16,2.67h4.23v1.39h-3.67a7.11,7.11,0,0,0,3.83,4.14l-.9,1.33a9.59,9.59,0,0,1-4-4.57,7.71,7.71,0,0,1-4.9,4.5l-.65-1.32a6.27,6.27,0,0,0,4.38-4.08h-3.75V19.32h4a20.11,20.11,0,0,0,.14-2.67h-1.33a8.15,8.15,0,0,1-1.51,2.24L188.24,18a9.73,9.73,0,0,0,2.27-4.25l1.35.31a10.34,10.34,0,0,1-.36,1.19Z"/><path d="M212.26,21.44h4.32v1.3h-4.32v3.4H210.8v-3.4h-4.86c-.83,2.31-3.35,3.15-5.36,3.4l-.49-1.33c1.3-.16,3.42-.5,4.32-2.07H200v-1.3h4.91a4.51,4.51,0,0,0,.11-1.18h1.37a4.69,4.69,0,0,1-.08,1.18h4.54V20a1.94,1.94,0,0,1-1-.23,1.63,1.63,0,0,1-.56-1.19V14.44h-3.58a5,5,0,0,1-.68.88h3.31v1.1c-1.48,2.49-4.68,4-7.89,4.54l-.52-1.3a14.11,14.11,0,0,0,3.85-1,12.15,12.15,0,0,0-1.35-1.08l1.14-.72c.84.61,1.35,1.08,1.46,1.17a5.91,5.91,0,0,0,1.87-1.62h-3.15a11.69,11.69,0,0,1-3.26,1.69l-.61-1.18a8.87,8.87,0,0,0,4.3-2.49h-4V13.27h16.36v1.17h-5.81V16.3a16.85,16.85,0,0,0,4.68-1.45L216,16a19.5,19.5,0,0,1-5.31,1.46v.78c0,.43.11.59.57.59h3.44c.56,0,.65-.21.71-1.87l1.31.47c-.18,1.73-.25,2.59-1.51,2.59h-2.92Zm-7.8-10.89V9.49h1.46v1.06h4.76V9.49h1.46v1.06h4.44v1.32h-4.44v1h-1.46v-1h-4.76v1h-1.46v-1H200V10.55Z"/><path d="M226.26,23.89c2.83-.25,4.32-.7,5.33-1.71a6.47,6.47,0,0,0,1.56-4.53c0-2.11-1-5.33-5.47-5.46,0,3.62-1.39,11.78-5.36,11.78-2.11,0-3.37-2.53-3.37-5.17,0-4.47,3.13-8.07,8.48-8.07,5,0,7.49,3.06,7.49,7,0,6.85-5.76,7.48-8.14,7.66Zm-3.19-10.44a6.87,6.87,0,0,0-2.57,5.49c0,1.35.45,3.41,1.85,3.41,1,0,1.55-1,1.91-1.64a21.87,21.87,0,0,0,1.82-8.43A6.54,6.54,0,0,0,223.07,13.45Z"/><path d="M239.92,17.56a11.66,11.66,0,0,0-2.83-1.86l.78-1.22a11.19,11.19,0,0,1,2.91,1.82Zm-2.77,7.34a22.77,22.77,0,0,0,3.22-5.9l1.21.88a21.79,21.79,0,0,1-3.37,6.25Zm3.67-12a11.37,11.37,0,0,0-2.9-1.95l.83-1.13a10,10,0,0,1,2.95,1.82Zm-.09,12.26c2.45-1.82,2.81-3.64,2.86-7.28H245c-.07,4.27-.69,6.38-3.17,8.36Zm10-12.25a21.59,21.59,0,0,1,3.35,4l-1.23.84a15.16,15.16,0,0,0-1-1.47c-2.36.28-6.8.52-9.65.59l-.11-1.39,2,0a15.52,15.52,0,0,0,1.51-3.06h-3.51V11h5.06V9.49h1.5V11h5.18V12.3h-6.66a31.23,31.23,0,0,1-1.51,3c2.56-.08,3.74-.11,5.27-.26a13.53,13.53,0,0,0-1.31-1.42Zm-2.54,12.84h-1.39V17.93h1.39Zm3.24-1.49c0,.11,0,.41.34.41h.47c.36,0,.38-.21.42-.61.07-.67.07-1.12.1-1.95l1.34.4a17,17,0,0,1-.29,2.86.93.93,0,0,1-1,.72h-1.65a1,1,0,0,1-1.07-1V17.77h1.37Z"/><path d="M261.45,10.05c-.11,1.94-.12,2.45-.16,4.17.15-.14,3.08-3.07,5.69-3.07,3.12,0,3,3.06,2.94,4.12l-.17,3.65c0,.56-.07,1.46-.07,2,0,1.17.13,1.75.81,2a8.11,8.11,0,0,0,1.93.26l-.4,1.52c-2.57-.22-4-.4-4-4,0-.42,0-1.34.05-1.8l.19-3.66c.05-1.12.09-2.61-1.61-2.61-2.36,0-5.31,3.4-5.43,3.57,0,2.41-.06,3.36-.06,5.6,0,2,0,2.82,0,3.61h-1.62c0-1.69.05-2.17.09-6.41A16.52,16.52,0,0,1,257,22.89l-1-1.48a13.25,13.25,0,0,0,3.74-5.28V14.4l-3.11,0V12.91h3.13c0-.31,0-2.77,0-2.86Z"/></g></g></svg>