<svg xmlns="http://www.w3.org/2000/svg" viewBox="0 0 642 132"><defs><style>.cls-1{fill:#00a26a;}.cls-2{fill:#fff;stroke:#00a26a;stroke-miterlimit:10;stroke-width:2px;}</style></defs><g id="レイヤー_2" data-name="レイヤー 2"><g id="レイヤー_1-2" data-name="レイヤー 1"><polygon class="cls-1" points="589.66 66 575.31 45.98 575.31 56 1 56 1 76 575.31 76 575.31 86.02 589.66 66"/><rect class="cls-2" x="1" y="1" width="50" height="130"/><path d="M23.09,50.19A3.81,3.81,0,0,0,21.74,53c0,2.05,2.41,2.26,5,2.26a38.56,38.56,0,0,0,4.92-.3l.06,1.38c-1.71.13-2.87.22-4.41.22-3.18,0-4.26-.33-5.1-.72A3.14,3.14,0,0,1,20.37,53a5.24,5.24,0,0,1,1.68-3.54Zm7.59-4.25a14.49,14.49,0,0,0-5,2L24.8,47A10.06,10.06,0,0,1,27,46c-4.5.06-5.22.09-6.06.14V44.75c.68,0,5,0,9.74,0Zm-.8,4.25A12.6,12.6,0,0,0,28.59,48l.89-.48a11.07,11.07,0,0,1,1.33,2.2Zm1.74-.84a10.81,10.81,0,0,0-1.27-2.13l.91-.48a9.63,9.63,0,0,1,1.28,2.1Z"/><path d="M21.86,64.69v4.17c.13.75.42,2.37,3.61,2.37h7.68l-.24,1.17H25.5c-2.77,0-3.54-1.26-3.82-1.74a16.9,16.9,0,0,1-2.18,2.21l-.58-1.35a7.06,7.06,0,0,0,1.75-1.43V65.86H19.05V64.69Zm-.44-2.35a12,12,0,0,0-2.13-2.48l.87-.79a10.66,10.66,0,0,1,2.25,2.45Zm5.45,3-1.37.45v3.43c0,1-.6,1.1-1.15,1.1H23.07l-.24-1.14,1.11,0c.26,0,.39,0,.39-.45V66.16c-.75.21-1.24.33-1.66.42l-.17-1.14c.44-.07.77-.15,1.83-.4V62.35H22.65V61.2h1.68V58.9H25.5v2.3h1.31v1.15H25.5v2.37a10.55,10.55,0,0,0,1.37-.43ZM28.49,63h4.45v1.17H31.52v6.33H30.33V64.15H28.49v.41a14.5,14.5,0,0,1-.38,3.34,6.3,6.3,0,0,1-1.17,2.58l-1-.73a5,5,0,0,0,1-2.19,14.54,14.54,0,0,0,.34-3v-5a18.18,18.18,0,0,0,5-.73L32.73,60a15.34,15.34,0,0,1-4.24.6Z"/><path d="M28.89,82.9a27.38,27.38,0,0,1,3.44,4.64l-1.23.75c-.2-.39-.41-.8-.81-1.47-2.21.36-7.92.64-10.52.75l-.18-1.26c.36,0,1.37-.06,1.8-.08a25.81,25.81,0,0,0,2.66-4.63h-5V80.46h6.25V77.63H19.91V76.46h5.41V74.22h1.29v2.24h5.54v1.17H26.61v2.83h6.32V81.6h-7.4a30.44,30.44,0,0,1-2.61,4.56l2-.09c.73,0,3.84-.29,4.65-.39a15.87,15.87,0,0,0-1.68-2.06Z"/><rect class="cls-2" x="75.87" y="1" width="50" height="130"/><path d="M106.26,26.91a26.11,26.11,0,0,0-4.47-2.4,14.81,14.81,0,0,1-7,2.37l-.43-1.32A15.74,15.74,0,0,0,100.45,24a46.17,46.17,0,0,0-4.89-1.58,16.91,16.91,0,0,0,2-2.82H94V18.39h4.26a16.58,16.58,0,0,0,1-2.25l1.38.25c-.17.41-.36.91-.9,2h8.13v1.18h-2.66a9.57,9.57,0,0,1-2.29,4,34.2,34.2,0,0,1,4.24,2.14ZM100.2,14.34V13h1.29v1.35h6v3.27h-1.27V15.49H95.59v2.12H94.32V14.34ZM99,19.57a17.52,17.52,0,0,1-1.45,2.22c1.08.32,2.58.75,4.08,1.32a8.28,8.28,0,0,0,2.17-3.54Z"/><path d="M107.25,31.59h-5.82v.78h6.37v.93h-6.37V34h5.28v6H97.24V34h3V33.3h-6.3v-.93h6.3v-.78H94.47V28.74h12.78ZM95.85,42.18H94.63V34.5h1.22v6.25h12v1h-12ZM98.4,29.6H95.62v1.12H98.4Zm7.12,5.29H98.41v.84h7.11Zm0,1.69H98.41v.84h7.11Zm0,1.67H98.41v.88h7.11Zm-3.3-8.65H99.48v1.12h2.74Zm3.86,0h-2.79v1.12h2.79Z"/><path d="M98.37,52.71A22.9,22.9,0,0,1,94,54.66l-.16-1.27c.48-.14,1-.29,1.81-.59V48H93.94V46.8h1.68V43.62h1.19V46.8h1.36V48H96.81v4.37a11.9,11.9,0,0,0,1.48-.73Zm9-.91a19.51,19.51,0,0,1-.45,4.82,1.35,1.35,0,0,1-1.38.86h-1.94l-.16-1.17h1.87c.42,0,.54-.31.6-.57a17.43,17.43,0,0,0,.27-3h-1a8.56,8.56,0,0,1-4.43,4.83l-.75-.93a8,8,0,0,0,4.1-3.9h-1.28a9.33,9.33,0,0,1-4.92,3.87l-.54-1a8.51,8.51,0,0,0,4.25-2.92h-1.43a8.64,8.64,0,0,1-2.46,1.77l-.55-.89a6.53,6.53,0,0,0,3.34-2.88H98.13v-1h9.69v1h-6.21a9.11,9.11,0,0,1-.65,1Zm-.53-7.71v4.83H99V44.09Zm-1.14.93h-5.55v1.09h5.55Zm0,1.91h-5.55V48h5.55Z"/><path d="M100.15,62.11V67.6H96a11.65,11.65,0,0,1-1.23,5.18l-1-.9a5.64,5.64,0,0,0,.81-2.15,16.57,16.57,0,0,0,.26-2.59v-5Zm.53-1.57H94V59.39h6.71ZM99,63.24H96v3.22H99Zm3.58.28h5.25v1.17H106v8.13h-1.24V64.69h-2.21V65c0,5-1.69,7-2.25,7.72l-1.12-.84a6,6,0,0,0,1.6-2.7,13.25,13.25,0,0,0,.54-3.81v-5.5a16.8,16.8,0,0,0,5.49-1.08l.72,1.11a17.09,17.09,0,0,1-5,1Z"/><path d="M107.13,85.27c-2.66-2.08-4.89-4.13-5.37-4.62-2.1-2.08-2.22-2.2-2.76-2.2a1.62,1.62,0,0,0-1.19.65c-.27.28-.54.61-3,3.56l-1-1.18c.51-.51,2.64-2.89,3.11-3.34a2.73,2.73,0,0,1,2-1c1,0,1.29.29,3.56,2.38A59.08,59.08,0,0,0,108.07,84Z"/><path d="M97.6,93.31h1.77v1.13H97.6v.34a11.82,11.82,0,0,0,1.82,2.66l-.69,1a9.85,9.85,0,0,1-1.13-1.93v6.91H96.43V96.66a13.37,13.37,0,0,1-2.14,3.75L93.81,99a14,14,0,0,0,2.56-4.59H94V93.31h2.44V91.2c-1.45.15-1.8.16-2.26.18L94,90.27a18,18,0,0,0,5-.69l.53,1A8.54,8.54,0,0,1,97.6,91Zm10.17,3.44v1c-1.72,3.41-5.43,4.94-8.8,5.66l-.53-1a14.47,14.47,0,0,0,4.82-1.62,15.84,15.84,0,0,0-1.88-1.88,9.49,9.49,0,0,1-1.83,1l-.67-.92a13.42,13.42,0,0,0,5-3.65l1,.47a6.91,6.91,0,0,1-.87,1Zm-.63-6.19v1c-1.23,2.22-4,4.17-7.47,5.07l-.55-1.08a12.32,12.32,0,0,0,3.55-1.26,17,17,0,0,0-1.86-1.65,10.71,10.71,0,0,1-1,.63L99,92.42a8.57,8.57,0,0,0,3.43-3l1.16.24a9.33,9.33,0,0,1-.6.88ZM102,91.64a5,5,0,0,1-.45.4,15.9,15.9,0,0,1,2,1.71,7.86,7.86,0,0,0,2.19-2.11Zm.78,6.17-.61.48a13.51,13.51,0,0,1,2,1.85,7.54,7.54,0,0,0,2.25-2.33Z"/><path d="M96.82,110.61v4.27c.53,2.21,2.79,2.21,3.54,2.21H108l-.21,1.18h-7.38c-2.76,0-3.57-1.33-3.87-1.86a11.25,11.25,0,0,1-2.19,2.22l-.61-1.29a7.5,7.5,0,0,0,1.93-1.69v-3.86H93.93v-1.18Zm-.39-2.36a15.72,15.72,0,0,0-2.34-2.48l.83-.79a15.49,15.49,0,0,1,2.46,2.46Zm11.37,2.13v1.18h-4.17c.41,1.13,1.35,2.68,4.26,3.77l-.7,1.14c-3.29-1.5-4-3.31-4.38-4.2a7.51,7.51,0,0,1-4,4.13L98,115.29c2.57-1.13,3.48-2.33,3.93-3.73H97.74v-1.18h4.38v-2.17H98.28v-1.14h2a7.24,7.24,0,0,0-1-1.89l1.17-.36a9,9,0,0,1,1.11,2.25h2.3a13.83,13.83,0,0,0,1.11-2.25l1.24.28a13.66,13.66,0,0,1-1.08,2h2.19v1.14h-4v2.17Z"/><rect class="cls-2" x="150.75" y="1" width="50" height="130"/><path d="M172.12,19V18h1.18v1h4.89V18h1.2v1h3.32v1.11h-3.32V21.2h-1.2V20.08H173.3V21.2h-1.18V20.08h-3.33V19Zm-3.33,5.77h3.85a19.4,19.4,0,0,0-.46-2h-2.66V21.7h5.63v-1h1.18v1H182v1.06h-2.58c-.17.68-.35,1.44-.5,2h3.83v1.08H168.79Zm12.49,2.16v5h-1.23v-.6h-8.59v.6h-1.25v-5ZM180.05,28h-8.59v2.3h8.59Zm-2.38-3.21a14.26,14.26,0,0,0,.42-2h-4.68c.15.63.28,1.14.43,2Z"/><path d="M173.56,41a10,10,0,0,1-1.62.72V46a1.14,1.14,0,0,1-1.31,1.22h-1.5L169,45.94h1.32c.21,0,.47,0,.47-.42v-3.4c-1,.36-1.35.45-1.88.6l-.19-1.28c.6-.15,1.21-.31,2.07-.6V37.19h-1.92V36.07h1.92V33.29h1.18v2.78h1.7v1.12h-1.68v3.24c.75-.28,1.12-.45,1.5-.61Zm-.95,5.39a7.33,7.33,0,0,0,2.07-4.92l1.16.16a13.88,13.88,0,0,1-.3,1.85,3.54,3.54,0,0,0,1.9,2V40.61h-3.85V39.53h9.07v1.08h-4v1.8h3.43v1.05h-3.43v2.33a1.75,1.75,0,0,0,.4,0h3.81L182.6,47h-3.55a4.54,4.54,0,0,1-3.92-2.23,6.14,6.14,0,0,1-1.62,2.46Zm9.3-7.8h-7.8V33.64h7.8Zm-1.14-3.93h-5.52v1h5.52Zm0,1.87h-5.52v1.1h5.52Z"/><path d="M176.35,50.21h5.5v1.13h-5.5v1.93h6.34v1.14h-2.55v1.76h2.31v1.14h-2.31v3.76c0,.63,0,1.47-1.36,1.47h-2.72l-.25-1.29,2.55,0c.4,0,.51-.21.51-.52V57.31H169.1V56.17h9.77V54.41H168.82V53.27h6.24V51.34h-5.39V50.21h5.39V48.59h1.29Zm-2.6,11a16.36,16.36,0,0,0-2.43-2.85l1-.72a16.19,16.19,0,0,1,2.55,2.74Z"/><path d="M182,75c-2.65-2.09-4.89-4.14-5.37-4.62-2.1-2.09-2.22-2.21-2.76-2.21a1.6,1.6,0,0,0-1.18.65c-.27.28-.54.61-3,3.57l-1-1.19c.51-.51,2.64-2.89,3.1-3.34a2.75,2.75,0,0,1,2.06-1c1,0,1.29.29,3.55,2.39A60.47,60.47,0,0,0,183,73.7Z"/><path d="M171.7,85v4.4a2,2,0,0,0,1.15,1.63,4.27,4.27,0,0,0,2.19.54h7.77l-.22,1.16h-7.5a4,4,0,0,1-3.65-1.7,13.08,13.08,0,0,1-2.17,2.13l-.59-1.32a10.38,10.38,0,0,0,1.8-1.45V86.21h-1.63V85Zm-.47-2.31a10.8,10.8,0,0,0-2.11-2.55l.84-.81a10.57,10.57,0,0,1,2.25,2.54Zm11.3-1.44h-4.26v1h3.81v5.32h-3.81v1.13h4.41v1h-4.41v1.31h-1.2V89.81h-4.44v-1h4.44V87.65h-3.72V82.33h3.72v-1h-4.26v-1h4.26V79.19h1.2v1.07h4.26Zm-5.46,2h-2.58v1.19h2.58Zm0,2.1h-2.58v1.28h2.58Zm3.85-2.1h-2.65v1.19h2.65Zm0,2.1h-2.65v1.28h2.65Z"/><path d="M168.61,107a13.84,13.84,0,0,0,.75-4l1.06.13a14.66,14.66,0,0,1-.75,4.28ZM174,96.44a41.11,41.11,0,0,1-2.88,4.46l2-.11a9.62,9.62,0,0,0-.39-1l.9-.36a13.87,13.87,0,0,1,1,2.71l-1,.38c-.06-.3-.09-.48-.16-.78l-1.1.12v6.54h-1.14V102c-.57,0-2.19.13-2.41.13l-.09-1.14h1.18c.47-.65.69-1,.89-1.26a15.73,15.73,0,0,0-2.07-2l.57-.92.52.41a29.48,29.48,0,0,0,1.38-2.69l1.1.41c-.57,1.23-1.61,2.85-1.68,3,.15.15.55.54.79.84A30.83,30.83,0,0,0,172.93,96Zm-.48,10.14a21.08,21.08,0,0,0-.57-3.45l.94-.19a13.37,13.37,0,0,1,.68,3.39Zm8.38-9.93a11.19,11.19,0,0,1-2.46,2.88,16.11,16.11,0,0,0,3.47,1.43l-.56,1.17a12.86,12.86,0,0,1-3.88-1.86A14,14,0,0,1,175,102l-.65-1.1a13.41,13.41,0,0,0,3.12-1.39,8.84,8.84,0,0,1-1.56-1.7,8.2,8.2,0,0,1-1.14.93l-.72-1A7.68,7.68,0,0,0,177,94.48l1.3.16a4.61,4.61,0,0,1-.51,1h4.11Zm-.1,11.73h-1.17v-.69h-4.17v.69H175.3V102.5h6.51Zm-1.17-4.77h-4.17v3h4.17ZM177,96.67c-.17.19-.23.25-.35.4a8,8,0,0,0,1.76,1.8,7.66,7.66,0,0,0,2.08-2.2Z"/><rect class="cls-2" x="225.62" y="1" width="50" height="130"/><path d="M249.29,51.1a17.74,17.74,0,0,1-2,.86v4.29c0,.82-.44,1.24-1.34,1.24h-1.75l-.2-1.21h1.62c.24,0,.47,0,.47-.37V52.41a20.1,20.1,0,0,1-2.27.72l-.19-1.24c.49-.12,1-.26,2.46-.71V47.44h-2.39v-1.1h2.39V43.59h1.2v2.75h1.77v1.1h-1.77v3.3c.73-.25,1.3-.51,2-.79Zm8.26-5.6h-2.29V56.16c0,1.11-.59,1.33-1.4,1.33h-2.43l-.19-1.26,2.29,0c.27,0,.47,0,.47-.44V45.5h-4.95V44.28h8.5Z"/><path d="M254.45,64.24h-7.62V63.15a16.72,16.72,0,0,1-2.63,1.39l-.72-1.24A13.24,13.24,0,0,0,250,58.72h1.25a15,15,0,0,0,6.54,4.58L257,64.54a15.68,15.68,0,0,1-2.59-1.39Zm1.53,1.7v6.84h-1.26v-.69h-8.19v.69h-1.26V65.94Zm-1.26,1.16h-8.19V71h8.19Zm-.33-4a17.45,17.45,0,0,1-3.8-3.33,13.85,13.85,0,0,1-3.7,3.33Z"/><path d="M254.58,74.58c0,.51.06,2.77.08,3.23l2.62-.08V79l-2.61.09c0,3.23-.1,3.56-.28,4a2.12,2.12,0,0,1-2.12,1,9.59,9.59,0,0,1-1.78-.17V82.66a11.81,11.81,0,0,0,1.75.19c.38,0,.86,0,1-.59a17.42,17.42,0,0,0,.12-3.15l-5.49.18,0,4c0,2.72.84,2.8,4.17,2.8a30.41,30.41,0,0,0,4.11-.2v1.31c-.49,0-1.42.1-3.85.1s-4,0-4.94-1c-.4-.44-.78-1-.78-3.15v-3.8l-2.59.09,0-1.26,2.62-.09V74.89h1.34l0,3.14,5.49-.18c0-1.69-.09-2.67-.13-3.24Z"/><rect class="cls-2" x="300.5" y="1" width="41" height="130"/><path d="M315,56.46l-1.08-.39a12,12,0,0,0,.73-3.92l1,.09A14.7,14.7,0,0,1,315,56.46Zm4-4.85a5.74,5.74,0,0,0-.2-.73l-1.18.12v6.49h-1.11v-6.4c-1.36.07-2,.07-2.43.07L314,50h1.17c.46-.65.69-1,.87-1.26a13.72,13.72,0,0,0-2-1.93l.6-.93c.21.16.27.21.49.4a13.66,13.66,0,0,0,1.4-2.72l1.1.41a15.22,15.22,0,0,1-1.7,3c.39.4.6.63.77.83.57-.9,1.06-1.75,1.62-2.73l1.09.45A36.68,36.68,0,0,1,316.47,50c.72,0,1.19,0,1.94-.1a8.26,8.26,0,0,0-.44-1l.93-.38A13.48,13.48,0,0,1,320,51.16Zm-.28,4.08a23.37,23.37,0,0,0-.47-3.42l.9-.13a17.66,17.66,0,0,1,.55,3.31Zm7.73,1.79h-2l-.31-1.26h1.72c.39,0,.47-.09.47-.49V53.06l-.83,1a10.17,10.17,0,0,1-1.74-4.32A8.46,8.46,0,0,1,322.05,54l-.84-.9c1.23-1.37,1.84-3.52,1.9-6.13H321.2V57.48H320V45.87h3.1V43.62h1.17v2.25h3.2V56.43C327.48,56.73,327.48,57.48,326.41,57.48ZM326.31,47h-2a9.59,9.59,0,0,0,2,6Z"/><path d="M318.6,83a11.49,11.49,0,0,1-1.32-2.3v7.34h-1.2V81a12.71,12.71,0,0,1-1.8,3.72l-.46-1.55a13.28,13.28,0,0,0,2.21-4.9h-2V77.12h2V74.19h1.2v2.93h1.4v1.12h-1.4v.57a11.87,11.87,0,0,0,2,3.15Zm8.14-1.21h-5.38V83.1h6.07v5h-1.15v-.73h-4.92v.73H320.2V78.59h-1.09V75.47h3.72V74.19H324v1.28h3.65v3.12h-.95Zm-.22-4.11V76.53h-6.26V77.7Zm-.93,1h-4.23v2.06h4.23Zm.69,5.43h-4.92v2.15h4.92Z"/><rect class="cls-2" x="366.37" y="1" width="50" height="130"/><path d="M386.94,44.7v4.23h3.79V43.62H392v5.31h3.83V44.7h1.28v5.41H392v5.43h4.4v-4.4h1.28v6.37h-1.28V56.7H386.32v.81h-1.26V51.14h1.26v4.4h4.41V50.11h-5.07V44.7Z"/><path d="M389,83a11.62,11.62,0,0,1-1.31-2.3v7.34h-1.2V81a13,13,0,0,1-1.8,3.72l-.47-1.55a13.37,13.37,0,0,0,2.22-4.9h-2V77.12h2V74.19h1.2v2.93h1.39v1.12h-1.39v.57A11.87,11.87,0,0,0,389.61,82Zm8.15-1.21h-5.38V83.1h6.07v5h-1.16v-.73h-4.91v.73h-1.16V78.59h-1.09V75.47h3.71V74.19h1.22v1.28h3.64v3.12h-.94Zm-.23-4.11V76.53h-6.25V77.7Zm-.93,1h-4.22v2.06H396Zm.69,5.43h-4.91v2.15h4.91Z"/><rect class="cls-2" x="441.25" y="1" width="50" height="130"/><path d="M466.86,43.6v3.56a10.23,10.23,0,0,0,2,5.9,9.66,9.66,0,0,0,4.41,3.11l-.83,1.23a10.6,10.6,0,0,1-6.22-7.24A10.3,10.3,0,0,1,460,57.4l-.75-1.23a9.68,9.68,0,0,0,4.35-3,10.51,10.51,0,0,0,2-6V43.6Zm-6,2.18a20.9,20.9,0,0,1,2.21,4.52l-1.27.44a19.13,19.13,0,0,0-2.08-4.43Zm11.92.39a18.86,18.86,0,0,1-2.27,4.64l-1.09-.62a17.06,17.06,0,0,0,2-4.5Z"/><path d="M469.58,84.18h3.6v1.08h-3.6V88.1h-1.22V85.26h-4c-.69,1.92-2.79,2.63-4.48,2.84l-.4-1.12c1.08-.13,2.85-.42,3.6-1.72h-3.72V84.18h4.1a3.84,3.84,0,0,0,.09-1h1.13a4.7,4.7,0,0,1-.05,1h3.77V83a1.54,1.54,0,0,1-.82-.2,1.32,1.32,0,0,1-.47-1V78.35h-3a4.5,4.5,0,0,1-.57.73h2.76V80c-1.23,2.06-3.9,3.34-6.57,3.77l-.43-1.08a12,12,0,0,0,3.21-.82,11.54,11.54,0,0,0-1.13-.9l.94-.6a13.4,13.4,0,0,1,1.22,1A5.07,5.07,0,0,0,465.08,80h-2.62a10.12,10.12,0,0,1-2.72,1.4l-.51-1a7.41,7.41,0,0,0,3.59-2.07h-3.36v-1h13.63v1h-4.85v1.54a13.94,13.94,0,0,0,3.9-1.2l.53,1a16.63,16.63,0,0,1-4.43,1.21v.64c0,.37.09.5.48.5h2.87c.46,0,.54-.18.58-1.56l1.1.39c-.15,1.44-.21,2.16-1.26,2.16h-2.43Zm-6.49-9.08v-.88h1.21v.88h4v-.88h1.21v.88h3.71v1.1h-3.71v.86h-1.21V76.2h-4v.86h-1.21V76.2h-3.77V75.1Z"/><rect class="cls-2" x="516.12" y="1" width="50" height="130"/><path d="M537.17,49.44v4.2a2.36,2.36,0,0,0,1.12,1.78,5.14,5.14,0,0,0,2.32.6h7.64L548,57.19h-7.17a4.49,4.49,0,0,1-4-1.86,14.22,14.22,0,0,1-2.14,2.23L534,56.27a8.93,8.93,0,0,0,2-1.67v-4h-1.77v-1.2Zm-.39-2.38a14.71,14.71,0,0,0-2.39-2.52l.89-.8a12.59,12.59,0,0,1,2.46,2.49ZM547.59,47v7.17c0,.48-.11,1.15-1.17,1.15h-1.64l-.21-1.15H546c.25,0,.42,0,.42-.45v-1.2h-2.77v2.61h-1.13V52.54h-2.77v2.79h-1.13V47h3.28a11.66,11.66,0,0,0-1.61-1l.65-.82a14.59,14.59,0,0,1,2,1.25,10.52,10.52,0,0,0,2.39-1.34h-6.88v-1h8.75v1A13.24,13.24,0,0,1,543.85,47Zm-5,1h-2.77v1.33h2.77Zm0,2.27h-2.77v1.33h2.77Zm3.9-2.27h-2.77v1.33h2.77Zm0,2.27h-2.77v1.33h2.77Z"/><path d="M537.34,88.11h-1.23V81.8a11.45,11.45,0,0,1-1.43,1.33L534,82a11.33,11.33,0,0,0,3.82-5.14l1.26.36a12.72,12.72,0,0,1-1.7,3.09Zm4.44-12.47H548V76.8H534.21V75.64h6.28V74.22h1.29Zm5.37,2.83v1A10.47,10.47,0,0,1,544,85.17a12,12,0,0,0,4,1.74l-.54,1.2a13.29,13.29,0,0,1-4.41-2.19,14.06,14.06,0,0,1-4.42,2.19l-.54-1.22a13.11,13.11,0,0,0,4-1.79,9.48,9.48,0,0,1-2.18-3,9.65,9.65,0,0,1-1.28,1.1l-.8-1A9.85,9.85,0,0,0,541.66,77l1.23.3a8.17,8.17,0,0,1-.43,1.2Zm-4.6,1.84a12.11,12.11,0,0,1,2.26,1.91,9.7,9.7,0,0,0,1-2.7h-3.92a12.36,12.36,0,0,1-1.21,1.74,8.31,8.31,0,0,0,2.3,3.16,7.43,7.43,0,0,0,1.17-1.23,12.45,12.45,0,0,0-2.39-2Z"/><rect class="cls-2" x="591" y="1" width="50" height="130"/><path d="M619.33,53.58h3.6v1.08h-3.6v2.83h-1.22V54.66h-4c-.69,1.92-2.79,2.62-4.48,2.83l-.4-1.11c1.08-.13,2.85-.42,3.6-1.72h-3.72V53.58h4.1a3.88,3.88,0,0,0,.09-1h1.13a4.7,4.7,0,0,1,0,1h3.77V52.41a1.6,1.6,0,0,1-.82-.19,1.36,1.36,0,0,1-.47-1V47.74h-3a3.77,3.77,0,0,1-.57.74H616v.91c-1.23,2.08-3.9,3.35-6.57,3.79L609,52.1a12.45,12.45,0,0,0,3.21-.83,13.38,13.38,0,0,0-1.13-.9l.94-.6c.71.51,1.13.9,1.22,1a4.94,4.94,0,0,0,1.56-1.35h-2.62a9.79,9.79,0,0,1-2.72,1.42l-.51-1a7.33,7.33,0,0,0,3.59-2.07h-3.36v-1h13.63v1H618v1.55a13.94,13.94,0,0,0,3.9-1.2l.53,1A16.39,16.39,0,0,1,618,50.28v.65c0,.35.09.49.48.49h2.87c.46,0,.54-.18.58-1.56l1.1.39c-.15,1.44-.21,2.16-1.26,2.16h-2.43Zm-6.49-9.07v-.89h1.21v.89h4v-.89h1.21v.89h3.71V45.6h-3.71v.86H618V45.6h-4v.86h-1.21V45.6h-3.77V44.51Z"/><path d="M611.64,88.11h-1.17V80.25a6.73,6.73,0,0,1-1.05,1.45l-.59-1.39a12.7,12.7,0,0,0,2.37-6.15l1.26.21a14.18,14.18,0,0,1-.82,3.31Zm4.18-5v1.13c.94-.17,1.2-.22,1.69-.33v1c-.27.06-1.27.27-1.69.34v1.67c0,.41,0,1.17-1.17,1.17H613l-.2-1.2,1.49,0c.28,0,.42,0,.42-.39V85.48c-1.36.21-1.86.26-2.25.3l-.15-1.08c.6,0,1.18-.07,2.4-.25V83.14h-2.3v-1h2.3v-.75c-.8.06-1.38.07-2,.07l-.14-.89a19.73,19.73,0,0,0,4.38-.39l.42.88a13.47,13.47,0,0,1-1.57.22v.86h2.46c-.12-.86-.15-1.49-.17-1.9h1.14a16.85,16.85,0,0,0,.16,1.9h3.5v1h-3.34a10.3,10.3,0,0,0,.48,1.71,11.79,11.79,0,0,0,1.24-1.39l.9.56a8.53,8.53,0,0,1-1.69,1.85c.24.45.51.95.78.95s.6-.53,1-1.62l.85.66c-.52,1.66-1.11,2.22-1.8,2.22-.93,0-1.45-1-1.74-1.5A8.4,8.4,0,0,1,617,87.9l-.45-1a8.83,8.83,0,0,0,2.56-1.32,11.36,11.36,0,0,1-.69-2.48Zm-.71-7.76a5.07,5.07,0,0,0-.55-1l1.18-.27a7.73,7.73,0,0,1,.71,1.26h2.44a7.24,7.24,0,0,0,.62-1.29l1.29.22a6.06,6.06,0,0,1-.54,1.07h2.38v.93h-4.36v.85h3.82V78h-3.82v.93h4.63v.93H612.4v-.93h4.72V78h-3.74v-.84h3.74v-.85h-4.26v-.93ZM621.44,82a5.49,5.49,0,0,0-1.21-1.29l.76-.56a5.62,5.62,0,0,1,1.26,1.27Z"/></g></g></svg>