<svg xmlns="http://www.w3.org/2000/svg" xmlns:xlink="http://www.w3.org/1999/xlink" viewBox="0 0 640.12 34.67"><defs><style>.cls-1{fill:url(#名称未設定グラデーション_4);}.cls-2{fill:url(#名称未設定グラデーション_4-2);}.cls-3{fill:#006f49;}</style><linearGradient id="名称未設定グラデーション_4" y1="18.01" x2="200" y2="18.01" gradientUnits="userSpaceOnUse"><stop offset="0" stop-color="#fff"/><stop offset="1" stop-color="#006f49"/></linearGradient><linearGradient id="名称未設定グラデーション_4-2" x1="413.97" y1="40.68" x2="613.97" y2="40.68" gradientTransform="translate(26.16 -22.68)" xlink:href="#名称未設定グラデーション_4"/></defs><g id="レイヤー_2" data-name="レイヤー 2"><g id="文字"><rect class="cls-1" y="17.01" width="200" height="2"/><rect class="cls-2" x="440.12" y="17.01" width="200" height="2" transform="translate(1080.25 36.01) rotate(-180)"/><path class="cls-3" d="M242.42,20.24c1,0,1.43-.24,1.43-.8s-.75-3.64-5.67-7.72c-4.16,2.2-6.32,2.4-7.6,2.4-4.08,0-6.36-2.88-6.36-5,0-.6.16-1.56.4-1.56s.4.24.84.6a9.41,9.41,0,0,0,5.8,2.44,12.47,12.47,0,0,0,4.08-1c-1.32-.92-2.6-1.76-3.76-2.52A2.48,2.48,0,0,1,230.34,5a2.36,2.36,0,0,1,2.28-2.4A3.42,3.42,0,0,1,235,3.8a6,6,0,0,0,4.16,1.72,6.61,6.61,0,0,0,1.52-.2,3,3,0,0,1,.8-.12,1.65,1.65,0,0,1,1.83,1.64c0,1.16-.91,2.24-3.63,4,2.36,1.8,8.11,6.36,8.11,11.24,0,1.8-1,3.12-2.52,3.12a2,2,0,0,1-1.59-.88c-1-1.28-5.24-2.56-8.8-2.56-4.4,0-5.68,2-5.68,3.48,0,1.28,1.08,3.68,6,3.68a11.86,11.86,0,0,0,3.56-.56,5,5,0,0,1,1.28-.2,2.52,2.52,0,0,1,2.76,2.12c0,1.8-3,2.72-5.88,2.72-7.08,0-10-3.76-10-6.8,0-6,9.72-6,12.36-6,1.08,0,2.08,0,2.8,0Zm-3-13.32c0-1-4.36-1.68-4.76-1.68-.56,0-.76.24-.76.48,0,.56,2.32,2.4,3.2,3.12C237.62,8.6,239.42,7.56,239.42,6.92Z"/><path class="cls-3" d="M272.62,30.92c0,2.08-1.32,3.31-2.52,3.31-1,0-1.92-.8-2-2.64-.36-4.95-3.88-11-5.68-13.31a3.94,3.94,0,0,1-1-2.56c0-1.32.64-3.28,5.72-10.68a7.55,7.55,0,0,0,1.32-3,.92.92,0,0,0-.16-.56,2.27,2.27,0,0,1-.56-1.08c0-.24.2-.36.52-.36.92,0,4.24,1.08,4.24,3.72a4.24,4.24,0,0,1-1.36,2.92c-2.16,2.24-6.32,5.08-7.8,7.64a2.33,2.33,0,0,0-.32,1.2,2,2,0,0,0,.52,1.4c1.88,2.08,8.64,8,9.08,13.63Z"/><path class="cls-3" d="M289,11.28a6.78,6.78,0,0,1,0-.88c0-2,.8-3.12,2.92-4.44.68-.44,1.44-.76,2.08-1.24a1.21,1.21,0,0,0,.52-.92,1.8,1.8,0,0,0-.4-1A7.19,7.19,0,0,1,293,.32a.21.21,0,0,1,.24-.24c1.68,0,7.16,2.92,7.16,5.84a1.85,1.85,0,0,1-1.92,2,6.48,6.48,0,0,1-2-.44,10.44,10.44,0,0,0-3.2-.68c-1.48,0-2.28.64-2.28,1.92a4.89,4.89,0,0,0,.24,1.4,9.09,9.09,0,0,1,.52,2.72,18,18,0,0,1-.44,3.12,32.83,32.83,0,0,0-.48,5c0,1.36.2,2.4,1,2.4a1.94,1.94,0,0,0,.92-.4c1-.64,2-1.48,3.8-2.56a9.55,9.55,0,0,1,4.84-1.4c3.8,0,6.88,2.56,6.88,5.92,0,1.84-.88,3.91-3.08,6-2.8,2.67-8.88,3.79-11.76,3.79-.56,0-.84-.08-.84-.2s.48-.32,1.32-.52c4.48-1.07,10.24-4.79,10.24-9.19A4.11,4.11,0,0,0,300,20.6c-2.52,0-4.24,2.16-6,5.92a2.36,2.36,0,0,1-2.08,1.6c-1.24,0-4.12-1.28-4.12-6.64a35.32,35.32,0,0,1,.6-5.6,30.12,30.12,0,0,0,.64-4.24Z"/><path class="cls-3" d="M318.07,25.52a2.69,2.69,0,0,1,1.8-2.32c3.08-1.48,5.08-2.92,5.84-4.88.16-.44.4-1.08.6-1.08s.32.48.32,2c0,4.84-4.12,8.36-6.32,8.36A2.12,2.12,0,0,1,318.07,25.52Zm10.72-10.68a20.43,20.43,0,0,1-3.64.76c-.88,0-5.56-.68-5.56-3.6,0-.48.08-.64.36-.64a1.63,1.63,0,0,1,.64.16,13.79,13.79,0,0,0,5.28,1,44.94,44.94,0,0,0,5.56-.52V9.6c0-2.16-.72-3.36-1.92-3.36H329c-.6,0-.84-.16-.84-.44s.48-1.52,2.16-1.52c2,0,5.12,1.64,5.12,3.16,0,.76-.64,1.4-.8,2.48-.08.52-.12,1.12-.16,1.72,1-.12,1.76-.2,2.4-.32,1.68-.24,1.88-1,3.64-1,1.28,0,5.36.84,5.36,2.6,0,.72-.84,1.32-2.12,1.32a6,6,0,0,1-.84-.08,25.78,25.78,0,0,0-4.68-.4,31.74,31.74,0,0,0-3.92.24c0,.68,0,1.4,0,2.08,0,2,.08,4,.24,5.76.12,1.48.52,3,.52,4.52,0,2.32-1,4.72-2.68,4.72-.92,0-1.84-.88-2.08-2.56a10.28,10.28,0,0,0-2.12-5.24c-.88-1.12-1.24-1.64-1.24-1.88,0,0,0-.08.12-.08a6.58,6.58,0,0,1,1.68,1,21.88,21.88,0,0,0,2.52,1.64c.24,0,.28-.4.28-4.88,0-1.56,0-3.12,0-4.64Zm14.08,10a20.94,20.94,0,0,0-5.08-6.16c-.76-.56-1.2-.92-1.2-1s.08-.08.2-.08c.68,0,10.36,1.76,10.36,6.24A2.34,2.34,0,0,1,345,26.28,2.63,2.63,0,0,1,342.87,24.84Z"/><path class="cls-3" d="M379,18.08c-7.32,0-12.76.28-15.6.88a12.7,12.7,0,0,1-2.52.36c-1.8,0-5.6-1.72-5.6-4.44,0-.48.13-.68.36-.68a2.1,2.1,0,0,1,.92.36,4.39,4.39,0,0,1,.56.36,10.7,10.7,0,0,0,3.88.52c.6,0,13.28-.64,17.64-1a8.7,8.7,0,0,1,1,0c2.48,0,4.76.56,4.76,1.72s-3,1.92-4,2Z"/><path class="cls-3" d="M386.14,30.59s-.08,0-.08,0,.44-.43,1.2-1c6.84-5.16,10.72-13.24,10.72-16,0-1.6-1.08-1.76-1.88-1.88s-1.2-.2-1.2-.48a2.27,2.27,0,0,1,2.32-1.52C398.5,9.6,402,11,402,13.8a6.14,6.14,0,0,1-.48,2.12C397.26,26.68,387.34,30.59,386.14,30.59ZM422.53,9c0,.12-2,8-13.59,17.24-.72.56-1.36,1.52-2.24,1.52-1.16,0-3.36-2.48-3.36-3.8a14.61,14.61,0,0,1,.52-2.2,49,49,0,0,0,.72-7.56c0-3.44-.68-4.76-1.4-5s-1.32-.48-1.32-.76a2.87,2.87,0,0,1,2.48-1.08c2.28,0,4.24,2.76,4.24,4.2a4.1,4.1,0,0,1-.32,1.44c-.72,1.8-1,8.8-1,8.8,0,.2.08.28.2.28.88,0,8.87-5.6,13.59-11.64.84-1,1.28-1.56,1.44-1.56A.18.18,0,0,1,422.53,9Z"/></g></g></svg>