<svg xmlns="http://www.w3.org/2000/svg" xmlns:xlink="http://www.w3.org/1999/xlink" viewBox="0 0 320 35"><defs><style>.cls-1{fill:url(#名称未設定グラデーション_12);}</style><linearGradient id="名称未設定グラデーション_12" y1="-7207.67" x2="320" y2="-7207.67" gradientTransform="translate(0 7225.17)" gradientUnits="userSpaceOnUse"><stop offset="0" stop-color="#fff" stop-opacity="0"/><stop offset="1" stop-color="#c9a063"/></linearGradient></defs><g id="レイヤー_2" data-name="レイヤー 2"><g id="文字"><rect class="cls-1" width="320" height="35" transform="translate(320 35) rotate(180)"/></g><g id="レイヤー_1-2" data-name="レイヤー 1"><path d="M28.88,8V9.44h7.64v1.33H28.88v1.3h5.91v9.32H24V12.07h3.39v-1.3h-7.6V9.44h7.6V8ZM22.11,24.67H20.64V12.19h1.47V22.66H36.47V24H22.11Zm11.24-11.4h-7.9V14.8h7.9Zm0,2.65h-7.9v1.5h7.9Zm0,2.59h-7.9v1.68h7.9Z"/><path d="M51,20h4.32v1.3H51v3.4H49.53v-3.4H44.67c-.83,2.3-3.35,3.15-5.37,3.4l-.49-1.33c1.3-.16,3.43-.51,4.33-2.07H38.67V20h4.92a5,5,0,0,0,.1-1.19h1.37A5.29,5.29,0,0,1,45,20h4.54v-1.4a1.87,1.87,0,0,1-1-.24A1.61,1.61,0,0,1,48,17.15V13H44.4a4.69,4.69,0,0,1-.69.88H47V15c-1.47,2.48-4.68,4-7.88,4.54l-.52-1.3a15,15,0,0,0,3.85-1,13.18,13.18,0,0,0-1.35-1.08l1.13-.72a17.81,17.81,0,0,1,1.46,1.17A5.8,5.8,0,0,0,45.58,15H42.43a11.41,11.41,0,0,1-3.26,1.69l-.61-1.19A8.83,8.83,0,0,0,42.87,13h-4V11.8H55.2V13H49.38v1.85a17,17,0,0,0,4.68-1.44l.64,1.17A19.94,19.94,0,0,1,49.38,16v.78c0,.43.11.59.58.59H53.4c.56,0,.65-.22.7-1.87l1.32.46c-.18,1.73-.26,2.6-1.52,2.6H51ZM43.19,9.08V8h1.46V9.08H49.4V8h1.46V9.08h4.45v1.31H50.86v1H49.4v-1H44.65v1H43.19v-1H38.67V9.08Z"/><path d="M65,22.42c2.83-.25,4.32-.7,5.33-1.71a6.46,6.46,0,0,0,1.57-4.54c0-2.1-1-5.33-5.47-5.45,0,3.62-1.39,11.77-5.37,11.77-2.11,0-3.37-2.52-3.37-5.16,0-4.47,3.14-8.07,8.48-8.07,5,0,7.49,3.06,7.49,7,0,6.84-5.76,7.47-8.13,7.65ZM61.8,12a6.85,6.85,0,0,0-2.58,5.49c0,1.35.45,3.4,1.86,3.4,1,0,1.54-.95,1.9-1.64a21.56,21.56,0,0,0,1.82-8.42A6.52,6.52,0,0,0,61.8,12Z"/><path d="M78.65,16.08a11.34,11.34,0,0,0-2.83-1.85L76.59,13a11.7,11.7,0,0,1,2.92,1.82Zm-2.78,7.35a22.71,22.71,0,0,0,3.23-5.91l1.2.89a21.57,21.57,0,0,1-3.36,6.24Zm3.68-12a11.77,11.77,0,0,0-2.9-1.94l.83-1.14a10.18,10.18,0,0,1,3,1.82Zm-.09,12.27c2.44-1.82,2.8-3.64,2.86-7.28h1.4c-.07,4.27-.68,6.37-3.17,8.36Zm10-12.25a21.57,21.57,0,0,1,3.35,3.94l-1.22.85a15.15,15.15,0,0,0-1-1.48c-2.36.29-6.81.53-9.65.6l-.11-1.39,2,0a15.52,15.52,0,0,0,1.51-3.06H80.88V9.47h5.06V8h1.49V9.47h5.19v1.36H86a31.05,31.05,0,0,1-1.52,3c2.56-.07,3.75-.11,5.28-.25a14.56,14.56,0,0,0-1.32-1.42ZM87,24.24H85.56V16.46H87Zm3.24-1.5c0,.11,0,.42.34.42H91c.36,0,.38-.22.41-.61.07-.67.07-1.12.11-1.95l1.33.4a17.22,17.22,0,0,1-.29,2.86.92.92,0,0,1-1,.72H89.88a1,1,0,0,1-1.06-1V16.3h1.37Z"/><path d="M100.18,8.57c-.11,1.95-.13,2.45-.16,4.18.14-.14,3.07-3.08,5.69-3.08,3.11,0,3,3.06,2.93,4.13l-.16,3.65c0,.56-.07,1.46-.07,2,0,1.17.12,1.75.81,2a7.5,7.5,0,0,0,1.92.27l-.39,1.52c-2.58-.22-4-.4-4-4,0-.41,0-1.33,0-1.8l.18-3.65c0-1.12.09-2.61-1.6-2.61-2.36,0-5.31,3.4-5.44,3.56,0,2.42,0,3.37,0,5.6,0,2,0,2.83,0,3.62H98.34c0-1.69.06-2.18.09-6.41a16.22,16.22,0,0,1-2.68,3.87l-1-1.47a13.27,13.27,0,0,0,3.75-5.28V12.93l-3.12,0V11.44h3.14c0-.31,0-2.78,0-2.87Z"/></g></g></svg>