<svg xmlns="http://www.w3.org/2000/svg" xmlns:xlink="http://www.w3.org/1999/xlink" viewBox="0 0 320 35"><defs><style>.cls-1{fill:url(#名称未設定グラデーション_12);}</style><linearGradient id="名称未設定グラデーション_12" y1="1810.66" x2="320" y2="1810.66" gradientTransform="translate(0 -1793.16)" gradientUnits="userSpaceOnUse"><stop offset="0" stop-color="#fff" stop-opacity="0"/><stop offset="1" stop-color="#c9a063"/></linearGradient></defs><g id="レイヤー_2" data-name="レイヤー 2"><g id="文字"><rect class="cls-1" width="320" height="35" transform="translate(320 35) rotate(180)"/></g><g id="レイヤー_1-2" data-name="レイヤー 1"><path d="M179,16.23v1.71H162.34V16.23Z"/><path d="M185.76,22.3h-1.12V17.92c-.27,0-.82.11-1.08.13,0,4.7-1.08,6.66-1.54,7.49l-1.08-1.19a12.11,12.11,0,0,0,1.35-6.18l-1.08.09-.13-1.36c.83,0,.92,0,1.21-.08V10.76h1.83a15.73,15.73,0,0,0,.54-1.82l1.5.18c-.22.63-.36,1-.63,1.64h2.7v5.4c.14,0,.2,0,.66-.11v1.24c-.34.07-.5.11-.66.13v6.71c0,1.19-.56,1.5-1.51,1.5h-1.66l-.29-1.51h1.68c.41,0,.5-.07.5-.45V17.62c-.18,0-1,.14-1.19.16Zm-2.2-5.57c.83-.07,1.43-.14,3.39-.38V12h-3.39Zm1.57-.86a13,13,0,0,0-1-2.79l1.11-.38a14.55,14.55,0,0,1,1.07,2.75Zm12.15,9.76a13.43,13.43,0,0,1-4-2.34,14,14,0,0,1-3.8,2.34l-.81-1.28a13.33,13.33,0,0,0,3.58-2.11,12.23,12.23,0,0,1-2.16-3.94l1.06-.4h-1.89V16.55h7.58v1.32a12.06,12.06,0,0,1-2.54,4.41A11.67,11.67,0,0,0,198,24.22ZM195.38,9.5v3.92c0,.2,0,.43.43.43h.45a.51.51,0,0,0,.43-.16,8.16,8.16,0,0,0,.25-1.76l1.19.36c-.09,2.21-.45,2.89-1.67,2.89h-1.14c-.52,0-1.28-.09-1.28-1.38v-3h-2.57c-.2,3.22-.9,4.27-1.78,5.15l-.87-1.13c.54-.67,1.33-1.62,1.33-4.65V9.5Zm-4,8.4a10.7,10.7,0,0,0,1.91,3.37,9.05,9.05,0,0,0,1.92-3.37Z"/><path d="M212.43,20.93h4.32v1.29h-4.32v3.41H211V22.22h-4.86c-.83,2.31-3.35,3.16-5.37,3.41l-.49-1.33c1.3-.17,3.43-.51,4.33-2.08h-4.47V20.93H205a5,5,0,0,0,.1-1.19h1.37a5.29,5.29,0,0,1-.07,1.19H211V19.52a1.94,1.94,0,0,1-1-.23,1.63,1.63,0,0,1-.56-1.19V13.92h-3.58a5,5,0,0,1-.69.89h3.32V15.9c-1.48,2.49-4.69,4-7.89,4.54l-.52-1.29a15,15,0,0,0,3.85-1,13.18,13.18,0,0,0-1.35-1.08l1.13-.73c.85.62,1.35,1.09,1.46,1.18A5.8,5.8,0,0,0,207,15.9h-3.15a11.64,11.64,0,0,1-3.26,1.7L200,16.41a8.91,8.91,0,0,0,4.31-2.49h-4V12.75h16.37v1.17h-5.82v1.86a17.11,17.11,0,0,0,4.69-1.44l.63,1.17A19.94,19.94,0,0,1,210.82,17v.77c0,.43.11.6.58.6h3.44c.56,0,.65-.22.7-1.88l1.32.47c-.18,1.73-.26,2.59-1.52,2.59h-2.91ZM204.63,10V9h1.46V10h4.75V9h1.46V10h4.45v1.31H212.3v1h-1.46v-1h-4.75v1h-1.46v-1h-4.52V10Z"/><path d="M226.42,23.38c2.83-.26,4.32-.71,5.33-1.71a6.46,6.46,0,0,0,1.57-4.54c0-2.11-1-5.33-5.47-5.46,0,3.62-1.39,11.78-5.37,11.78-2.11,0-3.37-2.52-3.37-5.17,0-4.46,3.14-8.06,8.48-8.06,5,0,7.49,3.06,7.49,7,0,6.84-5.76,7.47-8.13,7.65Zm-3.18-10.45a6.87,6.87,0,0,0-2.58,5.5c0,1.35.45,3.4,1.86,3.4.95,0,1.55-1,1.91-1.64a21.63,21.63,0,0,0,1.81-8.43A6.55,6.55,0,0,0,223.24,12.93Z"/><path d="M240.09,17a11.66,11.66,0,0,0-2.83-1.86L238,14A11.41,11.41,0,0,1,241,15.78Zm-2.78,7.35a22.71,22.71,0,0,0,3.23-5.91l1.2.88a21.62,21.62,0,0,1-3.36,6.25Zm3.68-12a11.23,11.23,0,0,0-2.9-1.94l.83-1.14a10.18,10.18,0,0,1,3,1.82ZM240.9,24.6c2.44-1.82,2.81-3.64,2.86-7.27h1.4c-.07,4.26-.68,6.37-3.17,8.35Zm10-12.24a21.54,21.54,0,0,1,3.34,3.94l-1.22.85a14,14,0,0,0-1-1.48c-2.36.29-6.81.52-9.65.6l-.11-1.39,2,0a15.52,15.52,0,0,0,1.51-3.06h-3.51V10.43h5.06V9h1.49v1.46h5.19v1.35H247.4a31.66,31.66,0,0,1-1.52,3c2.56-.07,3.75-.11,5.28-.25a13.72,13.72,0,0,0-1.32-1.43ZM248.39,25.2H247V17.42h1.39Zm3.24-1.5c0,.11,0,.42.34.42h.47c.36,0,.38-.22.41-.62.07-.66.07-1.11.11-1.94l1.33.39a17.24,17.24,0,0,1-.29,2.87.93.93,0,0,1-1,.72h-1.66a1,1,0,0,1-1.06-1V17.26h1.37Z"/><path d="M261.62,9.53c-.11,2-.13,2.45-.16,4.18.14-.15,3.08-3.08,5.69-3.08,3.11,0,3,3.06,2.93,4.12l-.16,3.66c0,.56-.07,1.46-.07,2,0,1.17.12,1.74.81,2a8,8,0,0,0,1.92.27l-.39,1.51c-2.58-.21-4-.39-4-4,0-.41,0-1.33,0-1.8l.18-3.66c.05-1.11.09-2.61-1.6-2.61-2.36,0-5.31,3.41-5.44,3.57,0,2.41-.05,3.37-.05,5.6,0,2,0,2.83,0,3.62h-1.62c0-1.7.06-2.18.09-6.41a16.62,16.62,0,0,1-2.68,3.87l-1-1.48a13.32,13.32,0,0,0,3.74-5.27V13.89l-3.11,0V12.39h3.13c0-.3,0-2.77,0-2.86Z"/></g></g></svg>