<svg xmlns="http://www.w3.org/2000/svg" viewBox="0 0 240 43.45"><defs><style>.cls-1{fill:none;stroke:#231815;stroke-miterlimit:10;stroke-width:0.75px;}.cls-2{fill:#231815;}</style></defs><g id="レイヤー_2" data-name="レイヤー 2"><g id="文字"><polyline class="cls-1" points="0 37.33 111.75 37.33 120.45 43 128.95 37.33 240 37.33"/></g><g id="レイヤー_1-2" data-name="レイヤー 1"><path class="cls-2" d="M102.75,14c0,.21-.15.45-.69.45H88.26c-1.71,0-7.89.09-10.65.36h0c-.57,0-1.5-1.35-1.5-1.74,3.18.39,10.53.54,12.3.54h7.71a.68.68,0,0,0,.54-.27c.15-.27,1.86-2.88,2.46-2.88a.44.44,0,0,1,.21,0C100.32,10.86,102.75,13.17,102.75,14Z"/><path class="cls-2" d="M124.57,2.34h1.08c.15,0,.3-.24.36-.3s.72-1,1-1c.48,0,2.67,1.35,2.67,2a.53.53,0,0,1-.36.48c-.36.21-.69.21-.72.57-.06.63-.12,1.68-.12,2.55,0,2.1.21,2.16,1.11,2.16,1.68,0,1.83-.69,2.49-3.87.06-.33.12-.48.18-.48.21,0,.21,3.21.54,3.39a1.48,1.48,0,0,1,.87,1.29c0,1.17-1.59,2-4.38,2s-3.42-1.11-3.42-2.37c0-1.65,0-4.14.06-5.37a.35.35,0,0,0-.3-.3h-1.05l-.27.18c-.27.12-.36.24-.39.9-.15,4.41-1.38,6.48-5,8a2,2,0,0,1-.63.21s-.06,0-.06,0,.15-.24.39-.45a6.34,6.34,0,0,0,1.11-1.29c-.54.21-1.14.42-1.77.63,0,4,.12,9.36.24,11.4V23c0,3-3.12,3.36-3.48,3.36a.82.82,0,0,1-.78-.54c-.39-.78-2.61-2.07-2.61-2.34,0,0,0-.06.12-.06a1.3,1.3,0,0,0,.15,0,12.71,12.71,0,0,0,2.28.27c1.26,0,1.71-.42,1.74-1.17.06-2.67.06-6.9.06-10.53-1.32.39-2.67.75-3.93,1-.12,5.16-.93,10.56-5.28,14a1.7,1.7,0,0,1-.57.33s0,0,0,0a1.31,1.31,0,0,1,.38-.6c2.55-3.12,3.09-8.7,3.12-13.08l-.51.09c-.33.06-.51.39-.75.39-.54,0-1.62-2.67-1.68-2.82a1,1,0,0,0,0-.12c0-.09.05-.09.11-.09h.18a14.59,14.59,0,0,0,2.16.18h.48a66.77,66.77,0,0,0-.51-7.86,1.38,1.38,0,0,1,0-.3s0,0,0,0A9.18,9.18,0,0,1,112,4.38c.09-.9.18-2.22.18-2.76a10,10,0,0,0-.12-1.44V.09c0-.06,0-.09.06-.09s.06,0,.12,0c.93.12,3.84,1,3.84,1.71,0,.24-.3.48-.9.54-.33,0-.42.21-.57.42a18,18,0,0,1-1.56,1.92h2.1c.21,0,.36-.27.42-.36a3.25,3.25,0,0,1,1-1c.42,0,2.49,1.41,2.49,2,0,.24-.24.48-.75.75-.27.12-.33.36-.33.69,0,.51,0,2,0,3.78.63-.09,1.26-.15,1.8-.24.09,0,.15,0,.21,0,.84-1.53,1.11-3.33,1.11-6.69A21.38,21.38,0,0,0,120.88,1V.93s0-.06,0-.06A17.16,17.16,0,0,1,124.57,2.34Zm-9.3,6.33a1.28,1.28,0,0,1-1.2,1.29,1.45,1.45,0,0,1-1.17-.81,18.78,18.78,0,0,0-1.05-2l-.06-.09v4l3.93-.33c0-2.1,0-3.9-.06-4.92,0-.39-.12-.48-.36-.48h-2.82l-.3.27a.79.79,0,0,0-.39.66v.45H112C114.73,6.87,115.27,8,115.27,8.67Zm-.06,5.22a.44.44,0,0,1-.27.36c-.48.27-.48.27-.48,1.89,0,1.14.06,2.55.09,3.6v.06a1,1,0,0,1-1,1,.82.82,0,0,1-.84-.9v-.09c.06-1,.09-2.88.09-4.14v-.93a8.58,8.58,0,0,0-.18-1.44.11.11,0,0,1,0-.09q0-.09.18-.09C112.9,13.14,115.21,13.38,115.21,13.89Zm19.23,10.8c.06,0,.09,0,.09.06s-2.76.69-3.84,1.83a.65.65,0,0,1-.54.24c-.42,0-2.61-.84-5-4a18.13,18.13,0,0,1-10.41,4.23c-.15,0-.24,0-.24,0s.48-.27,1.32-.54a17.11,17.11,0,0,0,8-5.67,20,20,0,0,1-2.43-6.57c-.45,0-.9.06-1.32.12h0c-.42,0-1.38-1.08-1.38-1.44a54.12,54.12,0,0,0,6.72.42H127c.24,0,.42-.27.45-.3.66-.66.9-.9,1.14-.9s3,1.47,3,2.25c0,.21-.18.39-.57.57-.6.27-.84.33-.93.54a17.77,17.77,0,0,1-3.24,5.64A18.1,18.1,0,0,0,134.44,24.69Zm-9.51-5.31a12.87,12.87,0,0,0,2.22-5.07c0-.15-.09-.18-.24-.18h-1.62c-.84,0-2.16,0-3.48.12A15.14,15.14,0,0,0,124.93,19.38Z"/><path class="cls-2" d="M142.47,12.66a14.31,14.31,0,0,1-4.59,2.25.06.06,0,0,1-.06-.06c0-.06.15-.21.51-.48A23,23,0,0,0,144,8.25c-1.29.06-2.61.12-3.69.21h0c-.54,0-1.38-1.11-1.38-1.47,3,.36,8.22.45,9.93.45h8.55a.6.6,0,0,0,.51-.24c.93-1.41,1.53-1.77,1.74-1.77,1.05,0,3,2,3,2.34,0,.21-.18.39-.72.39h-7.44c1.2.24,1.23.54,1.23.63s-.33.42-.87.63c-.27.09-.36.6-.36,2.46,1.74-.9,3.81-2.28,4.26-3.09.09-.15.12-.27.21-.27.36,0,2.64,2.28,2.64,2.88,0,.21-.15.3-.42.3a2,2,0,0,1-.54-.09,1.49,1.49,0,0,0-.39-.09.59.59,0,0,0-.21,0,36.35,36.35,0,0,1-5.55,1.11c0,.3,0,.6,0,.84,0,.81.27,1.14,2.91,1.14,3.06,0,4.05-.39,4.62-2.79.09-.42.18-.57.21-.57s.21,1.92.9,2.28a1.45,1.45,0,0,1,1,1.2c0,2.07-5.1,2.1-7.14,2.1-3.33,0-5.1-.48-5.1-2.67V14s.09-3.63.09-4.29a7.12,7.12,0,0,0-.15-1.53h-3.15c-.6,0-1.5,0-2.52,0,.87.3,1.38.54,1.38.84s-.36.39-.84.39c-.27,0-.51.18-1.23.9h2.43a.4.4,0,0,0,.36-.15c.75-.75.81-.75.87-.75.51,0,2.46,1.44,2.46,2,0,.21-.15.36-.48.48s-.6.12-.87.45c-4.8,5.85-12.42,6.39-12.84,6.39q-.36,0-.36-.09c0-.12.3-.27.81-.42a20.84,20.84,0,0,0,6.57-3.39,1.37,1.37,0,0,1-1.14-.66C142.92,13.68,142.8,13,142.47,12.66Zm7,4.23c.27.09.39.21.39.36a.67.67,0,0,1-.45.51c-.42.18-.42.06-.45.6,0,.36,0,.93,0,1.26a4.86,4.86,0,0,1,0,.66h3.6c0-.3,0-.6,0-.81a11.66,11.66,0,0,0-.27-2.55.33.33,0,0,1,0-.15s0,0,0,0a35.3,35.3,0,0,1,3.75.78c.3.09.39.21.39.36s-.18.33-.33.42c-.63.33-.69.12-.75,1.14,0,.24,0,.54,0,.84h3.21a.61.61,0,0,0,.48-.27c.06-.09,1.41-2.1,1.95-2.1a.38.38,0,0,1,.18,0c.75.27,2.88,1.86,2.88,2.7,0,.21-.12.39-.63.39h-8.07c0,1.44.12,3.24.21,4.83v0c0,.75-.81,1.26-1.71,1.26-.72,0-1.41-.36-1.41-1.17v-.06c.09-1.62.15-3.48.18-4.89h-3.69c-1.2,6.45-10.14,6.45-10.44,6.45s-.6,0-.6-.12.24-.18.75-.27c3.66-.66,6.75-2.67,7.47-6.06-1.86,0-4.92.09-7.11.3h0c-.51,0-1.41-1.14-1.41-1.5,2.58.33,6.57.42,8.67.45,0-.3,0-.6,0-.9a17.54,17.54,0,0,0-.12-2.64v-.12c0-.09,0-.15.12-.15A32.53,32.53,0,0,1,149.49,16.89Zm7-15.69c0,.21-.27.45-.93.69-.36.12-.39.51-.39,1.29v.36h2.73a.61.61,0,0,0,.48-.27c.12-.18,1.47-2.31,2.07-2.31l.21,0c1,.36,3,2.19,3,2.91,0,.18-.15.36-.66.36h-7.77c0,.33,0,.66,0,.93,0,.75-.75,1.26-1.68,1.26-.72,0-1.35-.33-1.35-1.08V5.25l.09-1h-3.48c0,.36.06.72.06,1v0c0,.78-.87,1.23-1.68,1.23s-1.35-.33-1.35-1.08c0,0,0,0,.09-1.17-2.07,0-5,.12-6.9.3h0c-.54,0-1.38-1.14-1.38-1.53,2.25.27,5.88.39,8.34.45,0-.27,0-.48,0-.72A14.68,14.68,0,0,0,145.68.3a.59.59,0,0,1,0-.21c0-.09.06-.09.27-.09.66,0,4.2.48,4.2,1.2,0,.21-.24.45-.93.69-.36.12-.36.33-.36,1.65h3.48V2.82A12,12,0,0,0,152,.3.76.76,0,0,1,152,.09c0-.06.09-.09.3-.09C152.25,0,156.48.39,156.48,1.2Zm-12.93,11c1.74,0,2.13.84,2.13,1.38v.12a14.46,14.46,0,0,0,2.13-2.49c0-.09-.09-.15-.24-.15h-3l-1.5,1.17Z"/></g></g></svg>