<svg xmlns="http://www.w3.org/2000/svg" viewBox="0 0 240 43.44"><defs><style>.cls-1{fill:none;stroke:#231815;stroke-miterlimit:10;stroke-width:0.75px;}.cls-2{fill:#231815;}</style></defs><g id="レイヤー_2" data-name="レイヤー 2"><g id="文字"><polyline class="cls-1" points="0 37.32 111.75 37.32 120.45 42.99 128.95 37.32 240 37.32"/></g><g id="レイヤー_1-2" data-name="レイヤー 1"><path class="cls-2" d="M57.22,22.5c0,.57,0,2.61-1.44,2.61-.48,0-.87-.39-1.23-.93a4.83,4.83,0,0,0-2.43-1.41,5.09,5.09,0,0,1-3,1.17c-.78,0-1.11-.39-1.11-.93,0-1,1.05-2.4,1.74-2.4a1.61,1.61,0,0,1,.57.15.89.89,0,0,0,.3.06c.57,0,1.86-.6,4.83-2.46V17c0-1.23,0-2.46-.06-3.63a7.25,7.25,0,0,1-3.21.81c-1.41,0-3-.54-3-2.64,0-.3.09-.42.21-.42a2.78,2.78,0,0,1,.57.21,5.66,5.66,0,0,0,2,.36,7.1,7.1,0,0,0,3.27-.81c-.27-3.12-.33-3.93-1.35-3.93-.81,0-1.14-.12-1.14-.36a2.19,2.19,0,0,1,1.89-1.44,2.7,2.7,0,0,1,2.52,2.46c0,.27,0,.6,0,1,.15,0,.27,0,.42,0s.51,0,.93-.06c.12,0,.21,0,.3,0,.87,0,1.23.45,1.23,1,0,1.08-1,1.83-2.94,2.94,0,1.59,0,3.27.06,4.86,2.25-1.29,4.74-2.46,7.2-2.46,2.13,0,5.16,1,5.16,3.63s-3.36,5.61-6.63,5.61a3,3,0,0,1-3.27-3.21,7.34,7.34,0,0,1,1.56-4.29q.09,0,.09.18A7.85,7.85,0,0,1,61,18.21a5,5,0,0,0-.15,1.14,1.87,1.87,0,0,0,2,2.1c2.46,0,4.08-1.77,4.08-3.3s-1.59-2.37-3.21-2.37c-2.19,0-4.38,1.56-6.54,3.24l.06,3.12Zm-4.59-.15a13.57,13.57,0,0,0,1.59.15c.72,0,1-.18,1-.48.06-.63.09-1.29.12-1.95C54.4,20.88,53.47,21.69,52.63,22.35Zm17.58-10.2a8.36,8.36,0,0,0-2.79.63,2.81,2.81,0,0,1-.93.36c-.06,0-.12,0-.12-.09s.15-.33.6-.78a3.29,3.29,0,0,0,.93-1.71c0-.48-.45-.69-1.47-.69a2.65,2.65,0,0,0-1.71.6,3.27,3.27,0,0,1-1.17.75c-.06,0-.09-.06-.09-.12A4.6,4.6,0,0,1,68,8C70.15,8,72,9.3,72,10.65,72,11.61,71.11,12.06,70.21,12.15Z"/><path class="cls-2" d="M90.07,14.94a.64.64,0,0,1-.51.57c-.63.24-.81.3-.84.9a31.1,31.1,0,0,1-1,6.36c-.78,2.43-2.55,3.9-4.71,4-.54,0-.87-.15-1-.57-.36-1.08-2.4-2.58-2.4-2.85a.06.06,0,0,1,.06-.06,1.35,1.35,0,0,1,.24.06,10.42,10.42,0,0,0,2.76.57c1.11,0,1.68-.54,2.16-1.74a21,21,0,0,0,1.05-6.84c0-.33-.09-.39-.39-.39H83.23c-1,4.8-3.24,9.33-7.77,11.79a2.75,2.75,0,0,1-.9.39s-.06,0-.06,0,.21-.33.6-.72c4.68-4.53,5.7-13,5.7-15.6a10.09,10.09,0,0,0-.06-1.08h-.51v.51c0,.81-.9,1.29-1.74,1.29-.69,0-1.32-.33-1.32-1.14V10.2c.18-2.22.21-3.15.21-4.17A26.7,26.7,0,0,0,77,1.14c0-.06,0-.09,0-.12A.11.11,0,0,1,77.11.9a17.8,17.8,0,0,1,3.6,1.56l.09.09h4.38a.46.46,0,0,0,.36-.21c1-1.23,1-1.26,1.14-1.26.36,0,2.94,1.41,2.94,2.13,0,.21-.15.45-.57.75s-.6.48-.6,1.44.09,2.7.21,4.5V10c0,.75-.93,1.23-1.77,1.23-.63,0-1.2-.3-1.2-1V9.66H84l.36.12c.24.12.36.24.36.33s-.15.3-.48.42c-.51.21-.48.36-.51.81-.09.93-.21,1.89-.39,2.82h2a.62.62,0,0,0,.54-.24c.63-.69,1-1.05,1.2-1.05S90.07,14.13,90.07,14.94Zm-4.32-9.3c0-.72,0-1.32,0-1.86,0-.3-.15-.45-.42-.45H80.65l-.24.21c-.18.12-.18.3-.18.51,0,1-.06,1.92-.06,2.85,0,.66,0,1.32,0,2h5.52C85.75,7.68,85.75,6.57,85.75,5.64ZM95.89,3.87c0,.27-.39.54-.72.75-.6.36-.6.66-.6,6.06,0,3.93.09,8.55.12,9.15v.06c0,1.23-1.65,1.38-1.74,1.38A1.2,1.2,0,0,1,91.6,20V20c.09-3.18.21-6.57.21-9.87a41.87,41.87,0,0,0-.39-7.32c0-.09,0-.15,0-.21s.06-.15.15-.15C92.05,2.4,95.89,3.12,95.89,3.87Zm5.85-1.77c0,.3-.33.6-.78.84s-.57.45-.57,7.11c0,5,.12,11.28.24,13.14v.33c0,2.58-2.58,3.51-4,3.51a1.07,1.07,0,0,1-1-.57c-.66-1.17-3.93-2.49-3.93-2.7,0,0,0,0,.09,0a.68.68,0,0,1,.21,0,21.34,21.34,0,0,0,3.33.33c1.77,0,2.1-.51,2.13-1.29.06-1.05.09-5.16.09-9.36,0-9.39,0-9.48-.45-12.3a1.3,1.3,0,0,0,0-.15c0-.15.06-.18.18-.18a23,23,0,0,1,3.93.84C101.59,1.77,101.74,1.92,101.74,2.1Z"/><path class="cls-2" d="M124.69,18.45A2.22,2.22,0,0,0,127,20.94a6.5,6.5,0,0,0,4.23-2.07c.93-.87,1.35-1.23,1.47-1.23s0,0,0,0a10.11,10.11,0,0,1-.84,1.65,8,8,0,0,1-6.45,4.29c-2.1,0-3.81-1.38-3.81-4.59,0-.3,0-.63.06-1,.21-2.1,1.2-4,1.62-6.06a9.48,9.48,0,0,0,.21-1.68c0-1.38-.54-2.19-1.68-2.19-1.53,0-5,1.83-7.92,5.55a23.32,23.32,0,0,0-.33,3.63,19.57,19.57,0,0,0,.9,5.85,5.13,5.13,0,0,1,.27,1.5c0,1.17-.6,1.8-1.29,1.8-.84,0-1.8-1-1.86-3a26,26,0,0,0-.84-3.9c-.18.66-.36,1.35-.54,2.16-.39,1.77-1.5,2.73-2.28,2.73-.54,0-.93-.42-.93-1.26,0-1.32.9-3.06,2.91-6.09a11.53,11.53,0,0,0-1.62-3.15,2.62,2.62,0,0,1-.51-1.44c0-1.92,3.18-2.64,5-3.18l.33-.09a22.93,22.93,0,0,0,.15-2.31c0-1.5-.27-3.06-1.47-3.33-.81-.18-1.14-.36-1.14-.6s.87-1.08,1.8-1.08c1.41,0,2.94,1.68,2.94,3.51A21,21,0,0,1,114.67,9c1,.15,1.44.54,1.44,1.08v.12c2.1-1.71,4.08-3.33,6.57-3.33,2.07,0,3.42,1.41,3.42,4.08a9.14,9.14,0,0,1-.09,1.23c-.27,2-1.23,4.05-1.32,6.12Zm-11.82-6.63h-.18a6.68,6.68,0,0,0-2.73.9,1.11,1.11,0,0,0-.39,1,7.43,7.43,0,0,0,.81,2.76,25.19,25.19,0,0,0,2.43-4.08ZM112.21,20c.06,0,0-.15.06-.39.06-1.14.18-2.64.3-4.11-.24.33-.45.69-.66,1a12.73,12.73,0,0,0-.72,1.71A7.05,7.05,0,0,0,112.21,20Z"/><path class="cls-2" d="M149.14,5.76a7.86,7.86,0,0,0-.84,0c.81.72,1.35,2.37,1.35,4.38,0,5.61-4.5,12.9-7.8,12.9-1.77,0-2.49-2.34-3.57-4a5.26,5.26,0,0,1-.72-2.88c0-4.17,3.48-11.79,12.21-11.79,7,0,10.8,4.71,10.8,9.72A10.59,10.59,0,0,1,157,22c-3.66,3.39-9.42,3.78-10.2,3.78-.27,0-.42,0-.42-.09s.45-.3,1.41-.54a16,16,0,0,0,7.47-4.59,10.54,10.54,0,0,0,2.37-6.45,8.11,8.11,0,0,0-8.19-8.31Zm-1.08,2.61c0-.3,0-2.37-.9-2.37A.59.59,0,0,0,147,6a1.08,1.08,0,0,1-.33.06,9.57,9.57,0,0,0-7.2,8.85c0,2.76,1.56,4.62,2.55,4.62C144.4,19.56,148.06,12.72,148.06,8.37Z"/><path class="cls-2" d="M194.09,11.49a.37.37,0,0,1,.09.06c0,.24-3,.63-4.17,1.89a1,1,0,0,1-.69.33,1.06,1.06,0,0,1-.66-.24,24.37,24.37,0,0,1-8.13-10.59c-.27,0-.45.18-.69.54-5.31,8.61-13.92,11.79-14.4,11.79-.06,0-.09,0-.09,0s.21-.24.69-.57c5.7-4,10.35-11.22,11-14.4,0-.18,0-.27.15-.27.75,0,4.62,1.71,4.62,2.34,0,.24-.27.42-.69.51A28.11,28.11,0,0,0,194.09,11.49Zm-4.26,13.29a1.84,1.84,0,0,1-1.71,1.92,2.1,2.1,0,0,1-1.77-1.32,22.2,22.2,0,0,0-1.26-2c-3.66,1.2-9.87,2.58-13.44,3.3-.39.09-.63.54-.93.54-.66,0-2.46-3.57-2.46-3.84,0-.09,0-.15.15-.15s.12,0,.21,0a20.59,20.59,0,0,0,2.79.27c1,0,2-.06,3-.09a39.28,39.28,0,0,0,.84-6.3c-2.13.06-4.53.12-6,.27h0c-.54,0-1.38-1.14-1.38-1.53,3,.36,9.87.48,11.58.48h5.07a.61.61,0,0,0,.48-.27c1.47-2.52,1.95-2.52,2.07-2.52l.21,0c.9.33,3.36,2.43,3.36,3.15,0,.18-.15.33-.66.33H179.63c.33.18.45.24.45.36s-.36.48-.66.57a1.2,1.2,0,0,0-.63.6,46.38,46.38,0,0,1-3.12,4.77c3.3-.18,6.45-.45,8.85-.75a21.25,21.25,0,0,0-2.49-2.7c-.27-.24-.51-.45-.51-.57s0-.06.15-.06C182.54,19.26,189.83,21.51,189.83,24.78Zm-4.59-12.72c0,.18-.15.33-.6.33h-5.1a41,41,0,0,0-5,.27h0c-.39,0-1.26-1.11-1.26-1.44a51,51,0,0,0,6.36.42h.48a.51.51,0,0,0,.36-.24c.75-1.26,1.44-2.16,1.77-2.16C182.75,9.24,185.24,11.37,185.24,12.06Z"/></g></g></svg>