<svg xmlns="http://www.w3.org/2000/svg" viewBox="0 0 240 43.59"><defs><style>.cls-1{fill:#231815;}.cls-2{fill:none;stroke:#231815;stroke-miterlimit:10;stroke-width:0.75px;}</style></defs><g id="レイヤー_2" data-name="レイヤー 2"><g id="文字"><path class="cls-1" d="M63.19,14c0,.21-.15.45-.69.45H48.7c-1.71,0-7.89.09-10.65.36h0c-.57,0-1.5-1.35-1.5-1.74,3.18.39,10.53.54,12.3.54h7.71a.68.68,0,0,0,.54-.27c.15-.27,1.86-2.88,2.46-2.88a.44.44,0,0,1,.21,0C60.76,10.86,63.19,13.17,63.19,14Z"/><path class="cls-1" d="M87.91,4.68c0,.3-.27.57-.72.75s-.66.45-.69.81c-.06,1.26-.09,3.12-.09,5.22,0,4.44.12,10.05.33,13.8v.09c0,1.14-1.26,1.68-2.13,1.68S83,26.61,83,25.68v-.06c0-.48,0-1,0-1.53H73.42c0,.51,0,1,0,1.47v0c0,1-1.14,1.59-2.13,1.59a1.35,1.35,0,0,1-1.5-1.38v-.15c.27-3.54.36-7.62.36-11.37,0-4.14-.06-10-.57-12.21,0,0,0-.09,0-.12s.06-.09.12-.09a19.42,19.42,0,0,1,4.2,1.83c.06,0,.09.09.12.12h8.64A.41.41,0,0,0,83,3.6c.6-1,1-1.5,1.29-1.5C84.85,2.1,87.91,3.9,87.91,4.68Zm-4.86.51c0-.45-.21-.57-.54-.57H73.9l-.24.18c-.24.15-.33.21-.33,8.4h9.81C83.14,10,83.11,7.08,83.05,5.19ZM73.33,14c0,3,0,6.36.09,9.27h9.66c.06-2.91.06-6.21.06-9.27Z"/><path class="cls-1" d="M98.74,12.66a14.31,14.31,0,0,1-4.59,2.25.06.06,0,0,1-.06-.06c0-.06.15-.21.51-.48a23,23,0,0,0,5.64-6.12c-1.29.06-2.61.12-3.69.21h0C96,8.46,95.14,7.35,95.14,7c3,.36,8.22.45,9.93.45h8.55a.57.57,0,0,0,.5-.24c.93-1.41,1.54-1.77,1.75-1.77,1,0,3,2,3,2.34,0,.21-.18.39-.72.39h-7.43c1.19.24,1.22.54,1.22.63s-.33.42-.87.63c-.26.09-.35.6-.35,2.46,1.73-.9,3.8-2.28,4.26-3.09.08-.15.12-.27.21-.27.35,0,2.63,2.28,2.63,2.88,0,.21-.15.3-.42.3a2,2,0,0,1-.54-.09,1.51,1.51,0,0,0-.38-.09.53.53,0,0,0-.21,0,36.59,36.59,0,0,1-5.55,1.11c0,.3,0,.6,0,.84,0,.81.28,1.14,2.91,1.14,3.06,0,4-.39,4.62-2.79.09-.42.18-.57.21-.57.18,0,.21,1.92.9,2.28a1.45,1.45,0,0,1,1,1.2c0,2.07-5.1,2.1-7.14,2.1-3.32,0-5.1-.48-5.1-2.67V14s.09-3.63.09-4.29a7.07,7.07,0,0,0-.14-1.53h-3.15c-.6,0-1.5,0-2.52,0,.87.3,1.38.54,1.38.84s-.36.39-.84.39c-.27,0-.51.18-1.23.9h2.43a.4.4,0,0,0,.36-.15c.75-.75.81-.75.87-.75.5,0,2.46,1.44,2.46,2,0,.21-.16.36-.49.48s-.59.12-.86.45c-4.8,5.85-12.42,6.39-12.84,6.39q-.36,0-.36-.09c0-.12.3-.27.81-.42a20.84,20.84,0,0,0,6.57-3.39,1.37,1.37,0,0,1-1.14-.66C99.19,13.68,99.07,13,98.74,12.66Zm7,4.23c.28.09.4.21.4.36s-.19.39-.45.51c-.42.18-.42.06-.45.6,0,.36,0,.93,0,1.26s0,.45,0,.66h3.6c0-.3,0-.6,0-.81a11.67,11.67,0,0,0-.26-2.55.33.33,0,0,1,0-.15s0,0,0,0a35.81,35.81,0,0,1,3.75.78c.3.09.38.21.38.36s-.17.33-.33.42c-.62.33-.68.12-.75,1.14,0,.24,0,.54,0,.84h3.21a.61.61,0,0,0,.49-.27c.05-.09,1.41-2.1,1.94-2.1a.38.38,0,0,1,.18,0c.75.27,2.88,1.86,2.88,2.7,0,.21-.12.39-.63.39h-8.07c0,1.44.12,3.24.21,4.83v0c0,.75-.8,1.26-1.71,1.26-.72,0-1.4-.36-1.4-1.17v-.06c.09-1.62.14-3.48.18-4.89H105.1c-1.2,6.45-10.14,6.45-10.44,6.45s-.6,0-.6-.12.24-.18.75-.27c3.66-.66,6.75-2.67,7.47-6.06-1.86,0-4.92.09-7.11.3h0c-.51,0-1.41-1.14-1.41-1.5,2.58.33,6.57.42,8.67.45,0-.3,0-.6,0-.9a17.54,17.54,0,0,0-.12-2.64v-.12c0-.09,0-.15.12-.15A32.37,32.37,0,0,1,105.75,16.89Zm7-15.69c0,.21-.28.45-.93.69-.36.12-.4.51-.4,1.29v.36h2.74a.61.61,0,0,0,.47-.27c.12-.18,1.47-2.31,2.08-2.31.05,0,.14,0,.21,0,1,.36,3,2.19,3,2.91,0,.18-.16.36-.67.36h-7.76c0,.33,0,.66,0,.93,0,.75-.75,1.26-1.68,1.26-.71,0-1.34-.33-1.34-1.08V5.25l.09-1H105.1c0,.36.06.72.06,1v0c0,.78-.87,1.23-1.68,1.23s-1.36-.33-1.36-1.08c0,0,0,0,.1-1.17-2.07,0-5,.12-6.9.3h0c-.54,0-1.38-1.14-1.38-1.53,2.25.27,5.88.39,8.34.45,0-.27,0-.48,0-.72A14.68,14.68,0,0,0,102,.3a.59.59,0,0,1,0-.21c0-.09.06-.09.27-.09.66,0,4.19.48,4.19,1.2,0,.21-.23.45-.92.69-.36.12-.36.33-.36,1.65h3.48V2.82a12.75,12.75,0,0,0-.3-2.52.85.85,0,0,1-.07-.21c0-.06.09-.09.3-.09C108.51,0,112.75.39,112.75,1.2Zm-12.93,11c1.74,0,2.13.84,2.13,1.38v.12a14.46,14.46,0,0,0,2.13-2.49c0-.09-.09-.15-.25-.15h-3l-1.5,1.17Z"/><path class="cls-1" d="M132.86,16.86a3.24,3.24,0,1,1,3.24-3.24A3.23,3.23,0,0,1,132.86,16.86Z"/><path class="cls-1" d="M157,.48a.57.57,0,0,1,0-.24c0-.12,0-.15.21-.15.33,0,4.57.66,4.57,1.5,0,.21-.24.51-1,.84a.7.7,0,0,0-.49.69l-.17,1.59h5.67a.61.61,0,0,0,.47-.27A15.39,15.39,0,0,1,168,2a.42.42,0,0,1,.27-.09.38.38,0,0,1,.18,0c.87.33,3,2.43,3,3.09,0,.21-.12.39-.63.39H160l-.36,3.39h2.87c.13,0,.21,0,.37-.21.92-1.2,1.07-1.23,1.22-1.23.33,0,2.91,1.35,2.91,2,0,.21-.15.42-.54.72-.66.45-.6.45-.63,1v1.47c0,2.19,0,6,.27,8.73v.09c0,.75-.84,1.29-1.71,1.29-.72,0-1.35-.33-1.35-1.11V21H156c0,.18,0,.39,0,.57v0c0,.81-1,1.26-1.77,1.26s-1.35-.33-1.35-1.11v-.15c.21-2,.26-4.35.26-6.42s-.05-3.84-.05-4.56a26.84,26.84,0,0,0-.28-3.27c0-.06,0-.12,0-.15s0-.09.09-.09a14.27,14.27,0,0,1,3.51,1.59.68.68,0,0,1,.12.12h.38l.21-3.39h-3.62c-1.68,0-4.63,0-7.14.3h0c-.51,0-1.35-1.14-1.35-1.5a82.84,82.84,0,0,0,8.64.45h3.54c0-.57,0-1.11,0-1.59C157.17,2.37,157.08,1.11,157,.48Zm8.75,23.67c1.59-2.22,1.83-2.43,2.13-2.43a.38.38,0,0,1,.18,0c1.08.39,3,2.37,3,3,0,.21-.12.39-.63.39H150c0,.21,0,.42,0,.6v.06c0,.9-1.11,1.41-2,1.41A1.27,1.27,0,0,1,146.65,26v-.12c.24-3.24.36-7.92.36-11.28a24,24,0,0,0-.36-5.46c0-.06,0-.12,0-.18s.06-.15.18-.15c.48,0,4.59,1,4.59,1.59,0,.24-.39.48-.75.69s-.45.33-.48.63c-.12.93-.21,5-.21,8.7,0,1.47,0,2.88.06,4h15.26A.58.58,0,0,0,165.75,24.15Zm-2.61-11.58c0-1,0-1.83,0-2.46,0-.39-.21-.48-.49-.48h-6.38l-.13.09c-.17.12-.17.3-.17.51,0,.57-.07,1.38-.07,2.34Zm0,3.66c0-1,0-2,0-2.88h-7.26v2.88Zm-7.24.78c0,1.08,0,2.19,0,3.24h7.16c0-1,0-2.07,0-3.24Z"/><path class="cls-1" d="M180.23,12.66a14.31,14.31,0,0,1-4.59,2.25.06.06,0,0,1-.06-.06c0-.06.15-.21.51-.48a23,23,0,0,0,5.64-6.12c-1.29.06-2.61.12-3.69.21h0c-.54,0-1.38-1.11-1.38-1.47,3,.36,8.22.45,9.93.45h8.55a.6.6,0,0,0,.51-.24c.93-1.41,1.53-1.77,1.74-1.77,1,0,3,2,3,2.34,0,.21-.18.39-.72.39h-7.44c1.2.24,1.23.54,1.23.63s-.33.42-.87.63c-.27.09-.36.6-.36,2.46C194,11,196,9.6,196.49,8.79c.09-.15.12-.27.21-.27.36,0,2.64,2.28,2.64,2.88,0,.21-.15.3-.42.3a2,2,0,0,1-.54-.09,1.49,1.49,0,0,0-.39-.09.59.59,0,0,0-.21,0,36.35,36.35,0,0,1-5.55,1.11c0,.3,0,.6,0,.84,0,.81.27,1.14,2.91,1.14,3.06,0,4.05-.39,4.62-2.79.09-.42.18-.57.21-.57.18,0,.21,1.92.9,2.28a1.45,1.45,0,0,1,1,1.2c0,2.07-5.1,2.1-7.14,2.1-3.33,0-5.1-.48-5.1-2.67V14s.09-3.63.09-4.29a7.12,7.12,0,0,0-.15-1.53h-3.15c-.6,0-1.5,0-2.52,0,.87.3,1.38.54,1.38.84s-.36.39-.84.39c-.27,0-.51.18-1.23.9h2.43a.4.4,0,0,0,.36-.15c.75-.75.81-.75.87-.75.51,0,2.46,1.44,2.46,2,0,.21-.15.36-.48.48s-.6.12-.87.45c-4.8,5.85-12.42,6.39-12.84,6.39q-.36,0-.36-.09c0-.12.3-.27.81-.42a20.84,20.84,0,0,0,6.57-3.39,1.37,1.37,0,0,1-1.14-.66C180.68,13.68,180.56,13,180.23,12.66Zm7,4.23c.27.09.39.21.39.36a.67.67,0,0,1-.45.51c-.42.18-.42.06-.45.6,0,.36,0,.93,0,1.26a4.86,4.86,0,0,1,0,.66h3.6c0-.3,0-.6,0-.81a11.66,11.66,0,0,0-.27-2.55.33.33,0,0,1,0-.15s0,0,0,0a35.3,35.3,0,0,1,3.75.78c.3.09.39.21.39.36s-.18.33-.33.42c-.63.33-.69.12-.75,1.14,0,.24,0,.54,0,.84h3.21a.61.61,0,0,0,.48-.27c.06-.09,1.41-2.1,2-2.1a.38.38,0,0,1,.18,0c.75.27,2.88,1.86,2.88,2.7,0,.21-.12.39-.63.39H193c0,1.44.12,3.24.21,4.83v0c0,.75-.81,1.26-1.71,1.26-.72,0-1.41-.36-1.41-1.17v-.06c.09-1.62.15-3.48.18-4.89h-3.69c-1.2,6.45-10.14,6.45-10.44,6.45s-.6,0-.6-.12.24-.18.75-.27c3.66-.66,6.75-2.67,7.47-6.06-1.86,0-4.92.09-7.11.3h0c-.51,0-1.41-1.14-1.41-1.5,2.58.33,6.57.42,8.67.45,0-.3,0-.6,0-.9a17.54,17.54,0,0,0-.12-2.64v-.12c0-.09,0-.15.12-.15A32.53,32.53,0,0,1,187.25,16.89Zm7-15.69c0,.21-.27.45-.93.69-.36.12-.39.51-.39,1.29v.36h2.73a.61.61,0,0,0,.48-.27C196.25,3.09,197.6,1,198.2,1l.21,0c1,.36,3,2.19,3,2.91,0,.18-.15.36-.66.36H193c0,.33,0,.66,0,.93,0,.75-.75,1.26-1.68,1.26-.72,0-1.35-.33-1.35-1.08V5.25l.09-1h-3.48c0,.36.06.72.06,1v0c0,.78-.87,1.23-1.68,1.23s-1.35-.33-1.35-1.08c0,0,0,0,.09-1.17-2.07,0-5,.12-6.9.3h0c-.54,0-1.38-1.14-1.38-1.53,2.25.27,5.88.39,8.34.45,0-.27,0-.48,0-.72A14.68,14.68,0,0,0,183.44.3a.59.59,0,0,1,0-.21c0-.09.06-.09.27-.09.66,0,4.2.48,4.2,1.2,0,.21-.24.45-.93.69-.36.12-.36.33-.36,1.65h3.48V2.82a12,12,0,0,0-.3-2.52.76.76,0,0,1-.06-.21c0-.06.09-.09.3-.09C190,0,194.24.39,194.24,1.2Zm-12.93,11c1.74,0,2.13.84,2.13,1.38v.12a14.46,14.46,0,0,0,2.13-2.49c0-.09-.09-.15-.24-.15h-3l-1.5,1.17C181,12.21,181.16,12.18,181.31,12.18Z"/><polyline class="cls-2" points="0 37.47 111.75 37.47 120.45 43.14 128.95 37.47 240 37.47"/></g></g></svg>