<svg xmlns="http://www.w3.org/2000/svg" viewBox="0 0 240 43.99"><defs><style>.cls-1{fill:#231815;}.cls-2{fill:none;stroke:#231815;stroke-miterlimit:10;stroke-width:0.75px;}</style></defs><g id="レイヤー_2" data-name="レイヤー 2"><g id="文字"><path class="cls-1" d="M89.52,12l.09.06c0,.24-3,.63-4.17,1.89a1,1,0,0,1-.69.33,1.1,1.1,0,0,1-.66-.24A24.45,24.45,0,0,1,76,3.48c-.26,0-.45.18-.68.54C70,12.63,61.36,15.81,60.88,15.81c-.06,0-.09,0-.09,0s.21-.24.69-.57C67.18,11.22,71.83,4,72.42.81c0-.18,0-.27.16-.27.75,0,4.62,1.71,4.62,2.34,0,.24-.28.42-.7.51A28.17,28.17,0,0,0,89.52,12ZM85.26,25.32a1.83,1.83,0,0,1-1.71,1.92,2.09,2.09,0,0,1-1.76-1.32c-.37-.66-.79-1.35-1.27-2-3.65,1.2-9.86,2.58-13.43,3.3-.39.09-.63.54-.93.54-.66,0-2.46-3.57-2.46-3.84,0-.09,0-.15.15-.15s.12,0,.21,0a20.59,20.59,0,0,0,2.79.27c1,0,2-.06,3-.09a39.13,39.13,0,0,0,.85-6.3c-2.13.06-4.53.12-6,.27h0c-.54,0-1.38-1.14-1.38-1.53,3,.36,9.87.48,11.58.48h5.06a.61.61,0,0,0,.48-.27c1.48-2.52,1.95-2.52,2.07-2.52l.21,0c.91.33,3.37,2.43,3.37,3.15,0,.18-.16.33-.67.33H75.07c.32.18.44.24.44.36s-.35.48-.65.57a1.25,1.25,0,0,0-.64.6,46.27,46.27,0,0,1-3.11,4.77c3.3-.18,6.44-.45,8.85-.75a20.62,20.62,0,0,0-2.5-2.7c-.26-.24-.5-.45-.5-.57s0-.06.14-.06C78,19.8,85.26,22.05,85.26,25.32ZM80.67,12.6c0,.18-.15.33-.59.33H75a41.11,41.11,0,0,0-5,.27h0c-.39,0-1.27-1.11-1.27-1.44a51.21,51.21,0,0,0,6.37.42h.47a.53.53,0,0,0,.37-.24c.75-1.26,1.43-2.16,1.76-2.16C78.18,9.78,80.67,11.91,80.67,12.6Z"/><path class="cls-1" d="M104.08,7.53c0,.21-.18.36-.48.48s-.87.24-1,.6a19.3,19.3,0,0,1-2.85,4.05c.66.21.72.36.72.48s-.21.39-.66.57c-.27.12-.42.3-.42,3.75,0,2.55.12,5.67.21,8.79v0c0,.78-.81,1.38-1.86,1.38a1.22,1.22,0,0,1-1.38-1.23v-.12c.27-3.48.27-7.17.3-10.08v-.66a17.16,17.16,0,0,1-5.91,3.36c-.06,0-.09,0-.09-.06s.27-.33.78-.66c4.5-2.91,8.52-9.93,8.52-10.74,0-.18-.06-.18-.36-.18l-1.8,0a37.57,37.57,0,0,0-4,.3h0c-.54,0-1.44-1-1.44-1.47,1.86.21,3.21.33,4.38.36a25.47,25.47,0,0,0-.42-5.37,2.51,2.51,0,0,1-.06-.3c0-.09,0-.12.15-.12.36,0,4.38.69,4.38,1.44,0,.24-.3.51-.72.75s-.51.6-.51,3v.6h.36c.24,0,.36-.24.39-.27.63-.75.87-.9,1-.9C101.92,5.31,104.08,6.87,104.08,7.53Zm.54,9a1.55,1.55,0,0,1-1.47,1.56A1.52,1.52,0,0,1,101.77,17a9.14,9.14,0,0,0-1.56-2.52c-.27-.24-.39-.42-.39-.51s.12-.12.3-.12C101.77,13.83,104.62,14.58,104.62,16.5Zm14.58,8.67c0,.21-.15.39-.66.39h-9.81a70.38,70.38,0,0,0-7,.3h0c-.51,0-1.35-1.14-1.35-1.5a77.61,77.61,0,0,0,7.83.45c0-2.34,0-7.74,0-12.24a35.61,35.61,0,0,0-4.38.3h0c-.51,0-1.35-1.14-1.35-1.5a51.18,51.18,0,0,0,5.79.45c0-7.23-.12-9.12-.42-10.47a.59.59,0,0,1,0-.21c0-.09,0-.12.12-.12a23.54,23.54,0,0,1,4.2.84c.48.15.69.36.69.6s-.33.6-.9.84-.6.54-.66,8.52h.87a.62.62,0,0,0,.51-.27c1.29-2.1,1.62-2.25,1.89-2.25a.38.38,0,0,1,.18,0,5.82,5.82,0,0,1,2.85,2.85c0,.21-.15.39-.66.39h-5.64v3.9c0,3.51,0,6.78.06,8.34h2.16a.62.62,0,0,0,.51-.27c.45-.69,1.68-2.55,2.16-2.55a.38.38,0,0,1,.18,0C117.28,22.38,119.2,24.57,119.2,25.17Z"/><path class="cls-1" d="M122.8,27.24a2.59,2.59,0,0,1-.45,0c-.18,0-.3,0-.3-.09s.21-.21.63-.33a29.19,29.19,0,0,0,11-7.32h-1.08c-1.5,0-5.07.06-7.5.33h0c-.51,0-1.41-1.17-1.41-1.53,2.79.33,7.5.48,9.06.48h2.49a28.24,28.24,0,0,0-.3-3.45v0a32.31,32.31,0,0,1-9.75,1.17c-1.44,0-1.68-.09-1.68-.18s.36-.18,1-.24c5.55-.36,9.72-1.62,12.12-3.84a23.25,23.25,0,0,0-3-.45c-.54,1.11-1,1.62-2.25,1.62-.78,0-1.47-.3-1.47-.9a1.35,1.35,0,0,1,.27-.72,24.5,24.5,0,0,0,2-3.09c-1.71,0-4.44.06-6.48.27h0c-.51,0-1.32-1-1.32-1.35,2.46.3,6.24.36,8.13.39l.12-.24a10.06,10.06,0,0,0,.75-2.61c0-.18,0-.21.15-.21.6,0,3.84.57,3.84,1.14,0,.18-.36.39-.93.51-.18,0-.24.12-.84,1.41h9.09a.61.61,0,0,0,.45-.24,7.78,7.78,0,0,1,1.62-1.47.48.48,0,0,1,.27-.09c.45,0,2.88,1.32,2.88,2.16,0,.18-.12.33-.57.33h-7c.21.12.33.24.33.36s-.27.36-.81.48a.58.58,0,0,0-.42.39,7.63,7.63,0,0,1-.87,1.62c2,.33,6.21,1.29,6.21,3.66a1.28,1.28,0,0,1-1.29,1.35,2.52,2.52,0,0,1-1.74-.87,12.93,12.93,0,0,0-4.5-2.67,10.79,10.79,0,0,1-3.63,2.1c2,.24,3.75.45,3.75,1,0,.21-.3.42-.78.63-.3.12-.42.24-.42,2.07h6.09a.56.56,0,0,0,.45-.27c.84-1.35,1.56-2,1.77-2,.54,0,3.12,1.92,3.12,2.61,0,.21-.12.39-.6.39h-10.5c2.46,2.43,7.08,4.35,12.72,4.65.09,0,.15,0,.15.06,0,.27-3.09,1.38-4.11,2.4a1,1,0,0,1-.69.3c-1.08,0-6.18-2.43-8.43-7,0,2.34.12,5.13.21,6.72v.06c0,.84-1,1.35-1.86,1.35-.75,0-1.41-.33-1.41-1.14V26.7c.15-1.08.24-3.27.27-5.07A23.13,23.13,0,0,1,122.8,27.24Zm20.07-20a1.23,1.23,0,0,1-.24.09,0,0,0,0,1,0,0,.19.19,0,0,1,.06-.15A11.32,11.32,0,0,0,144,4.8V4.74a.17.17,0,0,0-.18-.15H130.06a3.1,3.1,0,0,1-3,2.88,1.82,1.82,0,0,1-2-1.53c0-.51.39-1.05,1.32-1.35,1.44-.48,2.49-1,2.88-2.07.12-.36.24-.57.36-.57s.51.33.51,1.89h5L135,2.76a17.9,17.9,0,0,0-.36-2.37,1.52,1.52,0,0,1-.06-.27c0-.06.06-.12.18-.12.39,0,4.74.51,4.74,1.35,0,.18-.24.42-.9.72-.42.18-.42.24-.54,1.77H144a.59.59,0,0,0,.42-.18c0-.06,1-1.23,1.32-1.23.57,0,3.42,1.92,3.42,2.82,0,.36-.36.66-1.26.66h-.45A15.76,15.76,0,0,0,142.87,7.23Zm-7.08,3.93c.6,0,1.17,0,1.74.06a6,6,0,0,0,1.2-2.52h-3.51L134,11.22C134.59,11.19,135.19,11.16,135.79,11.16Z"/><path class="cls-1" d="M179.8,7.29c0,.27-.3.51-.93.81-.3.15-.36.39-.36.75,0,.93-.06,2.19-.06,3.6,0,3.78.12,8.67.27,11.37V24c0,2.64-3.21,3.66-4.53,3.66a1,1,0,0,1-.93-.6c-.51-.93-4-2.7-4-3,0,0,0,0,.06,0a.53.53,0,0,1,.18,0,19.79,19.79,0,0,0,3.75.48c1.68,0,2.22-.54,2.25-1.41,0-.66,0-1.5,0-2.43,0-3.9-.15-9.57-.21-12.78,0-.51-.18-.63-.54-.63h-6.3a17.75,17.75,0,0,1-1.08,4.47c6.3.87,7.2,3.3,7.2,4.47a1.65,1.65,0,0,1-1.53,1.8,2.38,2.38,0,0,1-1.89-1.26,16,16,0,0,0-4-4.62c-1.35,3-3.75,5.16-7.77,6.63,0,2.55,0,5.19,0,7.5,0,1-1,1.53-1.92,1.53A1.36,1.36,0,0,1,156,26.43v-.15c.36-5.46.51-11,.51-14.82a37,37,0,0,0-.39-6.6.59.59,0,0,1,0-.21c0-.06,0-.06.09-.06a15.1,15.1,0,0,1,4.14,1.92h5.28c.06-1,.06-2.13.06-3.24a14.76,14.76,0,0,0-.21-2.7V.45c0-.06,0-.09.09-.09s4.47.51,4.47,1.26c0,.24-.3.48-.72.72s-.6.36-.6,1.14c0,1.08-.06,2.07-.15,3h6.18a.67.67,0,0,0,.51-.33c.39-.6,1.08-1.23,1.29-1.23C177.16,5,179.8,6.69,179.8,7.29Zm-19.38,0a3.17,3.17,0,0,1-.54.39c-.18.12-.24.09-.27.3-.12,1.29-.15,3.69-.15,6.51v3.63c4.41-2.91,5.76-6.63,6.12-10.83Z"/><polyline class="cls-2" points="0 37.87 111.75 37.87 120.45 43.54 128.95 37.87 240 37.87"/></g></g></svg>