<svg xmlns="http://www.w3.org/2000/svg" viewBox="0 0 240 39.85"><defs><style>.cls-1{fill:#231815;}.cls-2{fill:none;stroke:#231815;stroke-miterlimit:10;stroke-width:0.75px;}</style></defs><g id="レイヤー_2" data-name="レイヤー 2"><g id="文字"><path class="cls-1" d="M69.42,22.05a7.5,7.5,0,0,1-1.41.36c-.06,0-.09,0-.09-.06a4.28,4.28,0,0,1,1.23-.84c5-2.94,9.33-10.5,9.33-13.68,0-.54-.18-.81-.51-.81-1,0-1.35-.18-1.35-.42,0-.42,1-1.35,2.19-1.35.06,0,2.64.09,3,1.68a18.43,18.43,0,0,0,4-3.93c0-.27-.39-.51-.6-.51a35.36,35.36,0,0,0-8.94,1.68,7.57,7.57,0,0,1-2.22.57c-.63,0-4.14-.75-4.14-3.12,0-.45.12-.66.3-.66a1.59,1.59,0,0,1,.75.48,4.48,4.48,0,0,0,2.55.48,16.76,16.76,0,0,0,1.71-.09c2.88-.3,6.45-.78,9.06-1,.81-.06,1-.57,1.71-.57,1.14,0,4.38,2.1,4.38,3.48,0,1.08-1.83,1.17-2.4,1.5a34.43,34.43,0,0,1-6.15,2.82C81.15,12.81,76.29,19.92,69.42,22.05Z"/><path class="cls-1" d="M104.46,5.22c-3.36,3.93-6.09,6.27-9.78,7.83a5.34,5.34,0,0,1-1.26.45.06.06,0,0,1-.06-.06c0-.09.3-.39.93-.9,4.26-3.36,8.37-9.21,8.37-10.29a.67.67,0,0,0-.51-.69c-.54-.15-.75-.3-.75-.48A1.69,1.69,0,0,1,103.11,0c1.32,0,3.09,1.2,3.09,2.43a1.81,1.81,0,0,1-.24.87,27,27,0,0,0,3.12-.48c.57-.36.9-.84,1.47-.84s3.06,1.44,3.06,2.4c0,.36-.42.6-.93.81-.75.33-.72.45-1.23,1.23-5.34,7.92-9.81,12.45-18,14.7a8.26,8.26,0,0,1-1.62.33c-.12,0-.18,0-.18-.06s.39-.36,1.26-.75c6.6-2.88,11.37-8.73,15.9-15.84a.42.42,0,0,0,.09-.27c0-.12-.06-.21-.3-.21a22.94,22.94,0,0,0-3.24.75,2.93,2.93,0,0,1-.78.15Z"/><path class="cls-1" d="M128.46,9.33c1.74-.69,3.45-1.38,4.62-1.8.93-.33,1.2-1.14,2.22-1.14s4.44,1.47,4.44,2.64c0,.87-1.59,1.32-2,1.71-2.49,2.25-6.27,4.65-6.87,4.65-.06,0-.09,0-.09-.06s.42-.57.66-.81c.87-.87,3.84-4.56,3.84-5.37a.4.4,0,0,0-.45-.42c-.75,0-4.38,1.77-6.54,3-.09,1.59-.15,3.12-.15,4,0,1.17.51,2.34,3.57,2.34a6.81,6.81,0,0,0,3.06-.69,4.9,4.9,0,0,1,2.25-.66c1.5,0,2.73.72,2.73,1.53s-.93,2.31-7.74,2.31c-1.89,0-6.39-.18-6.39-4.56a4.43,4.43,0,0,1,0-.63c.09-1.08.15-1.95.18-2.73-.48.27-1,.6-1.35.84a4.43,4.43,0,0,1-2.55,1.11c-1,0-3.84-.6-3.84-2,0-.69,0-.78.27-.78a4,4,0,0,1,.87.18,3.46,3.46,0,0,0,.78.09c.81,0,1.65-.12,5.91-1.71V9.69c0-3.33-.21-5.55-1.44-5.61-.75,0-1.23-.18-1.23-.45a2.31,2.31,0,0,1,2-1.08c1.32,0,3.84,1.8,3.84,3.3,0,.75-.42,1.53-.54,2.64Z"/><path class="cls-1" d="M160.62,12.51c.57.12,8,1.74,8,5.58A1.71,1.71,0,0,1,167,20a2.33,2.33,0,0,1-1.89-1.41,15.41,15.41,0,0,0-5.25-5.76c-5.91,6.15-13.2,8-14.46,8-.15,0-.24,0-.24-.09s.27-.27,1-.57c5.22-2.1,11.7-7.89,14.94-14.19a.6.6,0,0,0,.09-.24c0-.12-.09-.15-.21-.15A26.68,26.68,0,0,0,156.54,7a5.63,5.63,0,0,1-2.25.72c-1,0-3.63-1-3.63-2.4,0-.84.21-1.26.48-1.26s.42.21.6.63.75.45,1.62.45A29.88,29.88,0,0,0,160.26,4c.57-.33,1-.93,1.68-.93,1,0,3.66,1.26,3.66,2.31,0,.36-.33.69-.9,1.08a4.55,4.55,0,0,0-1,1.17,25.92,25.92,0,0,1-3.57,4.8Z"/><polyline class="cls-2" points="0 33.73 111.75 33.73 120.45 39.4 128.95 33.73 240 33.73"/></g></g></svg>