<svg xmlns="http://www.w3.org/2000/svg" viewBox="0 0 240 43.72"><defs><style>.cls-1{fill:#231815;}.cls-2{fill:none;stroke:#231815;stroke-miterlimit:10;stroke-width:0.75px;}</style></defs><g id="レイヤー_2" data-name="レイヤー 2"><g id="文字"><path class="cls-1" d="M101.47,6.45c0,.27-.3.51-.93.81-.36.15-.39.21-.39,3.18,0,4.56.12,13.71.27,15.39V26c0,1-1.08,1.47-2,1.47S96.94,27,96.94,26.1v0c0-.3,0-.75,0-1.32H85.81c0,.51,0,.93,0,1.23,0,.81-.81,1.47-2,1.47-.78,0-1.5-.39-1.5-1.26V26c.21-2.34.27-11.34.27-15.51a29.35,29.35,0,0,0-.42-6.39,1.06,1.06,0,0,0,0-.18c0-.09,0-.12.12-.12a17.18,17.18,0,0,1,4.26,1.92h2c.27-1.77.57-3.66.57-4.44,0-.39,0-.78,0-1V.12c0-.09,0-.12.09-.12.75,0,4.53,1.29,4.53,2,0,.36-.57.6-1,.66s-.36.12-.57.36a29.47,29.47,0,0,1-2.46,2.67H96.4c.27,0,.42-.27.48-.36.27-.39,1-1.23,1.26-1.23C98.71,4.14,101.47,5.79,101.47,6.45ZM97,7c0-.45-.15-.54-.51-.54H86.59a4.72,4.72,0,0,1-.57.36c-.33.21-.33.27-.33,4.77H97C97,9.63,97,8,97,7ZM97,12.36H85.69c0,1.56,0,3.3,0,5H97ZM85.75,18.12,85.81,24H97c0-1.53.06-3.66.06-5.88Z"/><path class="cls-1" d="M127.25,10.08c0,.3-.28.42-.69.42a2.64,2.64,0,0,1-.63-.09h-.12a1.23,1.23,0,0,0-.34,0,40.15,40.15,0,0,1-4.64,1c.42.12,1,.24,1,.6s-.27.48-.84.69c-.27.09-.3.9-.36,3.78l6.39-.9a.62.62,0,0,0,.42-.33A12.64,12.64,0,0,1,129,12.63a.65.65,0,0,1,.42-.15c.84,0,3.59,2.07,3.59,2.73,0,.18-.12.36-.57.42l-11.81,1.65c0,1.35,0,2.79,0,3.87v1.17c0,1.17.42,1.5,3.84,1.5a14.42,14.42,0,0,0,3.24-.33c1.5-.36,2-3.12,2.37-4.92.09-.42.15-.6.21-.6.24,0,.15,3.9,1,4.41A1.91,1.91,0,0,1,132.29,24c0,2.67-6.12,2.7-8,2.7-4.56,0-6.9-.42-6.9-3.69,0,0,0-2.52.09-5.28-1.62.24-6.33.93-8.91,1.56h-.09c-.54,0-1.47-1-1.5-1.35,3-.06,8.79-.72,10.53-1,0-.9,0-1.68,0-2.43,0-2-.06-2.46-.06-2.58-4.29.51-7,.63-7.53.63s-.78-.09-.78-.18.27-.24.84-.33c3.45-.57,10.62-2.31,13.65-4.5.39-.27.42-.45.54-.45a9.09,9.09,0,0,1,2.25,1.77,14.45,14.45,0,0,0,1.62-2.82c0-.09-.12-.12-.21-.12H112.73a4.43,4.43,0,0,1,0,.63c0,3.21-2.16,4.11-3.09,4.11A1.6,1.6,0,0,1,108,9.09a2.62,2.62,0,0,1,1.17-2c1.32-1,2.34-1.89,2.52-3.39.06-.51.12-.78.21-.78s.39.33.72,2.28h5.85A29,29,0,0,0,118,.51a1.32,1.32,0,0,1-.06-.3q0-.09.18-.09c.33,0,4.74.51,4.74,1.44,0,.21-.24.48-.9.81-.45.21-.45.3-.54,2.82h6.21a.59.59,0,0,0,.42-.18c0-.06,1-1.23,1.32-1.23s3.32,1.8,3.32,3c0,.45-.47.72-1.59.78S128.47,8.73,127,9.51A1.22,1.22,0,0,1,127.25,10.08Z"/><path class="cls-1" d="M142.52,12.93a14.31,14.31,0,0,1-4.59,2.25.06.06,0,0,1-.06-.06c0-.06.15-.21.51-.48A23,23,0,0,0,144,8.52c-1.29.06-2.61.12-3.69.21h0c-.54,0-1.38-1.11-1.38-1.47,3,.36,8.22.45,9.93.45h8.55a.6.6,0,0,0,.51-.24c.93-1.41,1.53-1.77,1.74-1.77,1,0,3,2,3,2.34,0,.21-.18.39-.72.39h-7.44c1.2.24,1.23.54,1.23.63s-.33.42-.87.63c-.27.09-.36.6-.36,2.46,1.74-.9,3.81-2.28,4.26-3.09.09-.15.12-.27.21-.27.36,0,2.64,2.28,2.64,2.88,0,.21-.15.3-.42.3a2,2,0,0,1-.54-.09,1.49,1.49,0,0,0-.39-.09.59.59,0,0,0-.21,0,36.35,36.35,0,0,1-5.55,1.11c0,.3,0,.6,0,.84,0,.81.27,1.14,2.91,1.14,3.06,0,4-.39,4.62-2.79.09-.42.18-.57.21-.57.18,0,.21,1.92.9,2.28a1.45,1.45,0,0,1,1,1.2c0,2.07-5.1,2.1-7.14,2.1-3.33,0-5.1-.48-5.1-2.67v-.21S152,10.62,152,10a7.12,7.12,0,0,0-.15-1.53H148.7c-.6,0-1.5,0-2.52,0,.87.3,1.38.54,1.38.84s-.36.39-.84.39c-.27,0-.51.18-1.23.9h2.43a.4.4,0,0,0,.36-.15c.75-.75.81-.75.87-.75.51,0,2.46,1.44,2.46,2,0,.21-.15.36-.48.48s-.6.12-.87.45c-4.8,5.85-12.42,6.39-12.84,6.39q-.36,0-.36-.09c0-.12.3-.27.81-.42a20.84,20.84,0,0,0,6.57-3.39,1.37,1.37,0,0,1-1.14-.66C143,14,142.85,13.29,142.52,12.93Zm7,4.23c.27.09.39.21.39.36a.67.67,0,0,1-.45.51c-.42.18-.42.06-.45.6,0,.36,0,.93,0,1.26a4.86,4.86,0,0,1,0,.66h3.6c0-.3,0-.6,0-.81a11.66,11.66,0,0,0-.27-2.55.33.33,0,0,1,0-.15s0,0,0,0a35.3,35.3,0,0,1,3.75.78c.3.09.39.21.39.36s-.18.33-.33.42c-.63.33-.69.12-.75,1.14,0,.24,0,.54,0,.84h3.21a.61.61,0,0,0,.48-.27c.06-.09,1.41-2.1,1.95-2.1a.38.38,0,0,1,.18,0c.75.27,2.88,1.86,2.88,2.7,0,.21-.12.39-.63.39H155.3c0,1.44.12,3.24.21,4.83v0c0,.75-.81,1.26-1.71,1.26-.72,0-1.41-.36-1.41-1.17v-.06c.09-1.62.15-3.48.18-4.89h-3.69c-1.2,6.45-10.14,6.45-10.44,6.45s-.6,0-.6-.12.24-.18.75-.27c3.66-.66,6.75-2.67,7.47-6.06-1.86,0-4.92.09-7.11.3h0c-.51,0-1.41-1.14-1.41-1.5,2.58.33,6.57.42,8.67.45,0-.3,0-.6,0-.9a17.54,17.54,0,0,0-.12-2.64v-.12c0-.09,0-.15.12-.15A32.53,32.53,0,0,1,149.54,17.16Zm7-15.69c0,.21-.27.45-.93.69-.36.12-.39.51-.39,1.29v.36h2.73a.61.61,0,0,0,.48-.27c.12-.18,1.47-2.31,2.07-2.31l.21,0c1,.36,3,2.19,3,2.91,0,.18-.15.36-.66.36h-7.77c0,.33,0,.66,0,.93,0,.75-.75,1.26-1.68,1.26-.72,0-1.35-.33-1.35-1.08V5.52l.09-1h-3.48c0,.36.06.72.06,1v0c0,.78-.87,1.23-1.68,1.23s-1.35-.33-1.35-1.08c0,0,0,0,.09-1.17-2.07,0-5,.12-6.9.3h0c-.54,0-1.38-1.14-1.38-1.53,2.25.27,5.88.39,8.34.45,0-.27,0-.48,0-.72a14.68,14.68,0,0,0-.27-2.49.59.59,0,0,1,0-.21c0-.09.06-.09.27-.09.66,0,4.2.48,4.2,1.2,0,.21-.24.45-.93.69-.36.12-.36.33-.36,1.65h3.48V3.09a12,12,0,0,0-.3-2.52A.76.76,0,0,1,152,.36c0-.06.09-.09.3-.09C152.3.27,156.53.66,156.53,1.47Zm-12.93,11c1.74,0,2.13.84,2.13,1.38V14a14.46,14.46,0,0,0,2.13-2.49c0-.09-.09-.15-.24-.15h-3l-1.5,1.17C143.3,12.48,143.45,12.45,143.6,12.45Z"/><polyline class="cls-2" points="0 37.6 111.75 37.6 120.45 43.27 128.95 37.6 240 37.6"/></g></g></svg>