<svg xmlns="http://www.w3.org/2000/svg" viewBox="0 0 240 42.01"><defs><style>.cls-1{fill:none;stroke:#231815;stroke-miterlimit:10;stroke-width:0.75px;}.cls-2{fill:#231815;}</style></defs><g id="レイヤー_2" data-name="レイヤー 2"><g id="文字"><polyline class="cls-1" points="0 35.9 111.75 35.9 120.45 41.56 128.95 35.9 240 35.9"/></g><g id="レイヤー_1-2" data-name="レイヤー 1"><path class="cls-2" d="M96,8.22a1.86,1.86,0,0,1,.66,1c0,.18-.12.39-.6.39H90.49a19.87,19.87,0,0,0,2.28,5.79,19.43,19.43,0,0,0,3.66-4.2c.18-.27.18-.45.3-.45s3.12,2.25,3.12,3.12c0,.21-.21.3-.54.3a3.15,3.15,0,0,1-.72-.09.66.66,0,0,0-.24,0,1,1,0,0,0-.39.09A25.09,25.09,0,0,1,93.16,16a17.46,17.46,0,0,0,9.12,7.17.37.37,0,0,1,.09.06c0,.24-2.67.57-3.75,1.62a1,1,0,0,1-.69.27C96.4,25.14,90.52,19,90,9.63H88.15c.06,0,1.17.33,1.17.69,0,.21-.39.36-1,.42a1,1,0,0,0-.69.36,14.34,14.34,0,0,1-1.5,1.17,9.89,9.89,0,0,1,5.13,9c0,5-3.36,6.15-5.34,6.15a.88.88,0,0,1-.81-.45c-.78-1.38-3.15-2.61-3.15-2.82,0,0,0-.06.09-.06a2.67,2.67,0,0,1,.33.06,16.66,16.66,0,0,0,3.18.45c1.92,0,3-.87,3-4.56a6.27,6.27,0,0,0,0-.75,1.14,1.14,0,0,0-.51.36,21.53,21.53,0,0,1-12.93,6.09c-.21,0-.33,0-.33-.06s.21-.21.72-.36c4.47-1.38,9.57-5.58,10.77-7.86.09-.12.06-.15.15-.15a5.91,5.91,0,0,1,2,.66,12.65,12.65,0,0,0-.66-2.31c-.27,0-.3,0-.78.39a26.15,26.15,0,0,1-11.76,4.77c-.15,0-.24,0-.24-.06s.3-.27,1-.51c4.11-1.41,8.61-5,9.48-6.36.12-.18.12-.27.27-.27a1.3,1.3,0,0,0,.15,0,6.66,6.66,0,0,1,1.11.51,8,8,0,0,0-1.35-1.5A27,27,0,0,1,75,16.59c-.15,0-.21,0-.21-.06s.21-.18.72-.36c4.17-1.44,8.82-5,9.81-6.51-1.29,0-2.85.06-4.56.24h0c-.51,0-1.32-1-1.41-1.38l-.18.21A3,3,0,0,1,77,9.84a1.57,1.57,0,0,1-1.68-1.53,2.44,2.44,0,0,1,1.17-1.89c1.32-1,2.34-1.77,2.52-3.21.06-.48.12-.75.21-.75a6.22,6.22,0,0,1,.72,2.1h6.63A25.77,25.77,0,0,0,86.11.48a1.52,1.52,0,0,1-.06-.27c0-.09.06-.12.21-.12C86.74.09,91,.75,91,1.47c0,.21-.24.48-.9.78-.42.21-.45.24-.54,2.31H96a.59.59,0,0,0,.42-.18c0-.06,1-1.23,1.32-1.23.66,0,3.36,2,3.36,3.06,0,.42-.36.72-1.23.72h-.51A8.07,8.07,0,0,0,96,8.22Zm.36-2.76c0-.12-.09-.15-.18-.15H80c0,.18,0,.36,0,.54a4.4,4.4,0,0,1-.72,2.61,68.3,68.3,0,0,0,7.38.42h4.83c.33,0,.45-.06.54-.21.21-.36,1.26-1.86,1.8-1.86a3.78,3.78,0,0,1,1.59.9A11.69,11.69,0,0,0,96.37,5.46Z"/><path class="cls-2" d="M133.59,25.35c.06,0,.06,0,.06.06,0,.21-2.55.39-3.66,1.32a.87.87,0,0,1-.54.24c-1.11,0-3.84-4-4.41-8.43-.87,4.86-4.08,7.71-10,8.79a3.61,3.61,0,0,1-.69.09q-.27,0-.27-.09c0-.09.27-.21.81-.39a10.9,10.9,0,0,0,7.68-8.79,43,43,0,0,0-4.38.27h0c-.51,0-1.32-1-1.32-1.44a38.54,38.54,0,0,0,5.49.42h.33a7.31,7.31,0,0,0,0-.81c0-.36.09-1.92.09-2.79,0-.18,0-.6-.09-1.17h-1.11a14.51,14.51,0,0,1-3.93,4.08.06.06,0,0,1-.06-.06.87.87,0,0,1,.15-.3,22.39,22.39,0,0,0,2.79-8.16V7.8a24.27,24.27,0,0,1-3.27,3.72c.39.57.39.57.39.69s-.15.42-.48.6c-.54.27-.72.39-.75,1.08a51.22,51.22,0,0,1-.84,8.58c-1,3.57-3.54,4-4.2,4a.88.88,0,0,1-.84-.54,8.12,8.12,0,0,0-1.86-2.37,10.73,10.73,0,0,1-4.23,3.87s0,0,0,0a2.23,2.23,0,0,1,.57-.78c4.32-4.86,4.74-16.38,4.74-18.24,0-.66-.06-1.14-.09-1.53-.75,0-1.65.09-2.79.24h0c-.39,0-1.17-1.11-1.17-1.44a41.87,41.87,0,0,0,4.74.42A23.46,23.46,0,0,0,110,.63a1,1,0,0,1,0-.27c0-.09,0-.12.15-.12.6,0,4.08.72,4.08,1.41,0,.21-.21.48-.78.78s-.45.42-.45,3.66h1.2a.53.53,0,0,0,.33-.24c.27-.51,1.26-2.19,1.62-2.19a.22.22,0,0,1,.15,0c.87.39,2.52,2.22,2.52,2.82,0,.18-.12.33-.54.33h-5.52c.24.09.54.27.54.48s-.12.36-.42.51c-.45.24-.39.42-.42,1-.06.84-.12,1.65-.21,2.46h1.08a.5.5,0,0,0,.51-.24,4.26,4.26,0,0,1,.9-1,.4.4,0,0,1,.24-.09,6,6,0,0,1,1.89,1.2,38.62,38.62,0,0,0,3.48-8.82,12.6,12.6,0,0,0,.27-2c0-.24,0-.33.12-.33S125,1.26,125,2.13c0,.3-.36.48-.87.51s-.48.06-.72.48c-.51.93-1,1.86-1.62,2.76H127a.56.56,0,0,0,.45-.27c.42-.72,1.53-2.25,1.89-2.25s3,2.07,3,2.88c0,.21-.15.39-.6.39H121.32c-.27.39-.51.78-.78,1.14,0,0,0,0,.06,0s3.72,1.08,3.72,1.8c0,.24-.33.48-.78.54s-.45.06-.6.36c-.27.48-.54,1-.87,1.44H126a.43.43,0,0,0,.3-.24c.18-.27,1.26-1.86,1.71-1.86.66,0,2.7,2,2.7,2.46,0,.21-.12.39-.57.39h-4.08c.18.09.24.15.24.24s-.21.3-.45.39-.45.09-.45.6-.12,2.37-.15,2.88a4.49,4.49,0,0,1-.06.66h2c.09,0,.12-.09.21-.24.39-.66,1.35-2.1,1.83-2.1s2.88,2,2.88,2.7c0,.21-.12.39-.63.39h-6C126.6,20.61,128.79,23.43,133.59,25.35ZM108.9,23.19a7.11,7.11,0,0,0,2.13.45c1.08,0,2.82-.15,2.82-11.13,0-.3,0-.48-.39-.48h-1.32C111.66,16.29,110.76,20.19,108.9,23.19Z"/><path class="cls-2" d="M141.89,12.9a14.31,14.31,0,0,1-4.59,2.25.06.06,0,0,1-.06-.06c0-.06.15-.21.51-.48a23,23,0,0,0,5.64-6.12c-1.29.06-2.61.12-3.69.21h0c-.54,0-1.38-1.11-1.38-1.47,3,.36,8.22.45,9.93.45h8.55a.6.6,0,0,0,.51-.24c.93-1.41,1.53-1.77,1.74-1.77,1,0,3,2,3,2.34,0,.21-.18.39-.72.39h-7.44c1.2.24,1.23.54,1.23.63s-.33.42-.87.63c-.27.09-.36.6-.36,2.46,1.74-.9,3.81-2.28,4.26-3.09.09-.15.12-.27.21-.27.36,0,2.64,2.28,2.64,2.88,0,.21-.15.3-.42.3a2,2,0,0,1-.54-.09,1.49,1.49,0,0,0-.39-.09.59.59,0,0,0-.21,0,36.35,36.35,0,0,1-5.55,1.11c0,.3,0,.6,0,.84,0,.81.27,1.14,2.91,1.14,3.06,0,4-.39,4.62-2.79.09-.42.18-.57.21-.57.18,0,.21,1.92.9,2.28a1.45,1.45,0,0,1,1,1.2c0,2.07-5.1,2.1-7.14,2.1-3.33,0-5.1-.48-5.1-2.67v-.21s.09-3.63.09-4.29a7.12,7.12,0,0,0-.15-1.53h-3.15c-.6,0-1.5,0-2.52,0,.87.3,1.38.54,1.38.84s-.36.39-.84.39c-.27,0-.51.18-1.23.9h2.43a.4.4,0,0,0,.36-.15c.75-.75.81-.75.87-.75.51,0,2.46,1.44,2.46,2,0,.21-.15.36-.48.48s-.6.12-.87.45c-4.8,5.85-12.42,6.39-12.84,6.39q-.36,0-.36-.09c0-.12.3-.27.81-.42a20.84,20.84,0,0,0,6.57-3.39,1.37,1.37,0,0,1-1.14-.66C142.34,13.92,142.22,13.26,141.89,12.9Zm7,4.23c.27.09.39.21.39.36a.67.67,0,0,1-.45.51c-.42.18-.42.06-.45.6,0,.36,0,.93,0,1.26a4.86,4.86,0,0,1,0,.66h3.6c0-.3,0-.6,0-.81a11.66,11.66,0,0,0-.27-2.55.33.33,0,0,1,0-.15s0,0,0,0a35.3,35.3,0,0,1,3.75.78c.3.09.39.21.39.36s-.18.33-.33.42c-.63.33-.69.12-.75,1.14,0,.24,0,.54,0,.84h3.21a.61.61,0,0,0,.48-.27c.06-.09,1.41-2.1,1.95-2.1a.38.38,0,0,1,.18,0c.75.27,2.88,1.86,2.88,2.7,0,.21-.12.39-.63.39h-8.07c0,1.44.12,3.24.21,4.83v0c0,.75-.81,1.26-1.71,1.26-.72,0-1.41-.36-1.41-1.17v-.06c.09-1.62.15-3.48.18-4.89h-3.69c-1.2,6.45-10.14,6.45-10.44,6.45s-.6,0-.6-.12.24-.18.75-.27c3.66-.66,6.75-2.67,7.47-6.06-1.86,0-4.92.09-7.11.3h0c-.51,0-1.41-1.14-1.41-1.5,2.58.33,6.57.42,8.67.45,0-.3,0-.6,0-.9a17.54,17.54,0,0,0-.12-2.64v-.12c0-.09,0-.15.12-.15A32.53,32.53,0,0,1,148.91,17.13Zm7-15.69c0,.21-.27.45-.93.69-.36.12-.39.51-.39,1.29v.36h2.73a.61.61,0,0,0,.48-.27c.12-.18,1.47-2.31,2.07-2.31l.21,0c1,.36,3,2.19,3,2.91,0,.18-.15.36-.66.36h-7.77c0,.33,0,.66,0,.93,0,.75-.75,1.26-1.68,1.26-.72,0-1.35-.33-1.35-1.08V5.49l.09-1h-3.48c0,.36.06.72.06,1v0c0,.78-.87,1.23-1.68,1.23s-1.35-.33-1.35-1.08c0,0,0,0,.09-1.17-2.07,0-5,.12-6.9.3h0c-.54,0-1.38-1.14-1.38-1.53,2.25.27,5.88.39,8.34.45,0-.27,0-.48,0-.72A14.68,14.68,0,0,0,145.1.54a.59.59,0,0,1,0-.21c0-.09.06-.09.27-.09.66,0,4.2.48,4.2,1.2,0,.21-.24.45-.93.69-.36.12-.36.33-.36,1.65h3.48V3.06a12,12,0,0,0-.3-2.52.76.76,0,0,1-.06-.21c0-.06.09-.09.3-.09C151.67.24,155.9.63,155.9,1.44ZM143,12.42c1.74,0,2.13.84,2.13,1.38v.12a14.46,14.46,0,0,0,2.13-2.49c0-.09-.09-.15-.24-.15h-3l-1.5,1.17Z"/></g></g></svg>